<?xml version="1.0" encoding="utf-8"?>
<!-- Generator: Adobe Illustrator 22.0.0, SVG Export Plug-In . SVG Version: 6.00 Build 0)  -->
<svg version="1.1" id="Layer_1" xmlns="http://www.w3.org/2000/svg" xmlns:xlink="http://www.w3.org/1999/xlink" x="0px" y="0px"
	 viewBox="0 0 100 100" style="enable-background:new 0 0 100 100;" xml:space="preserve">
<style type="text/css">
	.st0{fill:#2A3C90;}
	.st1{fill:none;stroke:#FFFFFF;stroke-width:1.5;stroke-linecap:round;stroke-linejoin:round;}
</style>
<path class="st0" d="M100,50c0,27.6-22.4,50-50,50S0,77.6,0,50S22.4,0,50,0C50,67,100,22.4,100,50z"/>
<path class="st1" d="M34.5,56.9c-0.4,3.1-0.6,6.1-0.7,9.2c4.2,1.7,8.2,3.9,12,6.4c3.8-2.5,7.8-4.7,12-6.4c-0.1-3.1-0.3-6.2-0.7-9.2
	 M34.5,56.9c-1.3-0.4-2.6-0.8-3.9-1.2c4.7-3.3,9.8-6.2,15.1-8.5c5.3,2.3,10.4,5.2,15.1,8.5c-1.3,0.4-2.6,0.8-3.9,1.2 M34.5,56.9
	c3.9,1.3,7.6,2.9,11.3,4.9c3.6-1.9,7.4-3.6,11.3-4.9 M38.1,63.9c0.6,0,1.1-0.5,1.1-1.1c0-0.6-0.5-1.1-1.1-1.1
	c-0.6,0-1.1,0.5-1.1,1.1C37.1,63.4,37.5,63.9,38.1,63.9z M38.1,63.9v-5.3c2.5-1.5,5-2.9,7.6-4.2 M35.6,71.2c1.6-1.6,2.6-3.9,2.6-6.2
	v-2.2"/>
</svg>
