<?xml version="1.0" encoding="utf-8"?>
<!-- Generator: Adobe Illustrator 22.0.0, SVG Export Plug-In . SVG Version: 6.00 Build 0)  -->
<svg version="1.1" id="Layer_1" xmlns="http://www.w3.org/2000/svg" xmlns:xlink="http://www.w3.org/1999/xlink" x="0px" y="0px"
	 viewBox="0 0 100 100" style="enable-background:new 0 0 100 100;" xml:space="preserve">
<style type="text/css">
	.st0{fill:#BA2283;}
	.st1{fill:none;stroke:#FFFFFF;stroke-width:1.5;stroke-linecap:round;stroke-linejoin:round;}
</style>
<path class="st0" d="M100,50c0,27.6-22.4,50-50,50S0,77.6,0,50S22.4,0,50,0C50,67,100,22.4,100,50z"/>
<g>
	<path class="st1" d="M40.6,63.3l-1,3.6l-1-3.6c-0.5-1.9-2-3.4-3.9-3.9l-3.6-1l3.6-1c1.9-0.5,3.4-2,3.9-3.9l1-3.6l1,3.6
		c0.5,1.9,2,3.4,3.9,3.9l3.6,1l-3.6,1C42.6,59.9,41.2,61.4,40.6,63.3L40.6,63.3z M51.3,54.2L51,55.5l-0.3-1.3
		c-0.4-1.5-1.6-2.7-3.1-3.1l-1.3-0.3l1.3-0.3c1.5-0.4,2.7-1.6,3.1-3.1l0.3-1.3l0.3,1.3c0.4,1.5,1.6,2.7,3.1,3.1l1.3,0.3l-1.3,0.3
		C52.8,51.5,51.7,52.7,51.3,54.2z M49.6,69.2l-0.5,1.5l-0.5-1.5c-0.3-0.8-0.9-1.5-1.8-1.8l-1.5-0.5l1.5-0.5c0.8-0.3,1.5-0.9,1.8-1.8
		l0.5-1.5l0.5,1.5c0.3,0.8,0.9,1.5,1.8,1.8l1.5,0.5l-1.5,0.5C50.5,67.7,49.8,68.3,49.6,69.2z"/>
</g>
</svg>
