<?xml version="1.0" encoding="utf-8"?>
<!-- Generator: Adobe Illustrator 22.0.0, SVG Export Plug-In . SVG Version: 6.00 Build 0)  -->
<svg version="1.1" id="Layer_1" xmlns="http://www.w3.org/2000/svg" xmlns:xlink="http://www.w3.org/1999/xlink" x="0px" y="0px"
	 viewBox="0 0 169 169" style="enable-background:new 0 0 169 169;" xml:space="preserve">
<style type="text/css">
	.st0{fill:#BA7A64;}
	.st1{fill:#273339;}
	.st2{fill:#010101;}
	.st3{fill:#5274B9;}
	.st4{opacity:0.4;fill:#010101;enable-background:new    ;}
	.st5{opacity:0.2;fill:#010101;enable-background:new    ;}
	.st6{opacity:0.2;fill:#FFFFFF;enable-background:new    ;}
	.st7{opacity:0.3;fill:#010101;enable-background:new    ;}
	.st8{opacity:0.1;fill:#010101;enable-background:new    ;}
	.st9{fill:#FFFFFF;}
	.st10{opacity:0.6;fill:#FFFFFF;enable-background:new    ;}
	.st11{fill:#F04B4A;}
	.st12{fill:#A24F40;}
	.st13{opacity:0.3;fill:#FFFFFF;enable-background:new    ;}
	.st14{opacity:0.3;}
</style>
<g id="freepik--Character--inject-275">
	<g>
		<path class="st0" d="M141.9,24.9c0,0-0.8-0.5-0.9-0.5c-0.1-0.1-0.5,0.1-0.6,0.2c-0.1,0,0.7,1,0.9,1.1c0.3,0.1,0.7-0.2,0.7-0.2
			L141.9,24.9z"/>
		<g>
			<path class="st1" d="M141.5,25.5h3.1c0.2,0,0.4,0.2,0.4,0.4l0,0c0,0.2-0.2,0.4-0.4,0.4h-3.1c-0.2,0-0.4-0.2-0.4-0.4l0,0
				C141.1,25.7,141.3,25.5,141.5,25.5z"/>
			<path class="st2" d="M141.3,24.6L141.3,24.6c-0.2-0.1-0.2,0-0.2,0c0,0.1-0.1,0.3-0.1,0.4l0.3,0.3c0-0.2,0-0.4,0.1-0.6
				C141.3,24.7,141.3,24.7,141.3,24.6L141.3,24.6z"/>
			<path class="st1" d="M139.3,24.5c0,0-0.2,0.1-0.1,0.4c0.1,0.3,0.8,1.5,1.2,1.7s1,0.1,1.2,0c0.2-0.2,0.3-0.4,0.2-0.5
				c0-0.1-0.3-0.7-0.4-0.8c0-0.1-0.4-0.1-0.4-0.1s-0.5-0.7-0.6-0.7C140.2,24.4,139.4,24.4,139.3,24.5L139.3,24.5z"/>
			<path class="st2" d="M139.2,24.8c0.3,0,0.5,0,0.8,0c0.1,0,0.3,0,0.3,0.1c0.1,0.1,0.2,0.2,0.2,0.3c0.3,0.4,0.6,0.9,0.8,1.3
				c0,0,0.1,0,0,0c-0.3-0.5-0.6-1-0.9-1.4c-0.1-0.1-0.1-0.2-0.2-0.3c-0.1-0.1-0.2-0.1-0.3-0.1S139.5,24.7,139.2,24.8
				C139.2,24.7,139.2,24.8,139.2,24.8L139.2,24.8L139.2,24.8z"/>
		</g>
		<g>
			<path class="st3" d="M152.7,23.8c0,0,0.4,0.2,0.5,0.4c0.1,0.2-0.1,1.8-0.2,2c-0.1,0.2-0.6,0.3-0.6,0.3L152.7,23.8L152.7,23.8z"/>
			<path class="st4" d="M152.7,23.8c0,0,0.4,0.2,0.5,0.4c0.1,0.2-0.1,1.8-0.2,2c-0.1,0.2-0.6,0.3-0.6,0.3L152.7,23.8L152.7,23.8z"/>
			<path class="st3" d="M151,20.6c0,0,1.2,0,1.5,0.9s0.4,4.5-0.2,5.1c-0.6,0.6-1.3,0.6-1.3,0.6V20.6L151,20.6z"/>
			<path class="st5" d="M151,20.6c0,0,1.2,0,1.5,0.9s0.4,4.5-0.2,5.1c-0.6,0.6-1.3,0.6-1.3,0.6V20.6L151,20.6z"/>
			<path class="st2" d="M151.7,20.8c0,0.9,0,1.9,0.1,2.8c0,0.2,0,0.5,0,0.7l0,0c0-0.9,0-1.9-0.1-2.8C151.7,21.2,151.7,21,151.7,20.8
				C151.7,20.7,151.7,20.7,151.7,20.8L151.7,20.8z"/>
			<path class="st2" d="M152.7,25h0.4l0,0H152.7C152.6,25,152.6,25,152.7,25L152.7,25z"/>
			<path class="st2" d="M151.7,24.3h0.2l0,0l0,0H151.7C151.6,24.2,151.6,24.3,151.7,24.3C151.6,24.3,151.6,24.3,151.7,24.3
				L151.7,24.3z"/>
		</g>
		<path class="st1" d="M146,18.8h3.8c0.7,0,1.3,0.6,1.3,1.3v8.5c0,0.7-0.6,1.3-1.3,1.3H146c-0.7,0-1.3-0.6-1.3-1.3v-8.5
			C144.7,19.4,145.3,18.8,146,18.8z"/>
		<path class="st6" d="M146,18.8h3.8c0.7,0,1.3,0.6,1.3,1.3v8.5c0,0.7-0.6,1.3-1.3,1.3H146c-0.7,0-1.3-0.6-1.3-1.3v-8.5
			C144.7,19.4,145.3,18.8,146,18.8z"/>
		<g>
			<rect x="147.4" y="16.4" class="st1" width="0.7" height="2.6"/>
			<rect x="147.4" y="16.4" class="st6" width="0.7" height="2.6"/>
		</g>
		<g>
			<g>
				<path class="st1" d="M142.2,34.3c0,1.3-0.3,2.5-1,2.8c-0.2,0.1-0.5,0.1-0.7,0.1c-0.9,0-1.6-1.2-1.6-2.9c0-1.4,0.5-2.5,1.2-2.8
					c0.1-0.1,0.6,0,0.7,0C141.7,31.4,142.2,32.6,142.2,34.3L142.2,34.3z"/>
				<ellipse class="st3" cx="141.2" cy="34.3" rx="0.5" ry="1.7"/>
				<path class="st7" d="M140.8,31.4c-0.1,0-0.6,0-0.7,0c-0.7,0.3-1.2,1.4-1.2,2.8c0,1.7,0.7,2.9,1.6,2.9c0.2,0,0.4,0,0.5,0l0,0
					c-0.6-0.5-1-1.6-1-2.9c0-1.2,0.4-2.2,0.9-2.8C140.9,31.4,140.8,31.4,140.8,31.4L140.8,31.4z"/>
			</g>
			<path class="st7" d="M142.2,34.3c0,1.3-0.3,2.5-1,2.8c-0.2,0.1-0.5,0.1-0.7,0.1c-0.9,0-1.6-1.2-1.6-2.9c0-1.4,0.5-2.5,1.2-2.8
				c0.1-0.1,0.6,0,0.7,0C141.7,31.4,142.2,32.6,142.2,34.3L142.2,34.3z"/>
		</g>
		<rect x="141.1" y="32.1" class="st1" width="10.1" height="3.4"/>
		<rect x="142.4" y="30.4" class="st1" width="8.3" height="2.3"/>
		<path class="st3" d="M149.6,18.8c0,0-0.2,0.5,0,1.3c0.4,1.8,1.7,2.4,1.7,2.4v0.8c0,0-2-1.4-2.2-2.5s-0.2-2-0.2-2H149.6L149.6,18.8
			z"/>
		<path class="st5" d="M149.6,18.8c0,0-0.2,0.5,0,1.3c0.4,1.8,1.7,2.4,1.7,2.4v0.8c0,0-2-1.4-2.2-2.5s-0.2-2-0.2-2H149.6L149.6,18.8
			z"/>
		<path class="st3" d="M146,18.8c0,0,0.2,0.5,0,1.3c-0.3,1.8-1.4,2.4-1.4,2.4v0.8c0,0,1.7-1.4,1.9-2.5c0.2-1.1,0.2-2,0.2-2H146z"/>
		<path class="st5" d="M146,18.8c0,0,0.2,0.5,0,1.3c-0.3,1.8-1.4,2.4-1.4,2.4v0.8c0,0,1.7-1.4,1.9-2.5c0.2-1.1,0.2-2,0.2-2H146z"/>
		<path class="st1" d="M150.5,18.4c-1.8-0.4-3.8-0.4-5.8,0c-0.4,0-0.7-0.3-0.7-0.7V17c0-0.4,0.3-0.7,0.7-0.7c1.9-0.3,3.8-0.3,5.8,0
			c0.5,0.1,0.7,0.4,0.7,0.9v0.5C151.2,18.3,150.9,18.4,150.5,18.4L150.5,18.4z"/>
		<path class="st6" d="M150.5,18.4c-1.8-0.4-3.8-0.4-5.8,0c-0.4,0-0.7-0.3-0.7-0.7V17c0-0.4,0.3-0.7,0.7-0.7c1.9-0.3,3.8-0.3,5.8,0
			c0.5,0.1,0.7,0.4,0.7,0.9v0.5C151.2,18.3,150.9,18.4,150.5,18.4L150.5,18.4z"/>
		<rect x="141.5" y="26.2" class="st1" width="0.4" height="6.3"/>
		<path class="st1" d="M141.1,28.6h9.5c0.1,0,0.3,0.1,0.3,0.3v1.4c0,0.1-0.1,0.3-0.3,0.3h-9.5c-0.1,0-0.3-0.1-0.3-0.3v-1.4
			C140.9,28.7,141,28.6,141.1,28.6z"/>
		<path class="st6" d="M141.1,28.6h9.5c0.1,0,0.2,0.1,0.2,0.2v1.4c0,0.1-0.1,0.2-0.2,0.2h-9.5c-0.1,0-0.2-0.1-0.2-0.2v-1.4
			C140.9,28.7,141,28.6,141.1,28.6z"/>
		<path class="st1" d="M140.1,28.9c0.2-0.2,0.4-0.3,0.6-0.5c0.3-0.2,0.6-0.5,0.9-0.7c0.1-0.1,0.1-0.1,0.2-0.2c0.1-0.1,0.1-0.2,0-0.3
			c-0.1-0.1-0.2-0.1-0.3,0c-0.2,0.2-0.4,0.3-0.6,0.5c-0.3,0.2-0.6,0.5-0.9,0.7c-0.1,0.1-0.1,0.1-0.2,0.2c-0.1,0.1-0.1,0.2,0,0.3
			C139.9,29,140,29,140.1,28.9L140.1,28.9L140.1,28.9z"/>
		<path class="st2" d="M141.4,30.6h9.1l0,0H141.4C141.4,30.5,141.4,30.6,141.4,30.6L141.4,30.6z"/>
		<path class="st2" d="M141.1,32.1h10.1l0,0H141.1L141.1,32.1L141.1,32.1z"/>
		<rect x="142.4" y="30.6" class="st8" width="8.1" height="0.4"/>
		<rect x="141.5" y="30.6" class="st7" width="0.4" height="0.3"/>
		<path class="st2" d="M141.3,28.6h9.3l0,0H141.3C141.2,28.6,141.2,28.6,141.3,28.6L141.3,28.6z"/>
		<path class="st2" d="M150.6,28.6v3.5l0,0V28.6L150.6,28.6L150.6,28.6z"/>
		<rect x="141.5" y="26.3" class="st7" width="0.4" height="0.3"/>
		<g>
			<path class="st1" d="M153.7,34.5c0,1.3-0.3,2.5-1,2.8c-0.2,0.1-0.5,0.1-0.7,0.1c-0.9,0-1.6-1.2-1.6-2.9c0-1.4,0.5-2.5,1.2-2.8
				c0.1-0.1,0.6,0,0.7,0C153.2,31.7,153.7,32.9,153.7,34.5z"/>
			<ellipse class="st3" cx="152.6" cy="34.5" rx="0.5" ry="1.7"/>
			<path class="st7" d="M152.2,31.7c-0.1,0-0.6,0-0.7,0c-0.7,0.3-1.2,1.4-1.2,2.8c0,1.7,0.7,2.9,1.6,2.9c0.2,0,0.4,0,0.5,0l0,0
				c-0.6-0.5-1-1.6-1-2.9c0-1.2,0.4-2.2,0.9-2.8C152.3,31.7,152.3,31.7,152.2,31.7L152.2,31.7z"/>
		</g>
		<path class="st7" d="M147.4,18.1c0,0,0.5,0,0.7,0v0.3h-0.7V18.1z"/>
		<path class="st7" d="M147.4,16.1c0,0,0.6,0,0.7,0v-0.2h-0.7V16.1z"/>
		<g>
			<path class="st9" d="M140.8,33.6L141,33l0.9,0.2l-0.2,0.6c0,0-0.1,0.1-0.4,0C141,33.8,140.8,33.6,140.8,33.6z"/>
			<g>
				<g>
					<path class="st3" d="M140.8,33.4c0.2,0,0.2,0.1,0.2,0.2c0.1,0,0.1,0.1,0.2,0.1c0.1,0.3,0.3,0.2,0.5,0c0.1,0,0.1,0.2,0.1,0.2
						l0.1,0.9c0,0.1,0,0.1-0.1,0.1l0,0c-0.4-0.1-0.6-0.1-1-0.2l-1.4-0.3c-0.4-0.1-0.4-0.5-0.2-0.5c0.7,0,1.3-0.1,1.6-0.2
						C140.7,33.6,140.7,33.5,140.8,33.4L140.8,33.4z"/>
					<path class="st9" d="M139.3,34.2c0.2,0.1,0.7,0,1,0.1s0.3,0.2,0.9,0.4c0.6,0.2,0.7,0,0.7,0l0,0v0.1c0,0.1,0,0.1-0.1,0.1l0,0
						c-0.4-0.1-0.6-0.1-1-0.2l-1.4-0.3c-0.2,0-0.3-0.2-0.3-0.3C139,34.1,139.1,34.1,139.3,34.2L139.3,34.2z"/>
					<path class="st9" d="M141.4,34.4c-0.2,0-0.4-0.1-0.5-0.3c0,0-0.1,0,0,0C141,34.3,141.2,34.4,141.4,34.4L141.4,34.4L141.4,34.4z
						"/>
				</g>
				<path class="st2" d="M140.5,33.9c0-0.1-0.1-0.1-0.1-0.2l0,0l0,0C140.4,33.8,140.4,33.9,140.5,33.9L140.5,33.9L140.5,33.9
					L140.5,33.9z"/>
				<path class="st2" d="M140.3,33.9c0-0.1-0.1-0.1-0.1-0.2l0,0l0,0C140.2,33.9,140.2,33.9,140.3,33.9C140.3,34,140.3,34,140.3,33.9
					L140.3,33.9z"/>
				<path class="st2" d="M140.1,34c0-0.1-0.1-0.1-0.1-0.2l0,0l0,0C140,33.9,140,34,140.1,34L140.1,34L140.1,34L140.1,34z"/>
			</g>
			<path class="st9" d="M145.4,33.6v-0.7h0.9l0.1,0.9l-0.6,0.1L145.4,33.6L145.4,33.6z"/>
			<g>
				<g>
					<path class="st3" d="M145.3,33.4c0.2,0,0.2,0,0.3,0.1c0.1,0,0.1,0,0.2,0.1c0.2,0.2,0.3,0.1,0.5-0.1c0.1,0,0.2,0.1,0.2,0.2
						l0.3,0.8c0,0.1,0,0.1-0.1,0.2l0,0c-0.4,0-0.6,0-1,0h-1.5c-0.4,0-0.5-0.4-0.3-0.4c0.7-0.2,1.2-0.4,1.5-0.6
						C145.3,33.7,145.3,33.5,145.3,33.4z"/>
					<path class="st9" d="M144.1,34.6c0.3,0.1,0.6-0.2,1-0.2c0.3,0,0.3,0.1,0.9,0.2c0.6,0,0.7-0.2,0.7-0.2l0,0v0.1
						c0,0.1,0,0.1-0.1,0.2l0,0c-0.4,0-0.6,0-1,0L144.1,34.6c-0.2,0.1-0.3,0-0.4-0.1C143.8,34.5,143.9,34.6,144.1,34.6z"/>
					<path class="st9" d="M146.2,34.3c-0.2,0-0.4,0-0.6-0.1l0,0C145.8,34.3,146,34.3,146.2,34.3C146.2,34.3,146.2,34.2,146.2,34.3
						L146.2,34.3z"/>
				</g>
				<path class="st2" d="M145.2,34l-0.1-0.1l0,0l0,0C145.1,33.9,145.1,34,145.2,34L145.2,34L145.2,34L145.2,34z"/>
				<path class="st2" d="M145,34.1l-0.1-0.1l0,0l0,0C144.9,34,144.9,34.1,145,34.1L145,34.1L145,34.1L145,34.1L145,34.1z"/>
				<path class="st2" d="M144.8,34.2L144.8,34.2L144.8,34.2L144.8,34.2C144.7,34.1,144.7,34.2,144.8,34.2L144.8,34.2L144.8,34.2
					L144.8,34.2z"/>
			</g>
			<g>
				<path class="st3" d="M145.3,26.2c-0.1,0-2.7,0.1-3.3,0.8c-0.7,0.8-1.4,6.2-1.4,6.2l1.4,0.4c0,0,1.1-4.2,1.3-4.6
					c0.2-0.4,2.2-0.6,2.7-0.9c0.6-0.3,1.1-2,1.1-2L145.3,26.2L145.3,26.2z"/>
				<path class="st7" d="M145.3,26.2c-0.1,0-2.7,0.1-3.3,0.8c-0.7,0.8-1.4,6.2-1.4,6.2l1.4,0.4c0,0,1.1-4.2,1.3-4.6
					c0.2-0.4,2.2-0.6,2.7-0.9c0.6-0.3,1.1-2,1.1-2L145.3,26.2L145.3,26.2z"/>
				<path class="st5" d="M144.6,28.6l2.6-2.4c0,0-2.3,0.4-2.6,0.9c-0.4,0.6-0.4,1.6-0.4,1.6L144.6,28.6L144.6,28.6z"/>
				<path class="st3" d="M148.4,25.9c-0.1,0-3.4,0.5-3.7,1.9c-0.3,1.4,0.3,5.7,0.3,5.7l1.7-0.1c0,0-0.2-4.2-0.1-4.5
					c0.1-0.3,1.9-0.5,2.8-1c0.9-0.6,0.2-1.7,0.2-1.7L148.4,25.9L148.4,25.9z"/>
				<path class="st7" d="M148.4,25.9c-0.1,0-3.4,0.5-3.7,1.9c-0.3,1.4,0.3,5.7,0.3,5.7l1.7-0.1c0,0-0.2-4.2-0.1-4.5
					c0.1-0.3,1.9-0.5,2.8-1c0.9-0.6,0.2-1.7,0.2-1.7L148.4,25.9L148.4,25.9z"/>
			</g>
			<path class="st2" d="M146.6,28.9c0-0.2,0-0.5,0-0.7l0,0C146.5,28.4,146.5,28.6,146.6,28.9C146.5,28.9,146.6,28.9,146.6,28.9
				L146.6,28.9z"/>
		</g>
		<g>
			<path class="st0" d="M144.8,21.6c0,0-0.3,1.7-0.8,2c-0.4,0.3-2.2,1.2-2.2,1.2l0.1,0.6c0,0,2.1-0.4,2.8-0.7c0.7-0.4,1-2.8,1-2.8
				L144.8,21.6L144.8,21.6z"/>
			<polygon class="st5" points="144.7,22.3 144.6,22.5 145.3,22.8 145.5,23.3 145.5,22.5 			"/>
		</g>
		<g>
			<path class="st3" d="M148.3,19.5c0.1,0,0.7,0,0.9,0.1c0.3,0.2,0.5,1,0.4,1.4c-0.2,2.3,0,4.4,0.1,5.3l-4.3-0.1
				c0.2-0.9,0.2-2.9,0.2-3.7c0-2.1,0.4-2.6,0.4-2.6S148.1,19.5,148.3,19.5L148.3,19.5z"/>
			<path class="st10" d="M148.3,19.5c0.1,0,0.7,0,0.9,0.1c0.3,0.2,0.5,1,0.4,1.4c-0.2,2.3,0,4.4,0.1,5.3l-4.3-0.1
				c0.2-0.9,0.2-2.9,0.2-3.7c0-2.1,0.4-2.6,0.4-2.6S148.1,19.5,148.3,19.5L148.3,19.5z"/>
			<path class="st3" d="M145.9,19.9c0,0-0.4,0.1-0.6,0.4c-0.3,0.4-0.6,1.5-0.8,1.9c0,0,1.3,0.4,1.4,0.3
				C145.8,22.5,145.9,19.9,145.9,19.9L145.9,19.9z"/>
			<path class="st10" d="M145.9,19.9c0,0-0.4,0.1-0.6,0.4c-0.3,0.4-0.6,1.5-0.8,1.9c0,0,1.3,0.4,1.4,0.3
				C145.8,22.5,145.9,19.9,145.9,19.9L145.9,19.9z"/>
			<path class="st5" d="M145.5,22.5v-1.3l-0.4,1.2L145.5,22.5L145.5,22.5z"/>
			<path class="st3" d="M148.3,19.9c0,0,0.5-0.7,1.2-0.1c0.7,0.6,1.2,1.9,1.2,1.9l-1.7,0.7C149,22.4,148.1,20.3,148.3,19.9
				L148.3,19.9z"/>
			<path class="st10" d="M148.3,19.9c0,0,0.5-0.7,1.2-0.1c0.7,0.6,1.2,1.9,1.2,1.9l-1.7,0.7C149,22.4,148.1,20.3,148.3,19.9
				L148.3,19.9z"/>
			<polyline class="st3" points="149,22.4 148.9,22.2 150.6,21.4 150.7,21.7 149,22.4 			"/>
			<path class="st3" d="M147.8,21.2c0.1,0,0.3,0,0.3,0.2c0,0.1,0,0.3-0.2,0.3c-0.1,0-0.3,0-0.3-0.2
				C147.6,21.3,147.7,21.2,147.8,21.2z"/>
			<polygon class="st3" points="144.5,22.2 144.5,22.1 145.5,22.3 145.5,22.5 			"/>
		</g>
		<path class="st1" d="M143.6,26L143.6,26L143.6,26z"/>
		<g>
			<path class="st1" d="M140.5,28.7c0.1,0.6,0.2,0.9,0.2,1.6c0,0.1,0,0.2-0.1,0.3c-0.1,0.1-0.2,0.2-0.3,0.2c-0.1,0-0.3,0-0.4,0
				c-0.2,0-0.4,0-0.5-0.2c-0.1-0.1-0.1-0.2-0.1-0.3c-0.1-0.4-0.1-0.9-0.2-1.3c0-0.1,0-0.3,0-0.4c0.1-0.2,0.4-0.2,0.6-0.2
				C139.7,28.5,140.4,28.4,140.5,28.7z"/>
			<path class="st7" d="M139.9,29.1l0.1,1.8c0,0-0.5,0.1-0.5-0.3S139.9,29.1,139.9,29.1z"/>
			<path class="st1" d="M139.4,29.1c-0.2,1-0.4,2-0.6,3c-0.1,0.3-0.1,0.6-0.2,0.9c0,0.1,0,0.2,0.1,0.3c0.1,0,0.2,0,0.3-0.1
				c0.2-1,0.4-2,0.6-3c0.1-0.3,0.1-0.6,0.2-0.9c0-0.1,0-0.2-0.1-0.3C139.6,29,139.4,29,139.4,29.1L139.4,29.1z"/>
			<path class="st7" d="M138.7,32.9v-0.2c0,0,0.2-0.1,0.4,0.1V33L138.7,32.9L138.7,32.9z"/>
			<path class="st1" d="M138.3,34.3l0.3-1.4c0,0,0.4-0.2,0.6,0.1l-0.2,1.2h-0.7V34.3z"/>
			<path class="st2" d="M139.5,30.9c0.1-0.5,0.2-1.1,0.3-1.6c0,0,0-0.1,0-0.2l-0.1-0.1c-0.1,0-0.1,0-0.2,0c-0.1,0-0.1,0.1-0.1,0.2
				c0,0.1,0,0.1,0,0.2c-0.2,0.9-0.4,1.8-0.6,2.7c-0.1,0.3-0.1,0.6-0.2,0.8l0,0c0.1-0.7,0.3-1.3,0.4-2c0.1-0.4,0.2-0.9,0.3-1.3
				c0-0.1,0.1-0.3,0.1-0.4c0,0,0,0,0-0.1s0.1-0.1,0.2-0.1h0.1h0.1c0,0,0,0,0,0.1C139.7,29.8,139.6,30.3,139.5,30.9L139.5,30.9
				L139.5,30.9L139.5,30.9z"/>
			<g>
				<path class="st1" d="M138.2,34.3c-0.1,0-0.2,0.1-0.1,0.2c0.2,0.2,0.6,0.8,0.7,0.8c0.1,0.1,3.2,0.1,3.2,0.1s-0.6-1-0.8-1
					C141.1,34.3,139,34.2,138.2,34.3L138.2,34.3z"/>
				<path class="st2" d="M138.2,34.3c0.6,0,1.3,0,1.9,0c0.3,0,0.6,0,0.9,0h0.1c0.1,0,0.1,0,0.2,0.1c0.1,0.1,0.1,0.2,0.2,0.3
					c0.1,0.2,0.3,0.4,0.4,0.6c0,0,0.1,0,0,0c-0.1-0.2-0.3-0.4-0.4-0.5c-0.1-0.1-0.1-0.2-0.2-0.3c-0.1-0.1-0.1-0.2-0.3-0.2
					c-0.1,0-0.2,0-0.4,0s-0.3,0-0.5,0c-0.4,0-0.8,0-1.1,0C138.9,34.3,138.5,34.3,138.2,34.3L138.2,34.3L138.2,34.3z"/>
				<path class="st7" d="M141.7,35.3c-0.2-0.3-0.5-0.7-0.7-0.8c-0.1,0-2.1-0.1-2.9-0.1c0.2,0.3,0.6,0.7,0.6,0.8
					C138.9,35.3,141,35.4,141.7,35.3L141.7,35.3z"/>
			</g>
		</g>
		<g>
			<path class="st1" d="M148.7,15.8c-0.1,0-0.3,0.1-0.4,0.2c0,0,0,0.1,0,0C148.5,16,148.6,15.9,148.7,15.8
				C148.7,15.9,148.7,15.8,148.7,15.8L148.7,15.8z"/>
			<path class="st1" d="M148.4,16.1c0-0.2,0-0.3,0.1-0.5c0,0,0-0.1,0,0C148.3,15.8,148.3,15.9,148.4,16.1
				C148.3,16.1,148.4,16.1,148.4,16.1L148.4,16.1z"/>
			<g>
				<path class="st0" d="M146.6,19.8c0.3,0,0.3-0.5,0.3-0.9c0-0.1,0-0.2-0.1-0.3l0.6-0.5l0.5-0.4c0,0.2-0.1,0.4-0.1,0.6
					c0,0.3,0,0.6,0,1c0,0.1,0.1,0.2,0.1,0.3c0,0-0.6,0.5-1,0.5C146.7,20,146.6,19.8,146.6,19.8L146.6,19.8z"/>
			</g>
			<g>
				<path class="st1" d="M146.8,16.2c0.3,0.3,0.1,0.6-0.8,1.1c-0.2-0.4-0.2-1.2,0.1-1.4C146.4,15.8,146.6,16,146.8,16.2z"/>
				<path class="st0" d="M148.3,16.6c-0.2-0.6-0.8-0.9-1.4-0.8c-0.8,0.2-1,1.4-0.9,2.2c0.1,0.8,1.1,1.3,1.7,0.8
					c0.4-0.4,0.5-0.9,0.6-1.7C148.3,16.9,148.3,16.8,148.3,16.6L148.3,16.6z"/>
				<g>
					<path class="st1" d="M147.1,17.3c0,0.1-0.1,0.1-0.1,0.1c-0.1,0-0.1-0.1-0.1-0.2s0.1-0.1,0.1-0.1
						C147.1,17.2,147.1,17.2,147.1,17.3z"/>
					<path class="st1" d="M146.3,17.2c0,0.1-0.1,0.1-0.1,0.1c-0.1,0-0.1-0.1-0.1-0.2s0.1-0.1,0.1-0.1
						C146.3,17,146.4,17.1,146.3,17.2z"/>
					<path class="st1" d="M146.1,16.7C146.1,16.7,146.2,16.7,146.1,16.7c0.1,0,0.2,0,0.3,0c0,0,0,0,0.1,0c0,0,0,0,0-0.1l0,0
						C146.4,16.6,146.3,16.6,146.1,16.7C146.1,16.6,146.1,16.6,146.1,16.7L146.1,16.7L146.1,16.7z"/>
					<path class="st1" d="M147.3,16.9L147.3,16.9L147.3,16.9L147.3,16.9c0-0.2-0.2-0.2-0.3-0.2l0,0l0,0l0,0l0,0
						C147.1,16.8,147.2,16.8,147.3,16.9L147.3,16.9L147.3,16.9z"/>
				</g>
				<g>
					<path class="st1" d="M148,16.1c-0.4,0.1,0,1.5-0.1,2.4c0.9-0.4,0.9-1.8,0.8-2.1C148.6,15.9,148.4,16,148,16.1L148,16.1z"/>
					<path class="st0" d="M148.6,17.8c-0.1,0.2-0.2,0.3-0.4,0.4s-0.4-0.1-0.3-0.4c0-0.2,0.2-0.5,0.5-0.5
						C148.6,17.3,148.7,17.6,148.6,17.8z"/>
					<path class="st8" d="M148,17.9L148,17.9L148,17.9c0-0.2,0.1-0.3,0.2-0.4c0.1,0,0.2-0.1,0.2,0l0,0l0,0c0,0-0.1,0-0.2,0
						C148.2,17.6,148.1,17.7,148,17.9C148.1,17.9,148.1,17.9,148,17.9z"/>
				</g>
				<g>
					<path class="st1" d="M146.7,18c0.2,0,0.3-0.1,0.5-0.2v0.1c0,0.1,0,0.1,0,0.2s-0.2,0.2-0.4,0.2c0,0,0,0-0.1,0
						C146.6,18.2,146.6,18.1,146.7,18C146.6,18,146.6,18,146.7,18L146.7,18z"/>
					<path class="st9" d="M147.2,17.8C147.2,17.8,147.2,17.9,147.2,17.8c-0.1,0.2-0.2,0.2-0.5,0.2v-0.1
						C146.8,18,147,17.9,147.2,17.8L147.2,17.8z"/>
					<path class="st11" d="M146.9,18.1c0.1,0,0.2-0.1,0.3-0.1c0,0.1-0.2,0.2-0.4,0.2C146.8,18.2,146.8,18.2,146.9,18.1z"/>
				</g>
				<path class="st12" d="M146.6,17.1c-0.1,0.2-0.3,0.4-0.5,0.5c0.1,0.1,0.2,0.1,0.3,0.1L146.6,17.1z"/>
				<path class="st1" d="M148.5,16.6c0,0,0.2-0.3-0.2-0.8c-0.4-0.5-0.8-0.6-1.6-0.5c-0.7,0.1-1.1,0.9-0.8,1l0.2-0.2
					c0.2,0.1,0.2,0.2,0.3,0.2s0.2,0,0.3,0l0.1-0.1C146.9,16.3,148.1,16.6,148.5,16.6z"/>
			</g>
			<polygon class="st6" points="146.4,16.8 145.9,17.2 145.9,17.4 146.5,16.9 			"/>
			<polygon class="st6" points="147.3,17.1 146.8,17.6 146.8,17.7 147.3,17.3 			"/>
			<g>
				<path class="st1" d="M147.3,17.3l0.6,0.1h0.1l0,0L147.3,17.3L147.3,17.3L147.3,17.3L147.3,17.3z"/>
				<path class="st1" d="M147,17.7C147,17.7,146.9,17.7,147,17.7c-0.2,0-0.3-0.3-0.3-0.5c0-0.1,0.1-0.2,0.2-0.3
					c0.1,0,0.1-0.1,0.2-0.1c0.2,0,0.3,0.2,0.3,0.5c0,0.1-0.1,0.2-0.2,0.3C147.1,17.7,147,17.7,147,17.7z M147,16.9h-0.1
					c-0.1,0.1-0.1,0.2-0.2,0.3c0,0.2,0.1,0.4,0.2,0.4c0.1,0,0.1,0,0.2,0c0.1-0.1,0.1-0.2,0.2-0.3l0,0
					C147.3,17.1,147.2,16.9,147,16.9C147.1,16.9,147,16.9,147,16.9z"/>
				<path class="st1" d="M146.2,17.6C146.1,17.6,146.1,17.6,146.2,17.6c-0.2,0-0.3-0.3-0.3-0.5c0-0.1,0.1-0.2,0.2-0.3
					c0.1,0,0.1-0.1,0.2-0.1c0.2,0,0.3,0.2,0.3,0.5l0,0c0,0.1-0.1,0.2-0.2,0.3C146.3,17.6,146.2,17.6,146.2,17.6z M146.2,16.8h-0.1
					c-0.1,0.1-0.1,0.2-0.2,0.3c0,0.2,0.1,0.4,0.2,0.4c0.1,0,0.1,0,0.2,0c0.1-0.1,0.1-0.2,0.2-0.3l0,0
					C146.5,17,146.4,16.8,146.2,16.8L146.2,16.8z"/>
				<path class="st1" d="M146.5,17.2C146.5,17.2,146.6,17.2,146.5,17.2c0.1,0,0.1,0,0.2,0.1l0,0l0,0
					C146.7,17.3,146.7,17.2,146.5,17.2C146.6,17.1,146.5,17.1,146.5,17.2L146.5,17.2L146.5,17.2z"/>
			</g>
		</g>
		<g>
			<rect x="150.6" y="25.9" class="st1" width="0.6" height="6.2"/>
			<path class="st1" d="M149.4,25.1h2.7c0.2,0,0.4,0.2,0.4,0.4l0,0c0,0.2-0.2,0.4-0.4,0.4h-2.7c-0.2,0-0.4-0.2-0.4-0.4l0,0
				C149,25.3,149.2,25.1,149.4,25.1z"/>
			<rect x="150.6" y="25.9" class="st7" width="0.6" height="0.2"/>
			<path class="st1" d="M150.6,26.7c-0.2,0.1-0.3,0.3-0.5,0.4c-0.3,0.3-0.7,0.6-1,0.9c-0.3,0.3-0.6,0.6-1,0.9
				c-0.1,0.1-0.2,0.2-0.2,0.3s0,0.1,0,0.2c0,0.2-0.1,0.5-0.1,0.7c-0.1,0.4-0.1,0.8-0.2,1.1c-0.1,0.4-0.1,0.9-0.2,1.3
				c-0.1,0.4-0.1,0.8-0.2,1.2c0,0.3-0.1,0.7-0.1,1c0,0.2,0,0.3-0.1,0.5l0,0c0,0.1,0,0.2,0.1,0.3c0.1,0,0.2,0,0.3-0.1
				c0-0.2,0.1-0.4,0.1-0.6c0.1-0.5,0.1-1,0.2-1.5c0.1-0.6,0.2-1.2,0.3-1.8c0.1-0.5,0.1-1,0.2-1.5c0-0.2,0-0.3,0.1-0.5
				c0-0.1,0-0.2,0-0.2l0,0c0,0,0,0.1-0.1,0.1c0.4-0.3,0.8-0.7,1.1-1c0.4-0.4,0.8-0.8,1.3-1.2c0.1-0.1,0.2-0.2,0.3-0.2
				c0.1-0.1,0.1-0.2,0-0.3C150.8,26.6,150.7,26.6,150.6,26.7L150.6,26.7L150.6,26.7z"/>
			<path class="st4" d="M147.9,29.2c0,0.2-0.1,0.4-0.1,0.6c-0.1,0.5-0.2,1-0.2,1.4c-0.1,0.6-0.2,1.2-0.3,1.7c-0.1,0.5-0.2,1-0.2,1.5
				c0,0.2-0.1,0.5-0.1,0.7l0,0c0,0.1,0,0.2,0.1,0.3c0.1,0,0.2,0,0.3-0.1c0-0.2,0.1-0.4,0.1-0.6c0.1-0.5,0.2-1,0.2-1.4
				c0.1-0.6,0.2-1.2,0.3-1.7c0.1-0.5,0.2-1,0.2-1.5c0-0.2,0.1-0.5,0.1-0.7l0,0c0-0.1,0-0.2-0.1-0.3C148,29,147.9,29.1,147.9,29.2
				L147.9,29.2L147.9,29.2z"/>
			<g>
				<g>
					<path class="st1" d="M143.7,34.5c-0.1,0-0.2,0.1-0.1,0.2c0.2,0.2,0.6,0.8,0.7,0.8c0.1,0.1,3.2,0.1,3.2,0.1s-0.6-1-0.8-1
						C146.5,34.5,144.4,34.5,143.7,34.5L143.7,34.5z"/>
					<path class="st2" d="M143.6,34.5c0.6,0,1.3,0,1.9,0c0.3,0,0.6,0,0.9,0h0.1c0.1,0,0.1,0,0.2,0.1c0.1,0.1,0.1,0.2,0.2,0.3
						c0.1,0.2,0.3,0.4,0.4,0.6c0,0,0.1,0,0,0c-0.1-0.2-0.3-0.4-0.4-0.5c-0.1-0.1-0.1-0.2-0.2-0.3c-0.1-0.1-0.1-0.2-0.3-0.2
						c-0.1,0-0.2,0-0.4,0c-0.2,0-0.3,0-0.5,0c-0.4,0-0.8,0-1.1,0C144.3,34.5,144,34.5,143.6,34.5L143.6,34.5L143.6,34.5L143.6,34.5z
						"/>
					<path class="st7" d="M147.2,35.6c-0.2-0.3-0.5-0.7-0.7-0.8c-0.1,0-2.1-0.1-2.9-0.1c0.2,0.3,0.6,0.7,0.6,0.8
						C144.3,35.5,146.5,35.6,147.2,35.6z"/>
				</g>
				<path class="st7" d="M143.7,34.5c-0.1,0-0.2,0.1-0.1,0.2c0.2,0.2,0.6,0.8,0.7,0.8c0.1,0.1,3.2,0.1,3.2,0.1s-0.6-1-0.8-1
					C146.5,34.5,144.4,34.5,143.7,34.5L143.7,34.5z"/>
			</g>
		</g>
		<g>
			<path class="st0" d="M141.6,24.9c0,0-0.6-0.2-0.6-0.3s-0.1,0-0.1,0v0.1c0.1,0.1,0.2,0.2,0.2,0.2c0.1,0.1,0.2,0.1,0.3,0.2
				c0.1,0.1,0.1,0.1,0.2,0.2c0.1,0.1,0.3,0,0.4,0"/>
			<path class="st12" d="M141.6,24.9c-0.1,0-0.2-0.1-0.3-0.1c-0.1,0-0.2-0.1-0.3-0.1h-0.1c-0.1,0.1,0,0.2,0,0.2
				c0.1,0.2,0.4,0.2,0.5,0.4c0.1,0.1,0.1,0.2,0.3,0.2c0.1,0,0.2,0,0.3-0.1l0,0c-0.1,0.1-0.2,0.1-0.3,0.1s-0.2-0.1-0.2-0.2
				c-0.1-0.1-0.3-0.2-0.5-0.3l-0.1-0.1v-0.1l0.1-0.1c0,0,0,0,0.1,0c0.1,0,0.2,0.1,0.3,0.1C141.4,24.8,141.5,24.8,141.6,24.9
				L141.6,24.9L141.6,24.9L141.6,24.9z"/>
		</g>
		<g>
			<g>
				<g>
					<g>
						<rect x="143.3" y="26.2" class="st1" width="4.1" height="0.4"/>
						<polygon class="st1" points="149.2,25.9 147.3,26.2 147.3,26.6 149.2,26.3 						"/>
						<polygon class="st1" points="143.3,26.2 145.1,25.9 149.2,25.9 147.3,26.2 						"/>
					</g>
					<polygon class="st13" points="143.3,26.2 145.1,25.9 149.2,25.9 147.3,26.2 					"/>
					<polygon class="st4" points="149.2,25.9 147.3,26.2 147.3,26.6 149.2,26.3 					"/>
					<path class="st9" d="M147.4,26.3v0.3l1.8-0.3V26L147.4,26.3L147.4,26.3z"/>
					<path class="st2" d="M146.6,26.5h-2.8l0,0v-0.2l0,0h2.8l0,0V26.5C146.6,26.6,146.6,26.6,146.6,26.5L146.6,26.5L146.6,26.5
						l-2.8-0.1l0,0v0.2l0,0L146.6,26.5C146.6,26.6,146.6,26.5,146.6,26.5z"/>
					<path class="st2" d="M147,26.4C147,26.5,147,26.5,147,26.4C147,26.5,147,26.5,147,26.4C147,26.5,147,26.5,147,26.4
						C147,26.5,147,26.5,147,26.4C147,26.5,147,26.5,147,26.4C147,26.5,147,26.5,147,26.4C147,26.5,147,26.5,147,26.4
						C147,26.5,147,26.5,147,26.4C147,26.5,147,26.5,147,26.4c-0.1,0.1-0.1,0.1-0.1,0l0,0l0,0l0,0l0,0l0,0l0,0l0,0l0,0l0,0l0,0l0,0
						l0,0C146.9,26.4,146.9,26.4,147,26.4C146.9,26.4,146.9,26.4,147,26.4C146.9,26.4,146.9,26.4,147,26.4
						C146.9,26.4,146.9,26.4,147,26.4C146.9,26.4,146.9,26.4,147,26.4C146.9,26.4,146.9,26.4,147,26.4
						C146.9,26.4,146.9,26.4,147,26.4C146.9,26.4,146.9,26.4,147,26.4C147,26.4,146.9,26.4,147,26.4L147,26.4L147,26.4L147,26.4
						L147,26.4L147,26.4L147,26.4L147,26.4L147,26.4C147,26.5,147.1,26.5,147,26.4L147,26.4l-0.1-0.1v0.1H147
						C147,26.5,147.1,26.5,147,26.4C147.1,26.4,147,26.4,147,26.4L147,26.4z"/>
				</g>
				<g>
					<g>
						<rect x="143.6" y="25.8" class="st3" width="3.5" height="0.4"/>
						<polygon class="st3" points="148.8,25.5 147.1,25.8 147.1,26.2 148.8,25.9 						"/>
						<polygon class="st3" points="143.6,25.8 145.1,25.5 148.8,25.5 147.1,25.8 						"/>
					</g>
					<polygon class="st13" points="143.6,25.8 145.1,25.5 148.8,25.5 147.1,25.8 					"/>
					<polygon class="st4" points="148.8,25.5 147.1,25.8 147.1,26.2 148.8,25.9 					"/>
					<path class="st9" d="M147.2,25.8V26l1.5-0.2v-0.2L147.2,25.8L147.2,25.8z"/>
					<path class="st2" d="M146.5,26h-2.4l0,0v-0.1l0,0L146.5,26L146.5,26L146.5,26C146.5,26.1,146.5,26.1,146.5,26L146.5,26
						L146.5,26l-2.4-0.1l0,0V26l0,0H146.5C146.5,26.1,146.5,26,146.5,26z"/>
					<path class="st2" d="M146.8,26L146.8,26L146.8,26L146.8,26L146.8,26L146.8,26L146.8,26L146.8,26L146.8,26L146.8,26L146.8,26
						L146.8,26L146.8,26L146.8,26L146.8,26L146.8,26L146.8,26L146.8,26L146.8,26L146.8,26L146.8,26L146.8,26L146.8,26L146.8,26
						L146.8,26C146.7,26,146.7,26,146.8,26L146.8,26L146.8,26L146.8,26L146.8,26L146.8,26L146.8,26L146.8,26L146.8,26L146.8,26
						L146.8,26L146.8,26L146.8,26L146.8,26L146.8,26L146.8,26C146.7,26,146.8,25.9,146.8,26C146.8,25.9,146.8,25.9,146.8,26
						C146.8,25.9,146.8,25.9,146.8,26C146.8,25.9,146.8,25.9,146.8,26C146.8,25.9,146.8,25.9,146.8,26
						C146.8,25.9,146.8,25.9,146.8,26C146.8,25.9,146.8,25.9,146.8,26C146.8,25.9,146.8,25.9,146.8,26
						C146.8,25.9,146.8,25.9,146.8,26C146.8,25.9,146.8,25.9,146.8,26C146.8,25.9,146.8,25.9,146.8,26
						C146.8,25.9,146.8,25.9,146.8,26C146.8,25.9,146.8,25.9,146.8,26C146.8,25.9,146.8,25.9,146.8,26
						C146.8,25.9,146.8,25.9,146.8,26C146.8,25.9,146.8,25.9,146.8,26C146.8,25.9,146.8,25.9,146.8,26
						C146.8,25.9,146.8,25.9,146.8,26C146.8,25.9,146.8,26,146.8,26S146.8,25.9,146.8,26L146.8,26L146.8,26L146.8,26L146.8,26
						L146.8,26L146.8,26C146.8,26,146.9,26,146.8,26C146.9,26,146.9,26,146.8,26C146.9,25.9,146.9,25.9,146.8,26
						C146.7,25.9,146.7,25.9,146.8,26L146.8,26C146.7,26,146.8,26.1,146.8,26C146.9,26.1,146.9,26,146.8,26
						C146.9,26,146.9,26,146.8,26C146.9,26,146.8,26,146.8,26L146.8,26z"/>
				</g>
				<g>
					<g>
						<rect x="143.7" y="25.5" class="st1" width="3.5" height="0.2"/>
						<polygon class="st1" points="148.9,25.3 147.2,25.5 147.2,25.7 148.9,25.5 						"/>
						<polygon class="st1" points="143.7,25.5 145.3,25.3 148.9,25.3 147.2,25.5 						"/>
					</g>
					<polygon class="st13" points="143.7,25.5 145.3,25.3 148.9,25.3 147.2,25.5 					"/>
					<polygon class="st4" points="148.9,25.3 147.2,25.5 147.2,25.7 148.9,25.5 					"/>
					<path class="st9" d="M147.3,25.6C147.3,25.6,147.3,25.7,147.3,25.6c0,0.1,1.6-0.1,1.6-0.1v-0.1L147.3,25.6z"/>
					<g>
						<path class="st2" d="M143.9,25.5c0,0-0.1,0-0.1,0.1c0,0,0,0.1,0.1,0.1h0.1l0,0l0,0h-0.1C143.8,25.6,143.8,25.6,143.9,25.5
							C143.9,25.6,143.9,25.5,143.9,25.5C143.9,25.6,143.9,25.5,143.9,25.5L143.9,25.5L143.9,25.5z"/>
						<path class="st2" d="M144.1,25.5C144.1,25.5,144,25.5,144.1,25.5c-0.1,0.1-0.1,0.2,0,0.2h0.1l0,0l0,0h-0.1
							C144,25.6,144,25.6,144.1,25.5C144,25.6,144,25.5,144.1,25.5C144.1,25.6,144.1,25.5,144.1,25.5L144.1,25.5L144.1,25.5z"/>
						<path class="st2" d="M144.2,25.5c0,0-0.1,0-0.1,0.1c0,0,0,0.1,0.1,0.1h0.1l0,0l0,0h-0.1C144.1,25.6,144.1,25.6,144.2,25.5
							C144.2,25.6,144.2,25.6,144.2,25.5C144.2,25.6,144.2,25.5,144.2,25.5L144.2,25.5L144.2,25.5z"/>
						<path class="st2" d="M144.4,25.5c0,0-0.1,0-0.1,0.1c0,0,0,0.1,0.1,0.1h0.1l0,0l0,0h-0.1C144.3,25.6,144.3,25.6,144.4,25.5
							C144.3,25.6,144.3,25.6,144.4,25.5C144.4,25.6,144.4,25.5,144.4,25.5L144.4,25.5L144.4,25.5z"/>
						<path class="st2" d="M144.5,25.5c0,0-0.1,0-0.1,0.1c0,0,0,0.1,0.1,0.1h0.1l0,0l0,0h-0.1C144.4,25.6,144.4,25.6,144.5,25.5
							C144.5,25.6,144.5,25.6,144.5,25.5C144.5,25.6,144.5,25.5,144.5,25.5L144.5,25.5L144.5,25.5z"/>
						<path class="st2" d="M144.7,25.5c0,0-0.1,0-0.1,0.1c0,0,0,0.1,0.1,0.1h0.1l0,0l0,0h-0.1C144.6,25.6,144.6,25.6,144.7,25.5
							C144.6,25.6,144.6,25.6,144.7,25.5C144.7,25.6,144.7,25.5,144.7,25.5L144.7,25.5L144.7,25.5z"/>
						<path class="st2" d="M144.8,25.5C144.8,25.5,144.7,25.5,144.8,25.5c-0.1,0.1-0.1,0.2,0,0.2h0.1l0,0l0,0h-0.1
							C144.7,25.6,144.7,25.6,144.8,25.5C144.8,25.6,144.8,25.6,144.8,25.5C144.8,25.6,144.8,25.5,144.8,25.5L144.8,25.5L144.8,25.5
							z"/>
						<path class="st2" d="M145,25.5c0,0-0.1,0-0.1,0.1c0,0,0,0.1,0.1,0.1h0.1l0,0l0,0H145C144.9,25.6,144.9,25.6,145,25.5
							C144.9,25.6,144.9,25.6,145,25.5C145,25.6,145,25.5,145,25.5L145,25.5L145,25.5z"/>
						<path class="st2" d="M145.1,25.5C145.1,25.5,145,25.5,145.1,25.5c-0.1,0.1-0.1,0.2,0,0.2h0.1l0,0l0,0h-0.1
							C145,25.6,145,25.6,145.1,25.5C145.1,25.6,145.1,25.6,145.1,25.5C145.1,25.6,145.1,25.5,145.1,25.5L145.1,25.5L145.1,25.5z"/>
						<path class="st2" d="M145.3,25.5C145.3,25.5,145.2,25.5,145.3,25.5c-0.1,0.1-0.1,0.2,0,0.2h0.1l0,0l0,0h-0.1
							C145.2,25.6,145.2,25.6,145.3,25.5C145.2,25.6,145.2,25.6,145.3,25.5C145.3,25.6,145.3,25.5,145.3,25.5L145.3,25.5L145.3,25.5
							z"/>
						<path class="st2" d="M145.4,25.5c0,0-0.1,0-0.1,0.1c0,0,0,0.1,0.1,0.1h0.1l0,0l0,0h-0.1C145.3,25.6,145.3,25.6,145.4,25.5
							C145.4,25.6,145.4,25.6,145.4,25.5C145.4,25.6,145.4,25.5,145.4,25.5L145.4,25.5L145.4,25.5z"/>
						<path class="st2" d="M145.6,25.5C145.6,25.5,145.5,25.5,145.6,25.5c-0.1,0.1-0.1,0.2,0,0.2h0.1l0,0l0,0h-0.1
							C145.5,25.6,145.5,25.6,145.6,25.5C145.5,25.6,145.6,25.6,145.6,25.5C145.6,25.6,145.6,25.5,145.6,25.5L145.6,25.5L145.6,25.5
							z"/>
						<path class="st2" d="M145.7,25.5c0,0-0.1,0-0.1,0.1c0,0,0,0.1,0.1,0.1h0.1l0,0l0,0h-0.1C145.6,25.6,145.6,25.6,145.7,25.5
							C145.7,25.6,145.7,25.6,145.7,25.5C145.7,25.6,145.7,25.5,145.7,25.5L145.7,25.5L145.7,25.5z"/>
						<path class="st2" d="M145.9,25.5c0,0-0.1,0-0.1,0.1c0,0,0,0.1,0.1,0.1h0.1l0,0l0,0h-0.1C145.8,25.6,145.8,25.6,145.9,25.5
							C145.8,25.6,145.9,25.6,145.9,25.5C145.9,25.6,145.9,25.5,145.9,25.5L145.9,25.5L145.9,25.5z"/>
						<path class="st2" d="M146,25.5c0,0-0.1,0-0.1,0.1c0,0,0,0.1,0.1,0.1h0.1l0,0l0,0H146C145.9,25.6,145.9,25.6,146,25.5
							C146,25.6,146,25.6,146,25.5C146,25.6,146.1,25.5,146,25.5L146,25.5L146,25.5z"/>
						<path class="st2" d="M146.2,25.5c0,0-0.1,0-0.1,0.1c0,0,0,0.1,0.1,0.1h0.1l0,0l0,0h-0.1C146.1,25.6,146.1,25.6,146.2,25.5
							C146.1,25.6,146.2,25.6,146.2,25.5C146.2,25.6,146.2,25.5,146.2,25.5L146.2,25.5L146.2,25.5z"/>
						<path class="st2" d="M146.3,25.5C146.3,25.5,146.2,25.5,146.3,25.5c-0.1,0.1-0.1,0.2,0,0.2h0.1l0,0l0,0h-0.1
							C146.3,25.6,146.3,25.6,146.3,25.5C146.3,25.6,146.3,25.6,146.3,25.5C146.3,25.6,146.4,25.6,146.3,25.5L146.3,25.5z"/>
						<path class="st2" d="M146.5,25.5c0,0-0.1,0-0.1,0.1c0,0,0,0.1,0.1,0.1h0.1l0,0l0,0h-0.1C146.4,25.6,146.4,25.6,146.5,25.5
							C146.4,25.6,146.5,25.6,146.5,25.5C146.5,25.6,146.5,25.6,146.5,25.5L146.5,25.5L146.5,25.5z"/>
						<path class="st2" d="M146.6,25.5C146.6,25.5,146.5,25.5,146.6,25.5c-0.1,0.1-0.1,0.2,0,0.2h0.1l0,0l0,0h-0.1
							C146.6,25.6,146.6,25.6,146.6,25.5C146.6,25.6,146.6,25.6,146.6,25.5C146.7,25.6,146.7,25.6,146.6,25.5L146.6,25.5L146.6,25.5
							z"/>
						<path class="st2" d="M146.8,25.6C146.8,25.6,146.7,25.6,146.8,25.6c-0.1,0.1-0.1,0.2,0,0.2h0.1l0,0l0,0h-0.1
							C146.7,25.6,146.7,25.6,146.8,25.6L146.8,25.6L146.8,25.6L146.8,25.6L146.8,25.6z"/>
						<path class="st2" d="M146.9,25.6c0,0-0.1,0-0.1,0.1c0,0,0,0.1,0.1,0.1h0.1l0,0l0,0h-0.1C146.9,25.6,146.9,25.6,146.9,25.6
							L146.9,25.6C147,25.6,147,25.6,146.9,25.6L146.9,25.6L146.9,25.6z"/>
						<path class="st2" d="M147.1,25.6C147.1,25.6,147,25.6,147.1,25.6c-0.1,0.1-0.1,0.2,0,0.2h0.1l0,0l0,0h-0.1
							C147,25.6,147,25.6,147.1,25.6L147.1,25.6L147.1,25.6L147.1,25.6L147.1,25.6z"/>
					</g>
				</g>
				<g>
					<g>
						<rect x="143.8" y="25.4" class="st3" width="3.5" height="0.2"/>
						<polygon class="st3" points="148.9,25.1 147.3,25.4 147.3,25.5 149,25.3 						"/>
						<polygon class="st3" points="143.8,25.4 145.3,25.1 148.9,25.1 147.3,25.4 						"/>
					</g>
					<polygon class="st13" points="143.8,25.4 145.3,25.1 148.9,25.1 147.3,25.4 					"/>
					<polygon class="st4" points="148.9,25.1 147.3,25.4 147.3,25.5 149,25.3 					"/>
					<path class="st9" d="M147.4,25.4L147.4,25.4c0,0.1,1.6-0.1,1.6-0.1v-0.1L147.4,25.4L147.4,25.4z"/>
					<g>
						<path class="st2" d="M144,25.3c0,0-0.1,0-0.1,0.1c0,0,0,0.1,0.1,0.1h0.1l0,0l0,0H144C143.9,25.4,143.9,25.4,144,25.3
							C143.9,25.4,143.9,25.4,144,25.3C144,25.4,144,25.3,144,25.3L144,25.3L144,25.3z"/>
						<path class="st2" d="M144.1,25.3C144.1,25.3,144,25.3,144.1,25.3c-0.1,0.1-0.1,0.2,0,0.2h0.1l0,0l0,0h-0.1
							C144,25.4,144,25.4,144.1,25.3C144.1,25.4,144.1,25.4,144.1,25.3C144.1,25.4,144.1,25.3,144.1,25.3L144.1,25.3L144.1,25.3z"/>
						<path class="st2" d="M144.3,25.3C144.3,25.3,144.2,25.3,144.3,25.3c-0.1,0.1-0.1,0.2,0,0.2h0.1l0,0l0,0h-0.1
							C144.2,25.4,144.2,25.4,144.3,25.3C144.2,25.4,144.3,25.4,144.3,25.3C144.3,25.4,144.3,25.4,144.3,25.3L144.3,25.3L144.3,25.3
							z"/>
						<path class="st2" d="M144.4,25.3c0,0-0.1,0-0.1,0.1c0,0,0,0.1,0.1,0.1h0.1l0,0l0,0h-0.1C144.3,25.4,144.3,25.4,144.4,25.3
							C144.4,25.4,144.4,25.4,144.4,25.3C144.4,25.4,144.4,25.4,144.4,25.3L144.4,25.3L144.4,25.3z"/>
						<path class="st2" d="M144.6,25.3C144.6,25.3,144.5,25.3,144.6,25.3c-0.1,0.1-0.1,0.2,0,0.2h0.1l0,0l0,0h-0.1
							C144.5,25.4,144.5,25.4,144.6,25.3C144.5,25.4,144.6,25.4,144.6,25.3C144.6,25.4,144.6,25.4,144.6,25.3L144.6,25.3L144.6,25.3
							z"/>
						<path class="st2" d="M144.7,25.4c0,0-0.1,0-0.1,0.1c0,0,0,0.1,0.1,0.1h0.1l0,0l0,0h-0.1C144.6,25.4,144.6,25.4,144.7,25.4
							L144.7,25.4C144.7,25.4,144.8,25.4,144.7,25.4L144.7,25.4L144.7,25.4z"/>
						<path class="st2" d="M144.9,25.4c0,0-0.1,0-0.1,0.1c0,0,0,0.1,0.1,0.1h0.1l0,0l0,0h-0.1C144.8,25.4,144.8,25.4,144.9,25.4
							C144.8,25.4,144.9,25.4,144.9,25.4L144.9,25.4L144.9,25.4L144.9,25.4z"/>
						<path class="st2" d="M145,25.4c0,0-0.1,0-0.1,0.1c0,0,0,0.1,0.1,0.1h0.1l0,0l0,0H145C145,25.4,145,25.4,145,25.4L145,25.4
							C145,25.4,145.1,25.4,145,25.4L145,25.4L145,25.4z"/>
						<path class="st2" d="M145.2,25.4c0,0-0.1,0-0.1,0.1c0,0,0,0.1,0.1,0.1h0.1l0,0l0,0h-0.1C145.1,25.5,145.1,25.4,145.2,25.4
							C145.1,25.4,145.2,25.4,145.2,25.4L145.2,25.4L145.2,25.4L145.2,25.4z"/>
						<path class="st2" d="M145.3,25.4C145.3,25.4,145.2,25.4,145.3,25.4c-0.1,0.1-0.1,0.2,0,0.2h0.1l0,0l0,0h-0.1
							C145.3,25.5,145.3,25.4,145.3,25.4L145.3,25.4C145.4,25.4,145.4,25.4,145.3,25.4L145.3,25.4L145.3,25.4z"/>
						<path class="st2" d="M145.5,25.4c0,0-0.1,0-0.1,0.1c0,0,0,0.1,0.1,0.1h0.1l0,0l0,0h-0.1C145.4,25.5,145.4,25.4,145.5,25.4
							L145.5,25.4L145.5,25.4L145.5,25.4L145.5,25.4z"/>
						<path class="st2" d="M145.6,25.4C145.6,25.4,145.5,25.4,145.6,25.4c-0.1,0.1-0.1,0.2,0,0.2h0.1l0,0l0,0h-0.1
							C145.6,25.5,145.6,25.4,145.6,25.4L145.6,25.4C145.7,25.4,145.7,25.4,145.6,25.4L145.6,25.4L145.6,25.4z"/>
						<path class="st2" d="M145.8,25.4C145.8,25.4,145.7,25.4,145.8,25.4c-0.1,0.1-0.1,0.2,0,0.2h0.1l0,0l0,0h-0.1
							C145.7,25.5,145.7,25.4,145.8,25.4L145.8,25.4L145.8,25.4L145.8,25.4L145.8,25.4z"/>
						<path class="st2" d="M146,25.4c0,0-0.1,0-0.1,0.1c0,0,0,0.1,0.1,0.1h0.1l0,0l0,0H146C145.9,25.5,145.9,25.4,146,25.4
							C145.9,25.4,145.9,25.4,146,25.4L146,25.4L146,25.4L146,25.4z"/>
						<path class="st2" d="M146.1,25.4C146.1,25.4,146,25.4,146.1,25.4c-0.1,0.1-0.1,0.2,0,0.2h0.1l0,0l0,0h-0.1
							C146,25.5,146,25.4,146.1,25.4L146.1,25.4L146.1,25.4L146.1,25.4L146.1,25.4z"/>
						<path class="st2" d="M146.3,25.4C146.3,25.4,146.2,25.4,146.3,25.4c-0.1,0.1-0.1,0.2,0,0.2h0.1l0,0l0,0h-0.1
							C146.2,25.5,146.2,25.4,146.3,25.4C146.2,25.4,146.2,25.4,146.3,25.4L146.3,25.4L146.3,25.4L146.3,25.4z"/>
						<path class="st2" d="M146.4,25.4c0,0-0.1,0-0.1,0.1c0,0,0,0.1,0.1,0.1h0.1l0,0l0,0h-0.1C146.3,25.5,146.3,25.4,146.4,25.4
							L146.4,25.4L146.4,25.4L146.4,25.4L146.4,25.4z"/>
						<path class="st2" d="M146.6,25.4C146.6,25.4,146.5,25.4,146.6,25.4c-0.1,0.1-0.1,0.2,0,0.2h0.1l0,0l0,0h-0.1
							C146.5,25.5,146.5,25.4,146.6,25.4C146.5,25.4,146.5,25.4,146.6,25.4L146.6,25.4L146.6,25.4z"/>
						<path class="st2" d="M146.7,25.4c0,0-0.1,0-0.1,0.1c0,0,0,0.1,0.1,0.1h0.1l0,0l0,0h-0.1C146.6,25.5,146.6,25.4,146.7,25.4
							L146.7,25.4L146.7,25.4L146.7,25.4L146.7,25.4z"/>
						<path class="st2" d="M146.9,25.4c0,0-0.1,0-0.1,0.1c0,0,0,0.1,0.1,0.1h0.1l0,0l0,0h-0.1C146.8,25.5,146.8,25.4,146.9,25.4
							C146.8,25.4,146.8,25.4,146.9,25.4L146.9,25.4L146.9,25.4L146.9,25.4z"/>
						<path class="st2" d="M147,25.4c0,0-0.1,0-0.1,0.1c0,0,0,0.1,0.1,0.1h0.1l0,0l0,0H147C146.9,25.5,146.9,25.4,147,25.4L147,25.4
							L147,25.4L147,25.4L147,25.4z"/>
						<path class="st2" d="M147.2,25.4c0,0-0.1,0-0.1,0.1c0,0,0,0.1,0.1,0.1h0.1l0,0l0,0h-0.1C147.1,25.5,147.1,25.4,147.2,25.4
							C147.1,25.4,147.1,25.4,147.2,25.4L147.2,25.4L147.2,25.4L147.2,25.4z"/>
					</g>
				</g>
			</g>
			<path class="st3" d="M147.8,25.2h-2.6c-0.1,0-0.3-0.1-0.2-0.3v-0.4c0-0.1,0.1-0.2,0.2-0.2h2.5c0.1,0,0.2,0.1,0.2,0.2v0.4
				C148.1,25.1,147.9,25.2,147.8,25.2z"/>
			<g>
				<path class="st7" d="M147.8,25.2h-2.6c-0.1,0-0.3-0.1-0.2-0.3v-0.4c0-0.1,0.1-0.2,0.2-0.2h2.5c0.1,0,0.2,0.1,0.2,0.2v0.4
					C148.1,25.1,147.9,25.2,147.8,25.2z"/>
				<path class="st1" d="M145.2,24.5h2.3l0,0H145.2C145.1,24.5,145.1,24.5,145.2,24.5L145.2,24.5z"/>
				<path class="st1" d="M145.2,24.5c0,0.1-0.1,0.1-0.1,0.2c0,0,0,0,0,0.1l0,0l0,0c0,0,0,0,0-0.1C145.2,24.6,145.2,24.5,145.2,24.5"
					/>
				<g class="st14">
					<path class="st2" d="M148,25v-0.4c0-0.1-0.1-0.2-0.2-0.2h-0.1v0.1c0,0.1,0,0.1,0,0.2c0,0.1,0,0.2-0.1,0.2c0,0.1,0,0.2,0,0.2
						s0,0.1,0.1,0.1h0.2C147.9,25.2,148.1,25.1,148,25z"/>
				</g>
			</g>
		</g>
		<g>
			<g>
				<path class="st0" d="M150.4,21.8c0,0,1,2.1,0.7,2.5s-3,0.2-3,0.2l-0.2-0.6l2-0.3c0-0.2-0.7-1.3-0.7-1.3L150.4,21.8L150.4,21.8z"
					/>
				<polygon class="st5" points="150.4,21.8 149.3,22.2 149.5,22.6 150.6,22.1 				"/>
				<path class="st0" d="M148.5,24.4l-0.2-0.6h-0.2c-0.1,0-0.4,0-0.4,0.1c-0.4,0-0.9,0.1-1.1,0.2c-0.2,0.1-0.4,0.5-0.2,0.4
					c0.1,0,0.2-0.1,0.3-0.2c0.2-0.1,0.4-0.2,0.4-0.2c-0.4,0.3-0.5,0.6-0.5,0.6c0,0.1,0.1,0.1,0.1,0.1s0.1,0.2,0.2,0
					c0.1-0.1,0.4-0.2,0.4-0.2s-0.3,0.4-0.1,0.5c0.1,0.1,0.3-0.4,0.5-0.5c0.1-0.1,0.3,0,0.5-0.1C148.2,24.6,148.3,24.5,148.5,24.4
					L148.5,24.4z"/>
				<path class="st12" d="M146.6,25c0.1-0.1,0.2-0.2,0.3-0.3s0.3-0.2,0.4-0.3l0,0c-0.2,0.1-0.3,0.2-0.5,0.3
					C146.8,24.7,146.7,24.9,146.6,25L146.6,25L146.6,25L146.6,25z"/>
				<path class="st12" d="M147.2,24.8c0.1,0,0.1-0.1,0.2-0.1c0.1,0,0.1-0.1,0.2-0.1l0,0c-0.1,0-0.1,0-0.2,0.1
					C147.3,24.7,147.2,24.8,147.2,24.8S147.2,24.9,147.2,24.8L147.2,24.8z"/>
			</g>
			<path class="st5" d="M150,23.5c0,0,0.2,0.1,0.3,0.2c0,0,0-0.3-0.4-0.4L150,23.5L150,23.5z"/>
		</g>
		<g>
			<polygon class="st3" points="146.5,19.8 146.9,19.5 147.2,19.8 147.9,19.1 148.3,19.5 147.1,20.4 			"/>
			<polygon class="st10" points="146.5,19.8 146.9,19.5 147.2,19.8 147.9,19.1 148.3,19.5 147.1,20.4 			"/>
			<polygon class="st5" points="146.5,19.8 146.8,20.3 147.2,19.9 147.5,20.2 148.3,19.5 147.5,20.4 147.2,20 146.7,20.5 			"/>
		</g>
	</g>
</g>
</svg>
