<?xml version="1.0" encoding="utf-8"?>
<!-- Generator: Adobe Illustrator 22.0.0, SVG Export Plug-In . SVG Version: 6.00 Build 0)  -->
<svg version="1.1" id="Layer_1" xmlns="http://www.w3.org/2000/svg" xmlns:xlink="http://www.w3.org/1999/xlink" x="0px" y="0px"
	 viewBox="0 0 169 169" style="enable-background:new 0 0 169 169;" xml:space="preserve">
<style type="text/css">
	.st0{fill:#7790B7;}
	.st1{fill:#FFFFFF;stroke:#273339;stroke-width:0.1;stroke-miterlimit:10;}
	.st2{fill:#273339;stroke:#273339;stroke-width:0.1;stroke-miterlimit:10;}
	.st3{fill:#9DC7D1;stroke:#273339;stroke-width:0.1;stroke-miterlimit:10;}
</style>
<g id="freepik--Board--inject-177">
	<path class="st0" d="M18.4,16v-0.6c0-0.2,0-0.4,0-0.6c0-0.3,0-0.5,0-0.5s0-0.2,0-0.4s0-0.2,0-0.3c0,0.1-0.1,0.3-0.2,0.7
		c-0.2,1.1-0.5,1.6-0.5,1.6s-0.1,0-0.2-0.1c0-0.1-0.1-0.1-0.1-0.2c0-0.3-0.1-0.6-0.2-0.9c-0.2-0.5-0.2-0.9-0.3-1.1
		C17,14.8,17,15.6,17,15.9v0.2c0,0.1,0,0.1,0,0.2l-0.1,0.1c-0.1,0-0.1,0-0.2,0l-0.1-0.1c0-0.3,0-0.9,0.1-1.5
		c0.1-0.7,0.1-1.2,0.1-1.5v-0.1c0,0,0-0.1,0.1-0.1c0.1,0,0.1,0,0.2,0s0.2,0.3,0.4,1c0.2,0.7,0.3,1.1,0.4,1.4c0-0.1,0.1-0.2,0.1-0.4
		c0.1-0.2,0.1-0.4,0.2-0.6c0.1-0.2,0.1-0.4,0.2-0.6c0.2-0.5,0.2-0.8,0.4-0.8c0.1,0,0.1,0,0.2,0l0.1,0.1c0,0.2,0,0.6,0,1.1s0,0.9,0,1
		v0.5l0,0c0,0,0,0.2,0,0.4v0.1v0.1c0,0.1,0,0.1-0.1,0.2c0,0.1-0.1,0.1-0.2,0.1C18.4,16.3,18.4,16.3,18.4,16z"/>
	<path class="st0" d="M20.1,15.1l0.1,0.3c0,0.1,0,0.2,0.1,0.3c0,0.1,0.1,0.2,0.1,0.3l0,0c0,0.1,0,0.2-0.1,0.2c-0.1,0-0.1,0-0.2,0
		s-0.1-0.1-0.1-0.2c0-0.2,0-0.4-0.1-0.6l-0.5-0.1c0,0.2-0.1,0.2-0.1,0.4c0,0.1,0,0.2-0.1,0.3c0,0.2-0.1,0.2-0.2,0.2s-0.1,0-0.1,0
		l-0.1-0.1V16c0.2-0.9,0.4-1.6,0.5-2.5c0,0,0-0.1,0-0.2c0-0.2,0.1-0.4,0.1-0.5h0.2c0.1,0,0.1,0,0.2,0l0.1,0.1c0,0.4,0.1,0.8,0.1,1.1
		C20.1,14.4,20.1,14.8,20.1,15.1z M19.8,15.2c0-0.1,0-0.2,0-0.2c0-0.2,0-0.2,0-0.5s0-0.4-0.1-0.6c0-0.2-0.1-0.4-0.1-0.5
		c-0.2,0.9-0.2,1.4-0.3,1.8C19.6,15.2,19.8,15.2,19.8,15.2z"/>
	<path class="st0" d="M20.8,16v-0.4c0,0,0-0.1,0-0.2c0-0.1-0.1-0.4-0.1-1.1c-0.1-0.7-0.1-1.2-0.1-1.3l0,0c-0.2,0-0.4-0.1-0.4-0.2
		c0,0,0-0.1,0.1-0.1h0.1l0.7,0.1h0.1c0.1,0,0.2,0.1,0.2,0.2c0,0.1,0,0.1-0.1,0.1h-0.1H21v0.1c0,0.3,0,0.8,0.1,1.4
		c0.1,0.6,0.1,1.1,0.1,1.4c0,0.1,0,0.1-0.1,0.1c0,0-0.1,0.1-0.2,0.1L20.8,16z"/>
	<path class="st0" d="M21.9,13.2v1.2c0.1,0,0.2,0,0.2,0h0.2c0-0.1,0-0.1,0-0.2s0-0.3,0-0.6c0-0.3,0-0.5,0-0.7c0,0,0-0.1,0.1-0.1h0.1
		h0.1c0,0,0,0,0.1,0h0.1c0,0.5,0,1.1,0.1,1.9c0,0.9,0.1,1.2,0.1,1.2s0,0.1-0.1,0.1c0,0-0.1,0.1-0.2,0.1s-0.1,0-0.1-0.1
		s-0.1-0.2-0.1-0.3c0-0.2,0-0.2,0-0.3c0-0.1,0-0.1,0-0.2c0-0.1,0-0.2,0-0.2c0-0.2,0-0.2,0-0.2l0,0v-0.2v-0.1l0,0h-0.1l-0.3-0.1V15
		v0.8c0,0.1,0,0.1,0,0.2L22,16c-0.1,0-0.1-0.1-0.2-0.2c0-0.2-0.1-0.3,0-0.5v-0.8c0-0.1,0-0.2,0-0.2l0,0c0-0.2,0-0.2,0-0.3V13
		c0,0,0-0.1,0.1-0.1l0.1-0.1C21.9,12.8,21.9,12.9,21.9,13.2z"/>
	<path class="st0" d="M24,17.2h-8c-0.1,0-0.1-0.1-0.1-0.1C16,17,16,17,16,17h8C24.1,17,24.1,17.1,24,17.2C24.1,17.1,24,17.2,24,17.2
		z"/>
	<path class="st0" d="M16,16.8C16,16.8,16,16.7,16,16.8c-0.1-0.2,0-0.2,0-0.2l7.2-0.1l0,0c0.1,0,0.1,0.1,0.1,0.1
		c0,0.1-0.1,0.1-0.1,0.1L16,16.8L16,16.8z"/>
	<path class="st0" d="M15.4,14.5C15.3,14.5,15.3,14.5,15.4,14.5l-1-0.5c-0.1,0-0.1-0.1-0.1-0.2c0-0.1,0.1-0.1,0.2-0.1l0.9,0.5
		C15.5,14.3,15.5,14.4,15.4,14.5C15.5,14.5,15.4,14.5,15.4,14.5z"/>
	<path class="st0" d="M15.7,13.8L15.7,13.8l-0.8-0.5c-0.1,0-0.1-0.1-0.1-0.2s0.1-0.1,0.2-0.1l0,0l0.8,0.5
		C15.9,13.6,15.9,13.7,15.7,13.8C15.8,13.8,15.8,13.8,15.7,13.8z"/>
	<path class="st0" d="M23.6,14.2C23.5,14.2,23.5,14.1,23.6,14.2L23.5,14l0.7-0.9c0-0.1,0.1-0.1,0.2,0c0.1,0,0.1,0.1,0,0.2l0,0
		L23.6,14.2L23.6,14.2z"/>
	<path class="st0" d="M23.7,15C23.7,15,23.6,14.9,23.7,15c-0.2-0.1-0.2-0.2-0.1-0.2l1.1-1.1c0.1-0.1,0.1-0.1,0.2,0
		c0.1,0.1,0.1,0.1,0,0.2l0,0L23.7,15C23.8,14.9,23.7,15,23.7,15z"/>
</g>
<g id="freepik--character-2--inject-177">
	<path class="st1" d="M27.1,35.8c-0.1,0.5-0.1,1.2,0,1.7c0.1,0.9,0.1,2.9,0.1,3.4s-0.2,1.6-0.2,1.7c0.2,0.2,0.7,0.2,0.9,0.1
		c0.2-0.1,0.4,0,0.4-0.2s-0.2-1.4-0.2-1.7s0.5-1.9,0.7-2.9c0.2-1,0.1-2.1,0.1-2.3c-0.1-0.2-0.2-0.2-0.2-0.2S27.8,35.8,27.1,35.8z"/>
	<path class="st2" d="M27.9,42.9c0.2,0,0.4-0.2,0.4-0.3c0-0.1-0.1-0.9-0.1-1.2c-0.2,0.2-0.3,0.2-0.5,0.2c-0.2,0.1-0.5,0-0.7-0.2
		c-0.1,0.5-0.2,1.2-0.2,1.2C27.1,42.9,27.7,42.9,27.9,42.9z"/>
	<path class="st1" d="M27.9,42.9c0.2,0,0.4-0.2,0.4-0.3l0,0c-0.5,0.1-1.2,0-1.4-0.1c0,0.1,0,0.2,0,0.2
		C27.1,42.9,27.7,42.9,27.9,42.9z"/>
	<path class="st1" d="M24.6,35.3c0,0-0.1,1.6,0.2,2.6s0.6,3,0.5,3.3c-0.1,0.2-0.2,0.9-0.3,0.9s-0.4,0.2-0.4,0.3
		c0,0.2,0.4,0.4,0.7,0.4c0.3,0,0.7,0.2,0.9-0.3c0.2-0.3,0.3-0.7,0.2-1.1c0-0.3-0.2-0.6-0.2-0.8s0.3-2.1,0.3-3c0-0.9-0.3-2-0.3-2
		L24.6,35.3z"/>
	<path class="st2" d="M25.8,40.9c-0.2,0.2-0.4,0.3-0.5,0.5c-0.1,0.3-0.2,0.6-0.2,0.6c-0.1,0-0.4-0.1-0.4,0.3
		c-0.1,0.5,0.4,0.4,0.7,0.4c0.3,0,0.7,0.2,0.9-0.3c0.2-0.3,0.3-0.7,0.2-1.1c0-0.2-0.2-0.5-0.2-0.6C26.4,40.8,26.2,40.6,25.8,40.9z"
		/>
	<path class="st1" d="M25.4,42.8c0.3,0,0.7,0.2,0.9-0.3c0.2-0.3,0.3-0.7,0.2-1.1c0-0.2,0-0.2-0.1-0.4c-0.1,0-0.2,0-0.2,0
		c-0.2,0.1-0.5,0.2-0.7,0.6c-0.2,0.5-0.2,0.8-0.5,0.9c-0.3,0-0.4-0.2-0.4-0.2C24.6,42.9,25.1,42.8,25.4,42.8z"/>
	<path class="st1" d="M26.6,41.6c0,0-0.2-0.4-0.5-0.1c-0.4,0.3-0.4,0.9-0.5,1c-0.1,0.1-0.2,0.2-0.2,0.2c0.1,0,0.1,0,0.2,0
		c0.3,0,0.7,0.2,0.9-0.3C26.5,42.3,26.6,41.9,26.6,41.6L26.6,41.6z"/>
	<path class="st2" d="M24,31l-1.1,3.9c0,0,2.2,1.5,4.7,1.2c2.4-0.2,4.1-2,4.1-2l-1.6-3.3c0,0-0.8,0.6-2.8,0.5C25.3,31.2,24,31,24,31
		z"/>
	<path class="st1" d="M24.2,29.7l-0.4,1.8c0,0,0.8,0.7,2.7,0.6c1.9-0.1,3.7-1.2,3.7-1.2l-0.6-1.8C29.7,29.2,26.4,30.4,24.2,29.7z"/>
	<path class="st2" d="M27.6,30.8c1.2-0.2,1.9-0.5,2.3-0.7l-0.3-0.9c0,0-3.3,1.2-5.5,0.5l-0.2,0.7C24.5,30.6,25.7,31.1,27.6,30.8z"/>
	<path class="st1" d="M24.3,24.4c0,0-0.6,2-1.6,3.4c-0.5,0.9-1.2,1.7-1.9,2.4c0,0-0.6,0.1-0.9-0.1c-0.3-0.2-0.5,0.3-0.6,0.4
		c-0.1,0.2-0.2,0.5-0.1,0.5c0.1,0.1,0.5,0.5,0.5,0.3s-0.2-0.3-0.2-0.3s0.9,0.2,1.2,0c1.6-0.9,2.4-1.9,2.7-2.4
		c0.4-0.5,0.7-1.1,0.7-1.1s-0.2,1.6-0.3,1.9c-0.1,0.3-0.2,0.5-0.2,0.5s1.4,0.9,3.7,0.5c2.4-0.4,2.9-1.1,2.9-1.1s-0.7-1.8-0.9-2.6
		c-0.2-0.9-0.3-1.6-0.3-1.6s-0.1-1.9,0-2.3c0.1-0.5,0.6-1.7,0.6-2c0-0.4-2-2.8-2-2.8s0.2-0.7,0.2-0.9s-0.2-0.5-0.4-0.6
		c-0.2-0.2-0.3-0.3-0.5-0.3c-0.2,0-0.2-0.2-0.4,0.1c-0.2,0.2-0.2,0.5-0.4,0.8c-0.2,0.3,0.2,0.4,0.4,0.5c0.1,0.2,0.5,0.8,0.5,0.9
		c0,0.2,1,3.6,1,3.6L24.3,24.4z"/>
	<path class="st3" d="M30.4,29.4c0,0-0.7-1.8-0.9-2.6c-0.2-0.9-0.3-1.6-0.3-1.6s-0.1-1.9,0-2.3c0.1-0.5,0.6-1.7,0.6-2
		c0-0.2-0.6-1-1.2-1.7c-0.4,0.2-0.8,0.4-1.1,0.7c0.3,1,0.7,2.3,0.7,2.3l-4,2.3c0,0-0.6,2-1.6,3.4c-0.2,0.4-0.5,0.7-0.7,1
		c0.1,0.2,0.2,0.5,0.5,0.7c0.1,0.1,0.2,0.1,0.2,0.2c0.3-0.3,0.6-0.6,0.9-1c0.4-0.5,0.7-1.1,0.7-1.1s-0.2,1.6-0.3,1.9
		c-0.1,0.3-0.2,0.5-0.2,0.5s1.4,0.9,3.7,0.5C29.9,30.1,30.4,29.4,30.4,29.4z"/>
	<path class="st1" d="M26.7,16.4l0.2,0.7c0,0.1,0.2,0.2,0.2,0.2l0,0l0,0c0.1,0,0.2-0.2,0.1-0.2l0,0l-0.3-0.6
		C26.9,16.3,26.7,16.3,26.7,16.4z"/>
	<path class="st2" d="M25.5,18.4c0,0-0.5-0.2-1.2,0.5c-0.7,0.8-0.8,1.9-0.5,2.6c0.2,0.6,0.2,1.6-0.2,1.9c-0.3,0.3-0.9,0.9-0.5,1.2
		c0.4,0.3,0.9,0.2,0.9,0.2s-0.7,1.1,0.3,1.7c0.9,0.7,1.4-0.3,1.4-0.3s0.6,2,1.9,1.5c1.2-0.5,0.7-1.9,0.7-1.9s1,0.3,1.2-0.5
		s-0.2-1.2-0.2-1.2s0.8-0.1,0.6-0.9c-0.2-0.9-0.9-1.1-1.2-1.5c-0.3-0.3-0.7-0.6-1-1.6s-0.5-1.2-0.5-1.2s0.5-0.2,0.2-0.5
		C27.2,18,26.2,17.5,25.5,18.4z"/>
</g>
</svg>
