<svg baseprofile="tiny" fill="#6f9c76" version="1.1" id="Kenya" xmlns="http://www.w3.org/2000/svg" x="0" y="0"
    viewBox="0 0 558 625" xml:space="preserve" preserveAspectRatio="xMidYMid meet">
    <g id="regions">
        <path name="rift-valley" id="rift-valley"
            d="m67.199 87.188 5.616-5.58 5.61-5.576 5.61-5.581 5.616-5.579 4.361-2.255 3.86-1.996 3.834-1.923 3.785-1.899 5.406-1.973 4.509-1.702 4.227-1.596 4.55-1.718 5.088-1.921 4.55-1.718 3.863-1.459.983 1.85 3.897-2.16L146.898 42l1.229 1.48-2.089 4.317h5.529l4.178 1.233-2.703 6.906 2.246 4.088 2.669 4.856.083.029 4.902 1.694.305-1.691.005-.029.31-2.321 1.549-1.088 2.169.156.155 3.256 4.184.018 3.572.015.109.962.735 1.312.057 1.074-.167 1.117-.017.949.373.788.993.624 2.153 1.889 1.183.77 1.275.304.221-.002.009 65.475.436 1.39.356.191.29.246.416.246 1.898.794 1.332-.203.686.013.293.362-.121.597-.517 1.132-.121.552.098.638.482 1.166.178.647.003.648-1.522 6.035.336 1.136.847.302 2.231-.073.428.233.721.746.577.16.56-.233.919-.819.419.086.224.44.362 1.666.19.233 2.291 2.004 3.066 2.007 1.28 1.11 1.085 1.83.566 1.235.399 1.526.755 1.252.264.614.052.379-.017 3.844.379 1.321 1.866 1.053.965 1.135 1.306 2.209.448 2.288-.003 2.562.336 2.322 1.461 1.562.35-.355.416-.233.528-.129.672-.043.198.069 1.37.207.327-.069.448-.25 3.058-3.236.637-1.066.327-1.229-.652-1.65.64-.22.68.004.689.164.396.407.327.686 4.502 12.757.448.734 3.233 2.839.465.715.319.646 2.423 6.403.448 1.82-.181 1.518.078.224.224.078.301.009 1.605-.172 2.578-.047 5.489.491.614.16 1.025.475.293.198.637.728.121.246.198.531.121.25.146.228.172.211.83.643.724.457.844.672.379.383.657.85 1.318 2.414.922 2.433.146.263.37.389.658.483 2.248 1.169.207.159.172.168.132.233.103.327.534 3.822.189.551.284.47 1.421 1.587 2.329 1.837.37.385.62.883 3.761 8.905.164.211.181.19.232.151.276.112.319.052.336.009.31-.052.293-.078.769-.349.577-.172 1.619-.215.58-.159.264-.103.477-.284.207-.161.465-.271.276-.086.301-.022.956.138.658-.047.293-.077.999-.513.853-.569.25-.109.284-.073.322-.039h.327l.947.144.319-.019.302-.073.241-.125.224-.151.778-.728.431-.271.276-.121.112-.023.215-.026h.215l.155.035.103.04.103.095.448.517 3.017 2.803.689.814.284.85.563 7.511.267.948.646.962 3.388 3.926.586.864.276.867 1.191 19.029-.078.178-.258-.031-.907-.256-.81-.319-.284-.052-.301.009-.491.098-.198.124-.25.198-.382.488-.956.976-.853.701-2.199 1.246-.37.034-.31-.063-.215-.143-.482-.264-.353-.014-.405.072-1.045.615-.336.25-.25.261-.431.827-.233.31-.276.218-.52.23-1.318.419-.336.034-.336-.012-.637-.098-.692-.034-.336.034-.439.146-1.318.749-.457.098-.373-.029-.25-.129-.267-.103-.31.055-.293.201-.362.485-.353.35-.594.396-.735.359-.353.241-1.137 1.08-.775.58-1.105.448-.293.172-.267.241-.284.471-.181.21-.241.032-.646-.445-.25-.106-.37.02-1.011.307-.388.011-.353-.034-.491-.189-.172-.109-.525-.414-.465-.287-.253-.092-.284-.02-.319.035-.293.072-.861.316-2.216.454-.31-.017-.577-.144-.525-.232-.215-.158-.37-.402-.339-.445-.379-.359-.181-.195-.103-.287-.155-1.016-.121-.267-.276-.491-.491-.649-.491-1.034-1.717-2.498-.181-.204-.198-.187-.922-.609-.752-.758-.224-.155-.25-.115-.276-.052-.284.012-.267.092-.233.143-.603.546-.241.155-.293.075-.666-.023-.646-.078-.258-.077-.233-.126-.207-.149-.319-.281-.276-.33-.19-.161-.967-.123-.577-.184-.241-.121-.68-.442-.267-.103-.284-.057-.474-.02-.632.037-.31.075-.276.129-.525.327-.353.169-1.249.385-4.157.861-.345.011-.336-.026-.629-.106-.319.003-.284.155-.218.279-.224 1.016-.023.83.121 1.186-.029.442-.069.35-.164.212-.379.385-.164.23-.112.276-.121.626-.138.235-.534.609-.146.235-.345.413-.856.663-.138.238-.078.296-.009.316.086.284.241.164.649.19 25.113 3.224.586.167.258.356.138.339.06.31.077.755-.06 2.794.121.62.422 1.134.284.474.184.204.637.881.138.253.672 1.654.069.31.026.344-.112 1.361-.172.606-.19.336-.758.959-.241.385-.158.359-.069.301-.198 2.423-.069.325-.129.293-5.756 5.975-.416.345-1.972 1.306-5.32 1.875-1.648.836-1.938 3.353-.698.97-1.467 1.372-.301.477-.172.422.035.698.069.299.103.273 1.318 2.093.069.494-.207 2.214-.146.729-.155.54-.155.233-.172.192-.922.847-.448.551-.207.339-.666.856-.439.431-.336.132-.336.006-.276-.103-.732-.367-.233-.017-.224.143-.276.276-.267.207-.347.155-.232-.006-.164-.029-.19-.083-.68-.439-.586-.534-2.225-2.742-.129-.258-.293-.85-.017-.224.121-.132.448-.224.198-.181.155-.212.112-.232.12-.388.19-1.123v-.683l.112-.324-.034-.098-.215-.115-2.63-.93-.491-.063-.663.078-3.991.988-2.604.37-.991-.29-2.518-.172-.933-.155-.749-.517-1.697-1.522-.138-.247-.095-.279-.138-.623-.017-.322.06-.316.112-.278.146-.238.284-.345.431-.327 4.889-2.98.181-.141.069-.146.017-.23-.121-.253-.284-.238-.296-.043-.276.06-.792.465-.37.169-.577.195-.353-.04-.267-.126-1.278-1.404-.362-.212-.517-.227-1.085-.316-.485-.276-.267-.333-.224-.904-.12-.279-.172-.224-1.352-1.364-.267-.204-.396-.212-.261.057-.181.172-.181.569-.121.261-.207.172-2.914 1.783-.508.161-.913.155-1.243-.08-.637.052-.336.149-.129.247-.155.551-.146.241-.19.146-2.268.91-.525.322-.741.686-.276.531-.735 2.254-.129.261-.81 1.332-.25 1.074-.164.388-.189.686-.164 1.341.112 2.819-.103.629-.586 1.596-.086.347-.034.362.052.703.112.652.189.586 2.75 6.035.155.123.147.092.233.095.276.078.327.034.655-.083 1.226-.31.31-.034.293.006.215.12.155.215.112.264.138.21.181.152.258.003 1.665-.322h.215l.19.095.146.198.112.258.25.879.026.327-.112.758-.129.52-.078.818.431 2.682.043 1.447.146.62.224.557.198.904.086.23.121.072.146.006 1.148-.221.698-.072.68-.006.267.078.215.155.155.244.25.525.198.181.235.138.543.227.534.164.241.04.181.055.215.095.112.253.362 1.668.086 1.062.718 3.127.006.436-.069.534-.474 1.456-.06.474.414 2.286 1.932 5.289.06.259.009.29-.112.973.009.402.06.284.396 1.171.138.256.77 1.014.04.115.011.095-.017.178-.399 1.395-.086.996.034.342.353 1.645.029.431-.069.6-.149.336-.241.204-.267.089-.319.06-1.008-.009-.284.06-.172.233-2.113 6.226.095.744.284.399 6.5.976.37.103.233.124.847.62.939.546.465.207 1.855 1.223.577.612.431.781.517.729.5.439.56.379 1.751.724.293.06.31.035 1.51-.089.594.112.353.132.586.411.907.844-.413 1.936.126.345.261.391.327.089.327-.012.293-.075 1.812-.85.525-.06.68.026 1.481.302.511.198.19.348-.339 1.275-.508 1.198-.034.135-.034.276.172.617.353.942 1.329 2.335 8.18 9.763.787 1.195-.528 1.939.012.606.086.666.637 1.471.043.25.327.936.586 1.229.508.652.56.457 1.183.373.887.451 1.079.81 2.42 2.419 2.707.445 1.553.54 3.095 1.577 1.516.982 1.034.856 1.252.83.267.118 1.137.31.362.19 3.468 2.744 1.645.586.336.034.689-.052.672-.121.416-.026.749.161.827.356 1.278.813.362.431.086.244-.207.086-.985.239-.474.198-.25.147-.224.158-.198.187-.164.207-.121.241-.086.29-.517 2.885-.095.267-.276.497-.198.204-.235.138-.284.095-.947.218-.276.112-.241.138-.224.161-.577.543-.362.411-.115.296-.023.371.155.598.233.396 16.465 19.011.56 1.362.629 2.874-3.75 12.801-.879 7.961-.207.658-.362.497-.89.069-.534-.009-.474-.052-5.113.696-1.011.31-.12-.733-.982-6.032-.85-1.369-4.588-2.564-7.671-4.29-4.255-2.38-11.932-6.669-11.926-6.663-11.926-6.668-11.926-6.661-11.932-6.661-11.921-6.666-11.926-6.665-11.926-6.665-11.921-6.664-9.405-5.251-2.521-1.408-11.932-6.664-11.926-6.657-2.926-1.634-.086-.755-2.059-9.25-.391-.974-.818-1.422-1.326-.962-.25-.376-.649-2.676-.801-1.065-.301-.663-.164-.526-.06-.626-.121-.368-.982-1.645-.129-.548.043-.508.164-.258.172-.172.913-.706.991-.531 1.14-.758.267-.112.293-.069.293.037.258.1.241.124.293.066 2.053.172.413-.043 14.863-4.253.637-.253.405-.256.233-.474.293-1.034.672-1.674.623-.623.715-.563.741-.451.629-.497.434-.508-.029-.672-.178-.727-1.114-3.081-.121-.646-.017-.689.353-.882.095-1.593-.655-5.992-.052-.224-.095-.212-.405-.634-.069-.175-.034-.109-.146-.804-.009-.29.224-1.866-.052-.324-.095-.278-.904-1.364-.106-.235-.172-.603-.362-.807-.077-.247-.052-.319-.026-.568.086-.566.069-.155.482-.663.192-.187.646-.52.224-.233.491-.726.112-.37.052-.347-.017-.319.155-.936.086-2.492.095-.436.129-.336.172-.218.224-.169.25-.132.551-.218.244-.141.525-.583 1.292-2.46.379-.525.344-.212.201.143.172.19.422.732.172.224.19.195.655.459.612.528.258.138.276.077.293.012.258-.086.485-.241.276-.057.284.032.25.109.207.175.181.221.327.818.146.218.189.204.233.152.304.086.663.072.284.086.207.169.138.233.189.594.121.273.164.215.388.347.233.152.25.12.284.098.301.057.365.026.379-.026.439-.138.224-.25.129-.29.267-1.84.017-.33-.052-.511-.103-.258-.164-.235-.172-.204-2.518-2.001-.155-.27-.077-.37v-.672l-.164-.316-.224-.224-1.085-.436-.241-.141-.21-.172-.181-.207-.25-1.659-.207-.574-.138-.255-.344-.413-.224-.146-.258-.106-.258-.066-.241-.02-.164.026-.207.106-.459.284-.267.126-.293.06-.31-.023-.284-.086-.25-.115-.93-.583-.818-.31-.614-.138-.336-.023-.327.04-.276.103-.224.155-.155.207-.138.241-.379.79-.172.201-.244.147-.258.12-.568.201-.293.052-.293-.043-.267-.1-.241-.138-.62-.488-.241-.098-.244-.009-.258-.049-.215-.115-.543-.586-.224-.155-.258-.109-.327-.009-.327.026-.327.063-.276.109-.723.439-.27.121-.62.155-.344.026-2.63-.319-1.473.014-1.054.115h-.723l-.62-.112-.258-.106-.241-.135-.422-.336-.787-.746-.224-.155-.276-.112-.284-.072-.276-.014-.431.04.922-1.381 2.346-2.369 1.051-1.286.413-1.234.391-.864.267-.434.241-.281.612-.574 1.614-1.252.568-.672.207-.557.482-1.921.465-1.082.146-.525.017-.431-.112-.25-.146-.255-.233-.525-.258-.893-.052-.689.482-3.615v-.342l-.06-.313-.56-1.731-.189-.982-.741-1.579-.149-.224-.19-.19-.215-.155-2.3-1.103-.632-.402-.086-.405.121-2.383.164-.747.215-.477.735-.416.284-.101.301-.072.336-.043.319.029.301.08.767.391.276.08.322.034.327-.031.37-.215.413-.373 1.398-2.145.23-.224.227-.141.215-.075.129-.017.164.012.723.178.319.029.301-.006.181-.034.215-.069.967-.52.603-.147.344-.009.31.034.293.083.5.253.276.095.649.057.284-.032.189-.06.181-.078 1.016-.683.388-.356.207-.362.301-.999.192-.304.224-.221 1.283-.686.241-.172.431-.396.207-.327.138-.385.026-.388-.043-.508-.112-.342-.164-.256-.344-.356-.086-.207-.043-.19.017-1.392-.086-.876-.138-.293-.991-1.338-.284-.778-.086-.172-.115-.155-.144-.146-.158-.1-.379-.198-1.077-.388-.594-.152-.276-.103-.52-.261-.456-.29-.276-.098-.301-.06-3.19-.106-1.74.21-.301.083-.279.115-.233.147-.198.175-.189.195-.973 1.309-.198.172-.258.115-.301.011-.287-.075-.281-.121-.287-.086-.319-.017-.319.04-1.542.356-1.174.396-2.041.244-.319-.049-.304-.078-.258-.106-.474-.281-.241-.267-.215-.359-.241-.681-.034-.534.026-.537.103-.666-.069-.373-.155-.264-.241-.132-.293-.069-.336-.046-.31-.075-.27-.098-.267-.189-5.699-5.978-1.025-1.556-.077-1.031-1.602-1.419-.49-.565.283-.483.092-1.252.379-1.017 2.693-.615 1.895-1.821 1.154-.706 4.571-.468 1.769-.801.701-2.257-.58-2.211-.965-2.26-.109-1.044-.097-.931 3.302-2.702 1.171-4.488 1.281-1.907.557-.28 1.166-.238.551-.253.569-.533.402-.63 1.763-3.735.333-1.206.057-10.803.241-.676 1.039-1.316.207-.596-.281-.619-1.303-1.218-.488-.577-.396-.974-.23-1.113-.069-1.149.086-1.082.523-2.479-.006-1.076-2.509-6.049-1.003-2.421-2.149-5.185-.362-2.184.488-1.373 1.005-.776 1.12-.638.821-.986.149-1.262-.511-.948-1.516-1.558-.322-1.061-.316-2.768-.557-.759-.505.078-.368.463-.448.411-.764-.057-.523-.512-2.343-4.874-.844-4.832-1.131-3.507-.224-.492-.379-.471-.293-.072-1.573-.756-.103-.149-.109-.101-.092-.193-.121-.193-.212-.101-.138.089-.247.434-.138.098-.23.112-.62.509-.344.118-.758-.201-.505-.523-.833-1.328-1.763-1.963-.557-.969-1.614-8.415-.004-.007-.651-1.167-1.166-.773-2.618-.75-1.16-.739-.603-1.274-.551-6.833-.718-2.22-.408-.595-.522-.571-.436-.597-.144-.666.167-.63.557-1.363.086-.528-.23-.611-.683-1.192-.046-.603.31-.488.505-.221.568-.15.517-.263 1.057-1.625.522-2.231.138-4.476-.373-1.171-.815-.527-1.039-.319-1.043-.553-1.803-1.928-.999-.401-1.51.439-.58.544-.241.534-.258.233-.643-.365-.838-2.246-1.235-1.597-.034-.272-.586.049-1.102.312-1.091.072-.959.247-.471.032-.706-.268.368-.43 1.108-.709-.695-.847-.873-.328-.103-.305 2.653-1.375.603-.751-.144-.761-1.229-.643-1.079-.006-2.205.788-.873.173-1.292-.468.08-.965.706-1.284.592-1.427-.138-.899-.643-.64-.815-.545-.66-.617-.436-.885.023-.566.241-.53.218-.776.161-1.298-.017-.655-.172-.646-.465-.626-.62-.569-.488-.61-.069-.758.075-1.714-.695-1.292-1.252-.986z" />
        <path id="eastern" name="eastern region"
            d="m182.106 74.706 8.111-.067 1.912-.261.586-.003.546.148 1.011.49.718.098 10.324-.207 8.694-.179.482.107.821.494.327.079.138.033 10.709-.092 3.313.917 3.951 1.997 2.268.521.54.407.873 1.474.408.271 1.114-.084.413.132.367.497.218.54.287 1.238.178.299.287.066.333-.009.327.086 3.009 1.936 5.415 3.491 5.415 3.492 6.339 4.079 4.502 2.901 5.093 3.287 5.736 3.695 5.288 3.407 5.541 3.569 1.711 1.102 1.034 1.031 1.413 2.269.856 1.016.712.394 1.659.511 1.281 1.115.677.114 1.751-.436 1.74-.138 5.897.669 5.937.669 3.112-.266 2.831-1.24.069-.319-.046-.496.115-.463.534-.217.293.128 1.051.873.448.531.109.44.218.326.775.196.724.08.304-.042.787-.308.103.186.057.299.293.193 3.244.234-.012-.381.075-.781-.023-.368 1.504 1.985.867.883 1.016.558 5.484 1.484 4.14 1.122 1.447-.023 2.331-.45.93.126.833.309.861-.012 3.193-.674.534.13.717.33 5.003 2.301 2.165.462 2.119-.055 2.153-1.241-.008.865.792 10.329.551 1.925.379 3.143.052 7.357-.112.871-.155.532-.189.19-1.215.871-.267.315-.637.946-.362.328-.459.276-2.819.907-.525.229-.413.341-.835.916-.207.168-.233.142-.537.207-1.49.358-.491.256-.301.185-.301.272-.405.505-.164.401-.063.394.011.793-.149 1.114-.25.263-.362.22-6.922 15.466-1.137 1.708-2.966.937-.646.349-.184.31-.006.358-.115.213v.25l.155.328.287.855.767 1.592.81 3.438.181 3.067.655 3.399.215.569.086.306.313 2.007.103.28.069 1.368-.201 1.799-.006.842.086.552.37.418.155.224.138.246.293.85.164.228.181.185.215.164.388.372.267.5.769 2.337 1.688 3.279 2.303 3.502.396.383 1.792 1.247.813.75.172.207.611.932.457 1.049.146.237.172.224.569.595.327.432.502 1.056.577 2.506.112.254.138.228.164.217.792.767.224.159.241.142 1.381.482.784.385.224.155.749.741.434.336 3.388 1.937.405.353.37.401.31.445.138.245.112.271.276.508 1.243 1.419.215.172.258.125.577.185.224.152.379.353.181.198.207.172 1.019.5.181.125.052.108-.043.126-8.699 3.523-.594.336-.313.357.086.613 9.199 24.603.086.368-.006.465-.494.356-.637.313-6.586 2.544-.164.169-.164.21-1.803 3.115-.68.827-.62.589-1.26.973-.732.827-1.542 2.257-.637 1.203-.149.465-.172.824-.121.25-.233.233-18.481 6.974-.373.181-.258.155-.172.181-.129.204-.715 1.522-.758 1.177-.181.192-.21.172-.241.126-.284.083-3.431.451-.293.077-.241.092-.982.537-.155.109-.233.198-.25.385-.043.327.103.253.19.195 1.051.746.129.124.077.187 3.026 12.897.155 2.116-.078.393-.146.373-.413.804-.086.365.491 11.536-1.358-.488-.669-.385-.284-.456-.293.112-.709.129-.873-.037-.781-.393-1.315.319-3.279-1.1-1.51.023-2.799 2.056-1.662.772-1.26-.551-.505.224-.517.012-.543-.103.029.721 25.268 43.593 6.595 14.392.396 1.229.201 30.04-.08.316-.212.474-1.252 1.275-.577.744-.138.75.043.75 1.413 8.635-.095 1.54-.25 1.195-10.129 20.281-.224.233-.594.48-.241.121-.284.106-.916.236-.258.109-.457.307-.181.187-1.085 1.586-.198.164-.985.578-.267.112-.305.093-.698.081-.672-.017-.89-.141-.844-.236-.267.089.078.236 22.896 33.741-.009.124-.095.086-.577-.017-.302-.072-.258-.109-.456-.288-.25-.075h-.258l-.158.052-.189.118-.379.348-.56.607-.233.124-.301.023-.276-.06-.534-.221-.276-.083-.319-.012-.589.132-.276.101-.31.04-.327.003-.982-.129-.344.009-.33.066-.276.098-.233.144-.835.667-.241.147-.267.103-.965.078-.276.075-.244.124-.224.15-.258.121-.835.279-.241.017-.164-.02-.138-.104v-.161l.052-.27.138-.417-.103-.25-.215-.147-2.673-.227-1.637-.65-.304-.08-.319-.052-.353-.006-1.619.256-.31.02-.287-.052-.241-.124-.904-.63-.534-.204-.612-.15-.276-.103-.207-.144-.138-.138-.253-.299-.164-.155-.439-.313-.241-.135-.801-.31-.93-.575-.511-.233-.284-.104-.603-.138-.301-.029-.302.02-.319.204-.207.193-.215.141-.19.017-.787-.057-.706.046-.586.132-.319.155-.155.115-.319.42-.103.043-.164-.095-.353-.359-.683-.842-.792-.693-.233-.147-2.406-.954-.241-.147-.413-.368-.164-.207-.121-.242-.276-.868-1.131-2.291-2.412-3.682-.985-.888-.233-.144-.784-.336-.284-.078-1.872-.796-1.705-1.296-.181-.19-.993-1.311-.181-.19-.215-.17-.25-.121-.276-.086-.319.083-.37.236-.491.609-1.389.88-6.724 3.199-1.327.423-1.433-.428-.629-2.874-.56-1.362-16.465-19.011-.233-.396-.155-.598.023-.371.115-.296.362-.411.577-.543.224-.161.241-.138.276-.112.947-.218.284-.095.235-.138.198-.204.276-.497.095-.267.517-2.885.086-.29.121-.241.164-.207.198-.187.224-.158.25-.147.474-.198.985-.239.207-.086-.086-.244-.362-.431-1.278-.813-.827-.356-.749-.161-.416.026-.672.121-.689.052-.336-.034-1.645-.586-3.468-2.744-.362-.19-1.137-.31-.267-.118-1.252-.83-1.034-.856-1.516-.982-3.095-1.577-1.553-.54-2.707-.445-2.42-2.419-1.079-.81-.887-.451-1.183-.373-.56-.457-.508-.652-.586-1.229-.327-.936-.043-.25-.637-1.471-.086-.666-.012-.606.528-1.939-.787-1.195-8.18-9.763-1.329-2.335-.353-.942-.172-.617.034-.276.034-.135.508-1.198.339-1.275-.19-.348-.511-.198-1.481-.302-.68-.026-.525.06-1.812.85-.293.075-.327.012-.327-.089-.261-.391-.126-.345.413-1.936 1.533.215.517-.236.439-.549.416-.431.126-.238.034-.207-.818-1.077-.138-.29.052-.184.121-.152 2.544-1.712.267-.371.138-.414.095-.893.215-.224.276-.109.293.046.571.149.698.014 2.837.526.5.003.224-.069.207-.158 1.045-1.108.646-.551.301-.373 1.413-1.396.752-.784 1.146-2.358.655-1.838v-.399l-.189-.818-.034-.718.129-.434.233-.353.379-.359 1.045-.681.258-.118.31-.037.319.017.302.06.655.029.543-.103.373-.149.491-.258.267-.103.594-.118.284.014.276.072 1.751 1.229.121.009.129-.086.62-.603 1.525-2.136-.034-1.097.253-1.212.212-.549.086-.422v-.379l-.092-.276-.167-.212-.198-.147-.224.009-.241.1-.93.577-.267.121-.284.098-.319.052-.301-.037-.261-.112-.19-.19-.164-.224-.508-1.005-.594-2.108-.129-.256-.155-.227-.172-.195-2.07-1.711-.121-.396v-.594l.543-4.003.146-.494.141-.307.138-.103.474-.215.267-.083.25-.037h.198l.258.052.241.103.431.31.758.764 1.097.801.25.121.336.049.431-.049 7.356-2.751.586-.353.095-.253-.095-.207-.172-.21-.121-.25-.276-.899-.124-.652-.103-3.982.043-.445-.017-1.444-.456-.801-1.774-2.113-.181-.5-.06-.482.017-4.261-.198-.89-5.863-14.304-.396-.583-11.493-8.627-1.303-1.295 1.648-.836 5.32-1.875 1.972-1.306.416-.345 5.756-5.975.129-.293.069-.325.198-2.423.069-.301.158-.359.241-.385.758-.959.19-.336.172-.606.112-1.361-.026-.344-.069-.31-.672-1.654-.138-.253-.637-.881-.184-.204-.284-.474-.422-1.134-.121-.62.06-2.794-.077-.755-.06-.31-.138-.339-.258-.356-.586-.167-25.113-3.224-.649-.19-.241-.164-.086-.284.009-.316.078-.296.138-.238.856-.663.345-.413.146-.235.534-.609.138-.235.121-.626.112-.276.164-.23.379-.385.164-.212.069-.35.029-.442-.121-1.186.023-.83.224-1.016.218-.279.284-.155.319-.003.629.106.336.026.345-.011 4.157-.861 1.249-.385.353-.169.525-.327.276-.129.31-.075.632-.037.474.02.284.057.267.103.68.442.241.121.577.184.967.123.19.161.276.33.319.281.207.149.233.126.258.077.646.078.666.023.293-.075.241-.155.603-.546.233-.143.267-.092.284-.012.276.052.25.115.224.155.752.758.922.609.198.187.181.204 1.717 2.498.491 1.034.491.649.276.491.121.267.155 1.016.103.287.181.195.379.359.339.445.37.402.215.158.525.232.577.144.31.017 2.216-.454.861-.316.293-.072.319-.035.284.02.253.092.465.287.525.414.172.109.491.189.353.034.388-.011 1.011-.307.37-.02.25.106.646.445.241-.032.181-.21.284-.471.267-.241.293-.172 1.105-.448.775-.58 1.137-1.08.353-.241.735-.359.594-.396.353-.35.362-.485.293-.201.31-.055.267.103.25.129.373.029.457-.098 1.318-.749.439-.146.336-.034.692.034.637.098.336.012.336-.034 1.318-.419.52-.23.276-.218.233-.31.431-.827.25-.261.336-.25 1.045-.615.405-.072.353.014.482.264.215.143.31.063.37-.034 2.199-1.246.853-.701.956-.976.382-.488.25-.198.198-.124.491-.098.301-.009.284.052.81.319.907.256.258.031.078-.178-1.191-19.029-.276-.867-.586-.864-3.388-3.926-.646-.962-.267-.948-.563-7.511-.284-.85-.689-.814-3.017-2.803-.448-.517-.103-.095-.103-.04-.155-.035h-.215l-.215.026-.112.023-.276.121-.431.271-.778.728-.224.151-.241.125-.302.073-.319.019-.947-.144h-.327l-.322.039-.284.073-.25.109-.853.569-.999.513-.293.077-.658.047-.956-.138-.301.022-.276.086-.465.271-.207.161-.477.284-.264.103-.58.159-1.619.215-.577.172-.769.349-.293.078-.31.052-.336-.009-.319-.052-.276-.112-.232-.151-.181-.19-.164-.211-3.761-8.905-.62-.883-.37-.385-2.329-1.837-1.421-1.587-.284-.47-.189-.551-.534-3.822-.103-.327-.132-.233-.172-.168-.207-.159-2.248-1.169-.658-.483-.37-.389-.146-.263-.922-2.433-1.318-2.414-.657-.85-.379-.383-.844-.672-.724-.457-.83-.643-.172-.211-.146-.228-.121-.25-.198-.531-.121-.246-.637-.728-.293-.198-1.025-.475-.614-.16-5.489-.491-2.578.047-1.605.172-.301-.009-.224-.078-.078-.224.181-1.518-.448-1.82-2.423-6.403-.319-.646-.465-.715-3.233-2.839-.448-.734-4.502-12.757-.327-.686-.396-.407-.689-.164-.68-.004-.64.22.652 1.65-.327 1.229-.637 1.066-3.058 3.236-.448.25-.327.069-1.37-.207-.198-.069-.672.043-.528.129-.416.233-.35.355-1.461-1.562-.336-2.322.003-2.562-.448-2.288-1.306-2.209-.965-1.135-1.866-1.053-.379-1.321.017-3.844-.052-.379-.264-.614-.755-1.252-.399-1.526-.566-1.235-1.085-1.83-1.28-1.11-3.066-2.007-2.291-2.004-.19-.233-.362-1.666-.224-.44-.419-.086-.919.819-.56.233-.577-.16-.721-.746-.428-.233-2.231.073-.847-.302-.336-1.136 1.522-6.035-.003-.648-.178-.647-.482-1.166-.098-.638.121-.552.517-1.132.121-.597-.293-.362-.686-.013-1.332.203-1.898-.794-.416-.246-.29-.246-.356-.191-.436-1.39z" />
        <path id="north-eastern" name="north-eastern"
            d="m362.726 127.709.356-.205.729.043.258.577-.511 1.027 6.936.207 1.711.577.482.624.293.754.419.743.884.588 1.774-.094.936-1.464 1.212-3.706 1.436-1.726 3.646-3.33 4.37-4 1.062-1.401.919-1.716 1.55-4.104 1.091-2.912 1.12-1.376 4.76-2.306 4.783-2.307 5.386-2.606 2.515-1.252.253-.327-.04-.347.052-.222.534.052.167.095.167.046.155-.009 5.627-1.966 4.381-1.527.299-.282.327-.9.316-.295 7.178-2.768 5.868-2.258 4.622-1.778 3.503-2.307 1.223 1.621 3.348 2.276 1.367 1.56.93 1.723.574.564 1.011.517 2.653.907.896.535 1.453 1.341 3.566 4.999 2.469 1.925 2.693 1.095 2.905.338 5.673-.324 6.23-.36 2.791-.783 1.47-.081 4.45-1.101.884.06 1.47.612.792.147.804-.181 2.354-1.348 2.641.863 2.446 1.295 2.475.485 2.728-1.547-4.651 6.685-4.663 6.683-4.657 6.685-4.663 6.684-2.871 4.116-2.877 4.12-2.871 4.112-2.877 4.118-4.559 4.526-4.571 4.529-4.571 4.525-4.565 4.522-1.901 1.886-.798 1.544.029 2.978.069 7.168.075 7.487v138.928l.063 4.553.046 3.75.04 3.75.08 6.035.08 6.024.08 6.029.08 6.035.052 3.916.052 3.916.052 4.221 1.418 1.832 1.407 1.832 1.418 1.826 1.412 1.832 2.75 3.549 2.842 3.681 3.06 3.957 2.538 3.274 2.733 3.532 2.865 3.705 2.802 3.613 2.796 3.619 2.13 2.757.672 1.224.201 1.051-.147 3.48-.017.001-29.598 1.87-.353.063-42.97 19.238-3.043 1.169-.232-1.037v-.345l.238-.569-.255-.816-.775-1.686-.689-3.054-.448-.776.201-.178.376-.414.215-.167-.35-.779-.442-2.637-.255-.402-.594-.635-.256-.517-.043-.428.319-.597.069-.457-.382-2.464.037-.951.118-.187.244-.207.253-.299.146-.448-.089-.037-.327-1.479-.121-3.559-.431-.841-.749-.738-.465-.629-2.294-4.825-.319-.482-.187-.583-.365-3.59-.551-1.953-.362-2.145-.261-4.698-.657-2.157-1.237-1.447-.224-1.174-.629-1.134-.962-.787-1.22-.129.416-1.005.313-.471.408-.422-.795-.792-1.973-3.948-.353-1.588-.327-.913-.724-1.174.029-1.137-.029-.344-.844-2.544-.293-.525.198-.405.086-.333.095-.816h-.379l-.442.072-.167-.557-.152-1.754-.709-1.838-.118-.833.448-.778-.503-.528-.057-.887.086-.836-.078-.37-1.691-2.501-.103-1.005-.296-.781-.497-.603-.689-.491-.884-.35-1.456-.147-.66-.261-.204-.359-1.39-1.668-.339-.043-.054-.815-.204-.655-.405-.439-.663-.158-.37-.841-2.156-7.959-.732-1.326-.948-.566-.172-.218-.566-1.011-.212-.287-.511-.187-.824.112-.594-.307-.637-1.548-.299-.468-.784-.543-.497-.881-.746-.637-.879-.551-.712-.336-1.99-.445-.319-.106-.138-.299-.342-.304-.428-.235-1.651-.267-.62-.416-.497-.514-.879-.448-1.194-.066-1.094.25-1.039.112-1.016-.485-4.76-.19-2.943-3.62-.678-.554-.247-.123-.207-.273-.267-.27-.434-.126h-1.708l-1.766.319-.881.293-.594.356-.422.62-.35.689-.434.56-.692.232-10.448-1.55-.491-11.536.086-.365.413-.804.146-.373.078-.393-.155-2.116-3.026-12.897-.077-.187-.129-.124-1.051-.746-.19-.195-.103-.253.043-.327.25-.385.233-.198.155-.109.982-.537.241-.092.293-.077 3.431-.451.284-.083.241-.126.21-.172.181-.192.758-1.177.715-1.522.129-.204.172-.181.258-.155.373-.181 18.481-6.974.233-.233.121-.25.172-.824.149-.465.637-1.203 1.542-2.257.732-.827 1.26-.973.62-.589.68-.827 1.803-3.115.164-.21.164-.169 6.586-2.544.637-.313.494-.356.006-.465-.086-.368-9.199-24.603-.086-.613.313-.357.594-.336 8.699-3.523.043-.126-.052-.108-.181-.125-1.019-.5-.207-.172-.181-.198-.379-.353-.224-.152-.577-.185-.258-.125-.215-.172-1.243-1.419-.276-.508-.112-.271-.138-.245-.31-.445-.37-.401-.405-.353-3.388-1.937-.434-.336-.749-.741-.224-.155-.784-.385-1.381-.482-.241-.142-.224-.159-.792-.767-.164-.217-.138-.228-.112-.254-.577-2.506-.502-1.056-.327-.432-.569-.595-.172-.224-.146-.237-.457-1.049-.611-.932-.172-.207-.813-.75-1.792-1.247-.396-.383-2.303-3.502-1.688-3.279-.769-2.337-.267-.5-.388-.372-.215-.164-.181-.185-.164-.228-.293-.85-.138-.246-.155-.224-.37-.418-.086-.552.006-.842.201-1.799-.069-1.368-.103-.28-.313-2.007-.086-.306-.215-.569-.655-3.399-.181-3.067-.81-3.438-.767-1.592-.287-.855-.155-.328v-.25l.115-.213.006-.358.184-.31.646-.349 2.966-.937 1.137-1.708 6.922-15.466.362-.22.25-.263.149-1.114-.011-.793.063-.394.164-.401.405-.505.301-.272.301-.185.491-.256 1.49-.358.537-.207.233-.142.207-.168.835-.916.413-.341.525-.229 2.819-.907.459-.276.362-.328.637-.946.267-.315 1.215-.871.189-.19.155-.532.112-.871-.052-7.357-.379-3.143-.551-1.925-.792-10.329z" />
        <path id="coast" name="coast"
            d="m487.154 414.984-.048 1.111-.032.032-4.232 4.333-1.998 3.053-.262.973-1.203.742-3.16 2.877-1.98 2.434-1.153.688-.854-1.049-1.035.425-.958-.1-.638-.638-.054-1.199-1.112 1.149-.217 1.33-.515 1.285-1.605-.149-2.17-.511-.484-.036-.683.425-1.103 1.212-1.501.633-.579.751-.606.624-.873-.045-.733-.38-.529-.371-.366-.534-.231-.796.041-.823.547-1.538-.036-.678-.136-.769.226-.688.836-1.24-1.967 1.511-.226 6.537-1.185 1.479-1.031-.774-1.031-3.42-1.013-.774-.579-.335-.511-.588-.52-.208-.66.787.362.832.163.733-.145.706.904-.394.714.19.484.624.167.909-.118.371-.515.299-.127.317.185.534.407.127.407.09.176.371.095 4.054.33 2.154.714 1.403.497.136.606-.072.678.032.701.489.543.801.081.606-.624 1.444-1.37 1.688-1.234.244-.176-.629 1.818-.91-.958-.344-.769-.516-1.347-1.421-.208-.443.072-.281-.036-.213-.588-.231.072.127-.375.131-.814.149-1.388.76-1.243 1.493-1.167 1.032-1.153-.625.036.475.145.502.298.416.457.163.267.154-.104.362-.375.602.362.815 1.573 1.045.38.778-.651 1.285-1.533 1.507-1.732 1.249-2.577 1.063-3.4 4.046-1.926.733-1.704-.371-1.655-.747-1.768-.407-1.818.19-5.615 1.77-2.306 1.656-1.402.444-1.632 1.018-2.767 2.241-.656.688-.488.779-1.026 2.327-1.659 2.1-.24.937.109.43.827 1.104.063.362-.213.851-.059.484-1.049 3.554-.127 1.824 1.176.892-.289 1.458.674.643 1.144-.113 1.157-.856.045.625-.434.661-1.944 1.852-1.162 1.553-.298.67-.24 2.825-.353.969-1.89 2.69-.041.747.601 2.024-.009 1.033-.344.861-.493.797-.646.697-.791.525-2.686 1.223-.732.489-1.334 1.563-.75.598-.981.159.434-.947.601-2.124.104-.77-.999.245-.439.543-.095.725.014.784-.054.516-.326 1.372.104.308.208.303.1.331-.977 1.603-1.13 2.971-1.483 2.383-.579 3.203-.637 1.3-.705.634-.484.1-1.203-.526-.267-.163-.728-.843-.262-.054-1.478-.122.23-.485.041-.222-.574-.462-.434 1.019.154.852.669.498 1.121-.018-.669.788.226.652.782.258 1.931-.788.619.448.353.852.14.825-.108 1.758-4.481 12.375-1.424 1.373-1.591.254-1.121-.838.009-1.89-1.23.68-.344.421.199.557.375.562.19.526.249.508.561.512 1.23-.095.615.299-.158.961-1.171 1.296-.172.394-.154.494-.398.689-.493.607-.484.263-.534-.29-.371-1.278-.434-.295-.38-.675.117-1.278-.081-.77-.968.82-1.429-.784-.647-.1-.61.503.552.53.656.258 1.479.353-.416.993-.524.471-1.745.399-.57.014-.624-.059-.502.059-.203.385.041 1.179.109.553.231.571.805-1.088 1.845-.127 1.944.571 1.09 1.024-.212 1.342-2.776 4.778-1.781 4.543-1.818 6.838-.615 1.578-.497-.726-.479.041-.47.485-.443.626-.09.304.054.694-.176.313-.791.721-.172.245-1.899 5.742-.353-1.034.172-1.624-.199-.798-.714.558-.398.776-.335.871-.452.835-.271-.032-.393-.213-.353.054-.149.785.108.463.868 1.211-.561.771-1.872.277-2.116-.522-1.329-1.651-.045.322-.33.821-1.632-.494-1.203 1.157-1.017 1.588-1.085.794-.23.077-.199.018-.181.082-.183.237-4.714-3.411-4.743-3.422-4.743-3.427-4.743-3.427-4.743-3.421-4.749-3.426-4.737-3.426-4.737-3.42-4.749-3.42-.368-.266-4.369-3.159-4.749-3.419-4.737-3.425-4.737-3.419-4.749-3.424-4.737-3.424-4.743-3.424-3.026-2.175-.764-1.001-.557-1.139-.965-3.429-.419-.857-.775-.713-1.051-.506-1.171-.311-1.189-.104-2.659.155-.161-.765.442-1.087.224-.921-.281-.437-.913-.115-.402-.408-.086-.587.143-.65.264-.621.281-.495.81-.897 1.24-.984 1.321-.707 1.051-.081-.08-.995.195-.777.551-.477 1.011-.075-1.114-6.801 1.011-.31 5.113-.696.474.052.534.009.89-.069.362-.497.207-.658.879-7.961 3.75-12.801 1.433.428 1.327-.423 6.724-3.199 1.389-.88.491-.609.37-.236.319-.083.276.086.25.121.215.17.181.19.993 1.311.181.19 1.705 1.296 1.872.796.284.078.784.336.233.144.985.888 2.412 3.682 1.131 2.291.276.868.121.242.164.207.413.368.241.147 2.406.954.233.147.792.693.683.842.353.359.164.095.103-.043.319-.42.155-.115.319-.155.586-.132.706-.046.787.057.19-.017.215-.141.207-.193.319-.204.302-.02.301.029.603.138.284.104.511.233.93.575.801.31.241.135.439.313.164.155.253.299.138.138.207.144.276.103.612.15.534.204.904.63.241.124.287.052.31-.02 1.619-.256.353.006.319.052.304.08 1.637.65 2.673.227.215.147.103.25-.138.417-.052.27v.161l.138.104.164.02.241-.017.835-.279.258-.121.224-.15.244-.124.276-.075.965-.078.267-.103.241-.147.835-.667.233-.144.276-.098.33-.066.344-.009.982.129.327-.003.31-.04.276-.101.589-.132.319.012.276.083.534.221.276.06.301-.023.233-.124.56-.607.379-.348.189-.118.158-.052h.258l.25.075.456.288.258.109.302.072.577.017.095-.086.009-.124-22.896-33.741-.078-.236.267-.089.844.236.89.141.672.017.693-.081.301-.095.267-.112.985-.578.198-.164 1.085-1.586.181-.187.457-.307.258-.109.916-.236.284-.106.241-.121.594-.48.224-.233 10.129-20.281.25-1.195.095-1.54-1.413-8.635-.043-.75.138-.75.577-.744 1.252-1.275.212-.474.08-.316-.201-30.04-.396-1.229-6.595-14.392-25.268-43.593-.029-.721.543.103.517-.012.505-.224 1.26.551 1.662-.772 2.799-2.056 1.51-.023 3.279 1.1 1.315-.319.781.393.873.037.709-.129.293-.112.284.456.669.385 1.358.488 10.448 1.55.692-.232.434-.56.35-.689.422-.62.594-.356.881-.293 1.766-.319h1.708l.434.126.267.27.207.273.247.123.678.554 2.943 3.62 4.76.19 1.016.485 1.039-.112 1.094-.25 1.194.066.879.448.497.514.62.416 1.651.267.428.235.342.304.138.299.319.106 1.99.445.712.336.879.551.746.637.497.881.784.543.299.468.637 1.548.594.307.824-.112.511.187.212.287.566 1.011.172.218.948.566.732 1.326 2.156 7.959.37.841.663.158.405.439.204.655.054.815.339.043 1.39 1.668.204.359.66.261 1.456.147.884.35.689.491.497.603.296.781.103 1.005 1.691 2.501.078.37-.086.836.057.887.503.528-.448.778.118.833.709 1.838.152 1.754.167.557.442-.072h.379l-.095.816-.086.333-.198.405.293.525.844 2.544.029.344-.029 1.137.724 1.174.327.913.353 1.588 1.973 3.948.795.792-.408.422-.313.471-.416 1.005 1.22.129.962.787.629 1.134.224 1.174 1.237 1.447.657 2.157.261 4.698.362 2.145.551 1.953.365 3.59.187.583.319.482 2.294 4.825.465.629.749.738.431.841.121 3.559.327 1.479.089.037-.146.448-.253.299-.244.207-.118.187-.037.951.382 2.464-.069.457-.319.597.043.428.256.517.594.635.255.402.442 2.637.35.779-.215.167-.376.414-.201.178.448.776.689 3.054.775 1.686.255.816-.238.569v.345l.232 1.037 3.043-1.169 42.977-19.232.353-.063 29.598-1.87zm-26.777 20.748.651-.737 1.506.095 1.664.543 1.144.651 1.081 1.746-.416 1.176-1.022.19-.751-1.212.05.611-.081.624-.217.466-.353.19-.163.072-.104.14-.163.14-.33.072-.384-.131-.307-.258-.199-.258-.059-.122-.732.109-.99.335-2.071 1.077-.506-.371-.488.09-.371.471-.154.76.298.434.597.353.425.394-.213.566-.692-.009-.434-.326-.244-.543-.109-.679-1.234.258.005-1.262.66-1.751.76-1.249 1.013-.566 1.307-.389 1.139-.579zm-351.965-35.415-9.001-5.028-11.932-6.657-11.926-6.662-2.964-1.656.075-.225-.164-.131-.278-.115-.147-.474.425-.572.818-.131.589-.213-.311-.851-.703.458-.9.213-.85-.213-.589-.801 1.161.262.425-.344.327-1.439 2.535 1.619.883.245v-.343l-.491-1.096.18-1.341.671-2.323.572-.752 1.079-.654.752-.85-.458-1.358-.523-.278-2.551-.867-2.29-1.586-.36-.131-.033-1.063-.213-1.521-.556-1.145-1.112.131.572-4.956.376-.769.425-.164.572-.425.491-.507.229-.458-.147-.736-.425-.523-.523-.458-.458-.556.343-.164.785-.065.425-.147.883-.949.065-.147 1.913.164.736-.196.605-.769.736-3.712.818-1.587 1.864-.392-.147.196-.229.54 1.586.049 2.241 2.028 1.472.605-.196-.393-.18-.507.016-.458.36-.164.393.229.458.965.262.327.916.147.72-.376.278-.752-.36-.949.85-.033.638.18.523.344.474.507.311.474.507 1.145.098.458-.262.393-.425.507-.033.458.916.18.687-.229 1.357-1.079.638-.229.147-.196 1.57-.949.131-.491-.016-.769-.294-.703-2.388-.965-.425-1.505.082-1.652-.115-1.161 1.063-.491 1.668-.458 1.619-.262.949.065.572-.376.442-.033.376.213.376.376.605.376.507-.016.491-.147.458-.049 2.519.72 1.112.082 3.451-.343.736-.245.033-.85-.327-1.096.065-.752 1.178.229.671-.245 1.472 1.079 1.096.327.491-.18.294-.409.18-.393.163-.18.294-.213-.425-.441-.572-.393-.213-.065-1.897-3.614-.196-.589-.752-.278-.752-.638-.621-.752-.376-.622-.376.425-.671-1.341-.016-.785.245-.785.065-1.325-.769.294-2.682-.082-.262.507-.605.556-.687.458-1.259.36-1.308.769-2.012.294-.867.376-.801.556-.736.687-.85.507-.785-.065-1.652-.638h-.834l-2.208.801-1.635-.229-.981.049-.801.523-.213.834.262.883.622.507.85-.311.572 1.161.294 1.178-.082 1.079-.589.949-2.829 2.191-.393.867-.245.932-.605.932-.834.327-.949-.85.065-.245.229-.458.147-.572-.098-.654-.278-.327-.523-.344-.589-.311-.491-.164.589-.605.164-.54-.311-.343-.818-.016.932-1.897-.229-.687-1.096-.834-1.864-.883-.605-.687.163-1.112-1.652.131-1.995-.327-1.57-.916-.474-1.586.311-.262 1.357-.703.442-.131.801-.18.033-.327-.54-.278-.883.016.998-1.505.229-.818-.638-.36-1.603.049-.981.229-.671.507h.393l-.196.474-.131.425-.065.442v.556l-.425-.278-.115-.278-.033-.311-.18-.294.213.114-.638-.85-.262.115-.654.016-.36-.245.523-.671v-.343l-.311-.229-.36-.131-1.014-.065-.213-.229v-1.652l-.03-.14.231-.579.179-.371.836-1.413.112-.267.069-.302.017-.316-.155-.965v-.342l.052-.313.095-.264.129-.207.121-.138.56-.5.663-.462.517-.25 1.045-.37.121-.112.121-.19.129-.442.034-.241.069-1.803.189-1.2.224-.896.103-.23.112-.181.982-1.036 1.665-1.022.362-.109.517-.023.982.075.485-.069.362-.115.189-.189.189-.221.146-.233.422-1.068.129-.218.146-.167.103-.1.388-.276.258-.124.293-.092.322-.063.422-.023.457.023 2.983.577.655.069.319-.026.284-.103.468-.29.525-.238.31-.08.405.06.482.215.999 1.011.207.316.189.548.155 1.019.029 1.074.069.313.095.276.138.232 3.026 3.055.129.253-.009.276-.172.89.164.342.439.382 1.008.402 1.464.91.287.264.121.238.06.293-.026.299-.129.62-.009 1.694-.198.568-.267.494-.098.267-.138.52-.026.204.052.227.112.215.155.241.235.198.345.215.405.069.474-.032.689-.218 1.501-.634.922-.241.336.017 1.26.359 1.318.64.379.034.474-.055 1.26-.439.448-.112.431-.017 1.137.241.83.052 1.309-.345.431-.04.276.014.284.072.276.112.224.155.787.746.422.336.241.135.258.106.62.112h.723l1.054-.115 1.473-.014 2.63.319.344-.026.62-.155.27-.121.723-.439.276-.109.327-.063.327-.026.327.009.258.109.224.155.543.586.215.115.258.049.244.009.241.098.62.488.241.138.267.1.293.043.293-.052.568-.201.258-.12.244-.147.172-.201.379-.79.138-.241.155-.207.224-.155.276-.103.327-.04.336.023.614.138.818.31.93.583.25.115.284.086.31.023.293-.06.267-.126.459-.284.207-.106.164-.026.241.02.258.066.258.106.224.146.344.413.138.255.207.574.25 1.659.181.207.21.172.241.141 1.085.436.224.224.164.316v.672l.077.37.155.27 2.518 2.001.172.204.164.235.103.258.052.511-.017.33-.267 1.84-.129.29-.224.25-.439.138-.379.026-.365-.026-.301-.057-.284-.098-.25-.12-.233-.152-.388-.347-.164-.215-.121-.273-.189-.594-.138-.233-.207-.169-.284-.086-.663-.072-.304-.086-.233-.152-.189-.204-.146-.218-.327-.818-.181-.221-.207-.175-.25-.109-.284-.032-.276.057-.485.241-.258.086-.293-.012-.276-.077-.258-.138-.612-.528-.655-.459-.19-.195-.172-.224-.422-.732-.172-.19-.201-.143-.344.212-.379.525-1.292 2.46-.525.583-.244.141-.551.218-.25.132-.224.169-.172.218-.129.336-.095.436-.086 2.492-.155.936.017.319-.052.347-.112.37-.491.726-.224.233-.646.52-.192.187-.482.663-.069.155-.086.566.026.568.052.319.077.247.362.807.172.603.106.235.904 1.364.095.278.052.324-.224 1.866.009.29.146.804.034.109.069.175.405.634.095.212.052.224.655 5.992-.095 1.593-.353.882.017.689.121.646 1.114 3.081.178.727.029.672-.434.508-.629.497-.741.451-.715.563-.623.623-.672 1.674-.293 1.034-.233.474-.405.256-.637.253-14.863 4.253-.413.043-2.053-.172-.293-.066-.241-.124-.258-.1-.293-.037-.293.069-.267.112-1.14.758-.991.531-.913.706-.172.172-.164.258-.043.508.129.548.982 1.645.121.368.06.626.164.526.301.663.801 1.065.649 2.676.25.376 1.326.962.818 1.422.391.974 2.059 9.25zm-31.807-55.965.409-.229.262-.392.491-1.505.818 1.128.507.409.605.016.294-.344.376-1.129.474-.458-.294 1.603-.736 1.014-2.388 1.586-.621-.18-.949-.049-.736-.213v-.703zm-11.104 3.27.245-.507.229-.311.507-.245 1.766-.164 1.914-.54.818.278.343 1.259.147.409.294.18.147.213-.245.474-.474.393-1.227.425-.54.392-1.03-.376-1.488-.981-1.112-.196-.343-.213z" />
        <path id="nyanza" name="nyanza"
            d="m460.377 435.732.651-.737 1.506.095 1.664.543 1.144.651 1.081 1.746-.416 1.176-1.022.19-.751-1.212.05.611-.081.624-.217.466-.353.19-.163.072-.104.14-.163.14-.33.072-.384-.131-.307-.258-.199-.258-.059-.122-.732.109-.99.335-2.071 1.077-.506-.371-.488.09-.371.471-.154.76.298.434.597.353.425.394-.213.566-.692-.009-.434-.326-.244-.543-.109-.679-1.234.258.005-1.262.66-1.751.76-1.249 1.013-.566 1.307-.389 1.139-.579zm-351.965-35.415-9.001-5.028-11.932-6.657-11.926-6.662-2.964-1.656.075-.225-.164-.131-.278-.115-.147-.474.425-.572.818-.131.589-.213-.311-.851-.703.458-.9.213-.85-.213-.589-.801 1.161.262.425-.344.327-1.439 2.535 1.619.883.245v-.343l-.491-1.096.18-1.341.671-2.323.572-.752 1.079-.654.752-.85-.458-1.358-.523-.278-2.551-.867-2.29-1.586-.36-.131-.033-1.063-.213-1.521-.556-1.145-1.112.131.572-4.956.376-.769.425-.164.572-.425.491-.507.229-.458-.147-.736-.425-.523-.523-.458-.458-.556.343-.164.785-.065.425-.147.883-.949.065-.147 1.913.164.736-.196.605-.769.736-3.712.818-1.587 1.864-.392-.147.196-.229.54 1.586.049 2.241 2.028 1.472.605-.196-.393-.18-.507.016-.458.36-.164.393.229.458.965.262.327.916.147.72-.376.278-.752-.36-.949.85-.033.638.18.523.344.474.507.311.474.507 1.145.098.458-.262.393-.425.507-.033.458.916.18.687-.229 1.357-1.079.638-.229.147-.196 1.57-.949.131-.491-.016-.769-.294-.703-2.388-.965-.425-1.505.082-1.652-.115-1.161 1.063-.491 1.668-.458 1.619-.262.949.065.572-.376.442-.033.376.213.376.376.605.376.507-.016.491-.147.458-.049 2.519.72 1.112.082 3.451-.343.736-.245.033-.85-.327-1.096.065-.752 1.178.229.671-.245 1.472 1.079 1.096.327.491-.18.294-.409.18-.393.163-.18.294-.213-.425-.441-.572-.393-.213-.065-1.897-3.614-.196-.589-.752-.278-.752-.638-.621-.752-.376-.622-.376.425-.671-1.341-.016-.785.245-.785.065-1.325-.769.294-2.682-.082-.262.507-.605.556-.687.458-1.259.36-1.308.769-2.012.294-.867.376-.801.556-.736.687-.85.507-.785-.065-1.652-.638h-.834l-2.208.801-1.635-.229-.981.049-.801.523-.213.834.262.883.622.507.85-.311.572 1.161.294 1.178-.082 1.079-.589.949-2.829 2.191-.393.867-.245.932-.605.932-.834.327-.949-.85.065-.245.229-.458.147-.572-.098-.654-.278-.327-.523-.344-.589-.311-.491-.164.589-.605.164-.54-.311-.343-.818-.016.932-1.897-.229-.687-1.096-.834-1.864-.883-.605-.687.163-1.112-1.652.131-1.995-.327-1.57-.916-.474-1.586.311-.262 1.357-.703.442-.131.801-.18.033-.327-.54-.278-.883.016.998-1.505.229-.818-.638-.36-1.603.049-.981.229-.671.507h.393l-.196.474-.131.425-.065.442v.556l-.425-.278-.115-.278-.033-.311-.18-.294.213.114-.638-.85-.262.115-.654.016-.36-.245.523-.671v-.343l-.311-.229-.36-.131-1.014-.065-.213-.229v-1.652l-.03-.14.231-.579.179-.371.836-1.413.112-.267.069-.302.017-.316-.155-.965v-.342l.052-.313.095-.264.129-.207.121-.138.56-.5.663-.462.517-.25 1.045-.37.121-.112.121-.19.129-.442.034-.241.069-1.803.189-1.2.224-.896.103-.23.112-.181.982-1.036 1.665-1.022.362-.109.517-.023.982.075.485-.069.362-.115.189-.189.189-.221.146-.233.422-1.068.129-.218.146-.167.103-.1.388-.276.258-.124.293-.092.322-.063.422-.023.457.023 2.983.577.655.069.319-.026.284-.103.468-.29.525-.238.31-.08.405.06.482.215.999 1.011.207.316.189.548.155 1.019.029 1.074.069.313.095.276.138.232 3.026 3.055.129.253-.009.276-.172.89.164.342.439.382 1.008.402 1.464.91.287.264.121.238.06.293-.026.299-.129.62-.009 1.694-.198.568-.267.494-.098.267-.138.52-.026.204.052.227.112.215.155.241.235.198.345.215.405.069.474-.032.689-.218 1.501-.634.922-.241.336.017 1.26.359 1.318.64.379.034.474-.055 1.26-.439.448-.112.431-.017 1.137.241.83.052 1.309-.345.431-.04.276.014.284.072.276.112.224.155.787.746.422.336.241.135.258.106.62.112h.723l1.054-.115 1.473-.014 2.63.319.344-.026.62-.155.27-.121.723-.439.276-.109.327-.063.327-.026.327.009.258.109.224.155.543.586.215.115.258.049.244.009.241.098.62.488.241.138.267.1.293.043.293-.052.568-.201.258-.12.244-.147.172-.201.379-.79.138-.241.155-.207.224-.155.276-.103.327-.04.336.023.614.138.818.31.93.583.25.115.284.086.31.023.293-.06.267-.126.459-.284.207-.106.164-.026.241.02.258.066.258.106.224.146.344.413.138.255.207.574.25 1.659.181.207.21.172.241.141 1.085.436.224.224.164.316v.672l.077.37.155.27 2.518 2.001.172.204.164.235.103.258.052.511-.017.33-.267 1.84-.129.29-.224.25-.439.138-.379.026-.365-.026-.301-.057-.284-.098-.25-.12-.233-.152-.388-.347-.164-.215-.121-.273-.189-.594-.138-.233-.207-.169-.284-.086-.663-.072-.304-.086-.233-.152-.189-.204-.146-.218-.327-.818-.181-.221-.207-.175-.25-.109-.284-.032-.276.057-.485.241-.258.086-.293-.012-.276-.077-.258-.138-.612-.528-.655-.459-.19-.195-.172-.224-.422-.732-.172-.19-.201-.143-.344.212-.379.525-1.292 2.46-.525.583-.244.141-.551.218-.25.132-.224.169-.172.218-.129.336-.095.436-.086 2.492-.155.936.017.319-.052.347-.112.37-.491.726-.224.233-.646.52-.192.187-.482.663-.069.155-.086.566.026.568.052.319.077.247.362.807.172.603.106.235.904 1.364.095.278.052.324-.224 1.866.009.29.146.804.034.109.069.175.405.634.095.212.052.224.655 5.992-.095 1.593-.353.882.017.689.121.646 1.114 3.081.178.727.029.672-.434.508-.629.497-.741.451-.715.563-.623.623-.672 1.674-.293 1.034-.233.474-.405.256-.637.253-14.863 4.253-.413.043-2.053-.172-.293-.066-.241-.124-.258-.1-.293-.037-.293.069-.267.112-1.14.758-.991.531-.913.706-.172.172-.164.258-.043.508.129.548.982 1.645.121.368.06.626.164.526.301.663.801 1.065.649 2.676.25.376 1.326.962.818 1.422.391.974 2.059 9.25zm-31.807-55.965.409-.229.262-.392.491-1.505.818 1.128.507.409.605.016.294-.344.376-1.129.474-.458-.294 1.603-.736 1.014-2.388 1.586-.621-.18-.949-.049-.736-.213v-.703zm-11.104 3.27.245-.507.229-.311.507-.245 1.766-.164 1.914-.54.818.278.343 1.259.147.409.294.18.147.213-.245.474-.474.393-1.227.425-.54.392-1.03-.376-1.488-.981-1.112-.196-.343-.213z" />
        <path id="nairobi" name="nairobi"
            d="m242.453 390.576-1.413 1.396-.301.373-.646.551-1.045 1.108-.207.158-.224.069-.5-.003-2.837-.526-.698-.014-.571-.149-.293-.046-.276.109-.215.224-.095.893-.138.414-.267.371-2.544 1.712-.121.152-.052.184.138.29.818 1.077-.034.207-.126.238-.416.431-.439.549-.517.236-1.533-.215-.907-.844-.586-.411-.353-.132-.594-.112-1.51.089-.31-.035-.293-.06-1.751-.724-.56-.379-.5-.439-.517-.729-.431-.781-.577-.612-1.855-1.223 1.484-1.608.939-1.367.319-.316.379-.215.422-.106.689-.33.339-.276 1.774-2.228.56-.436.451-.227.301.046 2.248.729.301.032.336-.075.511-.198.431-.112.956-.135.302-.149.25-.181 1.51-1.631.293-.043.276.043.405.241.129.06.543.169.189.112.095.178-.026.241-.534.916-.069.296-.017.302.095.267.207.19.942.58.93.428.422.126.844.115.792.017.468-.046.379-.086.715-.264 1.614-.316.724.425.56.451z" />
        <path id="western" name="western"
            d="m99.588 261.101.065-.012.314-.536.49.565 1.602 1.419.077 1.031 1.025 1.556 5.699 5.978.267.189.27.098.31.075.336.046.293.069.241.132.155.264.069.373-.103.666-.026.537.034.534.241.681.215.359.241.267.474.281.258.106.304.078.319.049 2.041-.244 1.174-.396 1.542-.356.319-.04.319.017.287.086.281.121.287.075.301-.011.258-.115.198-.172.973-1.309.189-.195.198-.175.233-.147.279-.115.301-.083 1.74-.21 3.19.106.301.06.276.098.456.29.52.261.276.103.594.152 1.077.388.379.198.158.1.144.146.115.155.086.172.284.778.991 1.338.138.293.086.876-.017 1.392.043.19.086.207.344.356.164.256.112.342.043.508-.026.388-.138.385-.207.327-.431.396-.241.172-1.283.686-.224.221-.192.304-.301.999-.207.362-.388.356-1.016.683-.181.078-.189.06-.284.032-.649-.057-.276-.095-.5-.253-.293-.083-.31-.034-.344.009-.603.147-.967.52-.215.069-.181.034-.301.006-.319-.029-.723-.178-.164-.012-.129.017-.215.075-.227.141-.23.224-1.398 2.145-.413.373-.37.215-.327.031-.322-.034-.276-.08-.767-.391-.301-.08-.319-.029-.336.043-.301.072-.284.101-.735.416-.215.477-.164.747-.121 2.383.086.405.632.402 2.3 1.103.215.155.19.19.149.224.741 1.579.189.982.56 1.731.06.313v.342l-.482 3.615.052.689.258.893.233.525.146.255.112.25-.017.431-.146.525-.465 1.082-.482 1.921-.207.557-.568.672-1.614 1.252-.612.574-.241.281-.267.434-.391.864-.413 1.234-1.051 1.286-2.346 2.369-.922 1.381-1.309.345-.83-.052-1.137-.241-.431.017-.448.112-1.26.439-.474.055-.379-.034-1.318-.64-1.26-.359-.336-.017-.922.241-1.501.634-.689.218-.474.032-.405-.069-.345-.215-.235-.198-.155-.241-.112-.215-.052-.227.026-.204.138-.52.098-.267.267-.494.198-.568.009-1.694.129-.62.026-.299-.06-.293-.121-.238-.287-.264-1.464-.91-1.008-.402-.439-.382-.164-.342.172-.89.009-.276-.129-.253-3.026-3.055-.138-.232-.095-.276-.069-.313-.029-1.074-.155-1.019-.189-.548-.207-.316-.999-1.011-.482-.215-.405-.06-.31.08-.525.238-.468.29-.284.103-.319.026-.655-.069-2.983-.577-.457-.023-.422.023-.322.063-.293.092-.258.124-.388.276-.103.1-.146.167-.129.218-.422 1.068-.146.233-.189.221-.189.189-.362.115-.485.069-.982-.075-.517.023-.362.109-1.665 1.022-.982 1.036-.112.181-.103.23-.224.896-.189 1.2-.069 1.803-.034.241-.129.442-.121.19-.121.112-1.045.37-.517.25-.663.462-.56.5-.121.138-.129.207-.095.264-.052.313v.342l.155.965-.017.316-.069.302-.112.267-.836 1.413-.179.371-.231.579-.313-1.463-.033-.491-.18-.621-.458-.376-.491-.311-.393-.392-.196-.491-.115-.507-.065-1.096.163-.589h.409l.491.164.458-.18.327-.72.114-.883-.065-1.635.131-.932.54-1.766.131-.703-.098-.409-.343-.72 2.498-3.331 1.998-1.55.477-.735.155-1.131-.626-2.027-.057-1.022.247-.505.959-1.137.391-.58.172-.471 1.338-5.484.046-.189.953-1.711 1.642-1.126 2.257-.815 1.797-.913 1.338-1.436.896-2.383.219-1.279.12-.697.459-.488 3.566-1.786.953-.867.798-2.237 1.602-2.082 1.441-3.561.327-1.137.017-1.218.018-1.275.287-1.183.465-1.131.546-.993 1.137-1.114.919.215.907.514z" />
        <path id="central" name="central"
            d="m239.935 320.77 1.303 1.295 11.493 8.627.396.583 5.863 14.304.198.89-.017 4.261.06.482.181.5 1.774 2.113.456.801.017 1.444-.043.445.103 3.982.124.652.276.899.121.25.172.21.095.207-.095.253-.586.353-7.356 2.751-.431.049-.336-.049-.25-.121-1.097-.801-.758-.764-.431-.31-.241-.103-.258-.052h-.198l-.25.037-.267.083-.474.215-.138.103-.141.307-.146.494-.543 4.003v.594l.121.396 2.07 1.711.172.195.155.227.129.256.594 2.108.508 1.005.164.224.19.19.261.112.301.037.319-.052.284-.098.267-.121.93-.577.241-.1.224-.009.198.147.167.212.092.276v.379l-.086.422-.212.549-.253 1.212.034 1.097-1.525 2.136-.62.603-.129.086-.121-.009-1.751-1.229-.276-.072-.284-.014-.594.118-.267.103-.491.258-.373.149-.543.103-.655-.029-.302-.06-.319-.017-.31.037-.258.118-1.045.681-.379.359-.233.353-.129.434.034.718.189.818v.396l-.655 1.838-1.146 2.358-.752.784-.818-.988-.56-.451-.724-.425-1.614.316-.715.264-.379.086-.468.046-.792-.017-.844-.115-.422-.126-.93-.428-.942-.58-.207-.19-.095-.267.017-.302.069-.296.534-.916.026-.241-.095-.178-.189-.112-.543-.169-.129-.06-.405-.241-.276-.043-.293.043-1.51 1.631-.25.181-.302.149-.956.135-.431.112-.511.198-.336.075-.301-.032-2.248-.729-.301-.046-.451.227-.56.436-1.774 2.228-.339.276-.689.33-.422.106-.379.215-.319.316-.939 1.367-1.484 1.608-.465-.207-.939-.546-.847-.62-.233-.124-.37-.103-6.5-.976-.284-.399-.095-.744 2.113-6.226.172-.233.284-.06 1.008.009.319-.06.267-.089.241-.204.149-.336.069-.6-.029-.431-.353-1.645-.034-.342.086-.996.399-1.395.017-.178-.011-.095-.04-.115-.77-1.014-.138-.256-.396-1.171-.06-.284-.009-.402.112-.973-.009-.29-.06-.259-1.932-5.289-.414-2.286.06-.474.474-1.456.069-.534-.006-.436-.718-3.127-.086-1.062-.362-1.668-.112-.253-.215-.095-.181-.055-.241-.04-.534-.164-.543-.227-.235-.138-.198-.181-.25-.525-.155-.244-.215-.155-.267-.078-.68.006-.698.072-1.148.221-.146-.006-.121-.072-.086-.23-.198-.904-.224-.557-.146-.62-.043-1.447-.431-2.682.078-.818.129-.52.112-.758-.026-.327-.25-.879-.112-.258-.146-.198-.19-.095h-.215l-1.665.322-.258-.003-.181-.152-.138-.21-.112-.264-.155-.215-.215-.12-.293-.006-.31.034-1.226.31-.655.083-.327-.034-.276-.078-.233-.095-.147-.092-.155-.123-2.75-6.035-.189-.586-.112-.652-.052-.703.034-.362.086-.347.586-1.596.103-.629-.112-2.819.164-1.341.189-.686.164-.388.25-1.074.81-1.332.129-.261.735-2.254.276-.531.741-.686.525-.322 2.268-.91.19-.146.146-.241.155-.551.129-.247.336-.149.637-.052 1.243.08.913-.155.508-.161 2.914-1.783.207-.172.121-.261.181-.569.181-.172.261-.057.396.212.267.204 1.352 1.364.172.224.12.279.224.904.267.333.485.276 1.085.316.517.227.362.212 1.278 1.404.267.126.353.04.577-.195.37-.169.792-.465.276-.06.296.043.284.238.121.253-.017.23-.069.146-.181.141-4.889 2.98-.431.327-.284.345-.146.238-.112.278-.06.316.017.322.138.623.095.279.138.247 1.697 1.522.749.517.933.155 2.518.172.991.29 2.604-.37 3.991-.988.663-.078.491.063 2.63.93.215.115.034.098-.112.324v.683l-.19 1.123-.12.388-.112.232-.155.212-.198.181-.448.224-.121.132.017.224.293.85.129.258 2.225 2.742.586.534.68.439.19.083.164.029.232.006.347-.155.267-.207.276-.276.224-.143.233.017.732.367.276.103.336-.006.336-.132.439-.431.666-.856.207-.339.448-.551.922-.847.172-.192.155-.233.155-.54.146-.729.207-2.214-.069-.494-1.318-2.093-.103-.273-.069-.299-.035-.698.172-.422.301-.477 1.467-1.372.698-.97z" />
    </g>
    <g id="centers" style="fill: none; pointer-events: none;">
        <circle id="western" class="western" cx="96.696" cy="289.696" r="4.445" />
        <circle id="nyanza" class="nyanza" cx="103.969" cy="357.737" r="3.986" />
        <circle id="rift-valley" class="rift-valley" cx="166.428" cy="242.196" r="4.445" />
        <circle id="central" class="central" cx="224.851" cy="357.209" r="3.458" />
        <circle id="nairobi" class="nairobi" cx="227.056" cy="392.344" r="3.163" />
        <circle id="coast" class="coast" cx="365.023" cy="438.353" r="4.09" />
        <circle id="eastern" class="eastern" cx="283.374" cy="319.626" r="4.374" />
        <circle id="north-eastern" class="north-eastern" cx="411.561" cy="282.192" r="4.031" />
    </g>
</svg>