<?xml version="1.0" encoding="utf-8"?>
<!-- Generator: Adobe Illustrator 22.0.0, SVG Export Plug-In . SVG Version: 6.00 Build 0)  -->
<svg version="1.1" id="Kenya" xmlns="http://www.w3.org/2000/svg" xmlns:xlink="http://www.w3.org/1999/xlink" x="0px" y="0px"
	 viewBox="0 0 558 625" style="enable-background:new 0 0 558 625;" xml:space="preserve">
<style type="text/css">
	.st0{fill:#073363;}
	.st1{fill:none;}
</style>
<g id="regions">
	<path id="rift-valley" class="st0" d="M67.2,87.2l5.6-5.6l5.6-5.6l5.6-5.6l5.6-5.6l4.4-2.3l3.9-2l3.8-1.9l3.8-1.9l5.4-2l4.5-1.7
		l4.2-1.6l4.6-1.7l5.1-1.9l4.6-1.7l3.9-1.5l1,1.8l3.9-2.2l4.3-2.4l1.2,1.5l-2.1,4.3h5.5l4.2,1.2l-2.7,6.9l2.2,4.1l2.7,4.9l0.1,0
		l4.9,1.7l0.3-1.7l0,0l0.3-2.3l1.5-1.1l2.2,0.2l0.2,3.3l4.2,0l3.6,0l0.1,1l0.7,1.3l0.1,1.1l-0.2,1.1l0,0.9l0.4,0.8l1,0.6l2.2,1.9
		l1.2,0.8l1.3,0.3l0.2,0l0,65.5l0.4,1.4l0.4,0.2l0.3,0.2l0.4,0.2l1.9,0.8l1.3-0.2l0.7,0l0.3,0.4l-0.1,0.6l-0.5,1.1l-0.1,0.6l0.1,0.6
		l0.5,1.2l0.2,0.6l0,0.6l-1.5,6l0.3,1.1l0.8,0.3l2.2-0.1l0.4,0.2l0.7,0.7l0.6,0.2l0.6-0.2l0.9-0.8l0.4,0.1l0.2,0.4l0.4,1.7l0.2,0.2
		l2.3,2l3.1,2l1.3,1.1l1.1,1.8l0.6,1.2l0.4,1.5l0.8,1.3l0.3,0.6l0.1,0.4l0,3.8l0.4,1.3l1.9,1.1l1,1.1l1.3,2.2l0.4,2.3l0,2.6l0.3,2.3
		l1.5,1.6l0.4-0.4l0.4-0.2l0.5-0.1l0.7,0l0.2,0.1l1.4,0.2l0.3-0.1l0.4-0.3l3.1-3.2l0.6-1.1l0.3-1.2l-0.7-1.6l0.6-0.2l0.7,0l0.7,0.2
		l0.4,0.4l0.3,0.7l4.5,12.8l0.4,0.7l3.2,2.8l0.5,0.7l0.3,0.6l2.4,6.4l0.4,1.8l-0.2,1.5l0.1,0.2l0.2,0.1l0.3,0l1.6-0.2l2.6,0l5.5,0.5
		l0.6,0.2l1,0.5l0.3,0.2l0.6,0.7l0.1,0.2l0.2,0.5l0.1,0.3l0.1,0.2l0.2,0.2l0.8,0.6l0.7,0.5l0.8,0.7l0.4,0.4l0.7,0.9l1.3,2.4l0.9,2.4
		l0.1,0.3l0.4,0.4l0.7,0.5l2.2,1.2l0.2,0.2l0.2,0.2l0.1,0.2l0.1,0.3l0.5,3.8l0.2,0.6l0.3,0.5l1.4,1.6l2.3,1.8l0.4,0.4l0.6,0.9
		l3.8,8.9l0.2,0.2l0.2,0.2l0.2,0.2l0.3,0.1l0.3,0.1l0.3,0l0.3-0.1l0.3-0.1l0.8-0.3l0.6-0.2l1.6-0.2l0.6-0.2l0.3-0.1l0.5-0.3l0.2-0.2
		l0.5-0.3l0.3-0.1l0.3,0l1,0.1l0.7,0l0.3-0.1l1-0.5l0.9-0.6l0.3-0.1l0.3-0.1l0.3,0h0.3l0.9,0.1l0.3,0l0.3-0.1l0.2-0.1l0.2-0.2
		l0.8-0.7l0.4-0.3l0.3-0.1l0.1,0l0.2,0h0.2l0.2,0l0.1,0l0.1,0.1l0.4,0.5l3,2.8l0.7,0.8l0.3,0.9l0.6,7.5l0.3,0.9l0.6,1l3.4,3.9
		l0.6,0.9l0.3,0.9l1.2,19l-0.1,0.2l-0.3,0l-0.9-0.3l-0.8-0.3l-0.3-0.1l-0.3,0l-0.5,0.1l-0.2,0.1l-0.3,0.2l-0.4,0.5l-1,1l-0.9,0.7
		l-2.2,1.2l-0.4,0l-0.3-0.1l-0.2-0.1l-0.5-0.3l-0.4,0l-0.4,0.1l-1,0.6l-0.3,0.3l-0.3,0.3l-0.4,0.8l-0.2,0.3l-0.3,0.2l-0.5,0.2
		l-1.3,0.4l-0.3,0l-0.3,0l-0.6-0.1l-0.7,0l-0.3,0l-0.4,0.1l-1.3,0.7l-0.5,0.1l-0.4,0l-0.3-0.1l-0.3-0.1l-0.3,0.1l-0.3,0.2l-0.4,0.5
		l-0.4,0.4L272,286l-0.7,0.4l-0.4,0.2l-1.1,1.1l-0.8,0.6l-1.1,0.4l-0.3,0.2l-0.3,0.2l-0.3,0.5l-0.2,0.2l-0.2,0l-0.6-0.4l-0.3-0.1
		l-0.4,0l-1,0.3l-0.4,0l-0.4,0l-0.5-0.2l-0.2-0.1l-0.5-0.4l-0.5-0.3l-0.3-0.1l-0.3,0l-0.3,0l-0.3,0.1l-0.9,0.3l-2.2,0.5l-0.3,0
		l-0.6-0.1l-0.5-0.2l-0.2-0.2l-0.4-0.4l-0.3-0.4l-0.4-0.4l-0.2-0.2l-0.1-0.3l-0.2-1l-0.1-0.3l-0.3-0.5l-0.5-0.6l-0.5-1l-1.7-2.5
		l-0.2-0.2l-0.2-0.2l-0.9-0.6l-0.8-0.8l-0.2-0.2l-0.3-0.1l-0.3-0.1l-0.3,0l-0.3,0.1l-0.2,0.1l-0.6,0.5l-0.2,0.2l-0.3,0.1l-0.7,0
		l-0.6-0.1l-0.3-0.1l-0.2-0.1l-0.2-0.1l-0.3-0.3l-0.3-0.3l-0.2-0.2l-1-0.1l-0.6-0.2l-0.2-0.1l-0.7-0.4l-0.3-0.1l-0.3-0.1l-0.5,0
		l-0.6,0l-0.3,0.1l-0.3,0.1l-0.5,0.3l-0.4,0.2l-1.2,0.4l-4.2,0.9l-0.3,0l-0.3,0l-0.6-0.1l-0.3,0l-0.3,0.2l-0.2,0.3l-0.2,1l0,0.8
		l0.1,1.2l0,0.4l-0.1,0.4l-0.2,0.2l-0.4,0.4l-0.2,0.2l-0.1,0.3l-0.1,0.6l-0.1,0.2l-0.5,0.6l-0.1,0.2l-0.3,0.4l-0.9,0.7l-0.1,0.2
		l-0.1,0.3l0,0.3l0.1,0.3l0.2,0.2l0.6,0.2l25.1,3.2l0.6,0.2l0.3,0.4l0.1,0.3l0.1,0.3l0.1,0.8l-0.1,2.8l0.1,0.6l0.4,1.1l0.3,0.5
		l0.2,0.2l0.6,0.9l0.1,0.3l0.7,1.7l0.1,0.3l0,0.3l-0.1,1.4l-0.2,0.6l-0.2,0.3l-0.8,1l-0.2,0.4l-0.2,0.4l-0.1,0.3l-0.2,2.4l-0.1,0.3
		l-0.1,0.3l-5.8,6l-0.4,0.3l-2,1.3l-5.3,1.9l-1.6,0.8l-1.9,3.4l-0.7,1l-1.5,1.4l-0.3,0.5l-0.2,0.4l0,0.7l0.1,0.3l0.1,0.3l1.3,2.1
		l0.1,0.5l-0.2,2.2l-0.1,0.7l-0.2,0.5l-0.2,0.2l-0.2,0.2l-0.9,0.8l-0.4,0.6l-0.2,0.3l-0.7,0.9l-0.4,0.4l-0.3,0.1l-0.3,0l-0.3-0.1
		l-0.7-0.4l-0.2,0l-0.2,0.1l-0.3,0.3l-0.3,0.2l-0.3,0.2l-0.2,0l-0.2,0l-0.2-0.1l-0.7-0.4l-0.6-0.5l-2.2-2.7l-0.1-0.3l-0.3-0.9l0-0.2
		l0.1-0.1l0.4-0.2l0.2-0.2l0.2-0.2l0.1-0.2l0.1-0.4l0.2-1.1v-0.7l0.1-0.3l0-0.1l-0.2-0.1l-2.6-0.9l-0.5-0.1l-0.7,0.1l-4,1l-2.6,0.4
		l-1-0.3l-2.5-0.2l-0.9-0.2l-0.7-0.5l-1.7-1.5l-0.1-0.2l-0.1-0.3l-0.1-0.6l0-0.3l0.1-0.3l0.1-0.3l0.1-0.2l0.3-0.3l0.4-0.3l4.9-3
		l0.2-0.1l0.1-0.1l0-0.2l-0.1-0.3l-0.3-0.2l-0.3,0l-0.3,0.1l-0.8,0.5l-0.4,0.2l-0.6,0.2l-0.4,0l-0.3-0.1l-1.3-1.4l-0.4-0.2l-0.5-0.2
		l-1.1-0.3l-0.5-0.3l-0.3-0.3l-0.2-0.9l-0.1-0.3l-0.2-0.2l-1.4-1.4l-0.3-0.2l-0.4-0.2l-0.3,0.1l-0.2,0.2l-0.2,0.6l-0.1,0.3l-0.2,0.2
		l-2.9,1.8l-0.5,0.2l-0.9,0.2l-1.2-0.1l-0.6,0.1l-0.3,0.1l-0.1,0.2l-0.2,0.6l-0.1,0.2l-0.2,0.1l-2.3,0.9l-0.5,0.3l-0.7,0.7l-0.3,0.5
		l-0.7,2.3l-0.1,0.3l-0.8,1.3l-0.3,1.1l-0.2,0.4l-0.2,0.7l-0.2,1.3l0.1,2.8l-0.1,0.6l-0.6,1.6l-0.1,0.3l0,0.4l0.1,0.7l0.1,0.7
		l0.2,0.6l2.8,6l0.2,0.1l0.1,0.1l0.2,0.1l0.3,0.1l0.3,0l0.7-0.1l1.2-0.3l0.3,0l0.3,0l0.2,0.1l0.2,0.2l0.1,0.3l0.1,0.2l0.2,0.2l0.3,0
		l1.7-0.3h0.2l0.2,0.1l0.1,0.2l0.1,0.3l0.3,0.9l0,0.3l-0.1,0.8l-0.1,0.5l-0.1,0.8l0.4,2.7l0,1.4l0.1,0.6l0.2,0.6l0.2,0.9l0.1,0.2
		l0.1,0.1l0.1,0l1.1-0.2l0.7-0.1l0.7,0l0.3,0.1l0.2,0.2l0.2,0.2l0.3,0.5l0.2,0.2l0.2,0.1l0.5,0.2l0.5,0.2l0.2,0l0.2,0.1l0.2,0.1
		l0.1,0.3l0.4,1.7l0.1,1.1l0.7,3.1l0,0.4l-0.1,0.5l-0.5,1.5l-0.1,0.5l0.4,2.3l1.9,5.3l0.1,0.3l0,0.3l-0.1,1l0,0.4l0.1,0.3l0.4,1.2
		l0.1,0.3l0.8,1l0,0.1l0,0.1l0,0.2l-0.4,1.4l-0.1,1l0,0.3l0.4,1.6l0,0.4l-0.1,0.6l-0.1,0.3l-0.2,0.2l-0.3,0.1l-0.3,0.1l-1,0
		l-0.3,0.1l-0.2,0.2l-2.1,6.2l0.1,0.7l0.3,0.4l6.5,1l0.4,0.1l0.2,0.1l0.8,0.6l0.9,0.5l0.5,0.2l1.9,1.2l0.6,0.6l0.4,0.8l0.5,0.7
		l0.5,0.4l0.6,0.4l1.8,0.7l0.3,0.1l0.3,0l1.5-0.1l0.6,0.1l0.4,0.1l0.6,0.4l0.9,0.8l-0.4,1.9l0.1,0.3l0.3,0.4l0.3,0.1l0.3,0l0.3-0.1
		l1.8-0.9l0.5-0.1l0.7,0l1.5,0.3l0.5,0.2l0.2,0.3l-0.3,1.3l-0.5,1.2l0,0.1l0,0.3l0.2,0.6l0.4,0.9l1.3,2.3l8.2,9.8l0.8,1.2l-0.5,1.9
		l0,0.6l0.1,0.7l0.6,1.5l0,0.3l0.3,0.9l0.6,1.2l0.5,0.7l0.6,0.5l1.2,0.4l0.9,0.5l1.1,0.8l2.4,2.4l2.7,0.4l1.6,0.5l3.1,1.6l1.5,1
		l1,0.9l1.3,0.8l0.3,0.1l1.1,0.3l0.4,0.2l3.5,2.7l1.6,0.6l0.3,0l0.7-0.1l0.7-0.1l0.4,0l0.7,0.2l0.8,0.4l1.3,0.8l0.4,0.4l0.1,0.2
		l-0.2,0.1l-1,0.2l-0.5,0.2l-0.3,0.1l-0.2,0.2l-0.2,0.2l-0.2,0.2l-0.1,0.2l-0.1,0.3l-0.5,2.9l-0.1,0.3l-0.3,0.5l-0.2,0.2l-0.2,0.1
		l-0.3,0.1l-0.9,0.2l-0.3,0.1l-0.2,0.1l-0.2,0.2l-0.6,0.5l-0.4,0.4l-0.1,0.3l0,0.4l0.2,0.6l0.2,0.4l16.5,19l0.6,1.4l0.6,2.9
		l-3.8,12.8l-0.9,8l-0.2,0.7l-0.4,0.5l-0.9,0.1l-0.5,0l-0.5-0.1l-5.1,0.7l-1,0.3l-0.1-0.7l-1-6l-0.9-1.4l-4.6-2.6l-7.7-4.3l-4.3-2.4
		l-11.9-6.7l-11.9-6.7l-11.9-6.7l-11.9-6.7l-11.9-6.7l-11.9-6.7l-11.9-6.7l-11.9-6.7l-11.9-6.7l-9.4-5.3l-2.5-1.4l-11.9-6.7
		l-11.9-6.7l-2.9-1.6l-0.1-0.8l-2.1-9.3l-0.4-1l-0.8-1.4l-1.3-1l-0.3-0.4l-0.6-2.7l-0.8-1.1l-0.3-0.7l-0.2-0.5l-0.1-0.6l-0.1-0.4
		l-1-1.6l-0.1-0.5l0-0.5l0.2-0.3l0.2-0.2l0.9-0.7l1-0.5l1.1-0.8l0.3-0.1l0.3-0.1l0.3,0l0.3,0.1l0.2,0.1l0.3,0.1l2.1,0.2l0.4,0
		l14.9-4.3l0.6-0.3l0.4-0.3l0.2-0.5l0.3-1l0.7-1.7l0.6-0.6l0.7-0.6l0.7-0.5l0.6-0.5l0.4-0.5l0-0.7l-0.2-0.7l-1.1-3.1l-0.1-0.6l0-0.7
		l0.4-0.9l0.1-1.6l-0.7-6l-0.1-0.2l-0.1-0.2l-0.4-0.6l-0.1-0.2l0-0.1l-0.1-0.8l0-0.3l0.2-1.9l-0.1-0.3l-0.1-0.3l-0.9-1.4l-0.1-0.2
		l-0.2-0.6l-0.4-0.8l-0.1-0.2l-0.1-0.3l0-0.6l0.1-0.6l0.1-0.2l0.5-0.7l0.2-0.2l0.6-0.5l0.2-0.2l0.5-0.7l0.1-0.4l0.1-0.3l0-0.3
		l0.2-0.9l0.1-2.5l0.1-0.4l0.1-0.3l0.2-0.2l0.2-0.2l0.3-0.1l0.6-0.2l0.2-0.1l0.5-0.6l1.3-2.5l0.4-0.5l0.3-0.2l0.2,0.1l0.2,0.2
		l0.4,0.7l0.2,0.2l0.2,0.2l0.7,0.5l0.6,0.5l0.3,0.1l0.3,0.1l0.3,0l0.3-0.1l0.5-0.2l0.3-0.1l0.3,0l0.3,0.1l0.2,0.2l0.2,0.2l0.3,0.8
		l0.1,0.2l0.2,0.2l0.2,0.2l0.3,0.1l0.7,0.1l0.3,0.1l0.2,0.2l0.1,0.2l0.2,0.6l0.1,0.3l0.2,0.2l0.4,0.3l0.2,0.2l0.3,0.1l0.3,0.1
		l0.3,0.1l0.4,0l0.4,0l0.4-0.1l0.2-0.3l0.1-0.3l0.3-1.8l0-0.3l-0.1-0.5l-0.1-0.3l-0.2-0.2l-0.2-0.2l-2.5-2l-0.2-0.3l-0.1-0.4v-0.7
		l-0.2-0.3l-0.2-0.2l-1.1-0.4l-0.2-0.1L137,327l-0.2-0.2l-0.3-1.7l-0.2-0.6l-0.1-0.3l-0.3-0.4l-0.2-0.1l-0.3-0.1l-0.3-0.1l-0.2,0
		l-0.2,0l-0.2,0.1l-0.5,0.3l-0.3,0.1l-0.3,0.1l-0.3,0l-0.3-0.1l-0.3-0.1l-0.9-0.6l-0.8-0.3l-0.6-0.1l-0.3,0l-0.3,0l-0.3,0.1
		l-0.2,0.2l-0.2,0.2l-0.1,0.2l-0.4,0.8l-0.2,0.2l-0.2,0.1l-0.3,0.1l-0.6,0.2l-0.3,0.1l-0.3,0l-0.3-0.1l-0.2-0.1l-0.6-0.5l-0.2-0.1
		l-0.2,0l-0.3,0l-0.2-0.1l-0.5-0.6l-0.2-0.2l-0.3-0.1l-0.3,0l-0.3,0l-0.3,0.1l-0.3,0.1l-0.7,0.4l-0.3,0.1l-0.6,0.2l-0.3,0l-2.6-0.3
		l-1.5,0l-1.1,0.1h-0.7l-0.6-0.1l-0.3-0.1l-0.2-0.1l-0.4-0.3l-0.8-0.7l-0.2-0.2l-0.3-0.1l-0.3-0.1l-0.3,0l-0.4,0l0.9-1.4l2.3-2.4
		l1.1-1.3l0.4-1.2l0.4-0.9l0.3-0.4l0.2-0.3l0.6-0.6l1.6-1.3l0.6-0.7l0.2-0.6l0.5-1.9l0.5-1.1l0.1-0.5l0-0.4l-0.1-0.3l-0.1-0.3
		l-0.2-0.5l-0.3-0.9l-0.1-0.7l0.5-3.6v-0.3l-0.1-0.3l-0.6-1.7l-0.2-1l-0.7-1.6l-0.1-0.2l-0.2-0.2l-0.2-0.2l-2.3-1.1l-0.6-0.4
		l-0.1-0.4l0.1-2.4l0.2-0.7l0.2-0.5l0.7-0.4l0.3-0.1l0.3-0.1l0.3,0l0.3,0l0.3,0.1l0.8,0.4l0.3,0.1l0.3,0l0.3,0l0.4-0.2l0.4-0.4
		l1.4-2.1l0.2-0.2l0.2-0.1l0.2-0.1l0.1,0l0.2,0l0.7,0.2l0.3,0l0.3,0l0.2,0l0.2-0.1l1-0.5l0.6-0.1l0.3,0l0.3,0l0.3,0.1l0.5,0.3
		l0.3,0.1l0.6,0.1l0.3,0l0.2-0.1l0.2-0.1l1-0.7l0.4-0.4l0.2-0.4l0.3-1l0.2-0.3l0.2-0.2l1.3-0.7l0.2-0.2l0.4-0.4l0.2-0.3l0.1-0.4
		l0-0.4l0-0.5l-0.1-0.3l-0.2-0.3l-0.3-0.4l-0.1-0.2l0-0.2l0-1.4l-0.1-0.9l-0.1-0.3l-1-1.3l-0.3-0.8l-0.1-0.2l-0.1-0.2l-0.1-0.1
		l-0.2-0.1l-0.4-0.2l-1.1-0.4l-0.6-0.2l-0.3-0.1l-0.5-0.3l-0.5-0.3l-0.3-0.1l-0.3-0.1l-3.2-0.1l-1.7,0.2l-0.3,0.1l-0.3,0.1l-0.2,0.1
		l-0.2,0.2l-0.2,0.2l-1,1.3l-0.2,0.2l-0.3,0.1l-0.3,0l-0.3-0.1l-0.3-0.1l-0.3-0.1l-0.3,0l-0.3,0l-1.5,0.4l-1.2,0.4l-2,0.2l-0.3,0
		l-0.3-0.1l-0.3-0.1l-0.5-0.3l-0.2-0.3l-0.2-0.4l-0.2-0.7l0-0.5l0-0.5l0.1-0.7l-0.1-0.4l-0.2-0.3l-0.2-0.1l-0.3-0.1l-0.3,0l-0.3-0.1
		l-0.3-0.1l-0.3-0.2l-5.7-6l-1-1.6l-0.1-1l-1.6-1.4l-0.5-0.6l0.3-0.5l0.1-1.3l0.4-1l2.7-0.6l1.9-1.8l1.2-0.7l4.6-0.5l1.8-0.8
		l0.7-2.3l-0.6-2.2l-1-2.3l-0.1-1l-0.1-0.9l3.3-2.7l1.2-4.5l1.3-1.9l0.6-0.3l1.2-0.2l0.6-0.3l0.6-0.5l0.4-0.6l1.8-3.7l0.3-1.2
		l0.1-10.8l0.2-0.7l1-1.3l0.2-0.6l-0.3-0.6l-1.3-1.2l-0.5-0.6l-0.4-1l-0.2-1.1l-0.1-1.1l0.1-1.1l0.5-2.5l0-1.1l-2.5-6l-1-2.4
		l-2.1-5.2l-0.4-2.2l0.5-1.4l1-0.8l1.1-0.6l0.8-1l0.1-1.3l-0.5-0.9l-1.5-1.6l-0.3-1.1l-0.3-2.8l-0.6-0.8l-0.5,0.1l-0.4,0.5l-0.4,0.4
		l-0.8-0.1l-0.5-0.5l-2.3-4.9l-0.8-4.8l-1.1-3.5l-0.2-0.5l-0.4-0.5l-0.3-0.1l-1.6-0.8l-0.1-0.1l-0.1-0.1l-0.1-0.2l-0.1-0.2l-0.2-0.1
		l-0.1,0.1l-0.2,0.4l-0.1,0.1l-0.2,0.1l-0.6,0.5l-0.3,0.1l-0.8-0.2l-0.5-0.5l-0.8-1.3l-1.8-2l-0.6-1l-1.6-8.4l0,0l-0.7-1.2l-1.2-0.8
		l-2.6-0.8l-1.2-0.7l-0.6-1.3l-0.6-6.8l-0.7-2.2l-0.4-0.6l-0.5-0.6l-0.4-0.6l-0.1-0.7l0.2-0.6l0.6-1.4l0.1-0.5l-0.2-0.6l-0.7-1.2
		l0-0.6l0.3-0.5l0.5-0.2l0.6-0.2l0.5-0.3l1.1-1.6l0.5-2.2l0.1-4.5l-0.4-1.2l-0.8-0.5l-1-0.3l-1-0.6l-1.8-1.9l-1-0.4l-1.5,0.4
		l-0.6,0.5l-0.2,0.5l-0.3,0.2l-0.6-0.4l-0.8-2.2l-1.2-1.6l0-0.3l-0.6,0l-1.1,0.3l-1.1,0.1l-1,0.2l-0.5,0l-0.7-0.3l0.4-0.4l1.1-0.7
		l-0.7-0.8l-0.9-0.3l-0.1-0.3l2.7-1.4l0.6-0.8l-0.1-0.8l-1.2-0.6l-1.1,0l-2.2,0.8l-0.9,0.2l-1.3-0.5l0.1-1L74,104l0.6-1.4l-0.1-0.9
		l-0.6-0.6l-0.8-0.5l-0.7-0.6L71.9,99l0-0.6l0.2-0.5l0.2-0.8l0.2-1.3l0-0.7l-0.2-0.6l-0.5-0.6l-0.6-0.6l-0.5-0.6L70.7,92l0.1-1.7
		L70.1,89l-1.3-1L67.2,87.2z"/>
	<path id="eastern" class="st0" d="M182.1,74.7l8.1-0.1l1.9-0.3l0.6,0l0.5,0.1l1,0.5l0.7,0.1l10.3-0.2l8.7-0.2l0.5,0.1l0.8,0.5
		l0.3,0.1l0.1,0l10.7-0.1l3.3,0.9l4,2l2.3,0.5l0.5,0.4l0.9,1.5l0.4,0.3l1.1-0.1l0.4,0.1l0.4,0.5L240,82l0.3,1.2l0.2,0.3l0.3,0.1
		l0.3,0l0.3,0.1l3,1.9l5.4,3.5l5.4,3.5l6.3,4.1l4.5,2.9l5.1,3.3l5.7,3.7l5.3,3.4l5.5,3.6l1.7,1.1l1,1l1.4,2.3l0.9,1l0.7,0.4l1.7,0.5
		l1.3,1.1l0.7,0.1l1.8-0.4l1.7-0.1l5.9,0.7l5.9,0.7l3.1-0.3l2.8-1.2l0.1-0.3l0-0.5l0.1-0.5l0.5-0.2l0.3,0.1l1.1,0.9l0.4,0.5l0.1,0.4
		l0.2,0.3l0.8,0.2l0.7,0.1l0.3,0l0.8-0.3l0.1,0.2l0.1,0.3l0.3,0.2l3.2,0.2l0-0.4l0.1-0.8l0-0.4l1.5,2l0.9,0.9l1,0.6l5.5,1.5l4.1,1.1
		l1.4,0l2.3-0.4l0.9,0.1l0.8,0.3l0.9,0l3.2-0.7l0.5,0.1l0.7,0.3l5,2.3l2.2,0.5l2.1-0.1l2.2-1.2l0,0.9l0.8,10.3l0.6,1.9l0.4,3.1
		l0.1,7.4l-0.1,0.9l-0.2,0.5l-0.2,0.2l-1.2,0.9l-0.3,0.3l-0.6,0.9l-0.4,0.3l-0.5,0.3l-2.8,0.9l-0.5,0.2l-0.4,0.3l-0.8,0.9l-0.2,0.2
		l-0.2,0.1l-0.5,0.2l-1.5,0.4l-0.5,0.3l-0.3,0.2l-0.3,0.3l-0.4,0.5l-0.2,0.4l-0.1,0.4l0,0.8l-0.1,1.1l-0.3,0.3l-0.4,0.2l-6.9,15.5
		l-1.1,1.7l-3,0.9l-0.6,0.3l-0.2,0.3l0,0.4l-0.1,0.2v0.3l0.2,0.3l0.3,0.9l0.8,1.6l0.8,3.4l0.2,3.1l0.7,3.4l0.2,0.6l0.1,0.3l0.3,2
		l0.1,0.3l0.1,1.4l-0.2,1.8l0,0.8l0.1,0.6l0.4,0.4l0.2,0.2l0.1,0.2l0.3,0.9l0.2,0.2l0.2,0.2l0.2,0.2l0.4,0.4l0.3,0.5l0.8,2.3
		l1.7,3.3l2.3,3.5l0.4,0.4l1.8,1.2l0.8,0.8l0.2,0.2l0.6,0.9l0.5,1l0.1,0.2l0.2,0.2l0.6,0.6l0.3,0.4l0.5,1.1l0.6,2.5l0.1,0.3l0.1,0.2
		l0.2,0.2l0.8,0.8l0.2,0.2l0.2,0.1l1.4,0.5l0.8,0.4l0.2,0.2l0.7,0.7l0.4,0.3l3.4,1.9l0.4,0.4l0.4,0.4l0.3,0.4l0.1,0.2l0.1,0.3
		l0.3,0.5l1.2,1.4l0.2,0.2l0.3,0.1l0.6,0.2l0.2,0.2l0.4,0.4l0.2,0.2l0.2,0.2l1,0.5l0.2,0.1l0.1,0.1l0,0.1l-8.7,3.5l-0.6,0.3
		l-0.3,0.4l0.1,0.6l9.2,24.6l0.1,0.4l0,0.5l-0.5,0.4l-0.6,0.3l-6.6,2.5l-0.2,0.2l-0.2,0.2l-1.8,3.1l-0.7,0.8l-0.6,0.6l-1.3,1
		l-0.7,0.8l-1.5,2.3l-0.6,1.2l-0.1,0.5l-0.2,0.8l-0.1,0.3l-0.2,0.2l-18.5,7l-0.4,0.2l-0.3,0.2l-0.2,0.2l-0.1,0.2l-0.7,1.5l-0.8,1.2
		l-0.2,0.2l-0.2,0.2l-0.2,0.1l-0.3,0.1l-3.4,0.5l-0.3,0.1l-0.2,0.1l-1,0.5l-0.2,0.1l-0.2,0.2l-0.3,0.4l0,0.3l0.1,0.3l0.2,0.2
		l1.1,0.7l0.1,0.1l0.1,0.2l3,12.9l0.2,2.1l-0.1,0.4l-0.1,0.4l-0.4,0.8l-0.1,0.4l0.5,11.5l-1.4-0.5l-0.7-0.4l-0.3-0.5l-0.3,0.1
		l-0.7,0.1l-0.9,0l-0.8-0.4l-1.3,0.3l-3.3-1.1l-1.5,0l-2.8,2.1l-1.7,0.8l-1.3-0.6l-0.5,0.2l-0.5,0l-0.5-0.1l0,0.7l25.3,43.6
		l6.6,14.4l0.4,1.2l0.2,30l-0.1,0.3l-0.2,0.5l-1.3,1.3l-0.6,0.7l-0.1,0.8l0,0.8l1.4,8.6l-0.1,1.5l-0.3,1.2L335,451.5l-0.2,0.2
		l-0.6,0.5l-0.2,0.1l-0.3,0.1l-0.9,0.2l-0.3,0.1l-0.5,0.3l-0.2,0.2l-1.1,1.6l-0.2,0.2l-1,0.6l-0.3,0.1l-0.3,0.1l-0.7,0.1l-0.7,0
		l-0.9-0.1l-0.8-0.2l-0.3,0.1l0.1,0.2l22.9,33.7l0,0.1l-0.1,0.1l-0.6,0l-0.3-0.1l-0.3-0.1l-0.5-0.3l-0.3-0.1h-0.3l-0.2,0.1l-0.2,0.1
		l-0.4,0.3l-0.6,0.6l-0.2,0.1l-0.3,0l-0.3-0.1l-0.5-0.2l-0.3-0.1l-0.3,0l-0.6,0.1l-0.3,0.1l-0.3,0l-0.3,0l-1-0.1l-0.3,0l-0.3,0.1
		l-0.3,0.1l-0.2,0.1l-0.8,0.7l-0.2,0.1l-0.3,0.1l-1,0.1l-0.3,0.1l-0.2,0.1l-0.2,0.1l-0.3,0.1l-0.8,0.3l-0.2,0l-0.2,0l-0.1-0.1v-0.2
		l0.1-0.3l0.1-0.4l-0.1-0.3l-0.2-0.1l-2.7-0.2l-1.6-0.6l-0.3-0.1l-0.3-0.1l-0.4,0l-1.6,0.3l-0.3,0l-0.3-0.1l-0.2-0.1l-0.9-0.6
		l-0.5-0.2l-0.6-0.1l-0.3-0.1l-0.2-0.1l-0.1-0.1l-0.3-0.3l-0.2-0.2l-0.4-0.3l-0.2-0.1l-0.8-0.3l-0.9-0.6l-0.5-0.2l-0.3-0.1l-0.6-0.1
		l-0.3,0l-0.3,0l-0.3,0.2l-0.2,0.2l-0.2,0.1l-0.2,0l-0.8-0.1l-0.7,0l-0.6,0.1l-0.3,0.2l-0.2,0.1l-0.3,0.4l-0.1,0l-0.2-0.1l-0.4-0.4
		l-0.7-0.8l-0.8-0.7l-0.2-0.1l-2.4-1l-0.2-0.1l-0.4-0.4l-0.2-0.2l-0.1-0.2l-0.3-0.9l-1.1-2.3l-2.4-3.7l-1-0.9l-0.2-0.1l-0.8-0.3
		l-0.3-0.1l-1.9-0.8l-1.7-1.3l-0.2-0.2l-1-1.3l-0.2-0.2l-0.2-0.2l-0.3-0.1l-0.3-0.1l-0.3,0.1l-0.4,0.2l-0.5,0.6l-1.4,0.9l-6.7,3.2
		l-1.3,0.4l-1.4-0.4l-0.6-2.9l-0.6-1.4l-16.5-19l-0.2-0.4l-0.2-0.6l0-0.4l0.1-0.3l0.4-0.4l0.6-0.5l0.2-0.2l0.2-0.1l0.3-0.1l0.9-0.2
		l0.3-0.1l0.2-0.1l0.2-0.2l0.3-0.5l0.1-0.3l0.5-2.9l0.1-0.3l0.1-0.2l0.2-0.2l0.2-0.2l0.2-0.2l0.3-0.1l0.5-0.2l1-0.2l0.2-0.1
		l-0.1-0.2l-0.4-0.4l-1.3-0.8l-0.8-0.4l-0.7-0.2l-0.4,0l-0.7,0.1l-0.7,0.1l-0.3,0l-1.6-0.6l-3.5-2.7l-0.4-0.2l-1.1-0.3l-0.3-0.1
		l-1.3-0.8l-1-0.9l-1.5-1L256,434l-1.6-0.5l-2.7-0.4l-2.4-2.4l-1.1-0.8l-0.9-0.5l-1.2-0.4l-0.6-0.5l-0.5-0.7l-0.6-1.2l-0.3-0.9
		l0-0.3l-0.6-1.5l-0.1-0.7l0-0.6l0.5-1.9l-0.8-1.2l-8.2-9.8l-1.3-2.3l-0.4-0.9l-0.2-0.6l0-0.3l0-0.1l0.5-1.2l0.3-1.3l-0.2-0.3
		l-0.5-0.2l-1.5-0.3l-0.7,0l-0.5,0.1l-1.8,0.9l-0.3,0.1l-0.3,0l-0.3-0.1l-0.3-0.4l-0.1-0.3l0.4-1.9l1.5,0.2l0.5-0.2l0.4-0.5l0.4-0.4
		l0.1-0.2l0-0.2l-0.8-1.1l-0.1-0.3l0.1-0.2l0.1-0.2l2.5-1.7l0.3-0.4l0.1-0.4l0.1-0.9l0.2-0.2l0.3-0.1l0.3,0l0.6,0.1l0.7,0l2.8,0.5
		l0.5,0l0.2-0.1l0.2-0.2l1-1.1l0.6-0.6l0.3-0.4l1.4-1.4l0.8-0.8l1.1-2.4l0.7-1.8v-0.4l-0.2-0.8l0-0.7l0.1-0.4l0.2-0.4l0.4-0.4l1-0.7
		l0.3-0.1l0.3,0l0.3,0l0.3,0.1l0.7,0l0.5-0.1l0.4-0.1l0.5-0.3l0.3-0.1l0.6-0.1l0.3,0l0.3,0.1l1.8,1.2l0.1,0l0.1-0.1l0.6-0.6l1.5-2.1
		l0-1.1l0.3-1.2l0.2-0.5l0.1-0.4v-0.4l-0.1-0.3l-0.2-0.2l-0.2-0.1l-0.2,0l-0.2,0.1l-0.9,0.6l-0.3,0.1l-0.3,0.1l-0.3,0.1l-0.3,0
		l-0.3-0.1l-0.2-0.2l-0.2-0.2l-0.5-1l-0.6-2.1l-0.1-0.3l-0.2-0.2l-0.2-0.2l-2.1-1.7l-0.1-0.4v-0.6l0.5-4l0.1-0.5l0.1-0.3l0.1-0.1
		l0.5-0.2l0.3-0.1l0.3,0h0.2l0.3,0.1l0.2,0.1l0.4,0.3l0.8,0.8l1.1,0.8l0.3,0.1l0.3,0l0.4,0l7.4-2.8l0.6-0.4l0.1-0.3l-0.1-0.2
		l-0.2-0.2l-0.1-0.3l-0.3-0.9l-0.1-0.7l-0.1-4l0-0.4l0-1.4l-0.5-0.8l-1.8-2.1l-0.2-0.5l-0.1-0.5l0-4.3l-0.2-0.9l-5.9-14.3l-0.4-0.6
		l-11.5-8.6l-1.3-1.3l1.6-0.8l5.3-1.9l2-1.3l0.4-0.3l5.8-6l0.1-0.3l0.1-0.3l0.2-2.4l0.1-0.3l0.2-0.4l0.2-0.4l0.8-1l0.2-0.3l0.2-0.6
		l0.1-1.4l0-0.3l-0.1-0.3l-0.7-1.7l-0.1-0.3l-0.6-0.9l-0.2-0.2l-0.3-0.5l-0.4-1.1l-0.1-0.6l0.1-2.8l-0.1-0.8l-0.1-0.3l-0.1-0.3
		l-0.3-0.4l-0.6-0.2l-25.1-3.2l-0.6-0.2l-0.2-0.2l-0.1-0.3l0-0.3l0.1-0.3l0.1-0.2l0.9-0.7l0.3-0.4l0.1-0.2l0.5-0.6l0.1-0.2l0.1-0.6
		l0.1-0.3l0.2-0.2l0.4-0.4l0.2-0.2l0.1-0.4l0-0.4l-0.1-1.2l0-0.8l0.2-1l0.2-0.3l0.3-0.2l0.3,0l0.6,0.1l0.3,0l0.3,0l4.2-0.9l1.2-0.4
		l0.4-0.2l0.5-0.3l0.3-0.1l0.3-0.1l0.6,0l0.5,0l0.3,0.1l0.3,0.1l0.7,0.4l0.2,0.1l0.6,0.2l1,0.1l0.2,0.2l0.3,0.3l0.3,0.3l0.2,0.1
		l0.2,0.1l0.3,0.1l0.6,0.1l0.7,0l0.3-0.1l0.2-0.2l0.6-0.5l0.2-0.1l0.3-0.1l0.3,0l0.3,0.1l0.3,0.1l0.2,0.2l0.8,0.8l0.9,0.6l0.2,0.2
		l0.2,0.2l1.7,2.5l0.5,1l0.5,0.6l0.3,0.5l0.1,0.3l0.2,1l0.1,0.3l0.2,0.2l0.4,0.4l0.3,0.4l0.4,0.4l0.2,0.2l0.5,0.2l0.6,0.1l0.3,0
		l2.2-0.5l0.9-0.3l0.3-0.1l0.3,0l0.3,0l0.3,0.1l0.5,0.3l0.5,0.4l0.2,0.1l0.5,0.2l0.4,0l0.4,0l1-0.3l0.4,0l0.3,0.1l0.6,0.4l0.2,0
		l0.2-0.2l0.3-0.5l0.3-0.2l0.3-0.2l1.1-0.4l0.8-0.6l1.1-1.1l0.4-0.2l0.7-0.4l0.6-0.4l0.4-0.4l0.4-0.5l0.3-0.2l0.3-0.1l0.3,0.1
		l0.3,0.1l0.4,0l0.5-0.1l1.3-0.7l0.4-0.1l0.3,0l0.7,0l0.6,0.1l0.3,0l0.3,0l1.3-0.4l0.5-0.2l0.3-0.2l0.2-0.3l0.4-0.8l0.3-0.3l0.3-0.3
		l1-0.6l0.4-0.1l0.4,0l0.5,0.3l0.2,0.1l0.3,0.1l0.4,0l2.2-1.2l0.9-0.7l1-1l0.4-0.5l0.3-0.2l0.2-0.1l0.5-0.1l0.3,0l0.3,0.1l0.8,0.3
		l0.9,0.3l0.3,0l0.1-0.2l-1.2-19l-0.3-0.9l-0.6-0.9l-3.4-3.9l-0.6-1l-0.3-0.9l-0.6-7.5l-0.3-0.9l-0.7-0.8l-3-2.8l-0.4-0.5l-0.1-0.1
		l-0.1,0l-0.2,0h-0.2l-0.2,0l-0.1,0l-0.3,0.1l-0.4,0.3l-0.8,0.7l-0.2,0.2l-0.2,0.1l-0.3,0.1l-0.3,0l-0.9-0.1h-0.3l-0.3,0l-0.3,0.1
		l-0.3,0.1l-0.9,0.6l-1,0.5l-0.3,0.1l-0.7,0l-1-0.1l-0.3,0l-0.3,0.1l-0.5,0.3l-0.2,0.2l-0.5,0.3l-0.3,0.1l-0.6,0.2l-1.6,0.2
		l-0.6,0.2l-0.8,0.3l-0.3,0.1l-0.3,0.1l-0.3,0l-0.3-0.1l-0.3-0.1l-0.2-0.2l-0.2-0.2l-0.2-0.2l-3.8-8.9l-0.6-0.9l-0.4-0.4l-2.3-1.8
		l-1.4-1.6l-0.3-0.5l-0.2-0.6l-0.5-3.8l-0.1-0.3l-0.1-0.2l-0.2-0.2l-0.2-0.2l-2.2-1.2l-0.7-0.5l-0.4-0.4l-0.1-0.3l-0.9-2.4l-1.3-2.4
		l-0.7-0.9l-0.4-0.4l-0.8-0.7l-0.7-0.5l-0.8-0.6l-0.2-0.2l-0.1-0.2l-0.1-0.3l-0.2-0.5l-0.1-0.2l-0.6-0.7l-0.3-0.2l-1-0.5l-0.6-0.2
		l-5.5-0.5l-2.6,0l-1.6,0.2l-0.3,0l-0.2-0.1l-0.1-0.2l0.2-1.5l-0.4-1.8l-2.4-6.4l-0.3-0.6l-0.5-0.7l-3.2-2.8l-0.4-0.7l-4.5-12.8
		l-0.3-0.7l-0.4-0.4l-0.7-0.2l-0.7,0l-0.6,0.2l0.7,1.6l-0.3,1.2l-0.6,1.1l-3.1,3.2l-0.4,0.3l-0.3,0.1l-1.4-0.2l-0.2-0.1l-0.7,0
		l-0.5,0.1l-0.4,0.2l-0.4,0.4l-1.5-1.6l-0.3-2.3l0-2.6l-0.4-2.3l-1.3-2.2l-1-1.1l-1.9-1.1l-0.4-1.3l0-3.8l-0.1-0.4l-0.3-0.6
		l-0.8-1.3l-0.4-1.5l-0.6-1.2l-1.1-1.8l-1.3-1.1l-3.1-2l-2.3-2l-0.2-0.2l-0.4-1.7l-0.2-0.4l-0.4-0.1l-0.9,0.8l-0.6,0.2l-0.6-0.2
		l-0.7-0.7l-0.4-0.2l-2.2,0.1l-0.8-0.3l-0.3-1.1l1.5-6l0-0.6l-0.2-0.6l-0.5-1.2l-0.1-0.6l0.1-0.6l0.5-1.1l0.1-0.6l-0.3-0.4l-0.7,0
		l-1.3,0.2l-1.9-0.8l-0.4-0.2l-0.3-0.2l-0.4-0.2l-0.4-1.4L182.1,74.7z"/>
	<path id="north-eastern" class="st0" d="M362.7,127.7l0.4-0.2l0.7,0l0.3,0.6l-0.5,1l6.9,0.2l1.7,0.6l0.5,0.6l0.3,0.8l0.4,0.7
		l0.9,0.6l1.8-0.1l0.9-1.5l1.2-3.7l1.4-1.7l3.6-3.3l4.4-4l1.1-1.4l0.9-1.7l1.5-4.1l1.1-2.9l1.1-1.4l4.8-2.3l4.8-2.3l5.4-2.6l2.5-1.3
		l0.3-0.3l0-0.3l0.1-0.2l0.5,0.1l0.2,0.1l0.2,0l0.2,0l5.6-2l4.4-1.5l0.3-0.3l0.3-0.9l0.3-0.3l7.2-2.8l5.9-2.3l4.6-1.8l3.5-2.3
		l1.2,1.6l3.3,2.3l1.4,1.6l0.9,1.7l0.6,0.6l1,0.5l2.7,0.9l0.9,0.5l1.5,1.3l3.6,5l2.5,1.9l2.7,1.1l2.9,0.3l5.7-0.3l6.2-0.4l2.8-0.8
		l1.5-0.1l4.5-1.1l0.9,0.1l1.5,0.6l0.8,0.1l0.8-0.2l2.4-1.3l2.6,0.9l2.4,1.3l2.5,0.5l2.7-1.5l-4.7,6.7l-4.7,6.7l-4.7,6.7l-4.7,6.7
		l-2.9,4.1l-2.9,4.1l-2.9,4.1l-2.9,4.1l-4.6,4.5l-4.6,4.5l-4.6,4.5l-4.6,4.5l-1.9,1.9l-0.8,1.5l0,3l0.1,7.2l0.1,7.5V322l0.1,4.6
		l0,3.8l0,3.8l0.1,6l0.1,6l0.1,6l0.1,6l0.1,3.9l0.1,3.9l0.1,4.2l1.4,1.8l1.4,1.8l1.4,1.8l1.4,1.8l2.8,3.5l2.8,3.7l3.1,4l2.5,3.3
		l2.7,3.5l2.9,3.7l2.8,3.6l2.8,3.6l2.1,2.8l0.7,1.2l0.2,1.1l-0.1,3.5l0,0l-29.6,1.9l-0.4,0.1l-43,19.2l-3,1.2l-0.2-1v-0.3l0.2-0.6
		l-0.3-0.8l-0.8-1.7l-0.7-3.1L409,429l0.2-0.2l0.4-0.4l0.2-0.2l-0.4-0.8l-0.4-2.6l-0.3-0.4l-0.6-0.6l-0.3-0.5l0-0.4l0.3-0.6l0.1-0.5
		l-0.4-2.5l0-1l0.1-0.2l0.2-0.2l0.3-0.3l0.1-0.4l-0.1,0l-0.3-1.5l-0.1-3.6l-0.4-0.8l-0.7-0.7l-0.5-0.6l-2.3-4.8l-0.3-0.5l-0.2-0.6
		l-0.4-3.6l-0.6-2l-0.4-2.1l-0.3-4.7l-0.7-2.2l-1.2-1.4l-0.2-1.2l-0.6-1.1l-1-0.8l-1.2-0.1l0.4-1l0.3-0.5l0.4-0.4l-0.8-0.8l-2-3.9
		l-0.4-1.6l-0.3-0.9l-0.7-1.2l0-1.1l0-0.3l-0.8-2.5L393,370l0.2-0.4l0.1-0.3l0.1-0.8H393l-0.4,0.1l-0.2-0.6l-0.2-1.8l-0.7-1.8
		l-0.1-0.8l0.4-0.8l-0.5-0.5l-0.1-0.9l0.1-0.8l-0.1-0.4l-1.7-2.5l-0.1-1l-0.3-0.8l-0.5-0.6l-0.7-0.5l-0.9-0.4l-1.5-0.1l-0.7-0.3
		l-0.2-0.4l-1.4-1.7l-0.3,0l-0.1-0.8l-0.2-0.7l-0.4-0.4l-0.7-0.2l-0.4-0.8l-2.2-8l-0.7-1.3l-0.9-0.6l-0.2-0.2l-0.6-1l-0.2-0.3
		l-0.5-0.2l-0.8,0.1l-0.6-0.3l-0.6-1.5l-0.3-0.5l-0.8-0.5l-0.5-0.9l-0.7-0.6l-0.9-0.6l-0.7-0.3l-2-0.4l-0.3-0.1l-0.1-0.3l-0.3-0.3
		l-0.4-0.2l-1.7-0.3l-0.6-0.4l-0.5-0.5l-0.9-0.4l-1.2-0.1l-1.1,0.3l-1,0.1l-1-0.5l-4.8-0.2l-2.9-3.6l-0.7-0.6l-0.2-0.1l-0.2-0.3
		l-0.3-0.3l-0.4-0.1h-1.7l-1.8,0.3l-0.9,0.3l-0.6,0.4l-0.4,0.6l-0.4,0.7l-0.4,0.6l-0.7,0.2l-10.4-1.5l-0.5-11.5l0.1-0.4l0.4-0.8
		l0.1-0.4l0.1-0.4l-0.2-2.1l-3-12.9l-0.1-0.2l-0.1-0.1l-1.1-0.7l-0.2-0.2l-0.1-0.3l0-0.3l0.3-0.4l0.2-0.2l0.2-0.1l1-0.5l0.2-0.1
		l0.3-0.1l3.4-0.5l0.3-0.1l0.2-0.1l0.2-0.2l0.2-0.2l0.8-1.2l0.7-1.5l0.1-0.2l0.2-0.2l0.3-0.2l0.4-0.2l18.5-7l0.2-0.2l0.1-0.3
		l0.2-0.8l0.1-0.5l0.6-1.2l1.5-2.3l0.7-0.8l1.3-1l0.6-0.6l0.7-0.8l1.8-3.1l0.2-0.2l0.2-0.2l6.6-2.5l0.6-0.3l0.5-0.4l0-0.5l-0.1-0.4
		l-9.2-24.6l-0.1-0.6l0.3-0.4l0.6-0.3l8.7-3.5l0-0.1l-0.1-0.1l-0.2-0.1l-1-0.5l-0.2-0.2l-0.2-0.2l-0.4-0.4l-0.2-0.2l-0.6-0.2
		l-0.3-0.1l-0.2-0.2l-1.2-1.4l-0.3-0.5l-0.1-0.3l-0.1-0.2l-0.3-0.4l-0.4-0.4l-0.4-0.4l-3.4-1.9l-0.4-0.3l-0.7-0.7l-0.2-0.2l-0.8-0.4
		l-1.4-0.5l-0.2-0.1l-0.2-0.2L357,226l-0.2-0.2l-0.1-0.2l-0.1-0.3l-0.6-2.5l-0.5-1.1l-0.3-0.4l-0.6-0.6l-0.2-0.2l-0.1-0.2l-0.5-1
		l-0.6-0.9L353,218l-0.8-0.8l-1.8-1.2l-0.4-0.4l-2.3-3.5l-1.7-3.3l-0.8-2.3L345,206l-0.4-0.4l-0.2-0.2l-0.2-0.2l-0.2-0.2l-0.3-0.9
		l-0.1-0.2l-0.2-0.2l-0.4-0.4l-0.1-0.6l0-0.8l0.2-1.8l-0.1-1.4l-0.1-0.3l-0.3-2l-0.1-0.3l-0.2-0.6l-0.7-3.4l-0.2-3.1l-0.8-3.4
		l-0.8-1.6l-0.3-0.9l-0.2-0.3v-0.3l0.1-0.2l0-0.4l0.2-0.3l0.6-0.3l3-0.9l1.1-1.7l6.9-15.5l0.4-0.2l0.3-0.3l0.1-1.1l0-0.8l0.1-0.4
		l0.2-0.4l0.4-0.5l0.3-0.3l0.3-0.2l0.5-0.3l1.5-0.4l0.5-0.2l0.2-0.1l0.2-0.2l0.8-0.9l0.4-0.3l0.5-0.2l2.8-0.9l0.5-0.3l0.4-0.3
		l0.6-0.9l0.3-0.3l1.2-0.9l0.2-0.2l0.2-0.5l0.1-0.9l-0.1-7.4l-0.4-3.1l-0.6-1.9l-0.8-10.3L362.7,127.7z"/>
	<path id="coast" class="st0" d="M487.2,415l0,1.1l0,0l-4.2,4.3l-2,3.1l-0.3,1l-1.2,0.7l-3.2,2.9l-2,2.4l-1.2,0.7l-0.9-1l-1,0.4
		l-1-0.1l-0.6-0.6l-0.1-1.2l-1.1,1.1l-0.2,1.3l-0.5,1.3l-1.6-0.1l-2.2-0.5l-0.5,0l-0.7,0.4l-1.1,1.2l-1.5,0.6l-0.6,0.8l-0.6,0.6
		l-0.9,0l-0.7-0.4l-0.5-0.4l-0.4-0.5l-0.2-0.8l0-0.8l0.5-1.5l0-0.7l-0.1-0.8l0.2-0.7l0.8-1.2l-2,1.5l-0.2,6.5l-1.2,1.5l-1-0.8
		l-1-3.4l-1-0.8l-0.6-0.3l-0.5-0.6l-0.5-0.2l-0.7,0.8l0.4,0.8l0.2,0.7l-0.1,0.7l0.9-0.4l0.7,0.2l0.5,0.6l0.2,0.9l-0.1,0.4L451,436
		l-0.1,0.3l0.2,0.5l0.4,0.1l0.4,0.1l0.2,0.4l0.1,4.1l0.3,2.2l0.7,1.4l0.5,0.1l0.6-0.1l0.7,0l0.7,0.5l0.5,0.8l0.1,0.6l-0.6,1.4
		l-1.4,1.7l-1.2,0.2l-0.2-0.6l1.8-0.9l-1-0.3L453,448l-1.3-1.4l-0.2-0.4l0.1-0.3l0-0.2l-0.6-0.2l0.1,0.1l-0.4,0.1l-0.8,0.1l-1.4,0.8
		l-1.2,1.5l-1.2,1l-1.2-0.6l0,0.5l0.1,0.5l0.3,0.4l0.5,0.2l0.3,0.2l-0.1,0.4l-0.4,0.6l0.4,0.8l1.6,1l0.4,0.8l-0.7,1.3l-1.5,1.5
		l-1.7,1.2l-2.6,1.1l-3.4,4l-1.9,0.7l-1.7-0.4l-1.7-0.7l-1.8-0.4l-1.8,0.2l-5.6,1.8l-2.3,1.7l-1.4,0.4l-1.6,1l-2.8,2.2l-0.7,0.7
		l-0.5,0.8l-1,2.3l-1.7,2.1l-0.2,0.9l0.1,0.4l0.8,1.1l0.1,0.4l-0.2,0.9l-0.1,0.5l-1,3.6l-0.1,1.8l1.2,0.9l-0.3,1.5l0.7,0.6l1.1-0.1
		l1.2-0.9l0,0.6l-0.4,0.7l-1.9,1.9l-1.2,1.6l-0.3,0.7l-0.2,2.8l-0.4,1l-1.9,2.7l0,0.7l0.6,2l0,1l-0.3,0.9l-0.5,0.8l-0.6,0.7
		l-0.8,0.5l-2.7,1.2l-0.7,0.5l-1.3,1.6l-0.8,0.6l-1,0.2l0.4-0.9l0.6-2.1l0.1-0.8l-1,0.2l-0.4,0.5l-0.1,0.7l0,0.8l-0.1,0.5l-0.3,1.4
		l0.1,0.3l0.2,0.3l0.1,0.3l-1,1.6l-1.1,3l-1.5,2.4l-0.6,3.2l-0.6,1.3l-0.7,0.6l-0.5,0.1l-1.2-0.5l-0.3-0.2l-0.7-0.8l-0.3-0.1
		l-1.5-0.1l0.2-0.5l0-0.2l-0.6-0.5l-0.4,1l0.2,0.9l0.7,0.5l1.1,0l-0.7,0.8l0.2,0.7l0.8,0.3l1.9-0.8l0.6,0.4l0.4,0.9l0.1,0.8
		l-0.1,1.8l-4.5,12.4l-1.4,1.4l-1.6,0.3l-1.1-0.8l0-1.9l-1.2,0.7l-0.3,0.4l0.2,0.6l0.4,0.6l0.2,0.5l0.2,0.5l0.6,0.5l1.2-0.1l0.6,0.3
		l-0.2,1l-1.2,1.3l-0.2,0.4l-0.2,0.5l-0.4,0.7l-0.5,0.6l-0.5,0.3l-0.5-0.3l-0.4-1.3l-0.4-0.3l-0.4-0.7l0.1-1.3l-0.1-0.8l-1,0.8
		l-1.4-0.8l-0.6-0.1l-0.6,0.5l0.6,0.5l0.7,0.3l1.5,0.4l-0.4,1l-0.5,0.5l-1.7,0.4l-0.6,0l-0.6-0.1l-0.5,0.1l-0.2,0.4l0,1.2l0.1,0.6
		l0.2,0.6l0.8-1.1l1.8-0.1l1.9,0.6l1.1,1l-0.2,1.3l-2.8,4.8l-1.8,4.5l-1.8,6.8l-0.6,1.6l-0.5-0.7l-0.5,0l-0.5,0.5l-0.4,0.6l-0.1,0.3
		l0.1,0.7l-0.2,0.3l-0.8,0.7l-0.2,0.2l-1.9,5.7l-0.4-1l0.2-1.6l-0.2-0.8l-0.7,0.6l-0.4,0.8l-0.3,0.9l-0.5,0.8l-0.3,0l-0.4-0.2
		l-0.4,0.1l-0.1,0.8l0.1,0.5l0.9,1.2l-0.6,0.8l-1.9,0.3l-2.1-0.5l-1.3-1.7l0,0.3l-0.3,0.8L361,578l-1.2,1.2l-1,1.6l-1.1,0.8
		l-0.2,0.1l-0.2,0l-0.2,0.1l-0.2,0.2l-4.7-3.4l-4.7-3.4l-4.7-3.4l-4.7-3.4l-4.7-3.4l-4.7-3.4l-4.7-3.4l-4.7-3.4l-4.7-3.4l-0.4-0.3
		l-4.4-3.2l-4.7-3.4l-4.7-3.4l-4.7-3.4l-4.7-3.4l-4.7-3.4l-4.7-3.4l-3-2.2l-0.8-1l-0.6-1.1l-1-3.4l-0.4-0.9l-0.8-0.7l-1.1-0.5
		l-1.2-0.3l-1.2-0.1l-2.7,0.2l-0.2-0.8l0.4-1.1l0.2-0.9l-0.3-0.4l-0.9-0.1l-0.4-0.4l-0.1-0.6l0.1-0.7l0.3-0.6l0.3-0.5l0.8-0.9l1.2-1
		l1.3-0.7l1.1-0.1l-0.1-1l0.2-0.8l0.6-0.5l1-0.1l-1.1-6.8l1-0.3l5.1-0.7l0.5,0.1l0.5,0l0.9-0.1l0.4-0.5l0.2-0.7l0.9-8l3.8-12.8
		l1.4,0.4l1.3-0.4l6.7-3.2l1.4-0.9l0.5-0.6l0.4-0.2l0.3-0.1l0.3,0.1l0.3,0.1l0.2,0.2l0.2,0.2l1,1.3l0.2,0.2l1.7,1.3l1.9,0.8l0.3,0.1
		l0.8,0.3l0.2,0.1l1,0.9l2.4,3.7l1.1,2.3l0.3,0.9l0.1,0.2l0.2,0.2l0.4,0.4l0.2,0.1l2.4,1l0.2,0.1l0.8,0.7l0.7,0.8l0.4,0.4l0.2,0.1
		l0.1,0l0.3-0.4l0.2-0.1l0.3-0.2l0.6-0.1l0.7,0l0.8,0.1l0.2,0l0.2-0.1l0.2-0.2l0.3-0.2l0.3,0l0.3,0l0.6,0.1l0.3,0.1l0.5,0.2l0.9,0.6
		l0.8,0.3l0.2,0.1l0.4,0.3l0.2,0.2l0.3,0.3l0.1,0.1l0.2,0.1l0.3,0.1l0.6,0.1l0.5,0.2l0.9,0.6l0.2,0.1l0.3,0.1l0.3,0l1.6-0.3l0.4,0
		l0.3,0.1l0.3,0.1l1.6,0.6l2.7,0.2l0.2,0.1l0.1,0.3l-0.1,0.4l-0.1,0.3v0.2l0.1,0.1l0.2,0l0.2,0l0.8-0.3l0.3-0.1l0.2-0.1l0.2-0.1
		l0.3-0.1l1-0.1l0.3-0.1l0.2-0.1l0.8-0.7l0.2-0.1l0.3-0.1l0.3-0.1l0.3,0l1,0.1l0.3,0l0.3,0l0.3-0.1l0.6-0.1l0.3,0l0.3,0.1l0.5,0.2
		l0.3,0.1l0.3,0l0.2-0.1l0.6-0.6l0.4-0.3l0.2-0.1l0.2-0.1h0.3l0.3,0.1l0.5,0.3l0.3,0.1l0.3,0.1l0.6,0l0.1-0.1l0-0.1l-22.9-33.7
		l-0.1-0.2l0.3-0.1l0.8,0.2l0.9,0.1l0.7,0l0.7-0.1l0.3-0.1l0.3-0.1l1-0.6l0.2-0.2l1.1-1.6l0.2-0.2l0.5-0.3l0.3-0.1l0.9-0.2l0.3-0.1
		l0.2-0.1l0.6-0.5l0.2-0.2l10.1-20.3l0.3-1.2l0.1-1.5l-1.4-8.6l0-0.8l0.1-0.8l0.6-0.7l1.3-1.3l0.2-0.5l0.1-0.3l-0.2-30l-0.4-1.2
		l-6.6-14.4l-25.3-43.6l0-0.7l0.5,0.1l0.5,0l0.5-0.2l1.3,0.6l1.7-0.8l2.8-2.1l1.5,0l3.3,1.1l1.3-0.3l0.8,0.4l0.9,0l0.7-0.1l0.3-0.1
		l0.3,0.5l0.7,0.4l1.4,0.5l10.4,1.5l0.7-0.2l0.4-0.6l0.4-0.7l0.4-0.6l0.6-0.4l0.9-0.3l1.8-0.3h1.7l0.4,0.1l0.3,0.3l0.2,0.3l0.2,0.1
		l0.7,0.6l2.9,3.6l4.8,0.2l1,0.5l1-0.1l1.1-0.3l1.2,0.1l0.9,0.4l0.5,0.5l0.6,0.4l1.7,0.3l0.4,0.2l0.3,0.3l0.1,0.3l0.3,0.1l2,0.4
		l0.7,0.3l0.9,0.6l0.7,0.6l0.5,0.9l0.8,0.5l0.3,0.5l0.6,1.5l0.6,0.3l0.8-0.1l0.5,0.2l0.2,0.3l0.6,1l0.2,0.2l0.9,0.6l0.7,1.3l2.2,8
		l0.4,0.8l0.7,0.2l0.4,0.4l0.2,0.7l0.1,0.8l0.3,0l1.4,1.7l0.2,0.4l0.7,0.3l1.5,0.1l0.9,0.4l0.7,0.5l0.5,0.6l0.3,0.8l0.1,1l1.7,2.5
		l0.1,0.4l-0.1,0.8l0.1,0.9l0.5,0.5l-0.4,0.8l0.1,0.8l0.7,1.8l0.2,1.8l0.2,0.6l0.4-0.1h0.4l-0.1,0.8l-0.1,0.3L393,370l0.3,0.5
		l0.8,2.5l0,0.3l0,1.1l0.7,1.2l0.3,0.9l0.4,1.6l2,3.9l0.8,0.8l-0.4,0.4l-0.3,0.5l-0.4,1l1.2,0.1l1,0.8l0.6,1.1l0.2,1.2l1.2,1.4
		l0.7,2.2l0.3,4.7l0.4,2.1l0.6,2l0.4,3.6l0.2,0.6l0.3,0.5l2.3,4.8l0.5,0.6l0.7,0.7l0.4,0.8l0.1,3.6l0.3,1.5l0.1,0l-0.1,0.4l-0.3,0.3
		l-0.2,0.2l-0.1,0.2l0,1l0.4,2.5l-0.1,0.5l-0.3,0.6l0,0.4l0.3,0.5l0.6,0.6l0.3,0.4l0.4,2.6l0.4,0.8l-0.2,0.2l-0.4,0.4L409,429
		l0.4,0.8l0.7,3.1l0.8,1.7l0.3,0.8l-0.2,0.6v0.3l0.2,1l3-1.2l43-19.2l0.4-0.1L487.2,415L487.2,415z M460.4,435.7l0.7-0.7l1.5,0.1
		l1.7,0.5l1.1,0.7l1.1,1.7l-0.4,1.2l-1,0.2l-0.8-1.2l0,0.6l-0.1,0.6l-0.2,0.5l-0.4,0.2l-0.2,0.1l-0.1,0.1l-0.2,0.1l-0.3,0.1
		l-0.4-0.1l-0.3-0.3l-0.2-0.3l-0.1-0.1l-0.7,0.1l-1,0.3l-2.1,1.1l-0.5-0.4l-0.5,0.1l-0.4,0.5l-0.2,0.8l0.3,0.4l0.6,0.4l0.4,0.4
		l-0.2,0.6l-0.7,0l-0.4-0.3l-0.2-0.5l-0.1-0.7l-1.2,0.3l0-1.3l0.7-1.8l0.8-1.2l1-0.6l1.3-0.4l1.1-0.6L460.4,435.7z M108.4,400.3
		l-9-5l-11.9-6.7L75.6,382l-3-1.7l0.1-0.2l-0.2-0.1l-0.3-0.1l-0.1-0.5l0.4-0.6l0.8-0.1l0.6-0.2l-0.3-0.9l-0.7,0.5l-0.9,0.2l-0.8-0.2
		l-0.6-0.8l1.2,0.3l0.4-0.3l0.3-1.4l2.5,1.6l0.9,0.2v-0.3l-0.5-1.1l0.2-1.3l0.7-2.3l0.6-0.8l1.1-0.7l0.8-0.9l-0.5-1.4l-0.5-0.3
		l-2.6-0.9l-2.3-1.6l-0.4-0.1l0-1.1l-0.2-1.5l-0.6-1.1l-1.1,0.1l0.6-5l0.4-0.8l0.4-0.2l0.6-0.4l0.5-0.5l0.2-0.5l-0.1-0.7l-0.4-0.5
		l-0.5-0.5l-0.5-0.6l0.3-0.2l0.8-0.1l0.4-0.1l0.9-0.9l0.1-0.1l1.9,0.2l0.7-0.2l0.6-0.8l0.7-3.7l0.8-1.6l1.9-0.4l-0.1,0.2l-0.2,0.5
		l1.6,0l2.2,2l1.5,0.6l-0.2-0.4l-0.2-0.5l0-0.5l0.4-0.2l0.4,0.2l0.5,1l0.3,0.3l0.9,0.1l0.7-0.4l0.3-0.8l-0.4-0.9l0.8,0l0.6,0.2
		l0.5,0.3l0.5,0.5l0.3,0.5l0.5,1.1l0.1,0.5l-0.3,0.4l-0.4,0.5l0,0.5L92,351l0.7-0.2l1.4-1.1l0.6-0.2l0.1-0.2l1.6-0.9l0.1-0.5l0-0.8
		l-0.3-0.7l-2.4-1l-0.4-1.5l0.1-1.7l-0.1-1.2l1.1-0.5l1.7-0.5l1.6-0.3l0.9,0.1l0.6-0.4l0.4,0l0.4,0.2l0.4,0.4l0.6,0.4l0.5,0l0.5-0.1
		l0.5,0l2.5,0.7l1.1,0.1l3.5-0.3l0.7-0.2l0-0.9l-0.3-1.1l0.1-0.8l1.2,0.2l0.7-0.2l1.5,1.1l1.1,0.3l0.5-0.2l0.3-0.4l0.2-0.4l0.2-0.2
		l0.3-0.2l-0.4-0.4L115,337l-0.2-0.1l-1.9-3.6l-0.2-0.6l-0.8-0.3l-0.8-0.6l-0.6-0.8l-0.4-0.6l-0.4,0.4l-0.7-1.3l0-0.8l0.2-0.8
		l0.1-1.3l-0.8,0.3l-2.7-0.1l-0.3,0.5l-0.6,0.6l-0.7,0.5l-1.3,0.4l-1.3,0.8l-2,0.3l-0.9,0.4l-0.8,0.6l-0.7,0.7l-0.8,0.5l-0.8-0.1
		l-1.7-0.6h-0.8l-2.2,0.8l-1.6-0.2l-1,0l-0.8,0.5l-0.2,0.8l0.3,0.9l0.6,0.5l0.8-0.3l0.6,1.2l0.3,1.2l-0.1,1.1l-0.6,0.9l-2.8,2.2
		l-0.4,0.9l-0.2,0.9l-0.6,0.9l-0.8,0.3l-0.9-0.9l0.1-0.2l0.2-0.5l0.1-0.6l-0.1-0.7l-0.3-0.3l-0.5-0.3l-0.6-0.3l-0.5-0.2l0.6-0.6
		l0.2-0.5l-0.3-0.3l-0.8,0l0.9-1.9l-0.2-0.7l-1.1-0.8l-1.9-0.9l-0.6-0.7l0.2-1.1l-1.7,0.1l-2-0.3l-1.6-0.9l-0.5-1.6l0.3-0.3l1.4-0.7
		l0.4-0.1l0.8-0.2l0-0.3l-0.5-0.3l-0.9,0l1-1.5l0.2-0.8l-0.6-0.4l-1.6,0l-1,0.2l-0.7,0.5h0.4l-0.2,0.5l-0.1,0.4l-0.1,0.4v0.6
		l-0.4-0.3l-0.1-0.3l0-0.3l-0.2-0.3l0.2,0.1l-0.6-0.9l-0.3,0.1l-0.7,0l-0.4-0.2l0.5-0.7v-0.3l-0.3-0.2l-0.4-0.1l-1-0.1l-0.2-0.2
		v-1.7l0-0.1l0.2-0.6l0.2-0.4l0.8-1.4l0.1-0.3l0.1-0.3l0-0.3l-0.2-1v-0.3l0.1-0.3l0.1-0.3l0.1-0.2l0.1-0.1l0.6-0.5l0.7-0.5l0.5-0.3
		l1-0.4l0.1-0.1l0.1-0.2l0.1-0.4l0-0.2l0.1-1.8l0.2-1.2l0.2-0.9l0.1-0.2l0.1-0.2l1-1l1.7-1l0.4-0.1l0.5,0l1,0.1l0.5-0.1l0.4-0.1
		l0.2-0.2l0.2-0.2l0.1-0.2l0.4-1.1l0.1-0.2l0.1-0.2l0.1-0.1l0.4-0.3l0.3-0.1l0.3-0.1l0.3-0.1l0.4,0l0.5,0l3,0.6l0.7,0.1l0.3,0
		l0.3-0.1l0.5-0.3l0.5-0.2l0.3-0.1l0.4,0.1l0.5,0.2l1,1l0.2,0.3l0.2,0.5l0.2,1l0,1.1l0.1,0.3l0.1,0.3l0.1,0.2l3,3.1l0.1,0.3l0,0.3
		l-0.2,0.9l0.2,0.3l0.4,0.4l1,0.4l1.5,0.9l0.3,0.3l0.1,0.2l0.1,0.3l0,0.3l-0.1,0.6l0,1.7l-0.2,0.6l-0.3,0.5l-0.1,0.3l-0.1,0.5l0,0.2
		l0.1,0.2l0.1,0.2l0.2,0.2l0.2,0.2l0.3,0.2l0.4,0.1l0.5,0l0.7-0.2l1.5-0.6l0.9-0.2l0.3,0l1.3,0.4l1.3,0.6l0.4,0l0.5-0.1l1.3-0.4
		l0.4-0.1l0.4,0l1.1,0.2l0.8,0.1l1.3-0.3l0.4,0l0.3,0l0.3,0.1l0.3,0.1l0.2,0.2l0.8,0.7l0.4,0.3l0.2,0.1l0.3,0.1l0.6,0.1h0.7l1.1-0.1
		l1.5,0l2.6,0.3l0.3,0l0.6-0.2l0.3-0.1l0.7-0.4l0.3-0.1l0.3-0.1l0.3,0l0.3,0l0.3,0.1l0.2,0.2l0.5,0.6l0.2,0.1l0.3,0l0.2,0l0.2,0.1
		l0.6,0.5l0.2,0.1l0.3,0.1l0.3,0l0.3-0.1l0.6-0.2l0.3-0.1l0.2-0.1l0.2-0.2l0.4-0.8l0.1-0.2l0.2-0.2l0.2-0.2l0.3-0.1l0.3,0l0.3,0
		l0.6,0.1l0.8,0.3l0.9,0.6l0.3,0.1l0.3,0.1l0.3,0l0.3-0.1l0.3-0.1l0.5-0.3l0.2-0.1l0.2,0l0.2,0l0.3,0.1l0.3,0.1l0.2,0.1l0.3,0.4
		l0.1,0.3l0.2,0.6l0.3,1.7l0.2,0.2l0.2,0.2l0.2,0.1l1.1,0.4l0.2,0.2l0.2,0.3v0.7l0.1,0.4l0.2,0.3l2.5,2l0.2,0.2l0.2,0.2l0.1,0.3
		l0.1,0.5l0,0.3l-0.3,1.8l-0.1,0.3l-0.2,0.3l-0.4,0.1l-0.4,0l-0.4,0l-0.3-0.1l-0.3-0.1l-0.3-0.1l-0.2-0.2l-0.4-0.3l-0.2-0.2
		l-0.1-0.3l-0.2-0.6l-0.1-0.2l-0.2-0.2l-0.3-0.1l-0.7-0.1l-0.3-0.1l-0.2-0.2l-0.2-0.2l-0.1-0.2l-0.3-0.8l-0.2-0.2l-0.2-0.2l-0.3-0.1
		l-0.3,0l-0.3,0.1l-0.5,0.2l-0.3,0.1l-0.3,0l-0.3-0.1l-0.3-0.1l-0.6-0.5l-0.7-0.5l-0.2-0.2l-0.2-0.2l-0.4-0.7l-0.2-0.2l-0.2-0.1
		l-0.3,0.2l-0.4,0.5l-1.3,2.5l-0.5,0.6l-0.2,0.1l-0.6,0.2l-0.3,0.1l-0.2,0.2l-0.2,0.2l-0.1,0.3l-0.1,0.4l-0.1,2.5l-0.2,0.9l0,0.3
		l-0.1,0.3l-0.1,0.4l-0.5,0.7l-0.2,0.2l-0.6,0.5l-0.2,0.2l-0.5,0.7l-0.1,0.2l-0.1,0.6l0,0.6l0.1,0.3l0.1,0.2l0.4,0.8l0.2,0.6
		l0.1,0.2l0.9,1.4l0.1,0.3l0.1,0.3l-0.2,1.9l0,0.3l0.1,0.8l0,0.1l0.1,0.2l0.4,0.6l0.1,0.2l0.1,0.2l0.7,6l-0.1,1.6l-0.4,0.9l0,0.7
		l0.1,0.6l1.1,3.1l0.2,0.7l0,0.7l-0.4,0.5l-0.6,0.5l-0.7,0.5l-0.7,0.6l-0.6,0.6l-0.7,1.7l-0.3,1l-0.2,0.5l-0.4,0.3l-0.6,0.3
		l-14.9,4.3l-0.4,0l-2.1-0.2l-0.3-0.1l-0.2-0.1l-0.3-0.1l-0.3,0l-0.3,0.1l-0.3,0.1l-1.1,0.8l-1,0.5l-0.9,0.7l-0.2,0.2l-0.2,0.3
		l0,0.5l0.1,0.5l1,1.6l0.1,0.4l0.1,0.6l0.2,0.5l0.3,0.7l0.8,1.1l0.6,2.7l0.3,0.4l1.3,1l0.8,1.4l0.4,1l2.1,9.3L108.4,400.3z
		 M76.6,344.4l0.4-0.2l0.3-0.4l0.5-1.5l0.8,1.1l0.5,0.4l0.6,0l0.3-0.3l0.4-1.1l0.5-0.5l-0.3,1.6l-0.7,1l-2.4,1.6l-0.6-0.2l-0.9,0
		l-0.7-0.2v-0.7L76.6,344.4z M65.5,347.6l0.2-0.5l0.2-0.3l0.5-0.2l1.8-0.2l1.9-0.5l0.8,0.3l0.3,1.3l0.1,0.4l0.3,0.2l0.1,0.2
		l-0.2,0.5l-0.5,0.4l-1.2,0.4l-0.5,0.4l-1-0.4l-1.5-1l-1.1-0.2l-0.3-0.2L65.5,347.6z"/>
	<path id="nyanza" class="st0" d="M460.4,435.7l0.7-0.7l1.5,0.1l1.7,0.5l1.1,0.7l1.1,1.7l-0.4,1.2l-1,0.2l-0.8-1.2l0,0.6l-0.1,0.6
		l-0.2,0.5l-0.4,0.2l-0.2,0.1l-0.1,0.1l-0.2,0.1l-0.3,0.1l-0.4-0.1l-0.3-0.3l-0.2-0.3l-0.1-0.1l-0.7,0.1l-1,0.3l-2.1,1.1l-0.5-0.4
		l-0.5,0.1l-0.4,0.5l-0.2,0.8l0.3,0.4l0.6,0.4l0.4,0.4l-0.2,0.6l-0.7,0l-0.4-0.3l-0.2-0.5l-0.1-0.7l-1.2,0.3l0-1.3l0.7-1.8l0.8-1.2
		l1-0.6l1.3-0.4l1.1-0.6L460.4,435.7z M108.4,400.3l-9-5l-11.9-6.7L75.6,382l-3-1.7l0.1-0.2l-0.2-0.1l-0.3-0.1l-0.1-0.5l0.4-0.6
		l0.8-0.1l0.6-0.2l-0.3-0.9l-0.7,0.5l-0.9,0.2l-0.8-0.2l-0.6-0.8l1.2,0.3l0.4-0.3l0.3-1.4l2.5,1.6l0.9,0.2v-0.3l-0.5-1.1l0.2-1.3
		l0.7-2.3l0.6-0.8l1.1-0.7l0.8-0.9l-0.5-1.4l-0.5-0.3l-2.6-0.9l-2.3-1.6l-0.4-0.1l0-1.1l-0.2-1.5l-0.6-1.1l-1.1,0.1l0.6-5l0.4-0.8
		l0.4-0.2l0.6-0.4l0.5-0.5l0.2-0.5l-0.1-0.7l-0.4-0.5l-0.5-0.5l-0.5-0.6l0.3-0.2l0.8-0.1l0.4-0.1l0.9-0.9l0.1-0.1l1.9,0.2l0.7-0.2
		l0.6-0.8l0.7-3.7l0.8-1.6l1.9-0.4l-0.1,0.2l-0.2,0.5l1.6,0l2.2,2l1.5,0.6l-0.2-0.4l-0.2-0.5l0-0.5l0.4-0.2l0.4,0.2l0.5,1l0.3,0.3
		l0.9,0.1l0.7-0.4l0.3-0.8l-0.4-0.9l0.8,0l0.6,0.2l0.5,0.3l0.5,0.5l0.3,0.5l0.5,1.1l0.1,0.5l-0.3,0.4l-0.4,0.5l0,0.5L92,351l0.7-0.2
		l1.4-1.1l0.6-0.2l0.1-0.2l1.6-0.9l0.1-0.5l0-0.8l-0.3-0.7l-2.4-1l-0.4-1.5l0.1-1.7l-0.1-1.2l1.1-0.5l1.7-0.5l1.6-0.3l0.9,0.1
		l0.6-0.4l0.4,0l0.4,0.2l0.4,0.4l0.6,0.4l0.5,0l0.5-0.1l0.5,0l2.5,0.7l1.1,0.1l3.5-0.3l0.7-0.2l0-0.9l-0.3-1.1l0.1-0.8l1.2,0.2
		l0.7-0.2l1.5,1.1l1.1,0.3l0.5-0.2l0.3-0.4l0.2-0.4l0.2-0.2l0.3-0.2l-0.4-0.4L115,337l-0.2-0.1l-1.9-3.6l-0.2-0.6l-0.8-0.3l-0.8-0.6
		l-0.6-0.8l-0.4-0.6l-0.4,0.4l-0.7-1.3l0-0.8l0.2-0.8l0.1-1.3l-0.8,0.3l-2.7-0.1l-0.3,0.5l-0.6,0.6l-0.7,0.5l-1.3,0.4l-1.3,0.8
		l-2,0.3l-0.9,0.4l-0.8,0.6l-0.7,0.7l-0.8,0.5l-0.8-0.1l-1.7-0.6h-0.8l-2.2,0.8l-1.6-0.2l-1,0l-0.8,0.5l-0.2,0.8l0.3,0.9l0.6,0.5
		l0.8-0.3l0.6,1.2l0.3,1.2l-0.1,1.1l-0.6,0.9l-2.8,2.2l-0.4,0.9l-0.2,0.9l-0.6,0.9l-0.8,0.3l-0.9-0.9l0.1-0.2l0.2-0.5l0.1-0.6
		l-0.1-0.7l-0.3-0.3l-0.5-0.3l-0.6-0.3l-0.5-0.2l0.6-0.6l0.2-0.5l-0.3-0.3l-0.8,0l0.9-1.9l-0.2-0.7l-1.1-0.8l-1.9-0.9l-0.6-0.7
		l0.2-1.1l-1.7,0.1l-2-0.3l-1.6-0.9l-0.5-1.6l0.3-0.3l1.4-0.7l0.4-0.1l0.8-0.2l0-0.3l-0.5-0.3l-0.9,0l1-1.5l0.2-0.8l-0.6-0.4l-1.6,0
		l-1,0.2l-0.7,0.5h0.4l-0.2,0.5l-0.1,0.4l-0.1,0.4v0.6l-0.4-0.3l-0.1-0.3l0-0.3l-0.2-0.3l0.2,0.1l-0.6-0.9l-0.3,0.1l-0.7,0l-0.4-0.2
		l0.5-0.7v-0.3l-0.3-0.2l-0.4-0.1l-1-0.1l-0.2-0.2v-1.7l0-0.1l0.2-0.6l0.2-0.4l0.8-1.4l0.1-0.3l0.1-0.3l0-0.3l-0.2-1v-0.3l0.1-0.3
		l0.1-0.3l0.1-0.2l0.1-0.1l0.6-0.5l0.7-0.5l0.5-0.3l1-0.4l0.1-0.1l0.1-0.2l0.1-0.4l0-0.2l0.1-1.8l0.2-1.2l0.2-0.9l0.1-0.2l0.1-0.2
		l1-1l1.7-1l0.4-0.1l0.5,0l1,0.1l0.5-0.1l0.4-0.1l0.2-0.2l0.2-0.2l0.1-0.2l0.4-1.1l0.1-0.2l0.1-0.2l0.1-0.1l0.4-0.3l0.3-0.1l0.3-0.1
		l0.3-0.1l0.4,0l0.5,0l3,0.6l0.7,0.1l0.3,0l0.3-0.1l0.5-0.3l0.5-0.2l0.3-0.1l0.4,0.1l0.5,0.2l1,1l0.2,0.3l0.2,0.5l0.2,1l0,1.1
		l0.1,0.3l0.1,0.3l0.1,0.2l3,3.1l0.1,0.3l0,0.3l-0.2,0.9l0.2,0.3l0.4,0.4l1,0.4l1.5,0.9l0.3,0.3l0.1,0.2l0.1,0.3l0,0.3l-0.1,0.6
		l0,1.7l-0.2,0.6l-0.3,0.5l-0.1,0.3l-0.1,0.5l0,0.2l0.1,0.2l0.1,0.2l0.2,0.2l0.2,0.2l0.3,0.2l0.4,0.1l0.5,0l0.7-0.2l1.5-0.6l0.9-0.2
		l0.3,0l1.3,0.4l1.3,0.6l0.4,0l0.5-0.1l1.3-0.4l0.4-0.1l0.4,0l1.1,0.2l0.8,0.1l1.3-0.3l0.4,0l0.3,0l0.3,0.1l0.3,0.1l0.2,0.2l0.8,0.7
		l0.4,0.3l0.2,0.1l0.3,0.1l0.6,0.1h0.7l1.1-0.1l1.5,0l2.6,0.3l0.3,0l0.6-0.2l0.3-0.1l0.7-0.4l0.3-0.1l0.3-0.1l0.3,0l0.3,0l0.3,0.1
		l0.2,0.2l0.5,0.6l0.2,0.1l0.3,0l0.2,0l0.2,0.1l0.6,0.5l0.2,0.1l0.3,0.1l0.3,0l0.3-0.1l0.6-0.2l0.3-0.1l0.2-0.1l0.2-0.2l0.4-0.8
		l0.1-0.2l0.2-0.2l0.2-0.2l0.3-0.1l0.3,0l0.3,0l0.6,0.1l0.8,0.3l0.9,0.6l0.3,0.1l0.3,0.1l0.3,0l0.3-0.1l0.3-0.1l0.5-0.3l0.2-0.1
		l0.2,0l0.2,0l0.3,0.1l0.3,0.1l0.2,0.1l0.3,0.4l0.1,0.3l0.2,0.6l0.3,1.7l0.2,0.2l0.2,0.2l0.2,0.1l1.1,0.4l0.2,0.2l0.2,0.3v0.7
		l0.1,0.4l0.2,0.3l2.5,2l0.2,0.2l0.2,0.2l0.1,0.3l0.1,0.5l0,0.3l-0.3,1.8l-0.1,0.3l-0.2,0.3l-0.4,0.1l-0.4,0l-0.4,0l-0.3-0.1
		l-0.3-0.1l-0.3-0.1l-0.2-0.2l-0.4-0.3l-0.2-0.2l-0.1-0.3l-0.2-0.6l-0.1-0.2l-0.2-0.2l-0.3-0.1l-0.7-0.1l-0.3-0.1l-0.2-0.2l-0.2-0.2
		l-0.1-0.2l-0.3-0.8l-0.2-0.2l-0.2-0.2l-0.3-0.1l-0.3,0l-0.3,0.1l-0.5,0.2l-0.3,0.1l-0.3,0l-0.3-0.1l-0.3-0.1l-0.6-0.5l-0.7-0.5
		l-0.2-0.2l-0.2-0.2l-0.4-0.7l-0.2-0.2l-0.2-0.1l-0.3,0.2l-0.4,0.5l-1.3,2.5l-0.5,0.6l-0.2,0.1l-0.6,0.2l-0.3,0.1l-0.2,0.2l-0.2,0.2
		l-0.1,0.3l-0.1,0.4l-0.1,2.5l-0.2,0.9l0,0.3l-0.1,0.3l-0.1,0.4l-0.5,0.7l-0.2,0.2l-0.6,0.5l-0.2,0.2l-0.5,0.7l-0.1,0.2l-0.1,0.6
		l0,0.6l0.1,0.3l0.1,0.2l0.4,0.8l0.2,0.6l0.1,0.2l0.9,1.4l0.1,0.3l0.1,0.3l-0.2,1.9l0,0.3l0.1,0.8l0,0.1l0.1,0.2l0.4,0.6l0.1,0.2
		l0.1,0.2l0.7,6l-0.1,1.6l-0.4,0.9l0,0.7l0.1,0.6l1.1,3.1l0.2,0.7l0,0.7l-0.4,0.5l-0.6,0.5l-0.7,0.5l-0.7,0.6l-0.6,0.6l-0.7,1.7
		l-0.3,1l-0.2,0.5l-0.4,0.3l-0.6,0.3l-14.9,4.3l-0.4,0l-2.1-0.2l-0.3-0.1l-0.2-0.1l-0.3-0.1l-0.3,0l-0.3,0.1l-0.3,0.1l-1.1,0.8
		l-1,0.5l-0.9,0.7l-0.2,0.2l-0.2,0.3l0,0.5l0.1,0.5l1,1.6l0.1,0.4l0.1,0.6l0.2,0.5l0.3,0.7l0.8,1.1l0.6,2.7l0.3,0.4l1.3,1l0.8,1.4
		l0.4,1l2.1,9.3L108.4,400.3z M76.6,344.4l0.4-0.2l0.3-0.4l0.5-1.5l0.8,1.1l0.5,0.4l0.6,0l0.3-0.3l0.4-1.1l0.5-0.5l-0.3,1.6l-0.7,1
		l-2.4,1.6l-0.6-0.2l-0.9,0l-0.7-0.2v-0.7L76.6,344.4z M65.5,347.6l0.2-0.5l0.2-0.3l0.5-0.2l1.8-0.2l1.9-0.5l0.8,0.3l0.3,1.3
		l0.1,0.4l0.3,0.2l0.1,0.2l-0.2,0.5l-0.5,0.4l-1.2,0.4l-0.5,0.4l-1-0.4l-1.5-1l-1.1-0.2l-0.3-0.2L65.5,347.6z"/>
	<path id="nairobi" class="st0" d="M242.5,390.6L241,392l-0.3,0.4l-0.6,0.6l-1,1.1l-0.2,0.2l-0.2,0.1l-0.5,0l-2.8-0.5l-0.7,0
		l-0.6-0.1l-0.3,0l-0.3,0.1l-0.2,0.2l-0.1,0.9l-0.1,0.4l-0.3,0.4l-2.5,1.7l-0.1,0.2l-0.1,0.2l0.1,0.3l0.8,1.1l0,0.2l-0.1,0.2
		l-0.4,0.4l-0.4,0.5l-0.5,0.2l-1.5-0.2l-0.9-0.8l-0.6-0.4l-0.4-0.1l-0.6-0.1L224,399l-0.3,0l-0.3-0.1l-1.8-0.7l-0.6-0.4l-0.5-0.4
		l-0.5-0.7l-0.4-0.8l-0.6-0.6l-1.9-1.2l1.5-1.6l0.9-1.4l0.3-0.3l0.4-0.2l0.4-0.1l0.7-0.3l0.3-0.3l1.8-2.2l0.6-0.4l0.5-0.2l0.3,0
		l2.2,0.7l0.3,0l0.3-0.1l0.5-0.2l0.4-0.1l1-0.1l0.3-0.1l0.3-0.2l1.5-1.6l0.3,0l0.3,0l0.4,0.2l0.1,0.1l0.5,0.2l0.2,0.1l0.1,0.2l0,0.2
		l-0.5,0.9l-0.1,0.3l0,0.3l0.1,0.3l0.2,0.2l0.9,0.6l0.9,0.4l0.4,0.1l0.8,0.1l0.8,0l0.5,0l0.4-0.1l0.7-0.3l1.6-0.3l0.7,0.4l0.6,0.5
		L242.5,390.6z"/>
	<path id="western" class="st0" d="M99.6,261.1L99.6,261.1l0.4-0.5l0.5,0.6l1.6,1.4l0.1,1l1,1.6l5.7,6l0.3,0.2l0.3,0.1l0.3,0.1
		l0.3,0l0.3,0.1l0.2,0.1l0.2,0.3l0.1,0.4l-0.1,0.7l0,0.5l0,0.5l0.2,0.7l0.2,0.4l0.2,0.3l0.5,0.3l0.3,0.1l0.3,0.1l0.3,0l2-0.2
		l1.2-0.4l1.5-0.4l0.3,0l0.3,0l0.3,0.1l0.3,0.1l0.3,0.1l0.3,0l0.3-0.1l0.2-0.2l1-1.3l0.2-0.2l0.2-0.2l0.2-0.1l0.3-0.1l0.3-0.1
		l1.7-0.2l3.2,0.1l0.3,0.1l0.3,0.1l0.5,0.3l0.5,0.3l0.3,0.1l0.6,0.2l1.1,0.4l0.4,0.2l0.2,0.1l0.1,0.1l0.1,0.2l0.1,0.2l0.3,0.8l1,1.3
		l0.1,0.3l0.1,0.9l0,1.4l0,0.2l0.1,0.2l0.3,0.4l0.2,0.3l0.1,0.3l0,0.5l0,0.4l-0.1,0.4l-0.2,0.3l-0.4,0.4l-0.2,0.2l-1.3,0.7L131,284
		l-0.2,0.3l-0.3,1l-0.2,0.4l-0.4,0.4l-1,0.7l-0.2,0.1l-0.2,0.1l-0.3,0l-0.6-0.1l-0.3-0.1l-0.5-0.3l-0.3-0.1l-0.3,0l-0.3,0l-0.6,0.1
		l-1,0.5l-0.2,0.1l-0.2,0l-0.3,0l-0.3,0l-0.7-0.2l-0.2,0l-0.1,0L122,287l-0.2,0.1l-0.2,0.2l-1.4,2.1l-0.4,0.4l-0.4,0.2l-0.3,0
		l-0.3,0l-0.3-0.1l-0.8-0.4l-0.3-0.1l-0.3,0l-0.3,0l-0.3,0.1l-0.3,0.1l-0.7,0.4l-0.2,0.5l-0.2,0.7l-0.1,2.4l0.1,0.4l0.6,0.4l2.3,1.1
		l0.2,0.2l0.2,0.2l0.1,0.2l0.7,1.6l0.2,1l0.6,1.7l0.1,0.3v0.3l-0.5,3.6l0.1,0.7l0.3,0.9l0.2,0.5l0.1,0.3l0.1,0.3l0,0.4l-0.1,0.5
		l-0.5,1.1l-0.5,1.9l-0.2,0.6l-0.6,0.7l-1.6,1.3l-0.6,0.6l-0.2,0.3l-0.3,0.4l-0.4,0.9l-0.4,1.2l-1.1,1.3l-2.3,2.4l-0.9,1.4l-1.3,0.3
		l-0.8-0.1l-1.1-0.2l-0.4,0l-0.4,0.1l-1.3,0.4l-0.5,0.1l-0.4,0l-1.3-0.6l-1.3-0.4l-0.3,0l-0.9,0.2l-1.5,0.6l-0.7,0.2l-0.5,0
		l-0.4-0.1l-0.3-0.2l-0.2-0.2l-0.2-0.2l-0.1-0.2l-0.1-0.2l0-0.2l0.1-0.5l0.1-0.3l0.3-0.5l0.2-0.6l0-1.7l0.1-0.6l0-0.3l-0.1-0.3
		l-0.1-0.2l-0.3-0.3l-1.5-0.9l-1-0.4l-0.4-0.4l-0.2-0.3l0.2-0.9l0-0.3l-0.1-0.3l-3-3.1l-0.1-0.2l-0.1-0.3l-0.1-0.3l0-1.1l-0.2-1
		l-0.2-0.5l-0.2-0.3l-1-1l-0.5-0.2l-0.4-0.1l-0.3,0.1l-0.5,0.2l-0.5,0.3l-0.3,0.1l-0.3,0l-0.7-0.1l-3-0.6l-0.5,0l-0.4,0l-0.3,0.1
		l-0.3,0.1l-0.3,0.1l-0.4,0.3l-0.1,0.1l-0.1,0.2l-0.1,0.2l-0.4,1.1l-0.1,0.2l-0.2,0.2l-0.2,0.2l-0.4,0.1l-0.5,0.1l-1-0.1l-0.5,0
		l-0.4,0.1l-1.7,1l-1,1l-0.1,0.2l-0.1,0.2l-0.2,0.9l-0.2,1.2l-0.1,1.8l0,0.2l-0.1,0.4l-0.1,0.2l-0.1,0.1l-1,0.4l-0.5,0.3l-0.7,0.5
		l-0.6,0.5l-0.1,0.1l-0.1,0.2l-0.1,0.3l-0.1,0.3v0.3l0.2,1l0,0.3l-0.1,0.3l-0.1,0.3l-0.8,1.4l-0.2,0.4l-0.2,0.6l-0.3-1.5l0-0.5
		l-0.2-0.6l-0.5-0.4l-0.5-0.3l-0.4-0.4l-0.2-0.5l-0.1-0.5l-0.1-1.1l0.2-0.6h0.4l0.5,0.2l0.5-0.2l0.3-0.7l0.1-0.9l-0.1-1.6l0.1-0.9
		l0.5-1.8l0.1-0.7l-0.1-0.4l-0.3-0.7l2.5-3.3l2-1.5l0.5-0.7l0.2-1.1l-0.6-2l-0.1-1l0.2-0.5l1-1.1l0.4-0.6l0.2-0.5l1.3-5.5l0-0.2
		l1-1.7l1.6-1.1l2.3-0.8l1.8-0.9l1.3-1.4l0.9-2.4l0.2-1.3l0.1-0.7l0.5-0.5l3.6-1.8l1-0.9l0.8-2.2l1.6-2.1l1.4-3.6l0.3-1.1l0-1.2
		l0-1.3l0.3-1.2l0.5-1.1l0.5-1l1.1-1.1l0.9,0.2l0.9,0.5L99.6,261.1z"/>
	<path id="central" class="st0" d="M239.9,320.8l1.3,1.3l11.5,8.6l0.4,0.6l5.9,14.3l0.2,0.9l0,4.3l0.1,0.5l0.2,0.5l1.8,2.1l0.5,0.8
		l0,1.4l0,0.4l0.1,4l0.1,0.7l0.3,0.9l0.1,0.3l0.2,0.2l0.1,0.2l-0.1,0.3l-0.6,0.4l-7.4,2.8l-0.4,0l-0.3,0l-0.3-0.1l-1.1-0.8l-0.8-0.8
		l-0.4-0.3l-0.2-0.1l-0.3-0.1h-0.2l-0.3,0L250,364l-0.5,0.2l-0.1,0.1l-0.1,0.3l-0.1,0.5l-0.5,4v0.6l0.1,0.4l2.1,1.7l0.2,0.2l0.2,0.2
		l0.1,0.3l0.6,2.1l0.5,1l0.2,0.2l0.2,0.2l0.3,0.1l0.3,0l0.3-0.1l0.3-0.1l0.3-0.1l0.9-0.6l0.2-0.1l0.2,0l0.2,0.1l0.2,0.2l0.1,0.3v0.4
		l-0.1,0.4l-0.2,0.5l-0.3,1.2l0,1.1l-1.5,2.1l-0.6,0.6l-0.1,0.1l-0.1,0l-1.8-1.2l-0.3-0.1l-0.3,0l-0.6,0.1l-0.3,0.1l-0.5,0.3
		l-0.4,0.1l-0.5,0.1l-0.7,0l-0.3-0.1l-0.3,0l-0.3,0l-0.3,0.1l-1,0.7l-0.4,0.4l-0.2,0.4l-0.1,0.4l0,0.7l0.2,0.8v0.4l-0.7,1.8
		l-1.1,2.4l-0.8,0.8l-0.8-1l-0.6-0.5l-0.7-0.4l-1.6,0.3l-0.7,0.3l-0.4,0.1l-0.5,0l-0.8,0l-0.8-0.1l-0.4-0.1l-0.9-0.4l-0.9-0.6
		L233,388l-0.1-0.3l0-0.3l0.1-0.3l0.5-0.9l0-0.2l-0.1-0.2l-0.2-0.1l-0.5-0.2l-0.1-0.1l-0.4-0.2l-0.3,0l-0.3,0l-1.5,1.6l-0.3,0.2
		l-0.3,0.1l-1,0.1l-0.4,0.1l-0.5,0.2l-0.3,0.1l-0.3,0l-2.2-0.7l-0.3,0l-0.5,0.2l-0.6,0.4l-1.8,2.2l-0.3,0.3l-0.7,0.3l-0.4,0.1
		l-0.4,0.2l-0.3,0.3l-0.9,1.4l-1.5,1.6l-0.5-0.2l-0.9-0.5l-0.8-0.6l-0.2-0.1l-0.4-0.1l-6.5-1l-0.3-0.4l-0.1-0.7l2.1-6.2l0.2-0.2
		l0.3-0.1l1,0l0.3-0.1l0.3-0.1l0.2-0.2l0.1-0.3l0.1-0.6l0-0.4l-0.4-1.6l0-0.3l0.1-1l0.4-1.4l0-0.2l0-0.1l0-0.1l-0.8-1l-0.1-0.3
		l-0.4-1.2l-0.1-0.3l0-0.4l0.1-1l0-0.3l-0.1-0.3l-1.9-5.3l-0.4-2.3l0.1-0.5l0.5-1.5l0.1-0.5l0-0.4l-0.7-3.1l-0.1-1.1l-0.4-1.7
		l-0.1-0.3l-0.2-0.1l-0.2-0.1l-0.2,0l-0.5-0.2l-0.5-0.2l-0.2-0.1l-0.2-0.2l-0.3-0.5l-0.2-0.2l-0.2-0.2l-0.3-0.1l-0.7,0l-0.7,0.1
		l-1.1,0.2l-0.1,0l-0.1-0.1l-0.1-0.2l-0.2-0.9l-0.2-0.6l-0.1-0.6l0-1.4l-0.4-2.7l0.1-0.8l0.1-0.5l0.1-0.8l0-0.3l-0.3-0.9l-0.1-0.3
		l-0.1-0.2l-0.2-0.1h-0.2l-1.7,0.3l-0.3,0l-0.2-0.2l-0.1-0.2l-0.1-0.3l-0.2-0.2l-0.2-0.1l-0.3,0l-0.3,0l-1.2,0.3l-0.7,0.1l-0.3,0
		l-0.3-0.1l-0.2-0.1l-0.1-0.1l-0.2-0.1l-2.8-6l-0.2-0.6l-0.1-0.7l-0.1-0.7l0-0.4l0.1-0.3l0.6-1.6l0.1-0.6l-0.1-2.8l0.2-1.3l0.2-0.7
		l0.2-0.4l0.3-1.1l0.8-1.3l0.1-0.3l0.7-2.3l0.3-0.5l0.7-0.7l0.5-0.3l2.3-0.9l0.2-0.1l0.1-0.2l0.2-0.6l0.1-0.2l0.3-0.1l0.6-0.1
		l1.2,0.1l0.9-0.2l0.5-0.2l2.9-1.8l0.2-0.2l0.1-0.3l0.2-0.6l0.2-0.2l0.3-0.1l0.4,0.2l0.3,0.2l1.4,1.4l0.2,0.2l0.1,0.3l0.2,0.9
		l0.3,0.3l0.5,0.3l1.1,0.3l0.5,0.2l0.4,0.2l1.3,1.4l0.3,0.1l0.4,0l0.6-0.2l0.4-0.2l0.8-0.5l0.3-0.1l0.3,0l0.3,0.2l0.1,0.3l0,0.2
		l-0.1,0.1l-0.2,0.1l-4.9,3l-0.4,0.3l-0.3,0.3l-0.1,0.2l-0.1,0.3l-0.1,0.3l0,0.3l0.1,0.6l0.1,0.3l0.1,0.2l1.7,1.5l0.7,0.5l0.9,0.2
		l2.5,0.2l1,0.3l2.6-0.4l4-1l0.7-0.1l0.5,0.1l2.6,0.9l0.2,0.1l0,0.1l-0.1,0.3v0.7L227,332l-0.1,0.4l-0.1,0.2l-0.2,0.2l-0.2,0.2
		l-0.4,0.2l-0.1,0.1l0,0.2l0.3,0.9l0.1,0.3l2.2,2.7l0.6,0.5l0.7,0.4l0.2,0.1l0.2,0l0.2,0l0.3-0.2l0.3-0.2l0.3-0.3l0.2-0.1l0.2,0
		l0.7,0.4l0.3,0.1l0.3,0l0.3-0.1l0.4-0.4l0.7-0.9l0.2-0.3l0.4-0.6l0.9-0.8l0.2-0.2l0.2-0.2l0.2-0.5l0.1-0.7l0.2-2.2l-0.1-0.5
		l-1.3-2.1l-0.1-0.3l-0.1-0.3l0-0.7l0.2-0.4l0.3-0.5l1.5-1.4l0.7-1L239.9,320.8z"/>
</g>
<g id="centers">
	<circle id="western_1_" class="st1" cx="96.7" cy="289.7" r="4.4"/>
	<circle id="nyanza_1_" class="st1" cx="104" cy="357.7" r="4"/>
	<circle id="rift-valley_1_" class="st1" cx="166.4" cy="242.2" r="4.4"/>
	<circle id="central_1_" class="st1" cx="224.9" cy="357.2" r="3.5"/>
	<circle id="nairobi_1_" class="st1" cx="227.1" cy="392.3" r="3.2"/>
	<circle id="coast_1_" class="st1" cx="365" cy="438.4" r="4.1"/>
	<circle id="eastern_1_" class="st1" cx="283.4" cy="319.6" r="4.4"/>
	<circle id="north-eastern_1_" class="st1" cx="411.6" cy="282.2" r="4"/>
</g>
</svg>
