<?xml version="1.0" encoding="utf-8"?>
<!-- Generator: Adobe Illustrator 22.0.0, SVG Export Plug-In . SVG Version: 6.00 Build 0)  -->
<svg version="1.1" id="academia" xmlns="http://www.w3.org/2000/svg" xmlns:xlink="http://www.w3.org/1999/xlink" x="0px" y="0px"
	 viewBox="0 0 164 164" style="enable-background:new 0 0 164 164;" xml:space="preserve">
<style type="text/css">
	.st0{fill:none;stroke:#231F20;stroke-width:3;stroke-linecap:round;stroke-miterlimit:10;}
</style>
<g id="document">
	<g>
		<ellipse class="st0" cx="83.8" cy="131.4" rx="14.1" ry="14.1"/>
		<polyline class="st0" points="71.6,138.4 65.8,152.6 73.2,150.2 77,157.1 81.8,145.4 		"/>
		<polyline class="st0" points="96.5,137.8 96.5,137.8 102.4,152 94.9,149.5 91.2,156.5 86.6,145.3 		"/>
		<ellipse class="st0" cx="83.9" cy="131.4" rx="6.7" ry="6.7"/>
	</g>
	<path class="st0" d="M70,142.6l-51.7,1.8c-2.7-1-4.7-6-4.7-12.1c0-6.2,2.1-11.3,4.8-12.1l54.6,2.3"/>
	<path class="st0" d="M94.7,122.3l46.7-2.1c2.7,0.8,4.8,5.9,4.8,12.1c0,6.1-2,11.1-4.7,12.1l-43.1-1.7"/>
</g>
<g id="cap">
	<polygon class="st0" points="81.1,76.7 151.9,41.8 81.1,7.8 10.1,41.8 	"/>
	<path class="st0" d="M125.4,54.9v24.2C79,125.3,36,79.9,36,79.9V54.6"/>
	<polyline class="st0" points="141.2,47 141.3,47 141.3,74.7 	"/>
	<ellipse transform="matrix(0.1753 -0.9845 0.9845 0.1753 36.6359 205.8561)" class="st0" cx="141.2" cy="81.1" rx="6.3" ry="6.3"/>
	<polyline class="st0" points="144.1,87.1 148.8,104 133.2,104 138.8,87.3 	"/>
</g>
</svg>
