<?xml version="1.0" encoding="utf-8"?>
<!-- Generator: Adobe Illustrator 22.0.0, SVG Export Plug-In . SVG Version: 6.00 Build 0)  -->
<svg version="1.1" id="academia" xmlns="http://www.w3.org/2000/svg" xmlns:xlink="http://www.w3.org/1999/xlink" x="0px" y="0px"
	 viewBox="0 0 164 164" style="enable-background:new 0 0 164 164;" xml:space="preserve">
<style type="text/css">
	.st0{fill-rule:evenodd;clip-rule:evenodd;fill:none;stroke:#231F20;stroke-width:3;stroke-linecap:round;stroke-miterlimit:10;}
</style>
<g>
	<path class="st0" d="M110.8,95c8.1-1.2,16.8-5.8,24.3-13.9c1.2-1.2,1.2-2.3,1.2-4.1c9.8-11.5,15.6-27.7,15.6-39.9
		c0-19.7-9.3-21.4-24.9-24.9l0,0c-0.6-1.7-2.3-2.9-4.6-2.9c-3.5,0-6.4,2.3-6.4,5.2c0,2.9,2.9,5.8,6.4,5.8c1.2,0,2.3-0.6,2.9-1.2h0.6
		c14.5,2.9,18.5,4.1,18.5,17.9c0,10.4-5.2,25.4-13.9,35.8c-1.8,0-2.9,0.6-4.1,1.7c-4.1,4.7-11,10.4-19.1,10.4
		c-8.7,0-15.6-5.8-19.7-10.4c-1.2-1.2-2.3-1.7-4.1-1.7c-8.1-10.4-13.9-25.5-13.9-35.8c0-13.9,4.1-15,18.5-17.9l0,0
		c1.2,0.6,2.4,1.2,4.1,1.2c2.9,0,5.8-2.9,5.8-5.8c0-2.9-2.9-5.2-5.8-5.2c-2.3,0-4.6,1.2-5.2,2.9l0,0c-15.6,3.5-24.9,5.2-24.9,24.9
		c0,12.1,5.8,28.3,15.6,40.5c0,1.2,0.6,2.9,1.2,4.1c7.5,7.5,15.6,12.1,23.7,13.3v24.3c0,16.7-14.5,30-32.4,30
		c-17.9,0-32.4-13.3-32.4-30V97.9c10.4-1.7,18-9.8,18-20.2c0-11-9.8-20.2-22-20.2c-11.6,0-22,9.3-22,20.2c0,10.4,8.1,18.5,18.5,20.2
		v21.5c0,20.2,17.9,37,39.9,37c22,0,40-16.8,40-37V95H110.8z M33.8,91.6c8.1,0,15-6.4,15-13.9c0-7.5-7-13.3-15-13.3
		c-7.6,0-14.5,5.8-14.5,13.3C19.3,85.2,26.3,91.6,33.8,91.6L33.8,91.6z"/>
</g>
</svg>
