<?xml version="1.0" encoding="utf-8"?>
<!-- Generator: Adobe Illustrator 22.0.0, SVG Export Plug-In . SVG Version: 6.00 Build 0)  -->
<svg version="1.1" id="Layer_1" xmlns="http://www.w3.org/2000/svg" xmlns:xlink="http://www.w3.org/1999/xlink" x="0px" y="0px"
	 viewBox="0 0 100 100" style="enable-background:new 0 0 100 100;" xml:space="preserve">
<style type="text/css">
	.st0{fill:#BC6720;}
	.st1{fill:none;stroke:#FFFFFF;stroke-width:1.5;stroke-linecap:round;stroke-linejoin:round;}
</style>
<path class="st0" d="M100,50c0,27.6-22.4,50-50,50S0,77.6,0,50S22.4,0,50,0C50,67,100,22.4,100,50z"/>
<g>
	<path class="st1" d="M49.6,68.6c1.1,0.3,2.2,0.5,3.4,0.5c1.8,0,3.7-0.4,5.3-1.2c0.1-2.9-2.2-5.4-5.1-5.6c-1.8-0.1-3.6,0.8-4.6,2.3
		 M49.6,68.6L49.6,68.6c0-1.4-0.4-2.8-1-4 M49.6,68.6v0.1c-2.5,1.5-5.3,2.3-8.2,2.3c-3,0-5.8-0.8-8.2-2.3l0-0.1
		c0-4.6,3.7-8.2,8.2-8.2c3,0,5.8,1.6,7.2,4.3 M45.8,52.1c0,2.4-2,4.4-4.4,4.4s-4.4-2-4.4-4.4s2-4.4,4.4-4.4S45.8,49.7,45.8,52.1z
		 M56.4,55c0,1.9-1.5,3.4-3.4,3.4c-1.9,0-3.4-1.5-3.4-3.4c0-1.9,1.5-3.4,3.4-3.4C54.9,51.6,56.4,53.1,56.4,55z"/>
</g>
</svg>
