<?xml version="1.0" encoding="utf-8"?>
<!-- Generator: Adobe Illustrator 22.0.0, SVG Export Plug-In . SVG Version: 6.00 Build 0)  -->
<svg version="1.1" id="academia" xmlns="http://www.w3.org/2000/svg" xmlns:xlink="http://www.w3.org/1999/xlink" x="0px" y="0px"
	 viewBox="0 0 164 164" style="enable-background:new 0 0 164 164;" xml:space="preserve">
<style type="text/css">
	.st0{fill:none;stroke:#231F20;stroke-width:3;stroke-linecap:round;stroke-miterlimit:10;}
	.st1{fill:none;stroke:#878787;stroke-width:3;stroke-linecap:round;stroke-miterlimit:10;}
</style>
<g>
	<path class="st0" d="M79.9,100.3c8.4-6.5,14-17.6,14-30.3c0-20-14-36.3-31.3-36.3C45.4,33.7,31.4,50,31.4,70
		c0,12.6,5.6,23.8,14,30.3c-19.1,8.2-32.8,29.5-32.8,54.5h8.3c0-26.7,18.7-48.4,41.7-48.4c23,0,41.7,21.7,41.7,48.4h8.3
		C112.7,129.7,99,108.4,79.9,100.3z M62.6,96.6C50,96.6,39.7,84.7,39.7,70S50,43.4,62.6,43.4S85.6,55.3,85.6,70S75.3,96.6,62.6,96.6
		z"/>
	<path class="st1" d="M121.6,76c8.4-6.5,14-17.6,14-30.3c0-20-14-36.3-31.3-36.3c-8.4,0-15.9,3.8-21.6,10.1
		c-2.1,2.3-3.9,4.9-5.4,7.8c2.6,1.2,5.1,2.7,7.4,4.5c1.5-2.8,3.4-5.2,5.6-7.2c3.9-3.5,8.7-5.5,13.9-5.5c12.6,0,22.9,11.9,22.9,26.6
		c0,12.2-7.1,22.5-16.7,25.6c-2,0.6-4,1-6.2,1c-0.7,0-1.5,0-2.2-0.1c-0.1,3.5-0.6,6.9-1.4,10.1c1.2-0.1,2.4-0.3,3.6-0.3
		c1.7,0,3.4,0.2,5,0.4c20.6,2.9,36.7,23.3,36.7,48h8.3C154.4,105.5,140.7,84.2,121.6,76z"/>
</g>
</svg>
