<?xml version="1.0" encoding="utf-8"?>
<!-- Generator: Adobe Illustrator 22.0.0, SVG Export Plug-In . SVG Version: 6.00 Build 0)  -->
<svg version="1.1" id="academia" xmlns="http://www.w3.org/2000/svg" xmlns:xlink="http://www.w3.org/1999/xlink" x="0px" y="0px"
	 viewBox="0 0 164 164" style="enable-background:new 0 0 164 164;" xml:space="preserve">
<style type="text/css">
	.st0{fill:none;stroke:#231F20;stroke-width:3;stroke-linecap:round;stroke-miterlimit:10;}
</style>
<g id="XMLID_2392_">
	<path id="XMLID_2393_" class="st0" d="M153,119.4l-39.4-30.2c-0.1,0-0.1-0.1-0.2-0.1c12.2-17.6,20.8-35.8,18.8-50.4
		c-1.7-10-10.2-19.5-21.6-24.4C101,10.1,87.3,8.5,74.8,10c-14.6,1.8-25.5,7.4-30.9,15.8c-5.4,8.4-6.2,19.3-2.3,32.3
		c0.5,1.8,4,8.7,12.3,24.8c0.6,1.2,1.1,2,1.2,2.3c0.2,0.4,0.5,0.8,0.8,1.1c0.8,0.8,2.1,1.6,3.3,2c-15.5,13.8-32.7,27.9-44.6,33.9
		c-1.7,0.9-2.4,2.9-1.7,4.6c0.4,0.9,9.7,21.2,34,30.5c0.4,0.2,0.9,0.3,1.4,0.3c0.9,0,1.8-0.3,2.5-0.9c1.5-1.3,16.9-14.6,34-32.9
		l31.6,29.1c0.7,0.6,1.6,1,2.6,1c0.3,0,0.7,0,1-0.1c21.5-6,33.6-29.1,34.1-30.1C154.8,122.2,154.3,120.4,153,119.4z M47.6,149.9
		c-14.9-6.4-23.1-17.8-26.3-23c28.7-16.4,77.7-66.1,79.8-68.3c0.2-0.2,0.3-0.4,0.5-0.6c2.7-4.1,5.9-10.2,3.7-15.8
		c-1.6-4-5.5-6.8-12-8.6c-9.5-2.6-25-1.7-28.1,8.6c-1.3,4.4,7.5,18.5,11.7,23.9c-3.6,3.6-11.6,10.7-15.9,15
		C52.6,65.2,49,57.1,48.7,56.2c-3.3-11-2.7-20,1.5-26.6c9.5-14.9,41.4-15.6,57.4-8.8c9.1,3.8,16,11.5,17.3,18.9
		C129.7,75.3,59.5,139.3,47.6,149.9z M81.8,60.2C79.7,57.9,72.6,47,72.3,44c1.7-4.8,12.4-5.3,18.9-3.5c2.8,0.8,6.3,2.1,7.1,4.2
		c0.7,1.8-0.2,4.9-2.9,9.1c-1.1,1.1-5.2,5.2-11.2,11c-0.4-1.7-1.4-3.7-2.3-4.6C81.9,60.3,81.8,60.3,81.8,60.2z M119.9,146.3
		l-28.3-26.1l20.2-23.4l34.1,26.2C142.5,128.6,133.3,141.6,119.9,146.3z"/>
</g>
</svg>
