<?xml version="1.0" encoding="utf-8"?>
<!-- Generator: Adobe Illustrator 22.0.0, SVG Export Plug-In . SVG Version: 6.00 Build 0)  -->
<svg version="1.1" id="Diplomas" opacity="0.5" xmlns="http://www.w3.org/2000/svg" xmlns:xlink="http://www.w3.org/1999/xlink"
	 x="0px" y="0px" viewBox="0 0 500 500" style="enable-background:new 0 0 500 500;" xml:space="preserve">
<style type="text/css">
	.st0{fill:#A568C3;}
	.st1{opacity:0.8;fill:#FFFFFF;enable-background:new    ;}
	.st2{opacity:0.5;fill:#A568C3;enable-background:new    ;}
	.st3{opacity:0.3;fill:#A568C3;enable-background:new    ;}
	.st4{opacity:0.65;fill:#A568C3;enable-background:new    ;}
	.st5{fill:#F9F9F9;}
	.st6{opacity:0.7;fill:#FFFFFF;enable-background:new    ;}
	.st7{opacity:0.35;fill:#A568C3;enable-background:new    ;}
	.st8{fill:#4D5A64;}
	.st9{opacity:0.2;fill:#A568C3;enable-background:new    ;}
	.st10{fill:#EFEFEF;}
	.st11{fill:#FFFFFF;}
	.st12{fill:#DEDEDE;}
	.st13{opacity:0.7;fill:#F9F9F9;enable-background:new    ;}
	.st14{fill:#F4F4F4;}
	.st15{opacity:0.4;fill:#FFFFFF;enable-background:new    ;}
	.st16{opacity:0.1;enable-background:new    ;}
	.st17{opacity:0.1;}
	.st18{fill:#E9E9E9;}
	.st19{opacity:0.2;enable-background:new    ;}
</style>
<g id="freepik--Symbol--inject-26">
	<g id="freepik--medical-symbol--inject-26">
		<polygon class="st0" points="438.3,304.3 447.2,291.7 439.1,279.1 430.2,274 428.2,276.7 420.8,272.5 405.5,281.3 405.5,296 
			396.2,293.6 388.1,315.6 397,320.7 388.1,333.3 396.2,346 405.1,351.1 407,348.4 414.4,352.6 429.7,343.8 429.7,329.1 
			439.1,331.5 447.2,309.5 		"/>
		<polygon class="st1" points="438.3,304.3 447.2,291.7 439.1,279.1 430.2,274 428.2,276.7 420.8,272.5 405.5,281.3 405.5,296 
			396.2,293.6 388.1,315.6 397,320.7 388.1,333.3 396.2,346 405.1,351.1 407,348.4 414.4,352.6 429.7,343.8 429.7,329.1 
			439.1,331.5 447.2,309.5 		"/>
		<polygon class="st2" points="428.2,276.7 429.7,277.6 429.7,292.3 439.1,279.1 430.2,274 		"/>
		<polygon class="st3" points="396.2,293.6 405.1,298.7 414.4,301.1 405.5,296 		"/>
		<polygon class="st2" points="405.5,281.3 414.4,286.4 414.4,301.1 405.5,296 		"/>
		<polygon class="st2" points="396.2,293.6 405.1,298.7 397,320.7 388.1,315.6 		"/>
		<polygon class="st2" points="407.6,323.5 397,320.7 388.1,333.3 397,338.5 		"/>
		<polygon class="st4" points="388.1,333.3 397,338.5 405.1,351.1 396.2,346 		"/>
		<polygon class="st4" points="414.4,352.6 407,348.4 414.4,338 		"/>
		<polygon class="st2" points="447.2,309.5 436.5,306.8 438.3,304.3 		"/>
		<polygon class="st5" points="432.8,307.2 444,291.3 438.2,282.2 428.5,295.8 427.1,295 427.1,280.8 415.6,287.4 415.6,303.3 
			405.5,300.7 398.8,318.8 408.4,321.3 409.9,322.1 398.6,338 404.5,347.1 414.1,333.5 415.6,334.4 415.6,348.6 427.1,342 
			427.1,326.1 437.2,328.7 443.9,310.5 434.3,308.1 		"/>
		<path class="st0" d="M414.2,333.5l-9.6,13.6l1,1.6l10.1-14.3L414.2,333.5z M437.2,328.7l-10.1-2.6V342l-11.4,6.6v1.7l12.9-7.5v-16
			l10.1,2.6l6.8-18.6l-1.6-0.4L437.2,328.7z M434.3,308.1l11.3-15.9l-6.9-10.7l-0.5,0.7l5.8,9.1l-11.3,15.9L434.3,308.1z
			 M428.6,279.9l-1.5,0.8V295l1.5,0.9L428.6,279.9z M408.4,321.3l-9.6-2.5l-0.2,0.4l11.3,2.9L408.4,321.3z"/>
		<path class="st6" d="M414.2,333.5l-9.6,13.6l1,1.6l10.1-14.3L414.2,333.5z M437.2,328.7l-10.1-2.6V342l-11.4,6.6v1.7l12.9-7.5v-16
			l10.1,2.6l6.8-18.6l-1.6-0.4L437.2,328.7z M434.3,308.1l11.3-15.9l-6.9-10.7l-0.5,0.7l5.8,9.1l-11.3,15.9L434.3,308.1z
			 M428.6,279.9l-1.5,0.8V295l1.5,0.9L428.6,279.9z M408.4,321.3l-9.6-2.5l-0.2,0.4l11.3,2.9L408.4,321.3z"/>
		<polygon class="st7" points="427.1,342 428.5,342.9 428.5,326.9 427.1,326.1 		"/>
		<polygon class="st7" points="437.2,328.7 438.7,329.5 445.5,311 443.9,310.5 		"/>
		<polygon class="st7" points="415.6,334.4 414.1,333.5 404.5,347.1 405.5,348.7 		"/>
		<polygon class="st7" points="444,291.3 445.5,292.2 438.7,281.5 438.2,282.2 		"/>
		<polygon class="st7" points="428.5,295.8 427.1,295 427.1,280.8 428.5,279.9 		"/>
		<polygon class="st7" points="409.9,322.1 408.4,321.3 398.8,318.8 398.6,319.3 		"/>
		<path class="st8" d="M421.3,339.8L421.3,339.8l0,3.7L421.3,339.8z"/>
		<path class="st8" d="M421.5,328.7v3.7v2.2v3.7h-0.1V335v-2.2l0-4.1L421.5,328.7z"/>
		<path class="st8" d="M421.6,312.8l-0.1,5.3l-0.1,8.1l-0.4-0.1l0-4.7v-2.7l-0.1-5.9l0.5-0.1L421.6,312.8z"/>
		<path class="st8" d="M422.7,293.9c0,0.8-0.4,1.7-0.9,2.3l-0.1,5.5v2.4l-0.1,5.8H421l-0.1-5l0-3.9l0-4.2c-0.5,0-0.9-0.4-0.9-1.2
			c0-1.1,0.5-2.1,1.4-2.7C422.1,292.3,422.7,292.8,422.7,293.9z"/>
		<path class="st8" d="M425.7,298.8c-1.3,0.2-2.6,0.7-3.6,1.6v2.9c1-0.8,2-1.4,3.2-1.9c0,0-0.2,0.9,0.2,1c0.9,0.3,1.9,0.1,2.8-0.4
			C429,301.3,428.4,298.9,425.7,298.8z M426.6,300.9c-0.2,0.1-0.3,0-0.3-0.2c0-0.2,0.1-0.5,0.3-0.6c0.2-0.1,0.3,0,0.3,0.2
			C426.9,300.6,426.8,300.8,426.6,300.9L426.6,300.9z M422,310.3h-0.3c-0.2,0-0.5,0-0.7,0h-0.3c-1,0-1.7-0.3-1.7-1.4
			c0-1.5,0.6-3,1.7-4.2v-3c-2.2,2.1-4,5.1-4,8.1c0,3.1,2,3,4.1,2.7l0.3,0l0.7-0.1l0.3-0.1c1.6-0.3,2.9-0.4,2.9,0.9
			c0,1.5-1.4,3.2-2.9,5v1.8c2-2.3,4.2-4.9,4.2-7.5S424,310.1,422,310.3L422,310.3z M421.8,326.8l-0.3-0.1l-0.4-0.1l-0.3-0.1
			c-1-0.3-1.8-0.7-1.8-1.8c0-1,0.7-2.1,1.7-3.4v-1.7c-1.5,1.8-2.8,3.7-2.8,5.5c0,2.3,1.5,2.6,2.9,2.9l0.3,0.1l0.3,0.1l0.3,0.1
			c0.8,0.2,1.4,0.4,1.4,1.3c0,1-0.7,2-1.4,3v1.2c1.1-1.4,2.4-2.8,2.4-4.9C424.1,327.4,423,327.1,421.8,326.8L421.8,326.8z
			 M421.7,338.9c-0.1,0-0.2,0-0.3,0c0,0-0.1,0-0.1,0c-0.1,0-0.2-0.1-0.3-0.1c-0.5-0.2-0.8-0.7-0.8-1.8c0-0.8,0.3-1.5,0.7-2.1v-1.2
			c-0.8,1-1.3,2.2-1.4,3.4c0,1.3,0.6,2,1.4,2.2c0.1,0,0.2,0,0.3,0h0.1l0.3,0c0.4-0.1,0.7-0.2,1-0.4C422.4,338.9,422,339,421.7,338.9
			L421.7,338.9z"/>
		<polygon class="st9" points="414.4,286.4 429.7,277.6 420.8,272.5 405.5,281.3 		"/>
	</g>
</g>
<g id="freepik--Medicines--inject-26">
	<g id="freepik--Capsules--inject-26">
		<path class="st10" d="M361.4,451.4l74.1,42.8c2.5,1.3,5.5,1.3,8,0l40.5-23.4c2.2-1.3,2.2-3.3,0-4.6l-74.1-42.8
			c-2.5-1.3-5.4-1.3-7.9,0l-40.5,23.4C359.2,448.1,359.2,450.1,361.4,451.4z"/>
		<path class="st11" d="M361.4,449.2l74.1,42.8c2.5,1.3,5.5,1.3,8,0l40.5-23.4c2.2-1.3,2.2-3.3,0-4.6l-74.1-42.8
			c-2.5-1.3-5.5-1.3-8,0l-40.5,23.4C359.2,445.9,359.2,448,361.4,449.2z"/>
		<path class="st5" d="M443.4,492l36.5-21.1l0,0c-11.5,5.9-33.4,18.5-36.6,19.8s-5.1,1.8-11.1-1.7c-6-3.5-66.7-37.4-66.7-37.4
			l70,40.4C438,493.3,440.9,493.3,443.4,492z"/>
		<path class="st12" d="M461.5,477.4c-0.3,0.2-0.7,0.2-1,0l-73.8-42.6c-0.3-0.2-0.3-0.4,0-0.6c0.3-0.2,0.7-0.2,1,0l73.8,42.6
			C461.8,477,461.8,477.3,461.5,477.4z"/>
		<path class="st13" d="M402,438.2L402,438.2c0.2,0.1,0.5,0.3,0.7,0.3l0.3,0.1c2.2,0.7,4.6,0.5,6.7-0.6l7-4l0,0
			c2.4-1.3,3.4-4.3,2.1-6.7c-0.4-0.8-1.1-1.5-1.9-2c-0.2-0.1-0.5-0.2-0.7-0.3l-0.3-0.1c-2.2-0.7-4.6-0.5-6.7,0.6l-7,4h-0.1
			c-0.8,0.4-1.5,1.1-2,1.9C398.8,433.8,399.6,436.8,402,438.2C402,438.2,402,438.2,402,438.2L402,438.2z"/>
		<path class="st12" d="M416.9,429.6c-2.4-1.2-5.3-1.1-7.7,0.1l-7,4c-2.2,1.3-2.3,3.3-0.2,4.5c2.4,1.2,5.3,1.1,7.7-0.1l7-4
			C418.9,432.8,419,430.8,416.9,429.6z"/>
		<path class="st11" d="M418.9,431.9c1.2-2.4,0.4-5.3-1.9-6.6c-0.2-0.1-0.5-0.2-0.7-0.3l-0.3-0.1c-1.9-0.6-4-0.5-5.8,0.2
			c3.3-0.3,5.3-0.4,7.3,1.3C419,427.7,419.6,429.9,418.9,431.9z"/>
		<path class="st14" d="M406.5,428.6c0.7-0.3,1.5-0.2,2.1,0.2c1.7,1.1,2.8,3,2.9,5c0.1,0.7-0.3,1.5-0.9,1.9l-3.7,2.2
			c-2,1.1-4.5,0.3-5.6-1.8c-1-1.9-0.4-4.2,1.4-5.4L406.5,428.6z"/>
		<path class="st0" d="M411.6,425.6c1.9-1.2,4.5-0.7,5.7,1.3c1.2,1.9,0.7,4.5-1.3,5.7c-0.1,0.1-0.2,0.1-0.3,0.2l-5.2,3
			c0.6-0.4,0.9-1.1,0.9-1.9c-0.1-2-1.2-3.9-2.9-5c-0.6-0.4-1.4-0.5-2.1-0.2L411.6,425.6z"/>
		<path class="st15" d="M416.4,429.5c-0.4-0.8-1.4-1-2.1-0.6c0,0,0,0,0,0l-6.2,3.6c0.5,0.9,1.2,1.6,2.1,2.2l0.2,0.1l5.5-3.2
			C416.6,431.2,416.8,430.2,416.4,429.5z"/>
		<path class="st14" d="M406.5,428.6c0.7-0.3,1.5-0.2,2.1,0.2c1.7,1.1,2.8,3,2.9,5c0.1,0.7-0.3,1.5-0.9,1.9l-3.7,2.2
			c-2,1.1-4.5,0.3-5.6-1.8c-1-1.9-0.4-4.2,1.4-5.4L406.5,428.6z"/>
		<path class="st16" d="M411.4,433.8c-0.1-2-1.2-3.9-2.9-5c-0.6-0.4-1.4-0.5-2.1-0.2l0.3-0.2l0.2-0.1c0.7-0.3,1.5-0.2,2.1,0.2
			c1.7,1.1,2.8,3,2.9,5c0.1,0.7-0.2,1.5-0.8,1.9l-0.5,0.3C411.2,435.3,411.5,434.6,411.4,433.8z"/>
		<path class="st12" d="M403.1,438.1L403.1,438.1c-2.1-0.9-3-3.3-2.1-5.4c0.4-0.8,1-1.5,1.7-1.9l3.8-2.2c0.7-0.3,1.5-0.2,2.1,0.2
			c0.4,0.2,0.7,0.5,1,0.8l-6.3,3.6C401.2,434.4,401.9,437.4,403.1,438.1z"/>
		<path class="st11" d="M403.7,436.8c-0.4-0.8-0.2-1.7,0.6-2.1c0,0,0,0,0,0l6.3-3.6c0.5,0.9,0.8,1.9,0.9,2.9c0,0.1,0,0.2,0,0.3
			l-5.6,3.2C405.1,437.8,404.1,437.5,403.7,436.8C403.7,436.8,403.7,436.8,403.7,436.8z"/>
		<path class="st16" d="M417.5,427.6c0,0.1,0.1,0.1,0.1,0.2c0,0.1,0,0.1,0.1,0.2c0,0.1,0,0.1,0,0.2v0.2c0,0,0,0.1,0,0.1
			c0.1,0.3,0.1,0.6,0.1,0.8l0,0c0,0.1,0,0.2,0,0.3l0,0c0-1.3-2.2-3.5-4.3-2.3l-3.9,2.2c-0.3-0.3-0.6-0.6-1-0.8
			c-0.6-0.4-1.4-0.5-2.1-0.2l5.2-3c2-1.1,4.5-0.5,5.6,1.5c0,0,0,0,0,0c0.1,0.1,0.1,0.2,0.2,0.3S417.5,427.6,417.5,427.6z"/>
		<path class="st13" d="M376,453.4L376,453.4c0.2,0.1,0.5,0.2,0.7,0.3l0.3,0.1c2.2,0.7,4.6,0.5,6.7-0.6l7-4l0,0
			c0.8-0.4,1.5-1.1,2-1.9c1.4-2.4,0.6-5.4-1.8-6.8c0,0,0,0,0,0c-0.2-0.1-0.5-0.2-0.7-0.3l-0.3-0.1c-2.2-0.7-4.6-0.5-6.7,0.6l-7,4
			h-0.1c-2.4,1.3-3.4,4.3-2.1,6.7C374.5,452.2,375.2,452.9,376,453.4L376,453.4z"/>
		<path class="st12" d="M391,444.8c-2.4-1.2-5.3-1.1-7.7,0.1l-7,4c-2.2,1.3-2.3,3.3-0.2,4.5c2.4,1.2,5.3,1.1,7.7-0.1l7-4
			C392.9,447.9,393,446,391,444.8z"/>
		<path class="st11" d="M392.9,447.1c1.2-2.4,0.4-5.3-1.9-6.6c-0.2-0.1-0.5-0.2-0.7-0.3l-0.3-0.1c-1.9-0.6-4-0.5-5.8,0.2
			c3.3-0.3,5.3-0.4,7.3,1.3C393,442.9,393.6,445.1,392.9,447.1z"/>
		<path class="st14" d="M380.5,443.7c0.7-0.3,1.5-0.2,2.1,0.2c1.7,1.1,2.8,3,2.9,5c0.1,0.7-0.2,1.5-0.8,1.9l-3.8,2.2
			c-2,1.1-4.5,0.5-5.6-1.5c-1.1-2-0.5-4.5,1.5-5.6L380.5,443.7z"/>
		<path class="st0" d="M385.6,440.8c1.9-1.2,4.5-0.7,5.7,1.3c1.2,1.9,0.7,4.5-1.3,5.7c-0.1,0.1-0.2,0.1-0.3,0.2l-5.1,3
			c0.6-0.4,0.9-1.1,0.8-1.9c-0.1-2-1.2-3.9-2.9-5c-0.6-0.4-1.4-0.5-2.1-0.2L385.6,440.8z"/>
		<path class="st15" d="M390.4,444.6c-0.4-0.8-1.4-1-2.2-0.6c0,0,0,0,0,0l-6.2,3.6c0.5,0.9,1.2,1.7,2.1,2.2l0.3,0.1l5.5-3.2
			C390.6,446.4,390.9,445.4,390.4,444.6C390.4,444.6,390.4,444.6,390.4,444.6z"/>
		<path class="st14" d="M380.5,443.7c0.7-0.3,1.5-0.2,2.1,0.2c1.7,1.1,2.8,3,2.9,5c0.1,0.7-0.2,1.5-0.8,1.9l-3.8,2.2
			c-2,1.1-4.5,0.5-5.6-1.5c-1.1-2-0.5-4.5,1.5-5.6L380.5,443.7z"/>
		<path class="st16" d="M385.4,449c-0.1-2-1.2-3.9-2.9-5c-0.6-0.4-1.4-0.5-2.1-0.2l0.3-0.2l0.2-0.1c0.7-0.3,1.5-0.2,2.1,0.2
			c1.7,1.1,2.8,3,2.9,5c0.1,0.7-0.2,1.5-0.8,1.9l-0.5,0.3C385.2,450.4,385.5,449.7,385.4,449z"/>
		<path class="st12" d="M377.1,453.2L377.1,453.2c-2.1-0.9-3-3.3-2.1-5.4c0.4-0.8,1-1.5,1.7-1.9l3.7-2.1c0.7-0.3,1.5-0.2,2.1,0.2
			c0.4,0.2,0.7,0.5,1,0.8l-6.3,3.6C375.2,449.5,376,452.5,377.1,453.2z"/>
		<path class="st11" d="M377.7,451.9c-0.4-0.8-0.2-1.7,0.6-2.2l6.3-3.6c0.5,0.9,0.8,1.9,0.9,2.9c0,0.1,0,0.2,0,0.3l-5.6,3.2
			C379.1,452.9,378.1,452.7,377.7,451.9C377.7,451.9,377.7,451.9,377.7,451.9z"/>
		<path class="st16" d="M391.5,442.7c0,0.1,0.1,0.1,0.1,0.2c0,0.1,0,0.1,0,0.2s0,0.1,0.1,0.2s0,0.1,0,0.2s0,0.1,0,0.1
			c0,0.3,0.1,0.6,0.1,0.8l0,0c0,0.1,0,0.2,0,0.3l0,0c0-1.3-2.2-3.5-4.3-2.3l-3.9,2.2c-0.3-0.3-0.6-0.6-1-0.8
			c-0.6-0.4-1.4-0.5-2.1-0.2l5.2-3c2-1.1,4.5-0.5,5.6,1.5l0.2,0.3C391.4,442.6,391.4,442.7,391.5,442.7z"/>
		<path class="st13" d="M420.7,449L420.7,449c0.2,0.1,0.5,0.3,0.7,0.3l0.3,0.1c2.2,0.7,4.6,0.5,6.7-0.6l7-4l0,0
			c2.4-1.3,3.4-4.2,2.1-6.7c-0.6-1.1-1.5-2-2.7-2.4l-0.3-0.1c-2.2-0.7-4.6-0.5-6.7,0.6l-7,4l0,0c-2.4,1.3-3.4,4.2-2.1,6.7
			C419.2,447.8,419.8,448.5,420.7,449z"/>
		<path class="st12" d="M435.6,440.4c-2.4-1.2-5.3-1.1-7.7,0.1l-7,4c-2.2,1.3-2.3,3.3-0.2,4.5c2.4,1.2,5.3,1.1,7.7-0.1l7-4
			C437.5,443.6,437.6,441.6,435.6,440.4z"/>
		<path class="st11" d="M437.5,442.7c1.2-2.4,0.4-5.3-1.9-6.6c-0.2-0.1-0.5-0.3-0.7-0.3l-0.3-0.1c-1.9-0.6-4-0.5-5.8,0.2
			c3.3-0.3,5.3-0.4,7.3,1.3C437.7,438.5,438.2,440.7,437.5,442.7z"/>
		<path class="st14" d="M425.1,439.4c0.7-0.3,1.5-0.2,2.1,0.2c1.7,1.1,2.8,3,2.9,5c0.1,0.7-0.2,1.5-0.9,1.9l-3.7,2.2
			c-2,1.1-4.5,0.5-5.6-1.5c-1.1-2-0.5-4.5,1.5-5.6L425.1,439.4z"/>
		<path class="st0" d="M430.3,436.4c2-1.1,4.5-0.3,5.6,1.8c1,1.9,0.4,4.2-1.4,5.4l-5.2,3c0.6-0.4,0.9-1.1,0.9-1.9
			c-0.1-2-1.2-3.9-2.9-5c-0.6-0.4-1.4-0.5-2.1-0.2L430.3,436.4z"/>
		<path class="st15" d="M435,440.2c-0.4-0.8-1.4-1-2.2-0.6c0,0,0,0,0,0l-6.2,3.6c0.5,0.9,1.2,1.6,2.1,2.2l0.3,0.1l5.5-3.2
			C435.2,441.9,435.5,441,435,440.2z"/>
		<path class="st14" d="M425.1,439.4c0.7-0.3,1.5-0.2,2.1,0.2c1.7,1.1,2.8,3,2.9,5c0.1,0.7-0.2,1.5-0.9,1.9l-3.7,2.2
			c-2,1.1-4.5,0.5-5.6-1.5c-1.1-2-0.5-4.5,1.5-5.6L425.1,439.4z"/>
		<path class="st16" d="M430.1,444.6c-0.1-2-1.2-3.9-2.9-5c-0.6-0.4-1.4-0.5-2.1-0.2l0.3-0.2l0.2-0.1c0.7-0.3,1.5-0.2,2.1,0.2
			c1.7,1.1,2.8,3,2.9,5c0.1,0.7-0.2,1.5-0.8,1.9l-0.5,0.3C429.8,446.1,430.1,445.3,430.1,444.6z"/>
		<path class="st12" d="M421.7,448.8L421.7,448.8c-2.1-0.9-3-3.3-2.1-5.4c0.4-0.8,1-1.5,1.7-1.9l3.7-2.2c0.7-0.3,1.5-0.2,2.1,0.2
			c0.4,0.2,0.7,0.5,1,0.8l-6.3,3.6C419.8,445.1,420.6,448.1,421.7,448.8z"/>
		<path class="st11" d="M422.3,447.5c-0.4-0.8-0.2-1.7,0.6-2.1c0,0,0,0,0,0l6.3-3.7c0.5,0.9,0.8,1.9,0.9,2.9c0,0.1,0,0.2,0,0.3
			l-5.6,3.2C423.7,448.5,422.7,448.3,422.3,447.5z"/>
		<path class="st16" d="M436.1,438.4c0,0.1,0.1,0.1,0.1,0.2c0,0.1,0,0.1,0.1,0.2c0,0.1,0,0.1,0,0.2c0,0.1,0,0.1,0,0.2
			c0,0.1,0,0.1,0,0.1c0.1,0.3,0.1,0.6,0.1,0.8l0,0c0,0.1,0,0.2,0,0.3l0,0c0-1.3-2.2-3.5-4.3-2.3l-3.9,2.2c-0.3-0.3-0.6-0.6-1-0.8
			c-0.6-0.4-1.4-0.5-2.1-0.2l5.2-3c2-1.1,4.4-0.4,5.6,1.5c0.1,0.1,0.1,0.2,0.2,0.3C436,438.3,436.1,438.3,436.1,438.4z"/>
		<path class="st13" d="M394.6,464.1L394.6,464.1c0.2,0.1,0.5,0.2,0.7,0.3c0.1,0,0.2,0.1,0.3,0.1c2.2,0.7,4.6,0.5,6.7-0.6l7-4h0.1
			c2.4-1.3,3.4-4.3,2.1-6.7c-0.4-0.8-1.1-1.5-1.9-2c-0.2-0.1-0.5-0.2-0.7-0.3l-0.3-0.1c-2.2-0.7-4.6-0.5-6.7,0.6l-7,4l0,0
			c-2.4,1.3-3.4,4.3-2.1,6.7C393.2,463,393.9,463.7,394.6,464.1L394.6,464.1z"/>
		<path class="st12" d="M409.6,455.5c-2.4-1.2-5.3-1.1-7.7,0.1l-7,4c-2.2,1.3-2.3,3.3-0.2,4.5c2.5,1.2,5.3,1.1,7.8-0.1l7-4
			C411.5,458.7,411.7,456.7,409.6,455.5z"/>
		<path class="st11" d="M411.5,457.8c1.2-2.4,0.4-5.3-1.9-6.6c-0.2-0.1-0.5-0.2-0.7-0.3l-0.3-0.1c-1.9-0.6-4-0.5-5.8,0.2
			c3.3-0.3,5.3-0.4,7.3,1.3C411.7,453.6,412.2,455.9,411.5,457.8z"/>
		<path class="st14" d="M399.1,454.5c0.7-0.3,1.5-0.2,2.1,0.2c1.7,1.1,2.8,3,2.9,5c0.1,0.7-0.2,1.5-0.8,1.9l-3.7,2.2
			c-2,1.1-4.5,0.3-5.6-1.8c-1-1.9-0.4-4.2,1.4-5.4L399.1,454.5z"/>
		<path class="st0" d="M404.3,451.5c2-1.1,4.5-0.5,5.6,1.5c1.1,2,0.5,4.5-1.5,5.6l0,0l-5.2,3c0.6-0.4,0.9-1.1,0.8-1.9
			c-0.1-2-1.2-3.9-2.9-5c-0.6-0.4-1.4-0.5-2.1-0.2L404.3,451.5z"/>
		<path class="st15" d="M409.1,455.3c-0.4-0.8-1.4-1-2.1-0.6c0,0,0,0,0,0l-6.2,3.6c0.5,0.9,1.2,1.6,2.1,2.2l0.3,0.1l5.5-3.2
			C409.2,457.1,409.5,456.1,409.1,455.3C409.1,455.3,409.1,455.3,409.1,455.3z"/>
		<path class="st14" d="M399.1,454.5c0.7-0.3,1.5-0.2,2.1,0.2c1.7,1.1,2.8,3,2.9,5c0.1,0.7-0.2,1.5-0.8,1.9l-3.7,2.2
			c-2,1.1-4.5,0.3-5.6-1.8c-1-1.9-0.4-4.2,1.4-5.4L399.1,454.5z"/>
		<path class="st16" d="M404.1,459.7c-0.1-2-1.2-3.9-2.9-5c-0.6-0.4-1.4-0.5-2.1-0.2l0.3-0.2l0.2-0.1c0.7-0.3,1.5-0.2,2.1,0.2
			c1.7,1.1,2.8,3,3,5c0.1,0.7-0.3,1.5-0.9,1.9l-0.5,0.3C403.9,461.2,404.2,460.5,404.1,459.7z"/>
		<path class="st12" d="M395.7,464L395.7,464c-0.8-0.3-1.5-0.9-1.9-1.7c-1.1-2-0.5-4.5,1.5-5.6c0,0,0,0,0,0l3.8-2.1
			c0.7-0.3,1.5-0.2,2.1,0.2c0.4,0.2,0.7,0.5,1,0.8c-2.2,1.2-4.9,2.8-6.3,3.6C393.9,460.3,394.6,463.3,395.7,464z"/>
		<path class="st11" d="M396.3,462.7c-0.4-0.8-0.2-1.7,0.6-2.2l6.3-3.6c0.5,0.9,0.8,1.9,0.8,2.9c0,0.1,0,0.2,0,0.3l-5.6,3.2
			C397.8,463.7,396.8,463.4,396.3,462.7C396.4,462.7,396.3,462.7,396.3,462.7z"/>
		<path class="st16" d="M410.1,453.5c0,0.1,0,0.1,0.1,0.2c0,0.1,0,0.1,0.1,0.2v0.2c0,0.1,0,0.1,0,0.2c0,0,0,0.1,0,0.1
			c0,0.3,0.1,0.6,0.1,0.9l0,0c0,0.1,0,0.2,0,0.3l0,0c0-1.3-2.2-3.5-4.3-2.3c-0.7,0.4-1.8,1-3.9,2.2c-0.3-0.3-0.6-0.6-1-0.8
			c-0.6-0.4-1.4-0.5-2.1-0.2l5.2-3c2-1.1,4.4-0.4,5.6,1.5c0.1,0.1,0.1,0.2,0.2,0.3C410,453.4,410.1,453.4,410.1,453.5z"/>
		<path class="st13" d="M439.3,459.8L439.3,459.8c0.2,0.1,0.5,0.2,0.7,0.3l0.3,0.1c2.2,0.7,4.6,0.5,6.7-0.6l7-4h0.1
			c0.8-0.4,1.5-1.1,2-1.9c1.4-2.4,0.6-5.4-1.8-6.8c0,0,0,0,0,0c-0.2-0.1-0.5-0.2-0.7-0.3l-0.3-0.1c-2.2-0.7-4.6-0.5-6.7,0.6l-7,4
			h-0.1c-2.4,1.3-3.4,4.2-2.1,6.7C437.8,458.6,438.5,459.3,439.3,459.8L439.3,459.8z"/>
		<path class="st12" d="M454.2,451.2c-2.4-1.2-5.3-1.1-7.7,0.1l-7,4c-2.2,1.3-2.3,3.3-0.2,4.5c2.4,1.2,5.3,1.1,7.7-0.1l7-4
			C456.2,454.3,456.3,452.3,454.2,451.2z"/>
		<path class="st11" d="M456.1,453.5c1.2-2.4,0.4-5.3-1.9-6.6c-0.2-0.1-0.5-0.2-0.7-0.3l-0.3-0.1c-1.9-0.6-4-0.5-5.8,0.2
			c3.3-0.3,5.3-0.4,7.3,1.3C456.3,449.3,456.9,451.5,456.1,453.5z"/>
		<path class="st14" d="M443.7,450.1c0.7-0.3,1.5-0.2,2.1,0.2c1.7,1.1,2.8,3,2.9,5c0.1,0.7-0.2,1.5-0.8,1.9l-3.7,2.2
			c-2,1.1-4.5,0.3-5.6-1.8c-1-1.9-0.4-4.2,1.4-5.4L443.7,450.1z"/>
		<path class="st0" d="M448.9,447.2c2-1.1,4.5-0.5,5.6,1.5c1.1,2,0.5,4.5-1.5,5.6l-5.2,3c0.6-0.4,0.9-1.1,0.8-1.9
			c-0.1-2-1.2-3.9-2.9-5c-0.6-0.4-1.4-0.5-2.1-0.2L448.9,447.2z"/>
		<path class="st15" d="M453.7,451c-0.4-0.8-1.4-1-2.1-0.6c0,0,0,0,0,0l-6.3,3.6c0.5,0.9,1.2,1.7,2.1,2.2l0.3,0.1l5.5-3.2
			C453.9,452.8,454.1,451.8,453.7,451C453.7,451,453.7,451,453.7,451z"/>
		<path class="st14" d="M443.7,450.1c0.7-0.3,1.5-0.2,2.1,0.2c1.7,1.1,2.8,3,2.9,5c0.1,0.7-0.2,1.5-0.8,1.9l-3.7,2.2
			c-2,1.1-4.5,0.3-5.6-1.8c-1-1.9-0.4-4.2,1.4-5.4L443.7,450.1z"/>
		<path class="st16" d="M448.7,455.4c-0.1-2-1.2-3.9-2.9-5c-0.6-0.4-1.4-0.5-2.1-0.2l0.3-0.2l0.2-0.1c0.7-0.3,1.5-0.2,2.1,0.2
			c1.7,1.1,2.8,3,2.9,5.1c0.1,0.7-0.3,1.5-0.9,1.9l-0.5,0.3C448.5,456.8,448.8,456.1,448.7,455.4z"/>
		<path class="st12" d="M440.4,459.6L440.4,459.6c-0.8-0.3-1.5-0.9-1.9-1.7c-1.1-2-0.4-4.4,1.5-5.6l3.7-2.1c0.7-0.3,1.5-0.2,2.1,0.2
			c0.4,0.2,0.7,0.5,1,0.8l-6.3,3.6C438.5,455.9,439.2,458.9,440.4,459.6z"/>
		<path class="st11" d="M441,458.3c-0.4-0.7-0.2-1.7,0.6-2.1c0,0,0,0,0,0l6.3-3.6c0.5,0.9,0.8,1.9,0.9,2.9c0,0.1,0,0.2,0,0.3
			l-5.6,3.2C442.4,459.3,441.4,459.1,441,458.3C441,458.3,441,458.3,441,458.3z"/>
		<path class="st16" d="M454.8,449.1c0,0.1,0.1,0.1,0.1,0.2s0,0.1,0,0.2c0,0.1,0,0.1,0.1,0.2c0,0.1,0,0.1,0,0.2c0,0.1,0,0.1,0,0.1
			c0,0.3,0.1,0.6,0.1,0.8l0,0c0,0.1,0,0.2,0,0.3l0,0c0-1.3-2.2-3.5-4.3-2.3l-3.9,2.2c-0.3-0.3-0.6-0.6-1-0.8
			c-0.6-0.4-1.4-0.5-2.1-0.2l5.2-3c2-1.1,4.5-0.5,5.6,1.5l0.2,0.3C454.7,449,454.8,449.1,454.8,449.1z"/>
		<path class="st13" d="M413.3,474.9L413.3,474.9c0.2,0.1,0.5,0.3,0.7,0.4l0.3,0.1c2.2,0.7,4.6,0.5,6.7-0.6l7-4h0.1
			c2.4-1.3,3.4-4.2,2.1-6.7c-0.4-0.9-1.1-1.6-1.9-2c-0.2-0.1-0.5-0.2-0.7-0.3l-0.3-0.1c-2.2-0.7-4.6-0.5-6.7,0.6l-7,4h-0.1
			c-2.4,1.3-3.4,4.3-2.1,6.7C411.8,473.7,412.5,474.4,413.3,474.9L413.3,474.9z"/>
		<path class="st12" d="M428.2,466.3c-2.4-1.2-5.3-1.1-7.7,0.1l-7,4c-2.2,1.3-2.3,3.3-0.2,4.5c2.4,1.2,5.3,1.1,7.7-0.1l7-4
			C430.2,469.5,430.3,467.5,428.2,466.3z"/>
		<path class="st11" d="M430.2,468.6c1.2-2.4,0.4-5.3-1.9-6.6c-0.2-0.1-0.5-0.2-0.7-0.3l-0.3-0.1c-1.9-0.6-4-0.5-5.8,0.2
			c3.3-0.3,5.3-0.4,7.3,1.3C430.3,464.4,430.9,466.6,430.2,468.6z"/>
		<path class="st14" d="M417.8,465.3c0.7-0.3,1.5-0.2,2.1,0.2c1.7,1.1,2.8,3,2.9,5c0.1,0.7-0.2,1.5-0.8,1.9l-3.7,2.2
			c-2,1.1-4.5,0.5-5.6-1.5s-0.5-4.5,1.5-5.6L417.8,465.3z"/>
		<path class="st0" d="M422.9,462.3c1.9-1.2,4.5-0.7,5.7,1.3c1.2,1.9,0.7,4.5-1.3,5.7c-0.1,0.1-0.2,0.1-0.3,0.2l-5.2,3
			c0.6-0.4,0.9-1.1,0.8-1.9c-0.1-2-1.2-3.9-2.9-5c-0.6-0.4-1.4-0.5-2.1-0.2L422.9,462.3z"/>
		<path class="st15" d="M427.7,466.1c-0.4-0.8-1.4-1-2.1-0.6c0,0,0,0,0,0l-6.2,3.6c0.5,0.9,1.2,1.7,2.1,2.2c0.1,0,0.2,0.1,0.2,0.1
			l5.5-3.2C427.9,467.9,428.2,466.9,427.7,466.1C427.7,466.2,427.7,466.1,427.7,466.1z"/>
		<path class="st14" d="M417.8,465.3c0.7-0.3,1.5-0.2,2.1,0.2c1.7,1.1,2.8,3,2.9,5c0.1,0.7-0.2,1.5-0.8,1.9l-3.7,2.2
			c-2,1.1-4.5,0.5-5.6-1.5s-0.5-4.5,1.5-5.6L417.8,465.3z"/>
		<path class="st16" d="M422.7,470.5c-0.1-2-1.2-3.9-2.9-5c-0.6-0.4-1.4-0.5-2.1-0.2l0.3-0.1l0.2-0.1c0.7-0.3,1.5-0.2,2.1,0.2
			c1.7,1.1,2.8,3,2.9,5c0.1,0.7-0.2,1.5-0.9,1.9l-0.5,0.3C422.5,472,422.8,471.2,422.7,470.5z"/>
		<path class="st12" d="M414.4,474.7L414.4,474.7c-2.1-0.9-3-3.4-2.1-5.4c0.4-0.8,0.9-1.5,1.7-1.9l3.8-2.1c0.7-0.3,1.5-0.2,2.1,0.2
			c0.4,0.2,0.7,0.5,1,0.8l-6.3,3.6C412.5,471,413.3,474,414.4,474.7z"/>
		<path class="st11" d="M415,473.4c-0.4-0.8-0.2-1.7,0.6-2.1c0,0,0,0,0,0l6.3-3.6c0.5,0.9,0.8,1.9,0.8,2.9c0,0.1,0,0.2,0,0.3
			l-5.6,3.2C416.4,474.4,415.4,474.2,415,473.4C415,473.4,415,473.4,415,473.4z"/>
		<path class="st16" d="M428.8,464.3c0,0.1,0.1,0.1,0.1,0.2c0,0,0,0.1,0,0.2s0,0.1,0,0.2c0,0.1,0,0.1,0,0.2c0,0,0,0.1,0,0.1
			c0.1,0.3,0.1,0.6,0.1,0.9l0,0c0,0.1,0,0.2,0,0.3l0,0c0-1.3-2.2-3.5-4.3-2.3c-0.7,0.4-1.8,1-3.9,2.2c-0.3-0.3-0.6-0.6-1-0.8
			c-0.6-0.4-1.4-0.5-2.1-0.2l5.2-3c2-1.1,4.5-0.5,5.6,1.5c0,0,0,0,0,0c0.1,0.1,0.1,0.2,0.2,0.3C428.6,464.1,428.8,464.2,428.8,464.3
			z"/>
		<path class="st13" d="M457.9,470.5L457.9,470.5c0.2,0.1,0.5,0.3,0.7,0.3l0.3,0.1c2.2,0.7,4.6,0.5,6.7-0.6l7-4h0.1
			c2.4-1.3,3.4-4.3,2.1-6.7c-0.4-0.8-1.1-1.5-1.9-2c-0.2-0.1-0.5-0.2-0.7-0.3l-0.3-0.1c-2.2-0.7-4.6-0.5-6.7,0.6l-6.9,4h-0.1
			c-2.4,1.3-3.4,4.3-2.1,6.7C456.5,469.3,457.1,470,457.9,470.5L457.9,470.5z"/>
		<path class="st12" d="M472.9,461.9c-2.4-1.2-5.3-1.1-7.7,0.1l-7,4c-2.2,1.3-2.3,3.3-0.3,4.5c2.4,1.2,5.3,1.1,7.7-0.1l7-4
			C474.9,465.1,474.9,463.1,472.9,461.9z"/>
		<path class="st11" d="M474.8,464.2c1.2-2.4,0.4-5.3-1.9-6.6c-0.2-0.1-0.5-0.2-0.7-0.3l-0.3-0.1c-1.9-0.6-4-0.5-5.8,0.2
			c3.3-0.3,5.3-0.4,7.3,1.3C474.9,460,475.5,462.2,474.8,464.2z"/>
		<path class="st14" d="M462.4,460.9c0.7-0.3,1.5-0.2,2.1,0.2c1.7,1.1,2.8,3,2.9,5c0.1,0.7-0.2,1.5-0.8,1.9l-3.7,2.2
			c-1.9,1.2-4.5,0.7-5.7-1.3c-1.2-1.9-0.7-4.5,1.3-5.7c0.1-0.1,0.2-0.1,0.3-0.2L462.4,460.9z"/>
		<path class="st0" d="M467.5,457.9c2-1.1,4.5-0.3,5.6,1.8c1,1.9,0.4,4.2-1.4,5.4l-5.2,3c0.6-0.4,0.9-1.1,0.8-1.9
			c-0.1-2-1.2-3.9-2.9-5c-0.6-0.4-1.4-0.5-2.1-0.2L467.5,457.9z"/>
		<path class="st15" d="M472.3,461.8c-0.4-0.8-1.4-1-2.1-0.6c0,0,0,0,0,0l-6.2,3.6c0.5,0.9,1.2,1.6,2.1,2.2l0.3,0.1l5.5-3.2
			C472.5,463.5,472.7,462.5,472.3,461.8C472.3,461.8,472.3,461.8,472.3,461.8z"/>
		<path class="st14" d="M462.4,460.9c0.7-0.3,1.5-0.2,2.1,0.2c1.7,1.1,2.8,3,2.9,5c0.1,0.7-0.2,1.5-0.8,1.9l-3.7,2.2
			c-1.9,1.2-4.5,0.7-5.7-1.3c-1.2-1.9-0.7-4.5,1.3-5.7c0.1-0.1,0.2-0.1,0.3-0.2L462.4,460.9z"/>
		<path class="st16" d="M467.3,466.1c-0.1-2-1.2-3.9-2.9-5c-0.6-0.4-1.4-0.5-2.1-0.2l0.3-0.2l0.2-0.1c0.7-0.3,1.5-0.2,2.1,0.2
			c1.7,1.1,2.8,3,2.9,5c0.1,0.7-0.2,1.5-0.9,1.9l-0.5,0.3C467.1,467.6,467.4,466.9,467.3,466.1z"/>
		<path class="st12" d="M459,470.4L459,470.4c-2.1-0.9-3-3.4-2.1-5.4c0.4-0.8,0.9-1.5,1.7-1.9l3.8-2.1c0.7-0.3,1.5-0.2,2.1,0.2
			c0.4,0.2,0.7,0.5,1,0.8l-6.3,3.6C457.1,466.7,457.9,469.7,459,470.4z"/>
		<path class="st11" d="M459.6,469c-0.4-0.8-0.2-1.7,0.6-2.1c0,0,0,0,0,0l6.3-3.6c0.5,0.9,0.8,1.9,0.8,2.9c0,0.1,0,0.2,0,0.3
			l-5.6,3.2C461,470.1,460.1,469.8,459.6,469C459.6,469.1,459.6,469.1,459.6,469z"/>
		<path class="st16" d="M473.4,459.9c0,0.1,0.1,0.1,0.1,0.2c0,0,0,0.1,0.1,0.2s0,0.1,0,0.2c0,0.1,0,0.1,0,0.2c0,0,0,0.1,0,0.1
			c0.1,0.3,0.1,0.6,0.1,0.8l0,0c0,0.1,0,0.2,0,0.3l0,0c0-1.3-2.2-3.5-4.3-2.3l-3.9,2.2c-0.3-0.3-0.6-0.6-1-0.8
			c-0.6-0.4-1.4-0.5-2.1-0.2l5.2-3c2-1.1,4.5-0.5,5.6,1.5c0,0,0,0,0,0c0.1,0.1,0.1,0.2,0.2,0.3C473.3,459.8,473.4,459.8,473.4,459.9
			z"/>
		<path class="st13" d="M432,485.7L432,485.7c0.2,0.1,0.5,0.3,0.7,0.4l0.3,0.1c2.2,0.7,4.6,0.5,6.7-0.6l7-4h0.1
			c2.4-1.3,3.4-4.2,2.1-6.7c-0.4-0.9-1.1-1.6-1.9-2c-0.2-0.1-0.5-0.2-0.7-0.3l-0.3-0.1c-2.2-0.7-4.6-0.5-6.7,0.6l-7,4l0,0
			c-0.8,0.4-1.5,1.1-2,1.9C428.8,481.2,429.6,484.3,432,485.7C432,485.6,432,485.7,432,485.7L432,485.7z"/>
		<path class="st12" d="M446.9,477c-2.4-1.2-5.3-1.1-7.7,0.1l-7,4c-2.2,1.3-2.3,3.3-0.2,4.5c2.4,1.2,5.3,1.1,7.7-0.1l7-4
			C448.8,480.2,448.9,478.2,446.9,477z"/>
		<path class="st11" d="M448.8,479.4c1.2-2.4,0.4-5.3-1.9-6.6c-0.2-0.1-0.5-0.2-0.7-0.3l-0.3-0.1c-1.9-0.6-4-0.5-5.8,0.2
			c3.3-0.3,5.3-0.4,7.3,1.3C449,475.2,449.5,477.4,448.8,479.4z"/>
		<path class="st14" d="M436.4,476c0.7-0.3,1.5-0.2,2.1,0.2c1.7,1.1,2.8,3,2.9,5c0.1,0.7-0.2,1.5-0.9,1.9l-3.7,2.2
			c-2,1.1-4.5,0.5-5.6-1.5c-1.1-2-0.5-4.5,1.5-5.6l0,0L436.4,476z"/>
		<path class="st0" d="M441.6,473c1.9-1.2,4.5-0.7,5.7,1.3c1.2,1.9,0.7,4.5-1.3,5.7c-0.1,0.1-0.2,0.1-0.3,0.2l-5.2,3
			c0.6-0.4,0.9-1.1,0.9-1.9c-0.1-2-1.2-3.9-2.9-5c-0.6-0.4-1.4-0.5-2.1-0.2L441.6,473z"/>
		<path class="st15" d="M446.3,476.9c-0.4-0.8-1.4-1-2.1-0.6c0,0,0,0,0,0l-6.2,3.6c0.5,0.9,1.2,1.6,2.1,2.2c0.1,0,0.2,0.1,0.2,0.1
			l5.5-3.2C446.5,478.6,446.8,477.6,446.3,476.9C446.3,476.9,446.3,476.9,446.3,476.9z"/>
		<path class="st14" d="M436.4,476c0.7-0.3,1.5-0.2,2.1,0.2c1.7,1.1,2.8,3,2.9,5c0.1,0.7-0.2,1.5-0.9,1.9l-3.7,2.2
			c-2,1.1-4.5,0.5-5.6-1.5c-1.1-2-0.5-4.5,1.5-5.6l0,0L436.4,476z"/>
		<path class="st16" d="M441.4,481.3c-0.1-2-1.2-3.9-2.9-5c-0.6-0.4-1.4-0.5-2.1-0.2l0.3-0.2l0.2-0.1c0.7-0.3,1.5-0.2,2.1,0.2
			c1.7,1.1,2.8,3,2.9,5c0.1,0.7-0.2,1.5-0.8,1.9l-0.5,0.3C441.2,482.7,441.5,482,441.4,481.3z"/>
		<path class="st12" d="M433,485.5L433,485.5c-0.8-0.3-1.5-0.9-1.9-1.7c-1.1-2-0.5-4.5,1.5-5.6l3.8-2.1c0.7-0.3,1.5-0.2,2.1,0.2
			c0.4,0.2,0.7,0.5,1,0.8l-6.3,3.6C431.2,481.8,431.9,484.8,433,485.5z"/>
		<path class="st11" d="M433.6,484.2c-0.4-0.8-0.2-1.7,0.6-2.2c0,0,0,0,0,0l6.3-3.6c0.5,0.9,0.8,1.9,0.9,2.9c0,0.1,0,0.2,0,0.3
			l-5.6,3.2C435.1,485.2,434.1,485,433.6,484.2C433.6,484.2,433.6,484.2,433.6,484.2z"/>
		<path class="st16" d="M447.4,475c0,0.1,0.1,0.1,0.1,0.2c0,0,0,0.1,0.1,0.2c0,0,0,0.1,0.1,0.2c0.1,0.1,0,0.1,0,0.2
			c0,0.1,0,0.1,0,0.1c0.1,0.3,0.1,0.6,0.1,0.9l0,0c0,0.1,0,0.2,0,0.3l0,0c0-1.3-2.2-3.5-4.3-2.3c-0.7,0.4-1.8,1-3.9,2.2
			c-0.3-0.3-0.6-0.6-1-0.8c-0.6-0.4-1.4-0.5-2.1-0.2l5.2-3c2-1.1,4.5-0.5,5.6,1.5c0,0,0,0,0,0c0.1,0.1,0.1,0.2,0.2,0.3L447.4,475z"
			/>
	</g>
	<g id="freepik--Bottle--inject-26">
		<path class="st0" d="M332.5,278.9c0-5.6-3.7-11.2-11.1-15.4c-14.8-8.5-38.7-8.5-53.5,0c-7.4,4.3-11.1,9.9-11.1,15.4v87.8
			c0,5.6,3.7,11.2,11.1,15.5c14.8,8.5,38.7,8.5,53.5,0c7.4-4.3,11.1-9.9,11.1-15.5l0,0V278.9z"/>
		<path class="st15" d="M317.9,261.7v122.2c1.2-0.5,2.4-1.1,3.5-1.8c2.2-1.3,4.2-2.8,6-4.6V268c-1.8-1.8-3.8-3.3-6-4.6
			C320.3,262.8,319.1,262.2,317.9,261.7z"/>
		<path class="st15" d="M308,387.1c1.8-0.4,3.7-0.9,5.4-1.5V260c-1.8-0.6-3.6-1.1-5.4-1.5V387.1z"/>
		<path class="st16" d="M331.8,274.8c-2.3-3.2-5.3-5.8-8.8-7.6c-14.6-8.4-37.6-9-53.3-1.7v-3c-0.6,0.3-1.2,0.6-1.8,0.9
			c-7.4,4.3-11.1,9.9-11.1,15.4v87.8c0,5.6,3.7,11.2,11.1,15.5c14.8,8.5,38.7,8.5,53.5,0c2.5-1.4,4.8-3.2,6.7-5.3
			c-7,6.6-24.5,10.2-37.6,7.6s-20.9-10.9-20.9-16.8v-3.2c7.3,4,16.8,5.8,26.2,5.8V314c-9.3,0-18.9-1.4-26.2-5.4v-7
			c15.8,7.2,38.8,6.7,53.3-1.8c3.8-2.1,7.1-5.1,9.5-8.7v-12.4C332.4,277.5,332.2,276.1,331.8,274.8z"/>
		<path class="st16" d="M263.2,369.4V266.7c-4.3,3.7-6.4,7.9-6.4,6.7v87.8c0,11.1,3.7,16.6,11.1,20.9c4.5,2.5,9.4,4.2,14.4,5.1
			C268,383.4,263.2,373.7,263.2,369.4z"/>
		<path class="st12" d="M334.8,261.6c0-5.9-3.9-11.9-11.8-16.4c-15.7-9-41.1-9-56.7,0c-7.8,4.5-11.8,10.5-11.8,16.4l0,0v17.8l0,0
			c0,5.9,3.9,11.9,11.8,16.4c15.7,9,41.1,9,56.7,0c7.8-4.5,11.8-10.5,11.8-16.4l0,0L334.8,261.6L334.8,261.6z"/>
		<path class="st16" d="M304.2,301.8c-19.9,0.1-30.3-6.3-33.5-11.6c-2.4-4-2.8-11.4-2.8-18.7c0,0-2.2-16.7-1.8-16.7
			c0.3,0-4.8-1.1-8.6-1.9c-1.9,2.5-2.9,5.6-3,8.7l0,0v17.8l0,0c0,5.9,3.9,11.9,11.8,16.4C276.6,301.7,291.1,303.7,304.2,301.8z"/>
		<g class="st17">
			<path d="M290.6,302.3c-0.6,0-1.3,0-1.9-0.1v-23.3h1.9V302.3z"/>
			<path d="M273.6,299c-0.7-0.2-1.3-0.5-1.9-0.7v-22.9h1.9V299z"/>
			<path d="M281.8,301.2c-0.6-0.1-1.3-0.2-1.9-0.3v-23.1h1.9V301.2z"/>
			<path d="M264.2,294.4v-22.7h1.9v24C265.4,295.2,264.8,294.8,264.2,294.4z"/>
			<path d="M255.5,284.3c-0.6-1.6-1-3.3-1-5l0,0v-17.7l0,0c0-1.1,0.2-2.2,0.4-3.3h0.5L255.5,284.3z"/>
			<path d="M258.2,289.1v-22.5h1.9v24.6C259.5,290.5,258.8,289.8,258.2,289.1z"/>
			<path d="M299.7,302.3c-0.6,0-1.3,0.1-1.9,0.1V279h1.9V302.3z"/>
			<path d="M317,298.6c-0.6,0.2-1.3,0.4-1.9,0.6v-23.5h1.9V298.6z"/>
			<path d="M308.6,301.1c-0.6,0.1-1.3,0.2-1.9,0.3v-23.5h1.9V301.1z"/>
			<path d="M322.7,295.9v-23.4h1.9v22.2c-0.5,0.3-1,0.7-1.6,1L322.7,295.9z"/>
			<path d="M329.4,290.9v-23.5h1.9v21.3C330.7,289.5,330.1,290.3,329.4,290.9z"/>
			<path d="M333.8,260h0.8c0.1,0.5,0.1,1.1,0.1,1.6v17.8c0,1.7-0.4,3.4-1,5L333.8,260z"/>
		</g>
		<path class="st14" d="M266.3,278c15.7,9,41.1,9,56.7,0s15.7-23.7,0-32.8s-41.1-9-56.7,0S250.6,268.9,266.3,278z"/>
		<path class="st5" d="M325.2,276.6c13.5-9.1,12.8-22.8-2.1-31.4c-7.6-4.4-17.6-6.7-27.6-6.8c-5.1,0.8-10.1,2.5-14.6,5
			c-13.5,7.8-13.5,23.2,0,31C292.9,281.3,311.6,282,325.2,276.6z"/>
		<path class="st16" d="M270.1,380.4c13.6,6.8,35.6,6.8,49.1,0s13.6-17.9,0-24.7s-35.6-6.8-49.1,0
			C256.5,362.5,256.5,373.6,270.1,380.4z"/>
		<path class="st11" d="M256.8,294.1c0,5.6,3.7,11.2,11.1,15.4s17.1,6.4,26.8,6.4v55.9c-9.7,0-19.4-2.1-26.8-6.4
			c-7.4-4.3-11.1-9.9-11.1-15.4V294.1z"/>
		<path class="st12" d="M267.9,327.4c3.5,2,7.3,3.5,11.2,4.4v-4.5c-3.9-1-7.7-2.5-11.2-4.4c-7.4-4.3-11.1-9.9-11.1-15.4v4.5
			C256.8,317.6,260.5,323.2,267.9,327.4z"/>
		<path class="st12" d="M279,352c-3.9-1-7.7-2.5-11.2-4.4c-7.4-4.3-11.1-9.9-11.1-15.5v4.5c0,5.6,3.7,11.2,11.1,15.4
			c3.5,2,7.3,3.5,11.2,4.4V352z"/>
		<path class="st12" d="M267.9,339.8c3.5,2,7.3,3.5,11.2,4.5v-4.5c-3.9-1-7.7-2.5-11.2-4.5c-7.4-4.3-11.1-9.9-11.1-15.5v4.5
			C256.8,329.9,260.5,335.5,267.9,339.8z"/>
		<path class="st11" d="M257.6,270.5c0,0,13.1,13.1,38.3,12.5c25.2-0.7,35.3-14.5,36.6-18.7s0.5-9.8-3.4-14.5
			c3.4,3,5.5,7.3,5.7,11.9v17.8c0,1.5,0.8,6.7-7.4,13.4c0,0,4.8-5.4,4.8-10.6v-12.3c0,0-8.9,14.9-36.3,14.9S259,272.7,257.6,270.5z"
			/>
	</g>
	<g id="freepik--Pills--inject-26">
		<path id="freepik--shadow--inject-26_3_" class="st12" d="M250.5,430.7c6.3-3.7,16.6-3.7,23,0c2.1,1,3.8,2.9,4.5,5.1
			c6.1,3.7,6,9.5-0.3,13.1c-6.3,3.6-16.6,3.7-23,0c-2.5-1.5-4-3.3-4.5-5.1C244.2,440.1,244.3,434.3,250.5,430.7z"/>
		<g id="freepik--Pill--inject-26">
			<path class="st10" d="M253.7,437.2v4.4c0,2,1.3,3.9,3.9,5.4c5.2,3,13.6,3,18.8,0c1.1-0.6,2.1-1.5,2.9-2.5c0.6-0.8,1-1.8,1-2.9
				v-4.4c0-0.4,0-0.7-0.1-1.1c0-0.1-0.1-0.2-0.1-0.4c-0.7-1.7-2-3.2-3.6-4c-4.9-2.8-12.6-3-17.8-0.5v2.2l-1.9,1.1v-2.1
				c-0.8,0.6-1.5,1.3-2.1,2.1c-0.1,0.2-0.2,0.4-0.3,0.6c-0.1,0.2-0.2,0.5-0.3,0.7C253.8,436.2,253.7,436.7,253.7,437.2z"/>
			<path class="st18" d="M262.8,430c4.6-0.9,9.9-0.3,13.6,1.9c1.7,0.8,3,2.3,3.6,4c0,0.1,0.1,0.2,0.1,0.4c0.1,0.4,0.1,0.7,0.1,1.1
				v4.4c0,1-0.4,2.1-1,2.9c-0.8,1-1.8,1.9-2.9,2.5c-3.7,2.1-9,2.7-13.6,1.9L262.8,430z"/>
			<path class="st5" d="M276.4,431.8c4.9,2.8,5.2,7.3,0.9,10.3l-18.7-10.8C263.8,428.8,271.5,429,276.4,431.8z"/>
			<path class="st18" d="M267,429.6v0.9c3.1-0.1,6.2,0.7,9,2.1c2.1,1.2,3.4,2.8,3.4,4.5c0,1.6-0.9,3.1-2.2,4l-16.6-9.6
				c2.1-0.7,4.2-1,6.4-1L267,429.6 M267,429.6c-2.9,0-5.8,0.6-8.4,1.7l18.7,10.8c4.3-3,4-7.5-0.9-10.3
				C273.6,430.3,270.3,429.5,267,429.6z"/>
			<path class="st11" d="M277.3,441c0,0,5.2-4-0.6-9c4.6,2.8,4.8,7.1,0.6,10.1l-18.7-10.8L277.3,441z"/>
			<path class="st5" d="M256.7,432.4l18.7,10.8c-5.2,2.5-12.9,2.3-17.8-0.5C252.7,439.9,252.4,435.4,256.7,432.4z"/>
			<path class="st18" d="M256.7,433.4l16.6,9.6c-2.1,0.7-4.2,1-6.4,1c-3.1,0.1-6.2-0.7-9-2.1c-2.1-1.2-3.4-2.8-3.5-4.5
				C254.6,435.8,255.4,434.3,256.7,433.4 M256.7,432.4c-4.3,3-4,7.5,0.9,10.3c2.9,1.5,6.1,2.3,9.4,2.3c2.9,0,5.8-0.6,8.4-1.7
				L256.7,432.4z"/>
			<path class="st11" d="M275.4,443.2c-5.2,2.5-12.9,2.3-17.8-0.5c-0.5-0.3-1.1-0.7-1.5-1.1c9.6,4.8,17.3,1.4,17.3,1.4l-16.6-10.6
				L275.4,443.2z"/>
			<polygon class="st12" points="258.6,433.5 277.3,444.3 277.3,442.1 258.6,431.3 			"/>
			<polygon class="st19" points="275.4,443.2 275.4,445.4 277.3,444.3 			"/>
		</g>
		<g id="freepik--pill--inject-26">
			<path class="st10" d="M246.6,429.8v4.4c0,2,1.3,3.9,3.9,5.4c5.2,3,13.6,3,18.8,0c1.1-0.6,2.1-1.5,2.9-2.5c0.6-0.8,1-1.8,1-2.9
				v-4.4c0-0.4,0-0.7-0.1-1.1c0-0.1-0.1-0.2-0.1-0.4c-0.7-1.7-2-3.2-3.6-4c-4.9-2.8-12.6-3-17.8-0.5v2.2l-1.9,1.1v-2.2
				c-0.8,0.6-1.6,1.3-2.1,2.1c-0.1,0.2-0.2,0.4-0.3,0.6c-0.1,0.2-0.2,0.5-0.3,0.7C246.7,428.8,246.6,429.3,246.6,429.8z"/>
			<path class="st18" d="M255.7,422.5c4.6-0.9,9.9-0.3,13.6,1.9c1.7,0.8,3,2.3,3.6,4c0,0.1,0.1,0.2,0.1,0.4c0.1,0.4,0.1,0.7,0.1,1.1
				v4.4c0,1-0.4,2.1-1,2.9c-0.8,1-1.8,1.9-2.9,2.5c-3.7,2.1-9,2.7-13.6,1.9L255.7,422.5z"/>
			<path class="st5" d="M269.3,424.4c4.9,2.8,5.2,7.3,0.9,10.3l-18.7-10.8C256.7,421.4,264.4,421.6,269.3,424.4z"/>
			<path class="st18" d="M259.9,423L259.9,423c3.1-0.1,6.2,0.7,9,2.1c2.1,1.2,3.4,2.8,3.5,4.5c0,1.6-0.8,3.1-2.2,4l-16.6-9.6
				C255.6,423.4,257.7,423,259.9,423 M259.9,422.2c-2.9,0-5.8,0.6-8.4,1.7l18.7,10.8c4.3-3,4-7.5-0.9-10.3
				C266.4,422.9,263.2,422.1,259.9,422.2L259.9,422.2z"/>
			<path class="st11" d="M270.2,433.5c0,0,5.2-4-0.6-9c4.6,2.8,4.8,7.1,0.6,10.1l-18.7-10.8L270.2,433.5z"/>
			<path class="st5" d="M249.6,425l18.7,10.8c-5.2,2.5-13,2.3-17.8-0.5S245.3,428,249.6,425z"/>
			<path class="st18" d="M249.6,426l16.6,9.6c-2.1,0.7-4.2,1-6.4,1c-3.1,0.1-6.2-0.7-9-2.1c-2.1-1.2-3.4-2.8-3.4-4.5
				C247.5,428.4,248.3,426.9,249.6,426 M249.5,424.9c-4.3,3-4,7.5,0.9,10.3c2.9,1.5,6.1,2.3,9.4,2.3c2.9,0,5.8-0.6,8.4-1.7
				L249.5,424.9z"/>
			<path class="st11" d="M268.3,435.8c-5.2,2.5-13,2.3-17.8-0.5c-0.5-0.3-1.1-0.7-1.5-1.1c9.6,4.8,17.3,1.4,17.3,1.4L249.6,425
				L268.3,435.8z"/>
			<polygon class="st12" points="251.5,426 270.2,436.9 270.2,434.7 251.5,423.9 			"/>
			<polygon class="st19" points="268.3,435.8 268.3,438 270.2,436.9 			"/>
		</g>
	</g>
	<g id="freepik--pill--inject-26_2_">
		<path id="freepik--shadow--inject-26_4_" class="st12" d="M311.9,421.9c-6,3.4-6,9,0,12.4s15.6,3.4,21.5,0s6-9,0-12.4
			S317.9,418.4,311.9,421.9z"/>
		<g id="freepik--pill--inject-26_1_">
			<path class="st10" d="M309.4,422.2v4.4c0,2,1.3,3.9,3.9,5.4c5.2,3,13.6,3,18.8,0c1.1-0.6,2.1-1.5,2.9-2.5c0.6-0.8,1-1.8,1-2.9
				v-4.4c0-0.4,0-0.7-0.1-1.1c0-0.1-0.1-0.2-0.1-0.4c-0.7-1.7-2-3.2-3.6-4c-4.9-2.8-12.6-3-17.8-0.5v2.2l-1.9,1.1v-2.2
				c-0.8,0.6-1.6,1.3-2.1,2.1c-0.1,0.2-0.2,0.4-0.3,0.6c-0.1,0.2-0.2,0.5-0.3,0.7C309.5,421.2,309.4,421.7,309.4,422.2z"/>
			<path class="st18" d="M318.5,414.9c4.6-0.9,9.9-0.3,13.6,1.9c1.7,0.8,3,2.3,3.6,4c0,0.1,0.1,0.3,0.1,0.4c0.1,0.4,0.1,0.7,0.1,1.1
				v4.4c0,1-0.4,2.1-1,2.9c-0.8,1-1.8,1.9-2.9,2.5c-3.7,2.1-9,2.7-13.6,1.9L318.5,414.9z"/>
			<path class="st5" d="M332.1,416.7c4.9,2.8,5.2,7.3,0.9,10.3l-18.7-10.8C319.5,413.8,327.2,413.9,332.1,416.7z"/>
			<path class="st18" d="M322.7,415.4L322.7,415.4c3.1-0.1,6.2,0.7,9,2.1c2.1,1.2,3.4,2.8,3.5,4.5c0,1.6-0.9,3.1-2.2,4l-16.7-9.6
				C318.4,415.7,320.5,415.4,322.7,415.4 M322.7,414.5c-2.9,0-5.8,0.6-8.4,1.7L333,427c4.3-3,4-7.5-0.9-10.3
				C329.2,415.2,326,414.4,322.7,414.5L322.7,414.5z"/>
			<path class="st11" d="M333,425.9c0,0,5.2-4-0.6-9c4.6,2.8,4.8,7.1,0.6,10.1l-18.7-10.8L333,425.9z"/>
			<path class="st5" d="M312.4,417.3l18.7,10.8c-5.2,2.5-12.9,2.3-17.8-0.5S308.1,420.3,312.4,417.3z"/>
			<path class="st18" d="M312.5,418.4l16.6,9.6c-2.1,0.7-4.2,1-6.4,1c-3.1,0.1-6.2-0.7-9-2.1c-2.1-1.2-3.4-2.8-3.5-4.5
				C310.3,420.7,311.1,419.2,312.5,418.4 M312.4,417.3c-4.3,3-4,7.5,0.9,10.3c2.9,1.5,6.1,2.3,9.4,2.3c2.9,0,5.8-0.6,8.4-1.7
				L312.4,417.3L312.4,417.3z"/>
			<path class="st11" d="M331.1,428.1c-5.2,2.5-12.9,2.3-17.8-0.5c-0.5-0.3-1.1-0.7-1.5-1.1c9.6,4.8,17.3,1.4,17.3,1.4l-16.6-10.6
				L331.1,428.1z"/>
			<polygon class="st12" points="314.3,418.4 333,429.3 333,427 314.3,416.2 			"/>
			<polygon class="st19" points="331.1,428.1 331.1,430.3 333,429.3 			"/>
		</g>
	</g>
</g>
<g id="freepik--speech-bubble--inject-26_2_">
	<g id="freepik--speech-bubble--inject-26_1_">
		<g id="freepik--speech-bubble--inject-26">
			<path class="st8" d="M227.7,436h-18.9c-17.1,28.9-54.3,38.4-83.2,21.4s-38.4-54.3-21.4-83.2s54.3-38.4,83.2-21.4
				c22.2,13.2,33.7,38.9,28.6,64.3l14,12.7c1.5,1.1,1.9,3.3,0.7,4.8C230,435.6,228.9,436.1,227.7,436z M176.6,353
				c-12.4-4.8-26.1-5-38.6-0.5l-5.9,2.5c-27.8,13.5-39.3,47-25.8,74.8c12.9,26.5,44.1,38.4,71.3,27.3l5.8-2.7
				c27.1-14.8,37.1-48.8,22.4-75.9C199.3,366.8,189,357.7,176.6,353L176.6,353z"/>
			<path class="st11" d="M176.6,352.9c-12.4-4.8-26.1-5-38.6-0.5l-5.9,2.5c-27.8,13.5-39.3,47-25.8,74.8
				c12.9,26.5,44.1,38.4,71.3,27.3l5.8-2.7c27.1-14.8,37.1-48.8,22.4-75.9C199.3,366.8,189,357.7,176.6,352.9L176.6,352.9z"/>
		</g>
		<polygon class="st0" points="146.1,417.8 146.1,438.4 166.8,438.4 166.8,417.8 187.4,417.8 187.4,397.1 166.8,397.1 166.8,376.4 
			146.1,376.4 146.1,397.1 125.4,397.1 125.4,417.8 		"/>
	</g>
</g>
</svg>
