<?xml version="1.0" encoding="utf-8"?>
<!-- Generator: Adobe Illustrator 22.0.0, SVG Export Plug-In . SVG Version: 6.00 Build 0)  -->
<svg version="1.1" id="Diplomas" opacity="0.5" xmlns="http://www.w3.org/2000/svg" xmlns:xlink="http://www.w3.org/1999/xlink"
	 x="0px" y="0px" viewBox="0 0 500 500" style="enable-background:new 0 0 500 500;" xml:space="preserve">
<style type="text/css">
	.st0{fill:#455A64;}
	.st1{fill:#FFBF9D;}
	.st2{fill:#FF9A6C;}
	.st3{fill:#AE7461;}
	.st4{fill:#6F4439;}
	.st5{fill:#263238;}
	.st6{fill:#E0E0E0;}
	.st7{fill:#FF725E;}
	.st8{opacity:0.3;enable-background:new    ;}
	.st9{fill:#FFFFFF;}
	.st10{opacity:0.3;}
</style>
<g id="freepik--Characters--inject-112">
	<rect x="261.4" y="341.9" class="st0" width="100.2" height="171.5"/>
	<path class="st1" d="M250.7,295.2c-0.1-0.2,5.8-7.9,5.8-7.9l-5.2-5.4l-5.8,4.6L250.7,295.2z"/>
	<path class="st1" d="M345.6,255.8l1.4,4.7c0,0,2.9,4.3,3.9,4.8c0.3,0.1,0.5,0.3,0.8,0.4c0.9,0.3,2.1,0,1.9-1.1
		c0.6,0.1,1.2-0.2,1.4-0.8c0.4-0.8-0.5-1.8-0.5-1.8s1,0.3,1.5-0.4c0.4-0.6-0.2-1.4-0.2-1.4s0.5-0.8,0.2-1.2
		c-0.3-0.5-0.7-0.9-1.2-1.3c-0.5-1.3-1.2-2.5-1.9-3.6c-0.6-0.8-1.4-1.6-2.2-2.2L345.6,255.8z"/>
	<path class="st2" d="M355.9,260.4c0-0.1-0.4-0.4-0.9-0.8c-0.5-0.5-0.8-0.9-0.8-0.9C354.4,259.6,355.1,260.2,355.9,260.4z"/>
	<path class="st2" d="M354.7,262.3c0-0.1-0.4-0.3-0.9-0.7s-0.8-0.9-0.8-0.8c-0.1,0,0.2,0.5,0.7,1
		C354.1,262.2,354.6,262.4,354.7,262.3z"/>
	<path class="st2" d="M350.9,262.1c0.2,0.6,0.5,1.2,1,1.6c0.4,0.5,1,0.8,1.6,1c-0.4-0.4-0.9-0.9-1.4-1.2
		C351.3,262.8,350.9,262,350.9,262.1z"/>
	<path class="st3" d="M165.3,383.9c-0.1,0.1-0.9,1.7-0.7,2.3c0.2,0.4,0.5,0.6,1,0.7c0,0.5,0.3,0.9,0.6,1.2c0.4,0.3,0.8,0.4,1.3,0.4
		l0.4,0.5c0.2,0.4,0.7,0.6,1.1,0.5c0.4-0.2,0.9-0.2,1.3-0.1c0.6,0.2,1.9-1.3,2.6-2c0.7-0.7,1.6-1.6,1.1-3.1c-0.6-2-1.5-4.6-1.5-4.6
		l1.3-3.8l-6.5,0.2l-0.3,1.6c0,0-0.9,0.4-1.5,2.3C165.2,381.3,165.1,382.6,165.3,383.9z"/>
	<path class="st3" d="M172.2,379.8c0,0,1.9,4.3,1.9,4.4c0,0.1-1.8,3.9-2.7,4.5c-0.9,0.6-2,1.2-2,1.2s-1-0.5-0.1-1.9
		c0.8-1.4,1.8-2.9,1.8-2.9l-0.6-1.5c0,0-3.2-1.6-2.3-4.8"/>
	<path class="st4" d="M168.1,378.9c0,0.1-0.1,0.3-0.1,0.4c0,0.2-0.1,0.3-0.1,0.5c0,0.2,0,0.5,0,0.7c0.1,0.6,0.3,1.2,0.7,1.7
		c0.5,0.7,1.1,1.2,1.8,1.6l0-0.1c0.2,0.5,0.4,1,0.6,1.5v-0.1c-0.5,0.7-0.9,1.4-1.4,2.1c-0.3,0.4-0.5,0.8-0.7,1.2
		c-0.1,0.2-0.1,0.5-0.1,0.7c0,0.3,0.1,0.5,0.3,0.7c0.1,0.1,0.1,0.1,0.2,0.2h0.1h0.1l1.1-0.7l0.5-0.3c0.2-0.1,0.4-0.2,0.5-0.3
		c0.3-0.3,0.5-0.6,0.7-1c0.2-0.3,0.4-0.7,0.6-1c0.4-0.6,0.7-1.3,1-1.9c0.1-0.2,0.1-0.3,0.2-0.4l0-0.1c0,0,0,0,0-0.1c0,0,0-0.1,0-0.1
		l-0.1-0.2c-0.1-0.3-0.2-0.6-0.3-0.8c-0.4-1-0.8-1.9-1.1-2.4l-0.3-0.7c0-0.1-0.1-0.2-0.1-0.2c0,0.1,0,0.2,0.1,0.2
		c0.1,0.2,0.2,0.4,0.3,0.7c0.2,0.6,0.6,1.5,1,2.5c0.1,0.3,0.2,0.5,0.3,0.8l0.1,0.2l0,0h0.1c-0.1,0,0,0,0,0l0,0l0,0l0,0.1l-0.2,0.4
		c-0.3,0.6-0.6,1.2-1,1.9c-0.2,0.3-0.4,0.6-0.6,1c-0.2,0.3-0.5,0.6-0.7,0.9c-0.2,0.1-0.3,0.2-0.5,0.3l-0.5,0.3l-1.1,0.7h0.1
		c-0.1,0-0.1-0.1-0.2-0.1c-0.3-0.3-0.3-0.8-0.1-1.2c0.2-0.4,0.4-0.8,0.6-1.2c0.5-0.7,0.9-1.5,1.4-2.1v0v-0.1c-0.2-0.5-0.4-1-0.6-1.5
		l0,0l0,0c-0.7-0.4-1.3-0.9-1.7-1.5c-0.3-0.5-0.6-1-0.7-1.6C168,379.9,168,379.4,168.1,378.9z"/>
	
		<rect x="155.1" y="384.5" transform="matrix(1.972094e-02 -0.9998 0.9998 1.972094e-02 -238.1204 563.5848)" class="st0" width="26.5" height="37.5"/>
	<path class="st5" d="M183,390.4c-0.1,0.1-0.1,0.3-0.2,0.4l-0.7,1c-0.6,0.9-1.5,2.1-2.8,3.6c-1.5,1.7-3.2,3.2-5.1,4.5
		c-2.3,1.6-5,2.5-7.9,2.7c-2.8,0-5.6-0.9-7.9-2.5c-1.9-1.3-3.5-2.9-4.9-4.7c-1.2-1.5-2.1-2.8-2.7-3.7l-0.7-1.1
		c-0.1-0.1-0.2-0.2-0.2-0.4c0.1,0.1,0.2,0.2,0.3,0.3l0.7,1c0.6,0.9,1.5,2.2,2.7,3.6c1.4,1.8,3,3.3,4.9,4.6c2.2,1.6,4.9,2.5,7.7,2.4
		c2.7-0.2,5.4-1.1,7.7-2.6c1.9-1.2,3.6-2.7,5.1-4.4c1.3-1.5,2.2-2.7,2.9-3.5l0.8-1C182.8,390.6,182.9,390.5,183,390.4z"/>
	<path class="st0" d="M159,392.2c0-0.2,1.3-6.3,4.1-8.8c1.5-1.4,4.7-2.6,8,1.8l-1.2,1.6c0,0-3.5-4.8-5.4-2.4c-1.1,1.3-3,4.2-3.1,7.2
		L159,392.2z"/>
	<path class="st3" d="M169.8,386.9c0.2-0.2,0.4-0.5,0.5-0.7c0.2-0.3,0.2-0.6,0.1-0.9c-0.1-0.2-0.4-0.3-0.7-0.3
		c-0.3,0-0.5,0.1-0.7,0.3c-0.2,0.2-0.3,0.4-0.5,0.6"/>
	<path class="st4" d="M168.6,385.8c0,0,0-0.3,0.3-0.6c0.2-0.2,0.3-0.3,0.6-0.4c0.3-0.1,0.7-0.1,0.9,0.1c0.3,0.2,0.4,0.6,0.3,0.9
		c-0.1,0.2-0.2,0.4-0.3,0.6c-0.2,0.3-0.5,0.4-0.5,0.4c0,0,0.1-0.2,0.3-0.5c0.1-0.2,0.2-0.4,0.2-0.6c0.1-0.2,0-0.4-0.2-0.5
		c-0.4-0.3-0.8,0-1.1,0.2C168.8,385.6,168.6,385.8,168.6,385.8z"/>
	<path class="st3" d="M167.2,384.1c0.3-0.4,0.7-0.6,1.1-0.7c0.5-0.1,0.9,0.2,1.1,0.6c0.1,0.4,0,0.7-0.3,1c-0.5,0.9-1.1,1.7-1.8,2.5"
		/>
	<path class="st4" d="M167.4,387.4c-0.1-0.1,0.9-1.3,1.8-2.9c0.2-0.3,0.2-0.6-0.1-0.8c0,0-0.1,0-0.1-0.1c-0.3-0.2-0.6-0.2-0.9-0.1
		c-0.5,0.2-0.7,0.5-0.8,0.5c-0.1,0,0.1-0.4,0.7-0.7c0.4-0.2,0.8-0.1,1.2,0c0.2,0.1,0.4,0.3,0.5,0.6c0.1,0.3,0,0.5-0.1,0.8
		C169,385.8,168.3,386.7,167.4,387.4z"/>
	<path class="st3" d="M165.4,383.8c0.2-0.4,0.4-0.7,0.7-0.9c0.3-0.2,0.6-0.3,1-0.2c0.3,0.1,0.6,0.4,0.6,0.7c0,0.3-0.1,0.6-0.3,0.8
		c-0.5,0.8-1.1,1.8-1.7,2.5"/>
	<path class="st4" d="M165.7,386.8c0,0,0.2-0.4,0.5-0.9c0.2-0.3,0.4-0.6,0.6-1c0.2-0.4,0.5-0.8,0.7-1.2c0.1-0.3-0.1-0.7-0.4-0.8
		c0,0,0,0,0,0c-0.3-0.1-0.7,0-0.9,0.2c-0.5,0.4-0.6,0.7-0.7,0.7c-0.1,0,0-0.4,0.5-0.9c0.3-0.3,0.8-0.4,1.2-0.3
		c0.3,0.1,0.5,0.2,0.6,0.5c0.2,0.3,0.2,0.6,0.1,0.8c-0.1,0.2-0.2,0.5-0.4,0.7l-0.4,0.6c-0.2,0.3-0.5,0.7-0.6,0.9
		C166.1,386.5,165.7,386.8,165.7,386.8z"/>
	<path class="st5" d="M168.6,402.6c0,1-0.8,1.8-1.8,1.8c-1,0-1.8-0.8-1.8-1.8c0-1,0.8-1.8,1.8-1.8
		C167.8,400.8,168.6,401.6,168.6,402.6C168.6,402.6,168.6,402.6,168.6,402.6z"/>
	<path class="st6" d="M198.8,324.6c0,0-6.6,2.1-8.7,4.2c-5.8,5.6-14.4,14.5-16.9,18.4c-1.5,2.4-6.7,29.1-6.7,29.1l11.5,0.6l5.7-26.9
		l9.8-9.8L198.8,324.6z"/>
	<path class="st5" d="M250.3,389.2l7.1,6.4l1.1,0.7c0,0,7.8-10.9,10.1-10.4l-6,24l-1.9-0.6l-13-8.4L250.3,389.2z"/>
	<path class="st6" d="M255.7,403.8c0,0.5,0.4,0.9,0.9,1c0.5,0,0.9-0.4,1-0.9c0-0.5-0.5-1-1-1C256,402.9,255.6,403.4,255.7,403.8"/>
	<path class="st5" d="M262.7,409.9l-1.9-0.6l6.5-22.9c0,0,0.7-1,1.5-0.6L262.7,409.9z"/>
	<path class="st0" d="M258.6,396.2c0.1,0,0,0.6,0.3,1.3c0.3,0.7,0.6,1.1,0.6,1.2c-0.1,0.1-0.7-0.2-1-1.1
		C258.2,396.9,258.5,396.2,258.6,396.2z"/>
	<path class="st0" d="M260.2,394c0.1,0,0.2,0.6,0.6,1.1s0.9,0.8,0.9,0.9c0,0.1-0.7,0-1.2-0.6C260,394.7,260.1,394,260.2,394z"/>
	<path class="st0" d="M263.6,393.3c0,0.1-0.6,0.1-1.2-0.3c-0.6-0.5-0.7-1.1-0.6-1.1s0.4,0.4,0.8,0.8
		C263.2,393,263.6,393.2,263.6,393.3z"/>
	<path class="st5" d="M255.7,395.7c0.1,0.1-0.2,0.6-0.3,1.3s0,1.2-0.2,1.3c-0.1,0-0.4-0.6-0.3-1.4S255.6,395.7,255.7,395.7z"/>
	<path class="st5" d="M220.3,293.7c0.8-0.7,2-0.8,2.9-0.3c1.5-0.4,3.1,0.2,3.9,1.6c1.7-0.3,3.3,0.8,3.6,2.5c0.1,0.5,0.1,1-0.1,1.5
		c1.4,0.3,2.3,1.6,2,3c-0.2,0.8-0.7,1.5-1.4,1.8c1.1,0.8,1.3,2.4,0.4,3.5c-0.7,0.9-2,1.2-3.1,0.7l-8.8-11.3
		C219.3,295.6,219.5,294.4,220.3,293.7z"/>
	<path class="st3" d="M228.8,307.8c1.5-5.2-1.3-10.7-6.4-12.7l-0.5-0.2c-5.6-1.7-10.2,2-11.7,7.7l-6.1,19.6l0,0l4.2,10.8l6.9-3.4
		l2-4.9c0,0,5.6,1.2,7.6-4.1C225.8,318.1,227.4,312.7,228.8,307.8z"/>
	<path class="st4" d="M217.2,325.1c-2.4-0.9-4.5-2.5-6.1-4.6c0,0,0.2,4.4,5.5,5.9L217.2,325.1z"/>
	<path class="st5" d="M225.4,312.6c-0.1,0.4-0.6,0.6-1,0.5c-0.4-0.1-0.6-0.6-0.5-1c0.2-0.4,0.6-0.6,1-0.5
		C225.3,311.7,225.5,312.1,225.4,312.6C225.4,312.5,225.4,312.6,225.4,312.6z"/>
	<path class="st5" d="M226.6,310.7c-0.1,0.1-0.5-0.6-1.3-0.9s-1.6-0.1-1.6-0.2c0-0.1,0.1-0.2,0.5-0.3c0.4-0.1,0.9-0.1,1.3,0.1
		c0.4,0.2,0.8,0.4,1,0.8C226.7,310.5,226.7,310.7,226.6,310.7z"/>
	<path class="st5" d="M218.4,310.4c-0.2,0.4-0.6,0.6-1,0.5c-0.4-0.1-0.6-0.5-0.5-0.9c0,0,0-0.1,0-0.1c0.1-0.4,0.6-0.6,1-0.5
		C218.2,309.5,218.5,309.9,218.4,310.4z"/>
	<path class="st5" d="M218.9,307.7c-0.1,0.1-0.5-0.6-1.3-0.9s-1.6-0.1-1.6-0.2c-0.1-0.1,0.1-0.2,0.5-0.3c0.9-0.2,1.8,0.1,2.4,0.9
		C219,307.5,219,307.7,218.9,307.7z"/>
	<path class="st5" d="M216.4,315.2c0.1,0,0.3,0.7,1,1.3s1.5,0.6,1.5,0.7s-0.2,0.2-0.5,0.1c-0.5,0-0.9-0.2-1.2-0.5
		c-0.4-0.3-0.6-0.7-0.7-1.1C216.3,315.5,216.3,315.2,216.4,315.2z"/>
	<path class="st5" d="M219.4,314.7c0.5,0,0.9,0.1,1.4,0.3c0.2,0.1,0.4,0.1,0.5,0c0.1-0.2,0.1-0.4,0.1-0.7c0-0.6,0-1.2,0-1.8
		c-0.1-1.5,0-3.1,0.2-4.6c0.2,1.5,0.3,3.1,0.2,4.6c0,0.6,0,1.2,0,1.8c0,0.3,0,0.6-0.2,0.8c-0.1,0.1-0.3,0.2-0.5,0.2
		c-0.1,0-0.2,0-0.4-0.1C220.2,315.1,219.8,314.9,219.4,314.7z"/>
	<path class="st5" d="M219.8,304.3c-0.1,0.2-0.8,0.1-1.7,0.1s-1.6,0.3-1.7,0c0-0.1,0.1-0.3,0.4-0.5c0.4-0.2,0.9-0.4,1.3-0.4
		c0.5,0,0.9,0.1,1.3,0.3C219.7,304,219.8,304.2,219.8,304.3z"/>
	<path class="st5" d="M227.3,308.5c-0.2,0.2-0.7-0.2-1.4-0.4c-0.7-0.2-1.3-0.2-1.4-0.5c0-0.1,0.1-0.3,0.4-0.4
		c0.8-0.2,1.7,0.1,2.2,0.7C227.3,308.2,227.4,308.4,227.3,308.5z"/>
	<path class="st5" d="M229.1,305.7c0,0-0.2-3.8-1.5-5.2c-1.6-1.7-3.2,0.1-4.8-1c-1.6-1.2-3.1-2.8-5.5-2.1c-2.6,0.8-2.1,2.2-3.1,4.5
		c-4.1,9.3-6.8,11.3-5.6,6.6c0.1-0.5-1.1-1.4-0.5-3.5c0.7-2.8,1.8-6,3.2-7.7c1.1-1.4,2.4-2.2,4.5-2.8c3.3-1,6.9,0.3,9.2,1.5
		C227.3,297.1,230.9,301.7,229.1,305.7z"/>
	<path class="st3" d="M209.1,308.6c0.3-0.8-0.2-1.7-0.9-1.9c0,0-0.1,0-0.1,0c-1-0.3-2.3-0.1-3,1.9c-1.2,3.6,2.7,4.1,2.7,4
		S208.5,310.1,209.1,308.6z"/>
	<path class="st4" d="M207.4,310.9c0,0-0.1,0-0.2,0c-0.2,0-0.3,0-0.5-0.2c-0.4-0.5-0.5-1.1-0.2-1.7c0.1-0.3,0.3-0.6,0.5-0.8
		c0.1-0.2,0.4-0.3,0.6-0.3c0.2,0,0.3,0.1,0.3,0.3c0,0.1,0,0.2,0,0.2c0,0,0.1,0,0.1-0.2c0-0.1,0-0.2-0.1-0.3
		c-0.1-0.1-0.2-0.2-0.3-0.2c-0.3,0-0.6,0.1-0.9,0.3c-0.3,0.3-0.5,0.6-0.6,0.9c-0.3,0.7-0.1,1.4,0.4,1.9c0.2,0.1,0.4,0.2,0.6,0.1
		C207.4,311,207.4,310.9,207.4,310.9z"/>
	<path class="st5" d="M211.7,301.6c0.3,0.5,0.7,1,1.3,1.3c0.5,0.3,1.2,0.2,1.6-0.3c0.1-0.2,0.2-0.5,0.4-0.7c0.2-0.1,0.6,0.1,0.9,0.2
		c1,0.5,2.3,0.2,3-0.7c0.2,0.5,0.7,0.8,1.2,0.6c0.5-0.2,0.9-0.4,1.4-0.7c0.4-0.3,1-0.3,1.5-0.2c0.3,0.1,0.4,0.4,0.7,0.5
		c0.5,0.1,0.9-0.3,1.2-0.8c0.2-0.4,0.5-1,1-1.1c0.5-0.1,0.9,0.2,1.3,0.4c0.4,0.2,1,0.3,1.3-0.1c0.1-0.2,0.2-0.5,0.1-0.7
		c-0.3-1.1-1.3-1.9-2.4-1.9c0.1-1.9-1.3-3.5-3.1-3.6c-0.9-0.1-1.8,0.2-2.5,0.8c-0.9-1.7-2.9-2.3-4.6-1.5c-0.4,0.2-0.7,0.4-0.9,0.7
		c-1.1-0.8-2.7-0.5-3.5,0.6c-0.4,0.5-0.5,1.2-0.4,1.8c-0.8,0.1-1.5,0.6-1.9,1.3c-0.3,0.7,0,1.5,0.7,1.8c0.1,0,0.1,0,0.2,0.1
		c-0.6,0.5-0.6,1.4-0.1,1.9c0.5,0.5,1.3,0.6,1.9,0.2"/>
	<path class="st0" d="M210,299.4c-0.1,0.2-0.1,0.5,0,0.8c0.1,0.3,0.3,0.6,0.6,0.7c0.3,0.2,0.8,0.2,1.1,0.1l-0.1-0.1
		c0.1,0.4,0.2,0.8,0.4,1.2c0.1,0.2,0.3,0.5,0.5,0.6c0.6,0.5,1.3,0.5,2,0.1c0.2-0.2,0.4-0.4,0.6-0.6c0.1-0.1,0.1-0.2,0.1-0.3
		c0,0-0.1,0.1-0.2,0.2c-0.2,0.2-0.4,0.4-0.6,0.6c-0.8,0.4-1.7,0.2-2.1-0.6c0,0,0-0.1-0.1-0.1c-0.2-0.3-0.3-0.7-0.4-1.1v-0.1
		l-0.1,0.1c-0.3,0.1-0.7,0.1-1-0.1c-0.2-0.1-0.4-0.3-0.5-0.6C210,299.9,209.9,299.7,210,299.4z"/>
	<path class="st0" d="M219.8,293.7c0,0,0.1,0.1,0.2,0.2c0.2,0.2,0.3,0.4,0.4,0.7v0.1l0.1,0c0.7-0.4,1.5-0.7,2.3-0.7
		c0.5,0,1,0,1.5,0.2c0.5,0.2,1,0.6,1.4,1c0.3,0.4,0.5,0.8,0.6,1.2c0.1,0.4,0.1,0.8,0,1.2v0.1h0.1c0.6,0,1.1,0.3,1.5,0.7
		c0.3,0.3,0.5,0.7,0.5,1.2c0,0.4,0,0.8-0.2,1.2c0.1-0.1,0.1-0.2,0.2-0.3c0.1-0.3,0.2-0.6,0.1-0.9c0-0.5-0.2-0.9-0.5-1.3
		c-0.4-0.5-0.9-0.8-1.5-0.8l0.1,0.1c0.1-0.4,0.1-0.9,0-1.3c-0.1-0.5-0.3-0.9-0.6-1.3c-0.4-0.5-0.9-0.9-1.5-1.1
		c-0.5-0.2-1.1-0.3-1.6-0.2c-0.8,0.1-1.6,0.4-2.3,0.8h0.1c-0.1-0.3-0.2-0.5-0.5-0.7C220,293.8,219.9,293.7,219.8,293.7z"/>
	<path class="st5" d="M205.1,461.5L205.1,461.5l0.8,13c0,0,10.3,11.3,9.5,13.6l-24.1-9.9l0.9-1.9l2.4-5.2l-2.2-9.3L205.1,461.5z"/>
	<path class="st6" d="M197.1,472.5c-0.5-0.1-1,0.3-1.1,0.8c-0.1,0.5,0.3,1,0.8,1.1c0.2,0,0.4,0,0.6-0.1c0.5-0.3,0.7-0.9,0.4-1.4
		c-0.1-0.1-0.1-0.2-0.2-0.3c-0.2-0.1-0.4-0.2-0.6-0.2"/>
	<path class="st5" d="M191.3,478.2l0.9-1.9l22.8,10.2c0,0,0.9,0.9,0.5,1.6L191.3,478.2z"/>
	<path class="st0" d="M207,475.9c-0.1,0.1-0.7-0.1-1.4,0.1c-0.7,0.1-1.3,0.5-1.3,0.4c-0.1-0.1,0.4-0.7,1.3-0.9
		S207.1,475.8,207,475.9z"/>
	<path class="st0" d="M208.8,477.9c0,0.1-0.6,0.1-1.2,0.5c-0.6,0.3-0.9,0.8-1,0.7c-0.1-0.1,0.1-0.7,0.8-1.2
		C208.2,477.6,208.9,477.9,208.8,477.9z"/>
	<path class="st0" d="M208.7,481.6c-0.1,0,0-0.7,0.5-1.2s1.2-0.5,1.2-0.4c0,0.1-0.5,0.3-0.9,0.7S208.9,481.6,208.7,481.6z"/>
	<path class="st0" d="M205.8,472.6c-0.1,0.1-0.6,0-1.4,0c-0.7,0-1.3,0.3-1.3,0.2s0.5-0.6,1.3-0.6
		C205.3,472.1,205.9,472.5,205.8,472.6z"/>
	<path class="st5" d="M174.9,369.7c-1.5,2.4-2.5,5.1-3.1,7.9c-0.7,3.7-0.5,7.6,0.7,11.3c1,2.8,14.3,38.9,14.3,38.9l1.5,19l4.6,23.8
		l14.4-0.7c0,0-1.3-37.5-1.9-43c-0.6-5.9-8.7-42.4-8.7-42.4l5.3-13.1l-24.5-8.2L174.9,369.7z"/>
	<path class="st0" d="M215.2,486.9c0,0.1-5.2-2.2-11.6-5.1c-6.4-2.9-11.5-5.4-11.5-5.5c0-0.1,5.2,2.2,11.6,5.1
		C210.2,484.3,215.3,486.8,215.2,486.9z"/>
	<path class="st0" d="M207.3,470c-2.4,0.3-4.8,0.5-7.2,0.5c-2.4,0.2-4.8,0.2-7.2,0.1c2.4-0.3,4.8-0.5,7.2-0.5
		C202.5,469.9,204.9,469.9,207.3,470z"/>
	<path class="st6" d="M218.2,326.4l-0.8-1.8c-5.4-2.2-9.3-4.5-12.6-4.4l-2.5,2.5c-2.9,1.8-8.7,4.7-10.3,6.9l-7.1,13.8l-9.9,23.1
		c-0.9,1.4-2.9,3.5-0.7,5.6l19.7,2.2l7,0.1c1.5-0.2,5.2,0.9,5.6-1.5c0.8-4.1,13.7-31.6,14.7-35.2l-0.4-5.9L218.2,326.4z"/>
	<path class="st7" d="M220.6,337.6c-1.5,3.9-2.5,9.9-8,13.5c-3,2-7.5,3.2-10.9,4.3c-4.1,1.3-9.5,2.9-9.5,2.9l-3.5,6.3l6.1,0.8
		c0,0,7.2-2.3,10.1-3.5c6.1-2.5,4-1.7,6.1-3.1c3-1.9,7.2-7.5,10.2-21.6"/>
	<path class="st5" d="M206.1,327.2c-0.6,0-1.3,0-1.9,0c-1.2-0.1-2.8-0.1-4.6,0c-1.5,0.1-3,0.3-4.5,0.6c-0.6,0.2-1.2,0.3-1.9,0.4
		c0,0,0.2-0.1,0.5-0.2c0.4-0.2,0.9-0.3,1.3-0.4c1.5-0.4,3-0.6,4.6-0.7c1.5-0.1,3.1,0,4.6,0.1C204.8,327,205.5,327.1,206.1,327.2z"/>
	<path class="st5" d="M216.3,324.3c-0.7-0.1-1.4-0.2-2.1-0.3c-1.3-0.2-3.1-0.6-5.1-0.8c-1.7-0.2-3.4-0.3-5.1-0.3
		c-1.3,0-2.1,0.1-2.1,0.1c0-0.1,0.2-0.1,0.6-0.1c0.5-0.1,1-0.1,1.6-0.2c1.7-0.1,3.5,0,5.2,0.2c1.7,0.2,3.4,0.5,5.1,0.9
		C214.9,323.8,215.6,324,216.3,324.3z"/>
	<path class="st0" d="M191.9,329.5c0,0.2-0.1,0.3-0.2,0.4l-0.6,1.2c-0.6,1.1-1.3,2.7-2.2,4.6c-1.9,3.9-4.4,9.3-7.2,15.2
		c-1.4,3-2.8,5.8-4,8.3c-0.6,1.3-1.3,2.5-1.9,3.6s-1.2,2.1-1.6,3.1c-0.4,0.9-0.7,1.8-0.8,2.7c-0.1,0.7,0,1.4,0.1,2.1
		c0.2,0.6,0.4,1.2,0.8,1.7c-0.1-0.1-0.2-0.2-0.3-0.4c-0.3-0.4-0.5-0.8-0.6-1.3c-0.2-0.7-0.3-1.4-0.2-2.2c0.1-1,0.4-1.9,0.8-2.8
		c0.4-1,1-2,1.6-3.2c0.6-1.1,1.2-2.3,1.8-3.6c1.3-2.6,2.6-5.4,4-8.4c2.8-5.9,5.3-11.3,7.3-15.2c1-1.9,1.8-3.5,2.4-4.5l0.7-1.2
		C191.7,329.8,191.8,329.6,191.9,329.5z"/>
	<path class="st5" d="M186.4,397c1,0.3,35.2-13,35.2-13l29,22.1l2.1,0.9l4.7-13.1c0,0-20.3-20.1-27.2-26.7c-1.8-1.7-5.3-3.5-8.4-3
		c-7.2,1-34.6,10.2-34.6,10.2L186.4,397z"/>
	<path class="st8" d="M188,394c2.3,1.5,5,2.3,7.7,2.3l3.4-0.3l-0.7-3.1C198.5,392.8,190.3,394.4,188,394z"/>
	<path class="st0" d="M204,391c-0.2,0.1-0.4,0.3-0.7,0.3c-0.4,0.2-1.1,0.4-1.9,0.7c-2.1,0.8-4.2,1.4-6.4,1.8
		c-2.2,0.4-4.4,0.6-6.6,0.4c-0.4,0-0.8-0.1-1.1-0.2c-0.3-0.1-0.6-0.1-0.8-0.2c-0.3,0-0.5-0.1-0.7-0.2c0-0.1,1,0.2,2.7,0.3
		c2.2,0.1,4.4-0.1,6.6-0.5c2.2-0.4,4.3-1,6.4-1.6C203,391.2,204,390.9,204,391z"/>
	<path class="st0" d="M222.1,379.1c0,0.8-0.1,1.6-0.2,2.5c-0.1,1.4,0.1,2.5-0.1,2.5C221.4,382.4,221.4,380.7,222.1,379.1z"/>
	<polygon class="st3" points="241.9,297.8 237.4,304.8 246.3,308.4 250.1,298.4 244.5,296.3 	"/>
	<path class="st3" d="M238.1,291.8c-0.2-0.4-0.3-0.9-0.2-1.3c0.3-0.6,0.7-1.1,1.2-1.5c0,0,0.4,2.2,0.3,2.2L238.1,291.8z"/>
	<path class="st3" d="M242.2,299.2l-3.3-5.3l0.2-4.4c0,0-0.2-3.3,1.4-3.8c0,0,0.9-0.5,1.5,0.1c0,0,0.2-0.8,1.4-0.8l0.9,0.5
		c0,0,0.6-0.7,1.2-0.7c0.5,0.1,0.9,0.3,1.3,0.7c0,0,0.3-0.6,1.3-0.4c0.9,0.3,2,2,2.2,2.6c0.6,2.2,1,4.5,1.1,6.8
		c-0.1,1.3-1.5,4.4-1.5,4.4L242.2,299.2z"/>
	<path class="st1" d="M239.4,289.8c0,0-1.6,1.5-1.9,1.9c-0.3,0.7-0.6,1.3-0.8,2c-0.2,0.5-0.9,1.1-0.4,1.5c0.6,0.3,1.4,0.2,1.8-0.3
		c0.7-1.1,1.3-2.2,1.8-3.4L239.4,289.8z"/>
	<path class="st1" d="M237.4,294.9c-0.4,0.6-0.5,1.3-0.4,2c0.2,0.7,0.8,1.1,1.5,1c0,0.7,0.5,1.3,1.2,1.4c0.1,0,0.2,0,0.3,0
		c0,0-0.4,0.5,0.4,0.8l2.3-3c0,0,0.3-0.3,0.3-1.2c0-0.6-0.3-1.7-1.2-1.4c0,0-0.1-1.1-0.9-1.4s-1,0.3-1,0.3c-0.2-0.3-0.5-0.4-0.8-0.4
		C238.5,293.1,237.4,294.9,237.4,294.9z"/>
	<path class="st6" d="M206,338.2c-2.5-2.8-2.6-7-0.1-9.8c0.4-0.5,1-0.9,1.5-1.2c3.8-2.1,22.4-8.9,22.4-8.9l9.5-18.2l10.1,2.3
		c0,0-7.5,23-13.1,26.4c-6.4,3.9-17.5,10-21.5,11.2"/>
	<path class="st5" d="M214.9,340.1c0.1,0,0.2-0.1,0.2-0.1c0.2-0.1,0.4-0.2,0.7-0.3c0.6-0.3,1.6-0.7,2.8-1.3
		c2.4-1.2,5.9-2.9,10.1-5.3c2.1-1.2,4.4-2.5,6.9-4c0.6-0.3,1.2-0.8,1.7-1.3c0.5-0.5,1-1.1,1.4-1.7c0.9-1.3,1.7-2.6,2.4-4
		c1.6-3,3-6.1,4.2-9.3c1.3-3.3,2.6-6.8,3.8-10.4l0.1,0.2l-6.6-1.5l-3.4-0.8l0.2-0.1c-3.4,6.5-6.6,12.6-9.5,18.2v0.1H230
		c-5.1,1.8-9.8,3.6-13.9,5.2c-2.1,0.8-4,1.6-5.8,2.4c-0.9,0.4-1.7,0.8-2.5,1.2c-0.7,0.4-1.4,0.9-1.9,1.6c-0.9,1.1-1.4,2.5-1.5,3.9
		c-0.1,1.1,0.1,2.1,0.5,3.1c0.3,0.8,0.8,1.6,1.3,2.3c0,0,0,0-0.1-0.1c-0.1-0.1-0.2-0.2-0.3-0.4c-1.5-2-2-4.6-1.1-7
		c0.3-0.7,0.7-1.4,1.1-2c0.5-0.7,1.2-1.3,2-1.7c0.8-0.4,1.6-0.8,2.5-1.2c1.8-0.8,3.7-1.6,5.8-2.4c4.2-1.6,8.8-3.4,13.9-5.3l-0.1,0.1
		c2.9-5.6,6.1-11.8,9.5-18.3l0.1-0.1h0.1l3.4,0.8l6.6,1.5l0.2,0.1l-0.1,0.2c-1.2,3.6-2.5,7.1-3.8,10.4c-1.3,3.2-2.7,6.3-4.2,9.3
		c-0.7,1.4-1.6,2.8-2.5,4.1c-0.4,0.6-0.9,1.2-1.5,1.8c-0.5,0.5-1.1,1-1.8,1.3c-2.5,1.5-4.8,2.8-6.9,4c-4.3,2.3-7.7,4.1-10.2,5.2
		c-1.2,0.6-2.2,0.9-2.9,1.2c-0.3,0.1-0.6,0.2-0.7,0.3L214.9,340.1z"/>
	<path class="st5" d="M290.9,268.8c-1.6,1-23.1,16.5-24.9,21.7c-1.8,5.3,5,43.5,5,43.5l15.3-0.7l-4.1-36.3l30.6-18.1l2.1-18.9
		L290.9,268.8z"/>
	<path class="st5" d="M309,276.6l17.2,18.5c0,0,2.4,8.4,4.4,13.9c2,5.5,5.4,14.7,5.4,14.7l3.7,12.2l12-2.6c0,0-4.5-19.5-5.6-27
		c-0.9-5.3-2.2-10.6-3.9-15.7l-9.5-24l-10.3-13.6L309,276.6z"/>
	<path class="st8" d="M281.8,275.5c0,0,13.4,5.1,17.9,4.2s11.9-11.9,11.9-11.9l10.9,11.1l13.2-4.8l-1.1-4.3c0,0-19-4.9-19-5
		c0-0.1-6.9,0-6.9,0l-11.5,7.9l-12.4,0.2L281.8,275.5z"/>
	<path class="st5" d="M346.9,323.8l4,12.5l6,9c0.4,0.6,0.2,1.5-0.4,1.9c0,0-0.1,0-0.1,0l0,0c-0.4,0.2-0.8,0.2-1.2,0.1
		c-2.5-1.2-11.5-5.5-12-6.5c-0.4-1-5-12.9-5-12.9L346.9,323.8z"/>
	<path class="st6" d="M356.4,347.2l-13.5-7.2l0.2,0.5c0.2,0.5,0.5,0.8,0.9,1.1c1.1,0.7,4.2,2.4,11.2,5.7
		C355.5,347.5,356,347.5,356.4,347.2L356.4,347.2z"/>
	<path class="st9" d="M351.7,342.8c0.3-1,1.1-1.8,2.1-2.1c0,0-0.2-0.1-0.5,0c-0.4,0.1-0.8,0.3-1,0.6c-0.3,0.3-0.5,0.7-0.6,1
		C351.6,342.6,351.7,342.8,351.7,342.8z"/>
	<path class="st9" d="M353.2,344.1c0.1,0,0.3-0.5,0.9-0.9c0.4-0.2,0.8-0.4,1.2-0.6c-0.5-0.1-1,0-1.3,0.3
		C353.2,343.5,353.1,344.1,353.2,344.1z"/>
	<path class="st9" d="M349.3,341.2c0.4-0.5,0.8-1,1.3-1.5c0.5-0.4,1.1-0.7,1.7-1.1C350.9,338.8,349.7,339.8,349.3,341.2L349.3,341.2
		z"/>
	<path class="st9" d="M347.8,337.5c0.1,0.1,0.6-0.5,1.5-0.8c0.9-0.3,1.7-0.4,1.7-0.5c-0.6-0.1-1.2-0.1-1.8,0.2
		C348.6,336.6,348.1,337,347.8,337.5z"/>
	<path class="st0" d="M278.4,294.4c0.8,0,1.7,0.3,2.3,0.8c0.7,0.4,1.3,1,1.7,1.7c-0.1,0.1-0.8-0.7-1.9-1.5
		C279.4,294.7,278.3,294.5,278.4,294.4z"/>
	<path class="st0" d="M339.3,297.1c0,0-0.2,0.3-0.8,0.7c-0.7,0.5-1.5,0.8-2.4,0.9c-0.8,0.1-1.7,0.1-2.5-0.1c-0.4-0.1-0.7-0.2-1-0.4
		c1.1,0.2,2.3,0.2,3.5,0.1C337.2,298.1,338.3,297.7,339.3,297.1z"/>
	<path class="st5" d="M274,323.9l0.5,11.6c0,0-11.6,4.4-11.7,6.6l22.5-0.2l-0.9-16.5L274,323.9z"/>
	<path class="st6" d="M285.3,341.8l-0.1-1.8l-21.5,0.9c0,0-1,0.4-0.9,1.2L285.3,341.8z"/>
	<path class="st9" d="M274.1,335.4c0,0.1,0.6,0.2,1.1,0.5c0.5,0.3,0.8,0.8,0.9,0.8c0.1,0-0.1-0.7-0.7-1.1S274.1,335.3,274.1,335.4z"
		/>
	<path class="st9" d="M271.8,336.4c0,0.1,0.5,0.3,0.8,0.7c0.4,0.4,0.5,1,0.6,0.9s0.2-0.6-0.3-1.2
		C272.4,336.3,271.8,336.3,271.8,336.4z"/>
	<path class="st9" d="M270.5,339.2c0.1,0,0.2-0.5,0-1.1s-0.8-0.8-0.9-0.7c-0.1,0.1,0.3,0.4,0.5,0.9
		C270.4,338.7,270.4,339.2,270.5,339.2z"/>
	<path class="st7" d="M272.9,238.3l14.4,20.1l5.8,4.2l-1.7,4.5l-8.1,7.2c0,0,13.5,5.6,18.5,2.4c5-3.2,9.7-11.1,9.7-11.1l12.2,11.6
		l15.3-6.1c0,0-6.7-13.3-15.9-21l-5.5-16.9l-10.2-15.6l-12.4,4L277.3,234L272.9,238.3z"/>
	<path class="st9" d="M284.4,230.7c0.8,0,10.1,5.4,10.1,5.4l2-11.6l-1.5-2.7l3,1.1l4.8,4.7l12,19c-0.9,4.8-3.8,12-3.9,14.6
		c0,0-12.8-1.1-15.7-7.3s-9.2-17.5-9.2-17.5L284.4,230.7z"/>
	<path class="st7" d="M297.2,243.3c0,1,3.4,15.6,6.2,16.3c2.8,0.8,7.2,1.5,7.2,1.5v-7l-11.4-13.3l-0.3-3.6l-4.2-0.5l-1,5.2
		L297.2,243.3z"/>
	<path class="st7" d="M276.5,235.6c0,0-2.8,2.5-3.6,2.7s-3.8,8.3-3.8,8.3l-7.6,19l-13.4,17.9l7.6,7c0,0,16.9-17.1,18.1-21.7
		l8.3-17.3L276.5,235.6z"/>
	<path class="st5" d="M311.5,264.9c0,0,0.7-0.7,1.7-2s2.4-3,3.9-5l3.7-5.2c0.5-0.7,0.9-1.2,1.2-1.5c0.1-0.2,0.3-0.4,0.5-0.5
		c-0.4,0.8-0.9,1.5-1.4,2.2c-0.9,1.4-2.2,3.2-3.6,5.2c-1.2,1.7-2.6,3.4-4,5c-0.5,0.6-1,1.1-1.4,1.4
		C311.7,264.8,311.5,264.9,311.5,264.9z"/>
	<path class="st5" d="M302.7,262.2c-0.7,0-1.4-0.1-2.1-0.3c-1.3-0.2-3.1-0.6-5.1-1.1c-2-0.5-3.7-1.1-5-1.5c-0.7-0.2-1.4-0.5-2-0.8
		c0.7,0.1,1.4,0.3,2.1,0.6c1.3,0.4,3,0.9,5,1.5s3.7,0.9,5,1.3C301.3,261.8,302,262,302.7,262.2z"/>
	<path class="st5" d="M276.1,243.9c0.2,0.1,0.4,0.3,0.5,0.5c0.3,0.4,0.7,0.9,1.3,1.5c1,1.3,2.5,3.1,4,5.1c1.6,2,2.9,3.8,3.9,5.1
		c0.5,0.7,0.9,1.2,1.2,1.6c0.2,0.2,0.3,0.4,0.4,0.6c-0.2-0.2-0.4-0.3-0.5-0.5c-0.3-0.3-0.7-0.9-1.3-1.5c-1-1.3-2.5-3.1-4-5.1
		c-1.6-2-2.9-3.8-3.9-5.1c-0.5-0.7-0.9-1.2-1.2-1.6C276.3,244.4,276.2,244.2,276.1,243.9z"/>
	<path class="st5" d="M301.5,226.4c0.1,0.9,0.1,1.7,0,2.6c0,1.6-0.1,3.8-0.2,6.2c0,0.8-0.1,1.6-0.1,2.4v0.2H301
		c-1.8-0.2-3.4-0.4-4.5-0.6c-0.6,0-1.2-0.2-1.8-0.3c0.6,0,1.2,0,1.8,0.1c1.1,0.1,2.7,0.2,4.5,0.4l-0.2,0.2c0-0.7,0.1-1.6,0.1-2.4
		c0.1-2.4,0.2-4.6,0.3-6.2C301.2,228.1,301.3,227.3,301.5,226.4z"/>
	<path class="st5" d="M287.1,238.5c0.6,0.3,1.2,0.6,1.8,1c1.1,0.6,2.5,1.6,4.1,2.6l0.7,0.5l-0.3,0.1c0.4-1.6,0.7-3.1,0.9-4.1
		c0.1-0.6,0.2-1.1,0.4-1.7c0,0.6,0,1.2-0.2,1.7c-0.2,1.4-0.5,2.8-0.8,4.2l-0.1,0.2l-0.2-0.1l-0.7-0.5c-1.6-1-3-2-4-2.7
		C288.1,239.4,287.6,238.9,287.1,238.5z"/>
	<path class="st7" d="M307.3,217.7c0,0,3.4-1.1,5.1-0.3c3.4,1.6,25.6,13.5,26.6,14.2c0.9,0.6,13,20.1,13,20.1l-8.3,5.1l-11.8-16.2
		l-21.5-8.1c0,0-3.3-4.2-3.8-7.7C306.4,222.4,306.6,220,307.3,217.7z"/>
	<path class="st5" d="M317.5,233.3c0.3,0.8,0.6,1.5,0.9,2.3l2,5.6c1.6,4.4,2.8,8,2.7,8.1c-0.1-0.2-0.2-0.4-0.3-0.6
		c-0.2-0.5-0.4-1-0.7-1.7c-0.5-1.5-1.3-3.4-2.1-5.6c-0.8-2.2-1.5-4.2-1.9-5.7c-0.2-0.7-0.4-1.3-0.5-1.8
		C317.5,233.7,317.5,233.5,317.5,233.3z"/>
	<path class="st5" d="M313.2,228.5c-0.4-0.3-0.8-0.6-1.1-1c-0.8-0.9-1.5-1.9-2-3c-0.6-1.1-1-2.2-1.3-3.3c-0.2-0.5-0.3-1-0.3-1.5
		c0.6,1.6,1.2,3.1,1.9,4.6C311.3,225.8,312.2,227.2,313.2,228.5z"/>
	<path class="st5" d="M309.8,263.9c-0.6,0.2-1.3,0.3-2,0.3c-1.6,0.2-3.2,0.2-4.8,0.2c-1.6,0-3.2-0.2-4.8-0.5
		c-0.7-0.1-1.3-0.2-1.9-0.4c0.7,0,1.3,0.1,2,0.2c1.2,0.1,2.9,0.3,4.7,0.3c1.8,0.1,3.5,0,4.8-0.1
		C308.4,263.9,309.1,263.9,309.8,263.9z"/>
	<path class="st5" d="M297.3,222.6h0.3c0.3,0,0.6,0.1,0.9,0.1c1.1,0.3,2.2,0.7,3.2,1.3c3.4,2.1,6.5,4.8,9.1,7.8l0.1,0.1l-0.1,0.1
		c-0.5,0.5-1,1-1.6,1.6l-0.1-0.3h2.1l0,0.1c0.6,1.7,1.3,3.5,2,5.3c0.8,2,1.6,4,2.3,5.9l0,0v0c-0.3,2.7-1,5.3-2,7.8c-0.8,2-1.4,4-2,6
		c-0.3,1.4-0.5,2.8-0.5,4.2c0,1,0.1,1.5,0.1,1.5c0-0.1-0.1-0.2-0.1-0.4c-0.1-0.4-0.1-0.7-0.1-1.1c-0.1-1.4,0-2.8,0.3-4.2
		c0.5-2.1,1.1-4.1,1.9-6.1c1-2.5,1.7-5.1,1.9-7.7v0.1c-0.7-1.9-1.5-3.9-2.3-5.9c-0.7-1.8-1.4-3.6-2-5.3l0.2,0.1h-2.4l0.3-0.3
		l1.6-1.6v0.2c-2.6-3-5.6-5.7-8.9-7.9c-1-0.6-2-1.1-3.1-1.4C297.7,222.7,297.3,222.6,297.3,222.6z"/>
	<path class="st5" d="M283,252c-1.6,0.3-3.2,0.4-4.9,0.5c-1.6,0.1-3.3,0.2-4.9,0.1c1.6-0.3,3.3-0.4,4.9-0.5
		C279.8,251.9,281.4,251.9,283,252z"/>
	<path class="st5" d="M300,259.5c-0.1,0-0.2,0-0.3-0.1c-0.3-0.1-0.6-0.1-0.9-0.2c-1.1-0.3-2.1-0.8-3.1-1.4c-1.5-0.9-2.8-2-4-3.2
		c-1.4-1.3-2.9-2.9-4.4-4.6l-0.1-0.1l0.1-0.1c0.6-0.6,1.1-1.4,1.8-2.1l0.2,0.3l-0.6,0.3l-2.2,1.2l-0.2,0.1l-0.1-0.2
		c-1.2-3.9-2.1-7.8-2.7-11.9c-0.2-1.5-0.3-2.8-0.4-3.6c0-0.4,0-0.7-0.1-1c0-0.1,0-0.2,0-0.3c0,0.1,0.1,0.2,0.1,0.3l0.1,1
		c0.1,0.8,0.3,2.1,0.5,3.6c0.6,4,1.6,7.9,2.8,11.8l-0.3-0.1l2.2-1.2l0.6-0.3l1.1-0.6l-0.8,0.9c-0.6,0.7-1.2,1.5-1.8,2.1v-0.3
		c1.5,1.7,3,3.3,4.4,4.7c1.2,1.2,2.5,2.3,3.9,3.2C297.1,258.4,298.5,259,300,259.5z"/>
	<path class="st5" d="M310.7,261.1c-0.7,0-1.4,0-2.1-0.2c-1.7-0.2-3.3-0.6-4.9-1.1c-1.6-0.5-3.2-1.2-4.6-2c-0.6-0.3-1.2-0.7-1.7-1.2
		c0-0.1,0.7,0.4,1.8,1c1.5,0.8,3,1.4,4.6,1.9C307.6,260.7,310.7,261,310.7,261.1z"/>
	<g class="st10">
		<path d="M312.5,264.1c5.1-1.5,8.6-6.1,8.6-11.4"/>
	</g>
	<g class="st10">
		<path d="M303.7,225.3c3.2,1.6,6,4,8.1,6.9c-0.3,0.1-0.5,0.3-0.6,0.6l1.1,0.3c0.8,3.1,1.5,6.3,2.3,9.4l-3.6-9.2l-1.7,0.2l1.6-1.5
			c-2-1.7-3.8-3.6-5.4-5.7"/>
	</g>
	<polyline class="st8" points="289.1,239.8 294.7,245 295.6,237.8 302.4,238.3 301.5,229.5 301,236.9 294.7,236.6 293.6,242.7 	"/>
	<polygon class="st8" points="318.1,235.4 316.1,229.5 320.2,236.2 	"/>
	<path class="st5" d="M335.6,234.5c-0.6,0.4-1.1,0.9-1.5,1.5c-0.3,0.6-0.6,1.3-0.7,1.9c0,0-0.1-0.2-0.1-0.6c0.1-1.1,0.7-2,1.7-2.5
		C335.3,234.5,335.5,234.4,335.6,234.5z"/>
	<path class="st5" d="M274.9,201c-0.9-0.5-2.1-0.4-2.8,0.3c-1.6-0.1-3,0.9-3.5,2.3c-1.7,0.1-3,1.5-2.9,3.1c0,0.5,0.2,1,0.4,1.4
		c-1.3,0.6-1.8,2.1-1.3,3.3c0.3,0.7,1,1.2,1.7,1.4c-0.8,1-0.7,2.6,0.4,3.4c0.9,0.7,2.2,0.7,3,0l6.1-12.7
		C276.3,202.6,275.8,201.5,274.9,201z"/>
	<path class="st1" d="M269.9,216.8c-2.5-4.7-1-10.6,3.5-13.5l0.4-0.3c5-2.8,10.2-0.2,12.9,4.9l8.3,13.8l1.5,2.7l-1.7,11.4l-9-3.4
		l-1.3-1.9c0,0-5.1,2.3-8.1-2.3C274.9,226,272.3,221.2,269.9,216.8z"/>
	<path class="st2" d="M284.5,230.5c2.1-1.4,3.8-3.4,4.9-5.7c0,0,0.7,4.3-4.1,6.8L284.5,230.5z"/>
	<path class="st5" d="M274,220.2c0.2,0.4,0.7,0.5,1.1,0.3c0.4-0.2,0.5-0.6,0.3-1c0,0,0,0,0-0.1c-0.2-0.4-0.7-0.5-1.1-0.3
		C274,219.4,273.8,219.8,274,220.2C274,220.2,274,220.2,274,220.2z"/>
	<path class="st5" d="M272.5,218.7c0.1,0,0.4-0.7,1.1-1.1c0.7-0.5,1.5-0.4,1.5-0.6s-0.2-0.2-0.5-0.2c-0.4,0-0.9,0.1-1.3,0.3
		c-0.4,0.2-0.7,0.6-0.8,1C272.4,218.5,272.4,218.7,272.5,218.7z"/>
	<path class="st5" d="M280.3,216.6c0.2,0.4,0.7,0.5,1.1,0.3c0.4-0.2,0.5-0.6,0.3-1c0,0,0,0,0-0.1c-0.2-0.4-0.7-0.5-1.1-0.3
		C280.2,215.7,280.1,216.2,280.3,216.6C280.3,216.6,280.3,216.6,280.3,216.6z"/>
	<path class="st5" d="M279.2,214.2c0.1,0,0.4-0.7,1.1-1.1s1.5-0.4,1.5-0.6c0-0.1-0.2-0.2-0.5-0.2c-0.4,0-0.9,0.1-1.3,0.3
		c-0.4,0.2-0.7,0.6-0.8,1C279.1,214,279.1,214.2,279.2,214.2z"/>
	<path class="st5" d="M280.3,221c-0.5,0.1-0.9,0.3-1.3,0.5c-0.2,0.1-0.4,0.2-0.5,0.1c-0.1-0.2-0.2-0.4-0.2-0.6
		c-0.1-0.6-0.2-1.1-0.4-1.7c-0.3-1.5-0.6-2.9-1.1-4.4c0.1,1.5,0.4,3,0.8,4.5c0.1,0.6,0.3,1.2,0.4,1.7c0,0.3,0.2,0.6,0.4,0.8
		c0.1,0.1,0.3,0.1,0.5,0.1c0.1,0,0.2-0.1,0.3-0.2C279.5,221.6,279.9,221.3,280.3,221z"/>
	<path class="st5" d="M277.9,212.2c0.2,0.1,0.7-0.4,1.5-0.9c0.7-0.5,1.5-0.7,1.5-0.9c0-0.1-0.3-0.2-0.6-0.2c-0.5,0-0.9,0.2-1.3,0.4
		c-0.4,0.2-0.7,0.6-0.9,1C277.8,211.9,277.8,212.1,277.9,212.2z"/>
	<path class="st5" d="M271.4,216.7c0.2,0.1,0.6-0.4,1.3-0.7c0.6-0.4,1.2-0.5,1.2-0.7c0-0.1-0.2-0.2-0.5-0.3c-0.4,0-0.8,0.1-1.2,0.3
		c-0.4,0.2-0.6,0.5-0.8,0.9C271.3,216.4,271.3,216.6,271.4,216.7z"/>
	<path class="st5" d="M269,214.4c0,0-0.6-3.7,0.3-5.3c1.2-1.9,3.1-0.5,4.4-2s2.4-3.3,4.9-3.1c2.7,0.2,2.5,1.7,3.9,3.6
		c5.8,8,8.9,9.4,6.8,5.2c-0.2-0.5,0.7-1.6-0.3-3.5c-1.3-2.5-3.1-5.4-4.7-6.7c-1.4-1.1-3.1-1.7-4.9-1.7c-3.4-0.2-6.5,1.8-8.5,3.3
		C268.9,205.8,266.5,210.9,269,214.4z"/>
	<path class="st1" d="M288.9,212.9c-0.4-0.7-0.2-1.6,0.5-2c0,0,0,0,0.1,0c0.9-0.5,2.2-0.6,3.3,1.2c1.9,3.2-1.7,4.5-1.8,4.4
		C290.9,216.4,289.7,214.3,288.9,212.9z"/>
	<path class="st2" d="M290.9,214.8c0,0,0.1,0,0.2,0c0.2,0,0.3-0.1,0.4-0.2c0.3-0.5,0.2-1.1-0.1-1.6c-0.2-0.3-0.4-0.5-0.6-0.7
		c-0.2-0.2-0.4-0.2-0.7-0.2c-0.2,0-0.3,0.2-0.2,0.4c0,0.1,0.1,0.2,0.1,0.2s-0.1,0-0.2-0.2c0-0.1,0-0.2,0-0.3c0-0.1,0.1-0.2,0.3-0.3
		c0.3-0.1,0.6-0.1,0.9,0.1c0.3,0.2,0.6,0.5,0.7,0.8c0.4,0.6,0.4,1.3,0,1.9c-0.1,0.2-0.4,0.2-0.6,0.2
		C291,214.9,290.9,214.9,290.9,214.8z"/>
	<path class="st5" d="M284.8,206.9c-0.2,0.6-0.5,1.1-0.9,1.5c-0.5,0.4-1.1,0.4-1.6,0c-0.2-0.2-0.3-0.5-0.5-0.6
		c-0.3-0.1-0.6,0.2-0.8,0.4c-0.9,0.7-2.2,0.6-3-0.1c-0.1,0.5-0.5,0.9-1.1,0.8c-0.5-0.1-1-0.2-1.5-0.4c-0.5-0.2-1-0.1-1.5,0.2
		c-0.2,0.2-0.3,0.5-0.6,0.6c-0.4,0.2-1-0.1-1.3-0.5s-0.7-0.8-1.2-0.8s-0.8,0.4-1.2,0.7c-0.3,0.3-0.9,0.5-1.2,0.2
		c-0.2-0.2-0.2-0.4-0.2-0.7c0-1.1,0.8-2.1,1.9-2.3c-0.5-1.8,0.5-3.6,2.3-4.1c0.8-0.2,1.7-0.1,2.5,0.3c0.5-1.8,2.3-2.9,4.1-2.4
		c0.4,0.1,0.7,0.3,1.1,0.5c0.9-1,2.4-1.1,3.4-0.2c0.5,0.4,0.7,1,0.8,1.6c0.8-0.1,1.6,0.2,2.1,0.9c0.4,0.6,0.3,1.4-0.3,1.8
		c-0.1,0-0.1,0.1-0.2,0.1c0.6,0.4,0.8,1.2,0.4,1.9c-0.3,0.6-1.1,0.8-1.7,0.5"/>
	<path class="st2" d="M282.8,221c0-0.1,0.1-0.1,0.2-0.2c0.1,0,0.2,0,0.2,0.1c0.5,0.4,0.9,1,0.8,1.6l0,0c-0.1,0.7-0.7,1.2-1.4,1.1
		c-0.2,0-0.4-0.1-0.5-0.2l-0.6-0.4L282.8,221z"/>
	<path class="st5" d="M282.4,223.6c0.3,0.1,0.7,0.1,1-0.1c0.2-0.1,0.3-0.2,0.4-0.4c0.1-0.2,0.2-0.4,0.2-0.6c0-0.5-0.2-1-0.5-1.3
		c-0.1-0.1-0.1-0.2-0.2-0.3c-0.1-0.1-0.2-0.2-0.4-0.2c-0.2,0-0.3,0.1-0.3,0.3l-0.2,0.3l-0.5,1c-0.2,0.3-0.3,0.6-0.4,0.9
		c0.2-0.3,0.4-0.5,0.6-0.9l0.6-1c0.1-0.2,0.2-0.4,0.3-0.4c0.1,0,0.3,0.2,0.4,0.4c0.3,0.3,0.4,0.8,0.4,1.2c0,0.2-0.1,0.4-0.2,0.5
		c-0.1,0.1-0.2,0.3-0.3,0.3C283.1,223.5,282.8,223.6,282.4,223.6z"/>
	<path class="st0" d="M286.1,204.3c0.2,0.2,0.2,0.5,0.2,0.7c0,0.3-0.2,0.6-0.4,0.8c-0.3,0.3-0.7,0.4-1.1,0.3l0.1-0.1
		c0,0.4,0,0.8-0.1,1.2c-0.1,0.3-0.2,0.5-0.3,0.7c-0.4,0.6-1.2,0.8-1.8,0.5c-0.3-0.1-0.5-0.3-0.7-0.5c-0.1-0.1-0.2-0.2-0.2-0.2
		c0,0,0.1,0.1,0.2,0.2c0.2,0.2,0.4,0.3,0.7,0.4c0.8,0.2,1.7-0.3,1.9-1.1c0,0,0-0.1,0-0.1c0.1-0.4,0.1-0.7,0.1-1.1v-0.1h0.1
		c0.3,0.1,0.7,0,0.9-0.3c0.2-0.2,0.3-0.4,0.4-0.7C286.2,204.8,286.1,204.5,286.1,204.3z"/>
	<path class="st0" d="M275.4,201c0,0-0.1,0.1-0.2,0.2c-0.1,0.2-0.2,0.5-0.2,0.7v0.1l-0.1,0c-0.7-0.3-1.5-0.4-2.3-0.2
		c-0.5,0.1-1,0.3-1.5,0.5c-0.5,0.3-0.8,0.7-1.1,1.3c-0.2,0.4-0.3,0.8-0.3,1.3c0,0.4,0.1,0.8,0.3,1.2l0.1,0.1l-0.1,0
		c-0.5,0.2-1,0.5-1.2,1c-0.2,0.4-0.3,0.8-0.2,1.2c0.1,0.4,0.2,0.7,0.4,1.1c0,0-0.1-0.1-0.2-0.2c-0.2-0.2-0.3-0.5-0.3-0.8
		c-0.1-0.5,0-0.9,0.2-1.3c0.3-0.5,0.7-0.9,1.3-1.1l-0.1,0.1c-0.2-0.4-0.3-0.8-0.3-1.3c0-1.1,0.6-2.1,1.5-2.7c0.5-0.3,1-0.5,1.5-0.5
		c0.8-0.1,1.6,0,2.4,0.3l-0.1,0.1c0-0.3,0.1-0.6,0.3-0.8C275.3,201,275.4,201,275.4,201z"/>
</g>
</svg>
