<?xml version="1.0" encoding="utf-8"?>
<!-- Generator: Adobe Illustrator 22.0.0, SVG Export Plug-In . SVG Version: 6.00 Build 0)  -->
<svg version="1.1" id="Diplomas" opacity="0.5" xmlns="http://www.w3.org/2000/svg" xmlns:xlink="http://www.w3.org/1999/xlink"
	 x="0px" y="0px" viewBox="0 0 500 500" style="enable-background:new 0 0 500 500;" xml:space="preserve">
<style type="text/css">
	.st0{opacity:0.3;fill:#407BFF;}
	.st1{fill:#FFFFFF;}
	.st2{fill:#407BFF;}
	.st3{opacity:0.2;}
	.st4{fill:#263238;}
	.st5{fill:#7F3E3B;}
	.st6{fill:#630F0F;}
	.st7{fill:#CE7A63;}
	.st8{opacity:0.1;fill:#FFFFFF;}
	.st9{fill:#BA4D3C;}
</style>
<g>
	<path class="st0" d="M419.4,321c-0.7-4.2-1.7-8.4-3-12.5l1-0.3c1.2,4.1,2.3,8.4,3,12.6L419.4,321z"/>
	<path class="st0" d="M413.3,299.4c-3.2-8-7.4-15.7-12.4-22.8l0.8-0.6c5.1,7.2,9.3,14.9,12.5,23L413.3,299.4z"/>
	<path class="st0" d="M416.8,359.3c10.7-59.1-29-115.7-88.5-125.5c-57.4-9.5-112.5,28.8-123.5,86c-7.6,39.6,7.4,78.1,35.9,102.5
		c8.2,7,11.9,18,10,28.6l-1.3,7.1c-2,11.1,5.4,21.7,16.5,23.7l37.3,6.7c11.1,2,21.7-5.4,23.8-16.5l1.3-7.1
		c1.9-10.7,9.3-19.6,19.6-23.4C382.5,428.7,409.8,398.4,416.8,359.3z"/>
	
		<ellipse transform="matrix(0.9997 -2.352452e-02 2.352452e-02 0.9997 -6.5969 6.5402)" class="st1" cx="274.7" cy="283.7" rx="28.2" ry="28.2"/>
	
		<ellipse transform="matrix(0.9576 -0.2881 0.2881 0.9576 -64.2495 104.0214)" class="st1" cx="321.2" cy="270.3" rx="10.4" ry="10.4"/>
</g>
<g>
	<g>
		<g>
			<path class="st2" d="M156.7,287.3c-0.4,2.1-1,4.5-1.4,6.8c-0.5,2.3-0.8,4.6-1.2,6.8c-0.3,2.2-0.6,4.5-0.7,6.5c-0.1,1,0,2,0,2.8
				c0,0.8,0.2,1.5,0.1,1.6L153,311c-0.2-0.2-0.6-0.4-0.6-0.3c-0.1,0.1,0.2,0.2,0.6,0.4c0.9,0.2,2.4,0.3,4,0.2c1.6-0.1,3.3-0.4,5-0.7
				c1.7-0.3,3.5-0.7,5.2-1.1l0.3-0.1c2-0.4,3.9,0.8,4.3,2.8c0.3,1.4-0.3,2.8-1.3,3.6c-1.7,1.3-3.4,2.4-5.2,3.4
				c-1.8,1-3.7,1.9-5.8,2.6c-2.1,0.7-4.4,1.3-7.3,1.3c-1.4,0-3.1-0.2-4.9-0.9c-1.8-0.7-3.7-2.1-5-3.9c-0.1-0.2-0.3-0.4-0.4-0.6
				l-0.1-0.2c-1.1-2.2-1.5-3.9-1.8-5.5c-0.3-1.6-0.4-3.1-0.4-4.6c-0.1-2.9,0-5.6,0.3-8.2c0.2-2.6,0.6-5.2,1.1-7.8
				c0.5-2.6,1-5,1.7-7.7c1-3.8,5-6.1,8.9-5.1c3.7,1,5.9,4.7,5.2,8.4L156.7,287.3z"/>
			<path class="st3" d="M156.7,287.3c-0.4,2.1-1,4.5-1.4,6.8c-0.5,2.3-0.8,4.6-1.2,6.8c-0.3,2.2-0.6,4.5-0.7,6.5c-0.1,1,0,2,0,2.8
				c0,0.8,0.2,1.5,0.1,1.6L153,311c-0.2-0.2-0.6-0.4-0.6-0.3c-0.1,0.1,0.2,0.2,0.6,0.4c0.9,0.2,2.4,0.3,4,0.2c1.6-0.1,3.3-0.4,5-0.7
				c1.7-0.3,3.5-0.7,5.2-1.1l0.3-0.1c2-0.4,3.9,0.8,4.3,2.8c0.3,1.4-0.3,2.8-1.3,3.6c-1.7,1.3-3.4,2.4-5.2,3.4
				c-1.8,1-3.7,1.9-5.8,2.6c-2.1,0.7-4.4,1.3-7.3,1.3c-1.4,0-3.1-0.2-4.9-0.9c-1.8-0.7-3.7-2.1-5-3.9c-0.1-0.2-0.3-0.4-0.4-0.6
				l-0.1-0.2c-1.1-2.2-1.5-3.9-1.8-5.5c-0.3-1.6-0.4-3.1-0.4-4.6c-0.1-2.9,0-5.6,0.3-8.2c0.2-2.6,0.6-5.2,1.1-7.8
				c0.5-2.6,1-5,1.7-7.7c1-3.8,5-6.1,8.9-5.1c3.7,1,5.9,4.7,5.2,8.4L156.7,287.3z"/>
		</g>
		<path class="st2" d="M134.3,464c0,0-4.6-5.6-4.4-7.4l-5.3-3l-3.5,5.4l4.3,2.5l0.8-0.2l0.5,1c2.6,1.5,5.1,2.8,7.2,3.1
			C134.6,464.6,134.3,464,134.3,464z"/>
		<path class="st4" d="M139.7,394c3.9-28.2,2.7-45.4,6.8-59.3l25.6-2.1c0,0-11.4,44.8-16.6,63.4c-5.2,18.7-25.2,61.3-25.2,61.3l-7-4
			C123.4,453.3,132.8,415.8,139.7,394z"/>
		<path d="M160.6,353.5c-1.7,4-5.1,29.9-5.1,42.8c0-0.1,0.1-0.2,0.1-0.3c1.8-6.6,4.4-16.3,7-26.3L160.6,353.5z"/>
		<path class="st2" d="M180.9,463.6c0,0-10.8-1.6-11.6-3.3l-6.7,0l0.3,6.4h3.7l0.6-0.6l0.9,0.6c3,0,11.7-0.8,13.4-2
			C181.4,463.8,180.9,463.6,180.9,463.6z"/>
		<path class="st4" d="M162.4,394.8c-5.6-38.2-5.6-61.9-5.6-61.9l25.1-0.4c0,0-3,45.6-4.1,64.7c-1.1,19.9-7.3,63.6-7.3,63.6h-8.7
			C161.8,460.7,159.8,419.3,162.4,394.8z"/>
		<path class="st5" d="M158.9,260.9c-1.2,5-2,11.5-3.5,15.3c2.5,2.4,6.6,5.3,12.1,5.2c5.5-0.1,4.5-3.8,3-5.7c-3.9-2-4.1-4-3.1-5.7
			L158.9,260.9z"/>
		<path class="st1" d="M150.3,277.4c0,0,3.3-2.9,4.7-3.6c1.4-0.7,12-0.5,14.4,0c2.5,0.5,5.5,4.1,5.5,4.1L150.3,277.4z"/>
		<path class="st4" d="M176.2,260.3c-0.1,0.5,0.1,1,0.4,1c0.3,0.1,0.7-0.3,0.8-0.8c0.1-0.5-0.1-1-0.4-1
			C176.6,259.4,176.3,259.8,176.2,260.3z"/>
		<path class="st6" d="M176,260.9c0,0,0.5,3.1,1.4,4.7c-1.1,0.6-2.5-0.1-2.5-0.1L176,260.9z"/>
		<path class="st4" d="M177.9,257.4c-0.1,0.1-0.2,0.1-0.3,0c-1.2-0.5-2.1,0-2.1,0.1c-0.1,0.1-0.3,0.1-0.4-0.1
			c-0.1-0.1-0.1-0.3,0.1-0.4c0.1,0,1.2-0.8,2.7-0.1c0.1,0.1,0.2,0.2,0.2,0.4C178,257.3,177.9,257.4,177.9,257.4z"/>
		<path class="st5" d="M159.8,255.2c-1,6.1-1.9,9.7,0.5,13.5c3.6,5.7,11.7,4.5,14.5-1.2c2.5-5.2,3.7-14.3-1.7-18
			C167.8,245.8,160.8,249.1,159.8,255.2z"/>
		<path class="st4" d="M169.8,264.2c-6.6,4.1-10.6,3.1-12.2,0.7c-2.7-3.9,0-6.1,0-6.1c-3.2,0.1-4.1-5.4-1.9-7.3
			c-2-2.1-0.7-6.7,2.7-5.9c-0.3-3.4,5.1-6.8,10.3-3.2c4.2-2.2,10.1-0.6,11.6,3.3c1.4,3.9-0.7,5.6-0.7,5.6c1.3,1.4-1,5.6-5.1,5.4
			c-0.7,2.2-1,3.9-3.6,4C170.3,263.5,171,263.2,169.8,264.2z"/>
		<path class="st5" d="M168.2,260.3c-0.4,1.4-0.2,2.9,0.4,3.8c0.8,1.5,2.4,0.8,3.2-0.8c0.7-1.4,1.1-3.9-0.2-4.8
			C170.3,257.6,168.7,258.6,168.2,260.3z"/>
		<g>
			<path class="st2" d="M150.7,276.7c8.5-1,20.5-0.9,28.5,0.4c4.1,0.7,7.1,4.1,7.4,8.2c1,12.2-1.7,33.4-4,54.9
				c-18.8,6.3-37.8-0.1-37.8-0.1c-0.4-4.3,1.9-18.5,3.4-26c-1.1-7.8-3.8-16.7-5.3-27.1C142,281.9,145.6,277.3,150.7,276.7z"/>
		</g>
		<path class="st3" d="M176.2,293.7c1.3,7.3,5.3,16.1,9,21.8c0.5-5.1,0.9-9.9,1.2-14.3L176.2,293.7z"/>
		<g>
			<path class="st5" d="M223.9,301.3l-1.9-0.7c-0.7-0.3-1.5-0.2-2.1,0.2l-2.9,1.9c-1.2,0.8-1.9,2.1-1.9,3.5l0,0.9
				c3,1.4,7.3,0.7,7.3,0.7l1.2-0.1c1.1-0.1,1.9-0.9,1.9-2l-0.1-2.5C225.3,302.4,224.7,301.7,223.9,301.3z"/>
			<path class="st2" d="M185.5,282.3c1,2,2,4.2,3.1,6.2c1,2.1,2.1,4.1,3.2,6.1c1.1,2,2.3,3.9,3.4,5.6c0.6,0.8,1.2,1.6,1.7,2.2
				c0.5,0.6,1.1,1.1,1.1,1.2l-0.8-0.3c0.4,0.3,1.6,0.6,2.9,0.6c1.4,0,3,0,4.6-0.3c1.6-0.2,3.3-0.5,5-0.8c1.7-0.3,3.5-0.8,5.1-1.1
				l0.3-0.1c2-0.4,3.9,0.9,4.3,2.8c0.3,1.4-0.3,2.8-1.3,3.6c-1.7,1.3-3.3,2.3-5,3.4c-1.7,1-3.6,1.9-5.5,2.7c-2,0.7-4,1.4-6.3,1.8
				c-2.3,0.4-4.9,0.6-8.1-0.3c-0.2-0.1-0.4-0.1-0.5-0.2l-0.3-0.1c-2.2-1-3.5-2.2-4.8-3.3c-1.2-1.1-2.2-2.2-3.1-3.3
				c-1.8-2.2-3.4-4.4-4.8-6.7c-1.4-2.2-2.7-4.5-3.9-6.8c-1.2-2.3-2.3-4.6-3.3-7.1c-1.5-3.7,0.2-7.9,3.9-9.4c3.5-1.5,7.6,0.1,9.2,3.5
				L185.5,282.3z"/>
		</g>
	</g>
	<g>
		<rect x="106.4" y="466.7" class="st4" width="85.8" height="7"/>
		<rect x="96.4" y="504.7" class="st4" width="85.8" height="7"/>
		<rect x="86.4" y="542.7" class="st4" width="85.8" height="7"/>
		<rect x="190.3" y="466.7" class="st4" width="1.9" height="83"/>
		<polygon class="st4" points="167.5,549.7 169.4,549.7 188.4,466.7 186.4,466.7 		"/>
		<rect x="116.8" y="466.7" class="st4" width="1.9" height="83"/>
		<polygon class="st4" points="94,549.7 96,549.7 114.9,466.7 113,466.7 		"/>
	</g>
</g>
<g>
	<path class="st7" d="M450.4,350.5c0.6,0.8,1,1.5,1.5,2.3c0.4,0.7,0.9,1.5,1.3,2.2c0.8,1.5,1.5,3,2.2,4.6c0.7,1.6,1.3,3.1,1.9,4.8
		c0.3,0.8,0.5,1.6,0.8,2.4l0.3,1.2c0.1,0.4,0.2,0.7,0.4,1.5c0.2,1.3,0.2,2.4,0,3.4c-0.2,1-0.4,2-0.7,2.8c-0.6,1.8-1.3,3.4-2.1,4.9
		c-1.7,3-3.5,5.8-5.7,8.4c-0.6,0.8-1.8,0.9-2.5,0.2c-0.6-0.5-0.8-1.4-0.5-2.1l0-0.1c0.7-1.4,1.4-2.8,2-4.3c0.7-1.4,1.3-2.9,1.8-4.3
		c0.5-1.4,1-2.9,1.3-4.2c0.3-1.3,0.3-2.7,0.1-3.3l-0.7-1.9c-0.3-0.7-0.6-1.4-0.9-2.1c-0.6-1.4-1.3-2.8-1.9-4.2
		c-0.7-1.4-1.4-2.8-2.1-4.1c-0.4-0.7-0.7-1.3-1.1-2l-1.1-1.9l-0.1-0.2c-1-1.7-0.5-3.9,1.2-4.9C447.2,348.5,449.3,348.9,450.4,350.5z
		"/>
	<path class="st7" d="M449,394.8l1.5-1.2c0.6-0.4,0.9-1.1,0.8-1.8l-0.2-3.3c-0.1-1.3-0.8-2.5-1.9-3.2l-0.7-0.4
		c-2.6,1.8-4.1,5.5-4.1,5.5l-0.5,1c-0.5,0.9-0.2,2,0.7,2.5l2,1.1C447.4,395.4,448.3,395.3,449,394.8z"/>
	<path class="st7" d="M440.9,331.3c-1,3.7-2.2,10.4,0.2,12.9c0,0,1.8,3.4-9,2.9c-7.6-0.4-2.4-2.9-2.4-2.9c4.2-1,4.3-4,3.8-6.9
		L440.9,331.3z"/>
	<g>
		<path class="st7" d="M456.9,485l7-2.6c0.6,5.4,2.8,13.7,2.8,13.7l-4.9,2.1C461.8,498.3,458.5,488.3,456.9,485z"/>
		<path class="st4" d="M460.6,506.4c3.8-2.8,3.5-2.6,5.5-4.2c1.8-1.4,2.3-1.5,3.8-2.6c1.2-0.9,0.4-2.1-0.9-3.2
			c-0.5-0.4-1.1-0.9-1.8-1.5c-0.4-0.4-1-0.4-1.4-0.1l-4.4,3.2c-0.3,0.2-0.5,0.6-0.5,1c0,1.9-0.8,4-2.6,5.7
			C456.5,506.4,459.1,507.5,460.6,506.4z"/>
		<path class="st2" d="M426.5,383.2c0,0,7.4,38.1,13.1,55.9c6,18.6,14.8,39.4,18.8,51.5c1.2,0.2,4.8-1.3,6.5-2.8
			c0,0-2.6-31.9-11.7-48.3c0.9-48-8.2-56.3-8.2-56.3H426.5z"/>
		<path class="st3" d="M440.2,397.4l-7.6,14.5c1.7,7.6,3.7,15.5,5.5,22C443.6,418.5,440.2,397.4,440.2,397.4z"/>
		<g>
			<path class="st4" d="M456.9,488.3c0.2,0.6,0.4,1.7,0.5,2.5c0,0.3,0.3,0.5,0.6,0.4c2.7-0.7,6.3-2.8,7.4-3.5
				c0.2-0.1,0.3-0.4,0.3-0.6l-0.3-2.4c0-0.3-0.4-0.5-0.7-0.4l-7.4,3.2C457,487.7,456.8,488,456.9,488.3z"/>
			<path class="st8" d="M456.9,488.3c0.2,0.6,0.4,1.7,0.5,2.5c0,0.3,0.3,0.5,0.6,0.4c2.7-0.7,6.3-2.8,7.4-3.5
				c0.2-0.1,0.3-0.4,0.3-0.6l-0.3-2.4c0-0.3-0.4-0.5-0.7-0.4l-7.4,3.2C457,487.7,456.8,488,456.9,488.3z"/>
		</g>
	</g>
	<g>
		<path class="st7" d="M420.3,488.3l6.7,0.5c-1.1,5.4-2.3,13.9-2.3,13.9h-5.4C419.4,502.7,420.4,492,420.3,488.3z"/>
		<path class="st4" d="M413.8,508c4.7,0,4.3-0.1,6.9-0.2c2.2-0.1,2.8,0.2,4.6,0.2c1.5,0,1.4-1.5,1-3.1c-0.2-0.6-0.4-1.4-0.7-2.3
			c-0.1-0.5-0.6-0.9-1.2-0.9H419c-0.4,0-0.8,0.2-1,0.5c-1,1.6-2.8,2.7-5.2,3C410.3,505.6,411.9,508,413.8,508z"/>
		<path class="st2" d="M420.7,383.2c0,0-0.8,33.2-1.6,53.9c-0.8,20.7,0.9,57.2,0.9,57.2c0.2,1,5.4,0.6,6.3,0c0,0,10.1-29.6,6.2-55.2
			c13.5-33.2,9.6-55,9.6-55L420.7,383.2z"/>
		<g>
			<path class="st4" d="M419.3,491.5c0,0.7-0.1,1.9-0.1,2.8c0,0.3,0.2,0.6,0.5,0.6c2.2,0.3,5.8,0,7-0.1c0.2,0,0.4-0.2,0.5-0.4
				l0.5-2.4c0.1-0.3-0.2-0.7-0.5-0.7l-7.2-0.3C419.5,491,419.3,491.2,419.3,491.5z"/>
			<path class="st8" d="M419.3,491.5c0,0.7-0.1,1.9-0.1,2.8c0,0.3,0.2,0.6,0.5,0.6c2.2,0.3,5.8,0,7-0.1c0.2,0,0.4-0.2,0.5-0.4
				l0.5-2.4c0.1-0.3-0.2-0.7-0.5-0.7l-7.2-0.3C419.5,491,419.3,491.2,419.3,491.5z"/>
		</g>
	</g>
	<path class="st7" d="M443.7,377.4c0,1.8,0.7,5.8,0.7,5.8H421l-0.2-6C420.7,377.2,438.8,376.2,443.7,377.4z"/>
	<path class="st4" d="M418.5,353c-0.1,2.3-0.2,5.3,0.2,10.8c0.2,4.7-0.7,5.9,0,13.6c2.6,1.5,19.5,1.4,27.8,0.4
		c-0.5-6.7-1.1-11.2,3.4-26.2c1-3.5-1.3-6.8-5-7.2c-1-0.1-2.1-0.2-3.1-0.2c-4.2-0.2-7.7-0.3-11.4,0c-1.2,0.1-2.5,0.3-3.8,0.4
		C422.1,345.2,418.6,348.8,418.5,353z"/>
	<path class="st1" d="M390,337.7c0.1,3-0.2,7.4-2.1,11.2c-0.4,0.8-0.3,1.9,0.3,2.6c3.6,4.8,10.3,3.1,13,2.2c0.7-0.3,1.3-0.8,1.6-1.6
		c1.2-3.5,2.3-7.8,1.3-12.4c-0.1-0.3-0.2-0.7-0.4-1c-2.2-2.7-7.2-3-10.7-3.6C391.4,334.9,390,336.2,390,337.7z"/>
	<g>
		<path class="st1" d="M407,326c-3.1,0.7-3.6,1.2-4.1,5.1c-0.5-3.9-1-4.4-4.1-5.1c3.1-0.7,3.6-1.2,4.1-5.1
			C403.4,324.8,403.8,325.3,407,326z"/>
	</g>
	<g>
		<path class="st1" d="M386.2,340.4c-1.9,0.4-2.2,0.7-2.5,3.2c-0.3-2.4-0.6-2.7-2.5-3.2c1.9-0.4,2.2-0.7,2.5-3.2
			C384,339.7,384.3,340,386.2,340.4z"/>
	</g>
	<path class="st7" d="M399.8,338.6l1,1.6c0.4,0.6,0.5,1.3,0.2,2l-1.2,3.1c-0.5,1.2-1.5,2.1-2.8,2.5l-0.8,0.2
		c-1.9-2.5-2.1-6.6-2.1-6.6l-0.2-1.2c-0.2-1,0.5-2,1.5-2.1l2.3-0.4C398.5,337.5,399.3,337.9,399.8,338.6z"/>
	<path class="st7" d="M421.1,355.7c-0.2,0.3-0.3,0.4-0.5,0.5l-0.4,0.4c-0.3,0.3-0.6,0.5-0.8,0.7c-0.6,0.5-1.1,0.9-1.7,1.3
		c-1.2,0.8-2.3,1.4-3.6,2c-1.2,0.6-2.5,1.1-3.7,1.5c-1.3,0.4-2.5,0.7-3.8,1l-0.2,0c-0.2,0-0.3,0.1-0.5,0.1c-0.8,0-1.6-0.1-2.3-0.4
		c-0.7-0.3-1.3-0.6-1.7-1c-0.9-0.8-1.5-1.6-2-2.3c-1-1.5-1.6-3-2.1-4.5c-0.5-1.5-0.9-3-1.1-4.5c-0.3-1.5-0.5-2.9-0.6-4.5
		c-0.1-1,0.7-1.9,1.7-1.9c0.8-0.1,1.5,0.4,1.8,1.1l0,0.1c0.5,1.3,1,2.6,1.5,3.9c0.5,1.3,1.1,2.5,1.7,3.7c0.6,1.2,1.3,2.3,2,3.1
		c0.3,0.4,0.7,0.7,0.9,0.8c0.2,0.1,0.2,0,0,0l-0.7,0.1c1.1-0.4,2.1-0.8,3.1-1.2c1-0.4,2-0.9,2.9-1.4c0.9-0.5,1.8-1.1,2.7-1.7
		c0.4-0.3,0.8-0.6,1.2-0.9c0.2-0.2,0.4-0.3,0.5-0.5l0.2-0.2c0.1-0.1,0.2-0.2,0.1-0.1c1.3-1.5,3.6-1.6,5.1-0.3
		C422.3,352,422.5,354.2,421.1,355.7z"/>
	<path class="st4" d="M427.6,344.5c-4.7-0.1-9.6,2.6-16.9,8.6c-0.1,3.2,5.5,8.6,5.5,8.6S433.9,351.9,427.6,344.5z"/>
	<path class="st4" d="M429,324.5c-0.2,0.5-0.6,0.8-0.9,0.7c-0.3-0.1-0.4-0.5-0.3-1c0.2-0.5,0.6-0.8,0.9-0.7
		C429,323.6,429.1,324,429,324.5z"/>
	<path class="st4" d="M428.8,323.5l-1-0.7C427.8,322.9,428.1,324,428.8,323.5z"/>
	<path class="st9" d="M428.6,325.4c0,0-1.5,1.8-2.8,2.6c0.4,0.8,1.6,0.8,1.6,0.8L428.6,325.4z"/>
	<path class="st4" d="M429.7,320.5c-0.1,0-0.1-0.1-0.2-0.1c-0.1-0.1,0-0.3,0.1-0.4c1.4-0.9,2.7-0.3,2.7-0.3c0.1,0.1,0.2,0.2,0.1,0.4
		c-0.1,0.1-0.3,0.2-0.4,0.1c0,0-1-0.4-2.2,0.3C429.8,320.6,429.8,320.6,429.7,320.5z"/>
	<path class="st7" d="M445.3,327.2c-2.3,5.6-3.1,8-7,10.1c-5.8,3.2-12.2-0.4-11.7-6.5c0.5-5.5,4.1-13.7,10.5-14.4
		C443.5,315.8,447.6,321.6,445.3,327.2z"/>
	<path class="st4" d="M433.3,327.1c-3.3-4.9-0.5-7.4,0.9-8.2c-3.1-0.9-5.3-1.7-5.1-4.6c0.2-2.8,3.5-4.7,6-3.9
		c-0.7,0.6,2.5,4.5,5.1,3.3c2.6-1.2,7.7-0.4,9.8,3.4c2.2,3.9,1.5,11-4.1,14.2c2.1,3.3-4.8,7.8-9.7,6
		C431.4,335.5,429.3,328.7,433.3,327.1z"/>
	<path class="st1" d="M453.7,316c1.3,3.6-0.2,6.9-3.4,7.5c-2.9,0.6-6.6-1.1-6.9-4.5c-0.3-2.9,0.8-6.4,3.4-7.5
		C449.6,310.3,452.4,312.5,453.7,316z"/>
	<path class="st4" d="M464.4,314.6c0.4,5.9-3.9,10.2-9.8,9.8c-5.4-0.4-11-4.5-9.8-9.8c1-4.5,4.7-9.2,9.8-9.8
		C460.1,304.2,464,308.8,464.4,314.6z"/>
	<path class="st7" d="M434.7,327.4c-0.7,1.1-1.8,1.8-2.7,1.9c-1.4,0.2-1.8-1.4-1.2-2.9c0.6-1.4,2-3.1,3.3-2.7
		C435.3,324.2,435.5,326.1,434.7,327.4z"/>
	<path class="st4" d="M445.1,344.5c4.1,0.6,5.7,1.9,9.1,10.1c-1.5,3.1-8.6,6-8.6,6S440.8,349.9,445.1,344.5z"/>
	<path class="st4" d="M420.7,384.9c8.3,0.9,17,0.9,25.3-0.1c0.4,0,0.6-0.4,0.4-0.8c-0.2-0.5-0.4-1-0.6-1.5c-0.1-0.2-0.3-0.4-0.5-0.3
		c-8,0.9-16.3,0.9-24.3,0c-0.3,0-0.6,0.2-0.6,0.5c-0.1,0.5-0.1,1-0.2,1.5C420.2,384.6,420.4,384.9,420.7,384.9z"/>
</g>
</svg>
